<svg width="113" height="57" viewBox="0 0 113 57" fill="none" xmlns="http://www.w3.org/2000/svg">
<path fill-rule="evenodd" clip-rule="evenodd" d="M5.71997 0C2.04809 0 -3.05176e-05 2.67732 -3.05176e-05 5.9675V50.5134C-3.05176e-05 53.8068 2.03525 56.5 5.71997 56.5H106.32C111.415 56.5 113 53.8035 113 50.5134V5.9675C113 2.66263 111.402 0 106.77 0H5.71997Z" fill="#552200"/>
<path fill-rule="evenodd" clip-rule="evenodd" d="M12.5021 2.65459H100.153C105.396 2.65459 109.617 4.79295 109.617 9.29932V46.4715C109.617 53.942 105.396 54.6379 100.153 54.6379H12.5021C7.25908 54.6379 3.03817 53.9778 3.03817 46.4715V9.29932C3.03817 4.81474 7.25908 2.65459 12.5021 2.65459Z" fill="#FF6600"/>
<path fill-rule="evenodd" clip-rule="evenodd" d="M14.1541 4.3155H98.3393C103.375 4.3155 107.429 6.21102 107.429 8.56554V47.9279C107.429 50.2825 103.375 52.178 98.3393 52.178H14.1541C9.11845 52.178 5.06446 50.2825 5.06446 47.9279V8.56554C5.06446 6.21102 9.11845 4.3155 14.1541 4.3155Z" fill="#FF7F2A"/>
<path fill-rule="evenodd" clip-rule="evenodd" d="M14.0034 2.65459H96.4118C101.341 2.65459 105.31 3.8289 105.31 6.02136V6.87267C105.31 8.15899 101.341 9.29428 96.4118 9.29428H14.0034C9.074 9.29428 7.0121 8.16428 7.0121 6.87267V6.02136C7.0121 3.8199 9.074 2.65459 14.0034 2.65459Z" fill="#FFBD92" fill-opacity="0.470588"/>
<path fill-rule="evenodd" clip-rule="evenodd" d="M58.366 27.7423V34.0392H68.7822C68.3624 36.739 65.6337 41.9628 58.366 41.9628C52.0953 41.9628 46.9791 36.7705 46.9791 30.366C46.9791 23.9641 52.0953 18.7692 58.366 18.7692C61.9343 18.7692 64.3218 20.2909 65.6862 21.6028L70.6712 16.8014C67.4703 13.8104 63.3248 12 58.366 12C48.2122 12 40 20.2122 40 30.366C40 40.5198 48.2122 48.732 58.366 48.732C68.9658 48.732 76 41.2807 76 30.7858C76 29.5789 75.8662 28.6606 75.7088 27.7423H58.366Z" fill="#552200"/>
</svg>
