<?xml version="1.0" encoding="UTF-8" standalone="no"?>
<svg
   xmlns:dc="http://purl.org/dc/elements/1.1/"
   xmlns:cc="http://creativecommons.org/ns#"
   xmlns:rdf="http://www.w3.org/1999/02/22-rdf-syntax-ns#"
   xmlns:svg="http://www.w3.org/2000/svg"
   xmlns="http://www.w3.org/2000/svg"
   xmlns:sodipodi="http://sodipodi.sourceforge.net/DTD/sodipodi-0.dtd"
   xmlns:inkscape="http://www.inkscape.org/namespaces/inkscape"
   width="340.67426"
   height="85.400841"
   version="1.1"
   viewBox="0 0 90.136817 22.595877"
   id="svg352"
   sodipodi:docname="bamboo-frame-material.svg"
   inkscape:version="0.92.4 (5da689c313, 2019-01-14)">
  <metadata
     id="metadata356">
    <rdf:RDF>
      <cc:Work
         rdf:about="">
        <dc:format>image/svg+xml</dc:format>
        <dc:type
           rdf:resource="http://purl.org/dc/dcmitype/StillImage" />
        <dc:title></dc:title>
      </cc:Work>
    </rdf:RDF>
  </metadata>
  <sodipodi:namedview
     pagecolor="#ffffff"
     bordercolor="#666666"
     borderopacity="1"
     objecttolerance="10"
     gridtolerance="10"
     guidetolerance="10"
     inkscape:pageopacity="0"
     inkscape:pageshadow="2"
     inkscape:window-width="1366"
     inkscape:window-height="705"
     id="namedview354"
     showgrid="false"
     inkscape:pagecheckerboard="true"
     inkscape:showpageshadow="false"
     inkscape:snap-global="false"
     fit-margin-top="0"
     fit-margin-left="0"
     fit-margin-right="0"
     fit-margin-bottom="0"
     inkscape:zoom="0.70710678"
     inkscape:cx="33.88321"
     inkscape:cy="-119.63692"
     inkscape:window-x="-8"
     inkscape:window-y="-8"
     inkscape:window-maximized="1"
     inkscape:current-layer="svg352"
     showguides="false"
     inkscape:guide-bbox="true"
     inkscape:snap-bbox="true"
     inkscape:bbox-paths="true"
     inkscape:bbox-nodes="true"
     inkscape:snap-bbox-edge-midpoints="true"
     inkscape:snap-bbox-midpoints="true"
     inkscape:object-paths="true"
     inkscape:snap-intersection-paths="true"
     inkscape:snap-smooth-nodes="true"
     inkscape:snap-midpoints="true" />
  <defs
     id="defs60" />
  <path
     style="fill:#d0dd82;fill-opacity:0.58823529;stroke-width:0.45005208"
     inkscape:connector-curvature="0"
     id="path62"
     d="M 2.4802152,2.8239814 H 87.139568 V 20.472709 H 2.4802152 Z" />
  <text
     id="text66"
     xml:space="preserve"
     style="font-size:18.90999985px;line-height:1.25;font-family:'Arial Rounded MT Bold';font-variant-ligatures:normal;font-variant-position:normal;font-variant-caps:normal;font-variant-numeric:normal;font-variant-alternates:normal;font-feature-settings:normal;text-indent:0;text-decoration:none;text-decoration-line:none;text-decoration-style:solid;text-decoration-color:#000000;letter-spacing:0px;word-spacing:0px;text-transform:none;text-orientation:mixed;dominant-baseline:auto;white-space:normal;shape-padding:0;fill:#4d4d4d;stroke-width:0.47275001"
     word-spacing="0px"
     letter-spacing="0px"
     font-size="18.91px"
     dominant-baseline="auto"
     y="111.81458"
     x="19.142891"><tspan
       style="stroke-width:0.47275001"
       id="tspan64"
       y="128.85545"
       x="19.142891" /></text>
  <g
     transform="matrix(0,-1,-1,0,-0.72298213,28.912039)"
     id="g4200" />
  <path
     style="fill:#445000;fill-opacity:1;stroke-width:0.42861813"
     d="m 0.31075806,1.0775557 c -0.16777578,0.00774 -0.3320168,0.1298067 -0.3090283,0.4501064 0.03801799,0.5324297 0.45296416,1.5566712 0.10128687,2.651029 -0.067242,0.209244 0.010914,0.5184586 0.23357993,0.5281385 0.05961,0.00259 0.13072148,-0.016661 0.21084207,-0.064596 0.37903986,-0.22634 0.73282787,-0.3711358 1.55496017,-0.3720743 0.822133,0 11.1387582,-0.00646 11.6955332,-0.00723 0.556217,-3.439e-4 0.924054,0.2465279 1.139477,0.3751749 0.07288,0.043786 0.149969,0.067877 0.224795,0.06873 0.119665,0.00138 0.220046,-0.021178 0.29921,-0.064596 0.387079,-0.2122994 0.732828,-0.3711357 1.55496,-0.3720742 0.822133,0 11.138757,-0.00646 11.695534,-0.00723 0.556215,-3.44e-4 0.923538,0.2465278 1.138961,0.3751749 0.07288,0.043786 0.14997,0.067636 0.224795,0.06873 0.06814,0.00101 0.17882,-0.03194 0.237196,-0.064596 0.385288,-0.2155324 0.733346,-0.3711358 1.555478,-0.3720743 0.822133,0 11.13824,-0.00646 11.695016,-0.00723 0.556216,-3.439e-4 0.924054,0.2465279 1.139477,0.375175 0.07288,0.043786 0.150214,0.062627 0.224795,0.06873 0.09561,0.00782 0.189833,-0.029319 0.253217,-0.064596 0.385756,-0.2146968 0.732827,-0.3711357 1.55496,-0.3720742 0.822132,0 11.138242,-0.00646 11.695016,-0.00723 0.556218,-3.44e-4 0.924143,0.2463831 1.139477,0.3751749 0.07297,0.043642 0.150081,0.064555 0.224795,0.06873 0.0983,0.00549 0.220046,-0.021177 0.29921,-0.064596 0.387079,-0.2122994 0.733345,-0.3711358 1.555478,-0.3720743 0.822132,0 11.138242,-0.00646 11.695016,-0.00723 0.556218,-3.44e-4 0.924054,0.2465278 1.139477,0.3751749 0.07288,0.043786 0.150391,0.060754 0.224795,0.06873 0.07306,0.00783 0.178791,-0.031931 0.237199,-0.064596 0.385311,-0.2154882 0.732827,-0.3711357 1.554959,-0.3720742 0.822133,0 11.138758,-0.00646 11.695532,-0.00723 0.556218,-3.439e-4 0.923538,0.2465279 1.138961,0.3751749 0.07288,0.043786 0.150042,0.072131 0.224795,0.06873 0.145679,-0.00663 0.286179,-0.1254892 0.394813,-0.4242678 0.164287,-0.4519345 0.346904,-2.160428 -0.08888,-2.9419703 -0.108353,-0.1940658 -0.196839,-0.2580113 -0.275955,-0.2630358 -0.274871,-0.017456 -0.351318,0.2387476 -0.494549,0.2387476 -0.215286,0 -12.30603,-0.015503 -12.912525,-0.015503 -0.607048,4.339e-4 -1.037487,0.065528 -1.189087,-0.112139 -0.09107,-0.1025705 -0.20761,-0.1295579 -0.294042,-0.1090385 -0.235797,0.05598 -0.320414,0.2366806 -0.456308,0.2366806 -0.215286,0 -12.306033,-0.015503 -12.912528,-0.015503 -0.607045,4.34e-4 -1.037484,0.065528 -1.189087,-0.112139 -0.103816,-0.1026262 -0.220567,-0.1163021 -0.317294,-0.1111055 -0.275027,0.014776 -0.351836,0.2387476 -0.495067,0.2387476 -0.215286,0 -12.305514,-0.015503 -12.912009,-0.015503 -0.607048,4.339e-4 -1.037485,0.065528 -1.189087,-0.112139 -0.08909,-0.09611 -0.202758,-0.1162629 -0.288875,-0.110072 -0.259014,0.01862 -0.337591,0.2377141 -0.477494,0.2377141 -0.215288,0 -12.305517,-0.015503 -12.912011,-0.015503 -0.607046,4.34e-4 -1.038001,0.065528 -1.189603,-0.112139 -0.09077,-0.1020394 -0.202435,-0.1138973 -0.293008,-0.1090384 -0.242644,0.013017 -0.320777,0.2366805 -0.456824,0.2366805 -0.215289,0 -12.306032,-0.015503 -12.912528,-0.015503 -0.607046,4.339e-4 -1.037485,0.065528 -1.189087,-0.1121391 -0.103651,-0.1023951 -0.210502,-0.116332 -0.317296,-0.1111055 -0.275095,0.013463 -0.351835,0.2387477 -0.495066,0.2387477 -0.215286,0 -12.3060308,-0.015503 -12.9125255,-0.015503 C 1.1775386,1.301234 0.74710037,1.3663279 0.59549821,1.1886612 0.53491122,1.1178692 0.42201467,1.0724206 0.31075806,1.0775557 Z"
     id="path4167"
     inkscape:connector-curvature="0"
     sodipodi:nodetypes="ccccccccsscccsscccssccssscccsscccccccsccssccssccssccssccssccc" />
  <path
     style="fill:#2a3205;fill-opacity:1;stroke-width:0.42861813"
     d="M 2.8496478,0.00164104 C 2.2683479,0.01342891 1.7278796,0.09985069 1.5019124,0.18199369 1.2031338,0.29062568 1.0847912,0.43112779 1.0781612,0.57680579 c -0.0034,0.074754 0.024944,0.15191484 0.06873,0.22479485 0.128647,0.21542296 0.3755136,0.58326036 0.3751748,1.13947726 -7.8e-4,0.556775 -0.00723,7.529357 -0.00723,8.3514901 -9.393e-4,0.822132 -0.1462511,1.176437 -0.372591,1.555477 -0.047936,0.08012 -0.066669,0.150715 -0.064079,0.210326 3.27e-5,7.4e-4 4.762e-4,0.0013 5.159e-4,0.0021 -2.73e-5,5.3e-4 -4.921e-4,10e-4 -5.159e-4,0.0016 -0.0034,0.07475 0.024944,0.151915 0.06873,0.224795 0.128647,0.215423 0.3755136,0.583261 0.3751748,1.139478 -7.805e-4,0.556767 -0.00723,6.124821 -0.00723,6.946954 -9.393e-4,0.822132 -0.1462511,1.176437 -0.372591,1.555477 -0.047936,0.08012 -0.066669,0.150716 -0.06408,0.210325 0.00968,0.222666 0.3183778,0.300822 0.5276219,0.233581 1.0943577,-0.351677 2.1185992,0.06327 2.651029,0.101286 0.3202997,0.02299 0.4428833,-0.141252 0.4506232,-0.309028 0.00514,-0.111257 -0.040314,-0.22415 -0.1111055,-0.28474 -0.1776667,-0.151602 -0.1130897,-0.58204 -0.1126557,-1.189087 0,-0.606495 -0.014986,-7.948669 -0.014986,-8.163955 0,-0.09174 0.1046838,-0.15683 0.1757018,-0.263553 0.01905,-0.02479 0.030119,-0.05272 0.040308,-0.08113 0.00932,-0.02501 0.015708,-0.05233 0.019122,-0.08217 5.027e-4,-0.0055 0.00337,-0.01054 0.00362,-0.01602 3.704e-4,-0.0082 -0.0014,-0.01612 -0.00156,-0.02429 7.46e-5,-0.0096 0.0022,-0.01777 0.00156,-0.0279 -3.439e-4,-0.0053 -0.00323,-0.0111 -0.00414,-0.01654 -0.011732,-0.08679 -0.050889,-0.168009 -0.1069713,-0.21601 -0.1776667,-0.151602 -0.1130897,-0.58204 -0.1126558,-1.189087 0,-0.606495 -0.014986,-9.353197 -0.014986,-9.568483 0,-0.14323101 0.2562035,-0.22019546 0.2387477,-0.49506546 C 4.7024108,0.46771614 4.6379484,0.37923108 4.4438827,0.27087809 4.0531115,0.05298359 3.430948,-0.01014683 2.8496478,0.00164104 Z"
     id="path4186"
     inkscape:connector-curvature="0"
     sodipodi:nodetypes="scccccccccccccccccccscccccccccsccs" />
  <path
     style="fill:#2a3205;fill-opacity:1;stroke-width:0.42861813"
     d="m 88.244817,0.00215781 c -0.53243,0.038018 -1.556669,0.45296416 -2.651029,0.10128687 -0.209243,-0.067242 -0.517941,0.010914 -0.527622,0.23357994 -0.0026,0.05961 0.01614,0.13072147 0.06408,0.21084206 0.226341,0.37903986 0.371651,0.73282782 0.372591,1.55496022 0,0.8221329 0.0064,7.6329657 0.0072,8.1897411 2.64e-4,0.556217 -0.246528,0.924054 -0.375175,1.139477 -0.04379,0.07288 -0.07213,0.150041 -0.06873,0.224795 1.35e-4,0.003 0.0019,0.0058 0.0021,0.0088 -2.65e-4,0.0036 -0.0019,0.0066 -0.0021,0.01033 -0.0026,0.05961 0.01614,0.130722 0.06408,0.210842 0.22634,0.37904 0.371651,0.732829 0.37259,1.55496 0,0.822134 0.0064,6.656324 0.0072,7.213099 2.64e-4,0.556217 -0.246529,0.924055 -0.375176,1.139478 -0.04379,0.07288 -0.07213,0.150041 -0.06873,0.224795 0.0066,0.145678 0.12549,0.28618 0.424269,0.394812 0.451934,0.164286 2.159912,0.346904 2.941454,-0.08889 0.194066,-0.108353 0.258527,-0.196838 0.263552,-0.275955 0.01746,-0.27487 -0.238747,-0.351834 -0.238747,-0.495065 0,-0.215286 0.0155,-7.823597 0.0155,-8.430092 -5.29e-4,-0.607047 -0.06552,-1.037485 0.112139,-1.189087 0.0605,-0.05179 0.100273,-0.142192 0.108004,-0.23668 5.3e-4,-0.0037 0.0029,-0.0077 0.0031,-0.01137 5.29e-4,-0.0071 -0.0011,-0.01277 -0.0011,-0.01964 2e-6,-0.0057 0.0013,-0.01132 0.0011,-0.01705 -1.8e-4,-0.0039 -0.0024,-0.0075 -0.0026,-0.01137 -0.01421,-0.234842 -0.236161,-0.312873 -0.236161,-0.447006 0,-0.215286 0.0155,-8.800239 0.0155,-9.4067338 -5.29e-4,-0.6070469 -0.06552,-1.0374851 0.11214,-1.18908726 0.07079,-0.060587 0.11624,-0.17348354 0.111105,-0.28474015 -0.0077,-0.16777578 -0.130325,-0.3320168 -0.450625,-0.3090283 z"
     id="path4122"
     inkscape:connector-curvature="0"
     sodipodi:nodetypes="ccccccccccccccccccscccccccscccc" />
  <g
     id="g4232"
     style="fill:#505e09;fill-opacity:1"
     transform="translate(9.4402694e-5,9.0725441e-5)">
    <g
       id="g4059"
       style="fill:#505e09;fill-opacity:1">
      <path
         sodipodi:nodetypes="ssscssssscs"
         d="m 1.4779603,12.223236 c 0.312867,-0.299352 0.988181,-0.451895 1.365562,-0.442675 0.433891,0.0106 1.285808,0.197601 1.491155,0.35907 0.08628,0.06784 0.135543,0.08471 0.127481,0.290162 0.108748,-0.113039 0.209138,-0.236022 0.193067,-0.378831 -0.02133,-0.18954 -0.289593,-0.414681 -0.455215,-0.515891 -0.374192,-0.228665 -0.856726,-0.380808 -1.37991,-0.354229 -0.451742,0.02295 -1.183338,0.140873 -1.478491,0.475288 -0.114401,0.129619 -0.213621,0.254791 -0.230783,0.458081 -0.0064,0.07538 0.171428,0.302741 0.287064,0.532084 0.0032,-0.314535 -0.01447,-0.332606 0.08007,-0.423059 z"
         id="path4230-0"
         inkscape:connector-curvature="0"
         style="fill:#505e09;fill-opacity:1;stroke-width:0.43884522" />
      <path
         style="fill:#505e09;fill-opacity:1;stroke-width:0.43884522"
         inkscape:connector-curvature="0"
         id="path4055"
         d="m 85.473806,11.818088 c 0.312867,-0.299352 0.988181,-0.451895 1.365562,-0.442675 0.433891,0.0106 1.285808,0.197601 1.491155,0.35907 0.08628,0.06784 0.135543,0.08471 0.127481,0.290162 0.108748,-0.113039 0.209138,-0.236022 0.193067,-0.378831 -0.02133,-0.18954 -0.289593,-0.414681 -0.455215,-0.515891 -0.374192,-0.228665 -0.856726,-0.380808 -1.37991,-0.354229 -0.451742,0.02295 -1.183338,0.140873 -1.478491,0.475288 -0.114401,0.129619 -0.213621,0.254791 -0.230783,0.458081 -0.0064,0.07538 0.171428,0.302741 0.287064,0.532084 0.0032,-0.314535 -0.01447,-0.332606 0.08007,-0.423059 z"
         sodipodi:nodetypes="ssscssssscs" />
    </g>
    <path
       sodipodi:nodetypes="ssscssssscs"
       d="m 1.494816,0.69717485 c 0.312867,-0.203277 0.9881821,-0.306863 1.365563,-0.300602 0.433891,0.0072 1.2858077,0.134182 1.4911543,0.243829 0.086277,0.04606 0.135544,0.05752 0.127482,0.19703596 0.108748,-0.07676 0.2091387,-0.16027196 0.193067,-0.25724696 -0.021331,-0.128709 -0.2851481,-0.293478 -0.4552153,-0.350319 -0.3771156,-0.126043 -0.8567267,-0.200124 -1.3799107,-0.182075 -0.4517419,0.01559 -1.1295932,0.062 -1.4784913,0.264281 -0.124873,0.0724 -0.21362,0.173017 -0.2307831,0.311063 -0.0064,0.05118 0.171428,0.20557796 0.2870651,0.361314 0.0032,-0.21358704 -0.01447,-0.22585804 0.080069,-0.28728 z"
       id="path4067-6"
       inkscape:connector-curvature="0"
       style="fill:#505e09;fill-opacity:1;stroke-width:0.36162969" />
    <path
       sodipodi:nodetypes="ssscssssscs"
       d="m 85.485646,21.898837 c 0.312867,0.203278 0.988182,0.306864 1.365563,0.300603 0.433891,-0.0072 1.285808,-0.134182 1.491154,-0.243829 0.08628,-0.04606 0.135544,-0.05752 0.127482,-0.197036 0.108748,0.07676 0.209139,0.160272 0.193067,0.257246 -0.02133,0.12871 -0.285148,0.293479 -0.455215,0.35032 -0.377116,0.126043 -0.856727,0.200124 -1.379911,0.182075 -0.451742,-0.01559 -1.129593,-0.062 -1.478491,-0.264282 -0.124873,-0.0724 -0.21362,-0.173016 -0.230783,-0.311063 -0.0064,-0.05118 0.171428,-0.205577 0.287065,-0.361313 0.0032,0.213587 -0.01447,0.225858 0.08007,0.287279 z"
       id="path4067-6-9"
       inkscape:connector-curvature="0"
       style="fill:#505e09;fill-opacity:1;stroke-width:0.36162969" />
    <path
       sodipodi:nodetypes="sscscss"
       d="m 2.8341238,22.174751 c 0.446292,0.02374 1.191223,0.203361 1.425009,0.245896 0.118095,0.02149 0.369394,-0.07618 0.396201,-0.208111 -0.349838,0.06581 -1.254289,-0.371706 -1.810765,-0.423207 -0.625211,-0.05786 -1.328677,0.372172 -1.72066,0.361448 0.015538,0.107856 0.182598,0.274282 0.452985,0.177462 0.298954,-0.107049 0.880329,-0.173534 1.25723,-0.153488 z"
       id="path4067-6-90-1-7-1-6-60"
       inkscape:connector-curvature="0"
       style="fill:#505e09;fill-opacity:1;stroke-width:0.36162969" />
    <path
       sodipodi:nodetypes="sscscss"
       d="m 86.821692,0.31265328 c 0.446292,-0.02374 1.191223,-0.203361 1.42501,-0.245896 0.118094,-0.0214899 0.369394,0.07618 0.3962,0.20811098 -0.349838,-0.06581 -1.254289,0.37170601 -1.810765,0.42320702 -0.625211,0.05786 -1.328677,-0.372172 -1.72066,-0.36144801 0.01554,-0.10785599 0.182598,-0.27428199 0.452985,-0.17746199 0.298954,0.10704901 0.880329,0.173534 1.25723,0.153488 z"
       id="path4067-6-90-1-7-1-6-60-2"
       inkscape:connector-curvature="0"
       style="fill:#505e09;fill-opacity:1;stroke-width:0.36162969" />
  </g>
  <path
     sodipodi:nodetypes="ccccccccsscccsscccssccssscccsscccccccsccssccssccssccssccssccc"
     inkscape:connector-curvature="0"
     id="path4248"
     d="m 89.82606,18.055087 c 0.167775,0.0077 0.332016,0.129807 0.309028,0.450106 -0.03802,0.53243 -0.452964,1.556672 -0.101287,2.651029 0.06724,0.209244 -0.01091,0.518459 -0.23358,0.528139 -0.05961,0.0026 -0.130721,-0.01666 -0.210842,-0.0646 -0.37904,-0.22634 -0.732828,-0.371136 -1.55496,-0.372074 -0.822133,0 -11.138758,-0.0065 -11.695534,-0.0072 -0.556217,-3.44e-4 -0.924054,0.246528 -1.139477,0.375175 -0.07288,0.04379 -0.149968,0.06788 -0.224795,0.06873 -0.119665,0.0014 -0.220046,-0.02118 -0.299209,-0.0646 -0.387079,-0.2123 -0.732829,-0.371136 -1.554961,-0.372074 -0.822133,0 -11.138757,-0.0065 -11.695533,-0.0072 -0.556216,-3.44e-4 -0.923538,0.246528 -1.138962,0.375175 -0.07288,0.04379 -0.14997,0.06764 -0.224795,0.06873 -0.06814,0.001 -0.17882,-0.03194 -0.237196,-0.0646 -0.385288,-0.215532 -0.733345,-0.371136 -1.555478,-0.372074 -0.822132,0 -11.138239,-0.0065 -11.695016,-0.0072 -0.556215,-3.44e-4 -0.924054,0.246528 -1.139477,0.375175 -0.07288,0.04379 -0.150214,0.06263 -0.224795,0.06873 -0.09561,0.0078 -0.189833,-0.02932 -0.253217,-0.0646 -0.385756,-0.214697 -0.732827,-0.371136 -1.554959,-0.372074 -0.822133,0 -11.138243,-0.0065 -11.695016,-0.0072 -0.556219,-3.44e-4 -0.924144,0.246383 -1.139478,0.375175 -0.07297,0.04364 -0.150081,0.06455 -0.224795,0.06873 -0.0983,0.0055 -0.220045,-0.02118 -0.299209,-0.0646 -0.387079,-0.212299 -0.733346,-0.371136 -1.555478,-0.372074 -0.822133,0 -11.138243,-0.0065 -11.695017,-0.0072 -0.556218,-3.44e-4 -0.924053,0.246528 -1.139477,0.375175 -0.07288,0.04379 -0.15039,0.06075 -0.224795,0.06873 -0.07307,0.0078 -0.178791,-0.03193 -0.237198,-0.0646 -0.385312,-0.215488 -0.732827,-0.371136 -1.55496,-0.372074 -0.822132,0 -11.1387576,-0.0065 -11.6955315,-0.0072 -0.5562182,-3.44e-4 -0.9235379,0.246528 -1.13896123,0.375175 -0.0728802,0.04379 -0.1500415,0.07213 -0.22479502,0.06873 -0.14567847,-0.0066 -0.28617899,-0.125489 -0.39481276,-0.424268 -0.16428681,-0.451934 -0.34690415,-2.160428 0.0888851,-2.94197 0.10835331,-0.194066 0.19683885,-0.258011 0.27595539,-0.263036 0.27487058,-0.01746 0.35131745,0.238748 0.49454842,0.238748 0.2152858,0 12.3060296,-0.0155 12.9125246,-0.0155 0.607048,4.34e-4 1.037487,0.06553 1.189087,-0.112139 0.09107,-0.102571 0.20761,-0.129558 0.294043,-0.109039 0.235796,0.05598 0.320413,0.236681 0.456307,0.236681 0.215286,0 12.306033,-0.0155 12.912528,-0.0155 0.607045,4.34e-4 1.037485,0.06553 1.189087,-0.112139 0.103816,-0.102627 0.220567,-0.116302 0.317294,-0.111106 0.275027,0.01478 0.351836,0.238748 0.495068,0.238748 0.215285,0 12.305514,-0.0155 12.912009,-0.0155 0.607047,4.34e-4 1.037484,0.06553 1.189087,-0.112139 0.08909,-0.09611 0.202757,-0.116263 0.288875,-0.110072 0.259014,0.01862 0.33759,0.237714 0.477493,0.237714 0.215288,0 12.305517,-0.0155 12.912012,-0.0155 0.607045,4.34e-4 1.038,0.06553 1.189603,-0.112139 0.09077,-0.10204 0.202435,-0.113898 0.293008,-0.109039 0.242644,0.01302 0.320776,0.236681 0.456824,0.236681 0.215288,0 12.306032,-0.0155 12.912527,-0.0155 0.607047,4.34e-4 1.037485,0.06553 1.189087,-0.112139 0.103651,-0.102396 0.210503,-0.116332 0.317297,-0.111106 0.275094,0.01346 0.351834,0.238748 0.495065,0.238748 0.215286,0 12.306031,-0.0155 12.912526,-0.0155 0.607047,4.27e-4 1.037485,0.06552 1.189087,-0.112146 0.06059,-0.07079 0.173484,-0.11624 0.284741,-0.111105 z"
     style="fill:#445000;fill-opacity:1;stroke-width:0.42861813" />
  <g
     id="g4251"
     transform="translate(9.4402694e-5,9.0725441e-5)">
    <g
       style="fill:#6f8400;fill-opacity:1"
       id="g4038">
      <g
         style="fill:#6f8400;fill-opacity:1"
         id="g4012">
        <path
           style="fill:#6f8400;fill-opacity:1;stroke-width:0.43884522"
           inkscape:connector-curvature="0"
           id="path4230"
           d="m 15.06992,4.3022825 c 0.299352,-0.312867 0.451895,-0.9881817 0.442675,-1.3655627 -0.0106,-0.433891 -0.197601,-1.2858077 -0.35907,-1.4911543 -0.06784,-0.086277 -0.08471,-0.135544 -0.290162,-0.127482 0.113039,-0.108748 0.236022,-0.2091387 0.378831,-0.193067 0.18954,0.021331 0.414681,0.289594 0.515891,0.4552153 0.228665,0.3741923 0.380808,0.8567267 0.354229,1.3799107 -0.02295,0.451742 -0.140873,1.1833374 -0.475288,1.4784909 -0.129619,0.114401 -0.254791,0.2136206 -0.458081,0.2307831 -0.07538,0.00636 -0.302741,-0.171428 -0.532084,-0.287065 0.314535,-0.0032 0.332606,0.01447 0.423059,-0.080069 z"
           sodipodi:nodetypes="ssscssssscs" />
        <path
           sodipodi:nodetypes="ssscssssscs"
           d="m 29.943626,4.3022825 c 0.299352,-0.312867 0.451895,-0.9881817 0.442675,-1.3655627 -0.0106,-0.433891 -0.197601,-1.2858077 -0.35907,-1.4911543 -0.06784,-0.086277 -0.08471,-0.135544 -0.290162,-0.127482 0.113039,-0.108748 0.236022,-0.2091387 0.378831,-0.193067 0.18954,0.021331 0.414681,0.289594 0.515891,0.4552153 0.228665,0.3741923 0.380808,0.8567267 0.354229,1.3799107 -0.02295,0.451742 -0.140873,1.1833374 -0.475288,1.4784909 -0.129619,0.114401 -0.254791,0.2136206 -0.458081,0.2307831 -0.07538,0.00636 -0.302741,-0.171428 -0.532084,-0.287065 0.314535,-0.0032 0.332606,0.01447 0.423059,-0.080069 z"
           id="path3999"
           inkscape:connector-curvature="0"
           style="fill:#6f8400;fill-opacity:1;stroke-width:0.43884522" />
        <path
           style="fill:#6f8400;fill-opacity:1;stroke-width:0.43884522"
           inkscape:connector-curvature="0"
           id="path4001"
           d="m 44.810058,4.3022825 c 0.299352,-0.312867 0.451895,-0.9881817 0.442675,-1.3655627 -0.0106,-0.433891 -0.197601,-1.2858077 -0.35907,-1.4911543 -0.06784,-0.086277 -0.08471,-0.135544 -0.290162,-0.127482 0.113039,-0.108748 0.236022,-0.2091387 0.378831,-0.193067 0.18954,0.021331 0.414681,0.289594 0.515891,0.4552153 0.228665,0.3741923 0.380808,0.8567267 0.354229,1.3799107 -0.02295,0.451742 -0.140873,1.1833374 -0.475288,1.4784909 -0.129619,0.114401 -0.254791,0.2136206 -0.458081,0.2307831 -0.07538,0.00636 -0.302741,-0.171428 -0.532084,-0.287065 0.314535,-0.0032 0.332606,0.01447 0.423059,-0.080069 z"
           sodipodi:nodetypes="ssscssssscs" />
        <path
           sodipodi:nodetypes="ssscssssscs"
           d="m 59.708388,4.3022825 c 0.299352,-0.312867 0.451895,-0.9881817 0.442675,-1.3655627 -0.0106,-0.433891 -0.197601,-1.2858077 -0.35907,-1.4911543 -0.06784,-0.086277 -0.08471,-0.135544 -0.290162,-0.127482 0.113039,-0.108748 0.236022,-0.2091387 0.378831,-0.193067 0.18954,0.021331 0.414681,0.289594 0.515891,0.4552153 0.228665,0.3741923 0.380808,0.8567267 0.354229,1.3799107 -0.02295,0.451742 -0.140873,1.1833374 -0.475288,1.4784909 -0.129619,0.114401 -0.254791,0.2136206 -0.458081,0.2307831 -0.07538,0.00636 -0.302741,-0.171428 -0.532084,-0.287065 0.314535,-0.0032 0.332606,0.01447 0.423059,-0.080069 z"
           id="path4003"
           inkscape:connector-curvature="0"
           style="fill:#6f8400;fill-opacity:1;stroke-width:0.43884522" />
        <path
           style="fill:#6f8400;fill-opacity:1;stroke-width:0.43884522"
           inkscape:connector-curvature="0"
           id="path4005"
           d="m 74.587689,4.3022825 c 0.299352,-0.312867 0.451895,-0.9881817 0.442675,-1.3655627 -0.0106,-0.433891 -0.197601,-1.2858077 -0.35907,-1.4911543 -0.06784,-0.086277 -0.08471,-0.135544 -0.290162,-0.127482 0.113039,-0.108748 0.236022,-0.2091387 0.378831,-0.193067 0.18954,0.021331 0.414681,0.289594 0.515891,0.4552153 0.228665,0.3741923 0.380808,0.8567267 0.354229,1.3799107 -0.02295,0.451742 -0.140873,1.1833374 -0.475288,1.4784909 -0.129619,0.114401 -0.254791,0.2136206 -0.458081,0.2307831 -0.07538,0.00636 -0.302741,-0.171428 -0.532084,-0.287065 0.314535,-0.0032 0.332606,0.01447 0.423059,-0.080069 z"
           sodipodi:nodetypes="ssscssssscs" />
      </g>
      <g
         style="fill:#6f8400;fill-opacity:1"
         id="g4024"
         transform="matrix(-1,0,0,1,90.124516,16.978476)">
        <path
           sodipodi:nodetypes="ssscssssscs"
           d="m 15.06992,4.3022825 c 0.299352,-0.312867 0.451895,-0.9881817 0.442675,-1.3655627 -0.0106,-0.433891 -0.197601,-1.2858077 -0.35907,-1.4911543 -0.06784,-0.086277 -0.08471,-0.135544 -0.290162,-0.127482 0.113039,-0.108748 0.236022,-0.2091387 0.378831,-0.193067 0.18954,0.021331 0.414681,0.289594 0.515891,0.4552153 0.228665,0.3741923 0.380808,0.8567267 0.354229,1.3799107 -0.02295,0.451742 -0.140873,1.1833374 -0.475288,1.4784909 -0.129619,0.114401 -0.254791,0.2136206 -0.458081,0.2307831 -0.07538,0.00636 -0.302741,-0.171428 -0.532084,-0.287065 0.314535,-0.0032 0.332606,0.01447 0.423059,-0.080069 z"
           id="path4014"
           inkscape:connector-curvature="0"
           style="fill:#6f8400;fill-opacity:1;stroke-width:0.43884522" />
        <path
           style="fill:#6f8400;fill-opacity:1;stroke-width:0.43884522"
           inkscape:connector-curvature="0"
           id="path4016"
           d="m 29.943626,4.3022825 c 0.299352,-0.312867 0.451895,-0.9881817 0.442675,-1.3655627 -0.0106,-0.433891 -0.197601,-1.2858077 -0.35907,-1.4911543 -0.06784,-0.086277 -0.08471,-0.135544 -0.290162,-0.127482 0.113039,-0.108748 0.236022,-0.2091387 0.378831,-0.193067 0.18954,0.021331 0.414681,0.289594 0.515891,0.4552153 0.228665,0.3741923 0.380808,0.8567267 0.354229,1.3799107 -0.02295,0.451742 -0.140873,1.1833374 -0.475288,1.4784909 -0.129619,0.114401 -0.254791,0.2136206 -0.458081,0.2307831 -0.07538,0.00636 -0.302741,-0.171428 -0.532084,-0.287065 0.314535,-0.0032 0.332606,0.01447 0.423059,-0.080069 z"
           sodipodi:nodetypes="ssscssssscs" />
        <path
           sodipodi:nodetypes="ssscssssscs"
           d="m 44.810058,4.3022825 c 0.299352,-0.312867 0.451895,-0.9881817 0.442675,-1.3655627 -0.0106,-0.433891 -0.197601,-1.2858077 -0.35907,-1.4911543 -0.06784,-0.086277 -0.08471,-0.135544 -0.290162,-0.127482 0.113039,-0.108748 0.236022,-0.2091387 0.378831,-0.193067 0.18954,0.021331 0.414681,0.289594 0.515891,0.4552153 0.228665,0.3741923 0.380808,0.8567267 0.354229,1.3799107 -0.02295,0.451742 -0.140873,1.1833374 -0.475288,1.4784909 -0.129619,0.114401 -0.254791,0.2136206 -0.458081,0.2307831 -0.07538,0.00636 -0.302741,-0.171428 -0.532084,-0.287065 0.314535,-0.0032 0.332606,0.01447 0.423059,-0.080069 z"
           id="path4018"
           inkscape:connector-curvature="0"
           style="fill:#6f8400;fill-opacity:1;stroke-width:0.43884522" />
        <path
           style="fill:#6f8400;fill-opacity:1;stroke-width:0.43884522"
           inkscape:connector-curvature="0"
           id="path4020"
           d="m 59.708388,4.3022825 c 0.299352,-0.312867 0.451895,-0.9881817 0.442675,-1.3655627 -0.0106,-0.433891 -0.197601,-1.2858077 -0.35907,-1.4911543 -0.06784,-0.086277 -0.08471,-0.135544 -0.290162,-0.127482 0.113039,-0.108748 0.236022,-0.2091387 0.378831,-0.193067 0.18954,0.021331 0.414681,0.289594 0.515891,0.4552153 0.228665,0.3741923 0.380808,0.8567267 0.354229,1.3799107 -0.02295,0.451742 -0.140873,1.1833374 -0.475288,1.4784909 -0.129619,0.114401 -0.254791,0.2136206 -0.458081,0.2307831 -0.07538,0.00636 -0.302741,-0.171428 -0.532084,-0.287065 0.314535,-0.0032 0.332606,0.01447 0.423059,-0.080069 z"
           sodipodi:nodetypes="ssscssssscs" />
        <path
           sodipodi:nodetypes="ssscssssscs"
           d="m 74.587689,4.3022825 c 0.299352,-0.312867 0.451895,-0.9881817 0.442675,-1.3655627 -0.0106,-0.433891 -0.197601,-1.2858077 -0.35907,-1.4911543 -0.06784,-0.086277 -0.08471,-0.135544 -0.290162,-0.127482 0.113039,-0.108748 0.236022,-0.2091387 0.378831,-0.193067 0.18954,0.021331 0.414681,0.289594 0.515891,0.4552153 0.228665,0.3741923 0.380808,0.8567267 0.354229,1.3799107 -0.02295,0.451742 -0.140873,1.1833374 -0.475288,1.4784909 -0.129619,0.114401 -0.254791,0.2136206 -0.458081,0.2307831 -0.07538,0.00636 -0.302741,-0.171428 -0.532084,-0.287065 0.314535,-0.0032 0.332606,0.01447 0.423059,-0.080069 z"
           id="path4022"
           inkscape:connector-curvature="0"
           style="fill:#6f8400;fill-opacity:1;stroke-width:0.43884522" />
      </g>
    </g>
    <path
       style="fill:#6f8400;fill-opacity:1;stroke-width:0.36162969"
       inkscape:connector-curvature="0"
       id="path4230-3"
       d="m 89.420948,4.3064359 c 0.203277,-0.312867 0.306863,-0.9881818 0.300602,-1.3655628 -0.0072,-0.433891 -0.134182,-1.2858077 -0.243829,-1.4911543 -0.04606,-0.086277 -0.05752,-0.135544 -0.197036,-0.127482 0.07676,-0.108748 0.160272,-0.2091387 0.257247,-0.193067 0.128709,0.021331 0.293478,0.2851481 0.350319,0.4552153 0.126043,0.3771156 0.200124,0.8567267 0.182075,1.3799107 -0.01559,0.451742 -0.062,1.1295933 -0.264281,1.4784909 -0.0724,0.1248739 -0.173017,0.2136207 -0.311063,0.2307831 -0.05118,0.00636 -0.205578,-0.171428 -0.361314,-0.2870648 0.213587,-0.0032 0.225858,0.01447 0.28728,-0.080069 z"
       sodipodi:nodetypes="ssscssssscs" />
    <path
       sodipodi:nodetypes="ssscssssscs"
       d="M 0.7079118,21.28875 C 0.50463477,20.975883 0.40104877,20.300568 0.40730977,19.923187 c 0.0072,-0.433891 0.134182,-1.285807 0.24382902,-1.491154 0.04606,-0.08628 0.05752,-0.135544 0.197036,-0.127482 -0.07676,-0.108748 -0.160272,-0.209139 -0.25724702,-0.193067 -0.128709,0.02133 -0.293478,0.285148 -0.350319,0.455215 -0.12604298,0.377116 -0.20012398,0.856727 -0.18207498,1.379911 0.01559,0.451742 0.062,1.129593 0.26428098,1.478491 0.0724,0.124873 0.173017,0.21362 0.31106303,0.230784 0.05118,0.0064 0.20557799,-0.171428 0.36131402,-0.287066 -0.21358703,-0.0032 -0.22585803,0.01447 -0.28728002,-0.08007 z"
       id="path4067"
       inkscape:connector-curvature="0"
       style="fill:#6f8400;fill-opacity:1;stroke-width:0.36162969" />
    <path
       sodipodi:nodetypes="sscscss"
       d="m 0.31893588,2.9519449 c -0.02374,-0.446292 -0.203361,-1.191223 -0.245896,-1.425009 -0.02149,-0.118095 0.07618,-0.3693939 0.208111,-0.3962009 -0.0658058,0.3498382 0.37170521,1.2542891 0.42320643,1.8107651 0.0578625,0.6252106 -0.37217178,1.3286771 -0.36144833,1.72066 -0.10785593,-0.015538 -0.2742811,-0.1825983 -0.1774611,-0.4529855 0.107049,-0.2989538 0.17353303,-0.8803287 0.153488,-1.2572297 z"
       id="path4067-6-90-1-7-1-6"
       inkscape:connector-curvature="0"
       style="fill:#6f8400;fill-opacity:1;stroke-width:0.36162969" />
    <path
       sodipodi:nodetypes="sscscss"
       d="m 89.806561,19.930954 c 0.02374,-0.446292 0.203361,-1.191223 0.245896,-1.425009 0.02149,-0.118095 -0.07618,-0.369394 -0.208111,-0.396201 0.06581,0.349838 -0.371705,1.254289 -0.423206,1.810765 -0.05786,0.62521 0.372172,1.328677 0.361448,1.72066 0.107856,-0.01554 0.274281,-0.182598 0.177461,-0.452986 C 89.853,20.889229 89.786516,20.307855 89.806561,19.930954 Z"
       id="path4067-6-90-1-7-1-6-6"
       inkscape:connector-curvature="0"
       style="fill:#6f8400;fill-opacity:1;stroke-width:0.36162969" />
  </g>
</svg>
