<?xml version="1.0" encoding="UTF-8" standalone="no"?>
<svg
   xmlns:dc="http://purl.org/dc/elements/1.1/"
   xmlns:cc="http://creativecommons.org/ns#"
   xmlns:rdf="http://www.w3.org/1999/02/22-rdf-syntax-ns#"
   xmlns:svg="http://www.w3.org/2000/svg"
   xmlns="http://www.w3.org/2000/svg"
   xmlns:sodipodi="http://sodipodi.sourceforge.net/DTD/sodipodi-0.dtd"
   xmlns:inkscape="http://www.inkscape.org/namespaces/inkscape"
   width="360"
   height="640"
   viewBox="0 0 360 640"
   version="1.1"
   id="svg102"
   sodipodi:docname="bg_main.svg"
   style="fill:none"
   inkscape:version="0.92.4 (5da689c313, 2019-01-14)">
  <metadata
     id="metadata106">
    <rdf:RDF>
      <cc:Work
         rdf:about="">
        <dc:format>image/svg+xml</dc:format>
        <dc:type
           rdf:resource="http://purl.org/dc/dcmitype/StillImage" />
        <dc:title></dc:title>
      </cc:Work>
    </rdf:RDF>
  </metadata>
  <sodipodi:namedview
     pagecolor="#ffffff"
     bordercolor="#666666"
     borderopacity="1"
     objecttolerance="10"
     gridtolerance="10"
     guidetolerance="10"
     inkscape:pageopacity="0"
     inkscape:pageshadow="2"
     inkscape:window-width="1366"
     inkscape:window-height="705"
     id="namedview104"
     showgrid="false"
     fit-margin-top="0"
     fit-margin-left="0"
     fit-margin-right="0"
     fit-margin-bottom="0"
     inkscape:pagecheckerboard="true"
     inkscape:showpageshadow="false"
     inkscape:zoom="0.52149125"
     inkscape:cx="502.83086"
     inkscape:cy="434.20794"
     inkscape:window-x="-8"
     inkscape:window-y="-8"
     inkscape:window-maximized="1"
     inkscape:current-layer="svg102" />
  <rect
     style="fill:url(#paint0_linear)"
     y="0"
     x="0"
     id="rect2"
     height="640"
     width="360" />
  <path
     style="fill:#0d874a"
     inkscape:connector-curvature="0"
     id="path4"
     d="m 303.053,-7.94184 c 27.071,11.26168 15.179,18.19314 4.146,14.74172 -5.403,-1.69055 -14.545,-3.5253 -23.265,-5.07787 -9.121,6.25861 -18.057,15.07569 -26.164,27.29779 14.444,-0.1157 32.831,0.1957 41.788,2.2071 15.989,3.5898 10.162,16.5871 -8.479,10.7551 -12.074,-3.7763 -29.717,-0.9968 -43.255,4.8272 -5.753,12.0348 -9.691,23.6138 -12.209,34.5943 15.966,-7.1834 41.374,-17.2515 52.623,-14.1989 17.014,4.6169 -1.309,15.1153 -7.016,13.0535 -4.574,-1.6544 -32.406,6.7457 -48.001,14.1 -1.336,9.5779 -1.666,18.6059 -1.277,26.9589 12.101,-2.238 27.442,-7.189 35.289,-9.873 11.854,-4.054 4.897,11.412 -3.42,10.927 -5.94,-0.346 -19.477,1.878 -30.294,14.482 4.471,28.514 19.213,47.863 19.213,47.863 L 360.425,-7.41508 c 0,0 -27.172,-10.99302 -57.372,-0.52676 z" />
  <path
     style="fill:#0d924f"
     inkscape:connector-curvature="0"
     id="path6"
     d="m 389.708,41.4634 c -23.482,-17.5587 -23.387,-3.7932 -14.799,3.9409 4.209,3.7893 10.443,10.7212 16.223,17.4343 -0.74,11.0373 -3.776,23.218 -10.163,36.4204 -7.259,-12.489 -16.893,-28.1528 -23.186,-34.8358 -11.234,-11.9304 -19.45,-0.2945 -4.936,12.7759 9.399,8.4653 15.994,25.0639 17.879,39.6809 -7.425,11.081 -15.384,20.368 -23.551,28.129 -1.95,-17.399 -6.229,-44.391 -14.586,-52.5178 -12.64,-12.289 -12.342,8.8268 -7.66,12.6868 3.754,3.093 10.703,31.323 12.319,48.49 -7.562,6.028 -15.163,10.911 -22.549,14.831 -4.239,-11.554 -7.793,-27.278 -9.48,-35.396 -2.549,-12.266 -12.316,1.597 -7.662,8.508 3.324,4.935 8.306,17.717 2.969,33.446 -26.812,10.677 -47.794,9.659 -47.794,9.659 L 360.031,-7.63913 c 0,0 23.3,17.78323 29.677,49.10253 z" />
  <path
     style="fill:#00542a"
     inkscape:connector-curvature="0"
     id="path8"
     d="m 27.6135,458.526 c -15.1465,5.268 -30.8114,34.568 -30.8114,34.568 l 4.099559,34.137 -8.313679,-21.234 c 0,0 -5.31478,6.714 -11.25058,20.29 -5.9366,13.576 -7.6069,22.835 -7.6069,22.835 l 12.8088,32.713 -14.9765,-17.965 c 0,0 -9.6501,36.212 19.35948,91.705 z" />
  <path
     style="fill:#005e2e"
     inkscape:connector-curvature="0"
     id="path10"
     d="m 10.0874,611.744 28.3528,-29.938 c 3.4329,-13.28 4.1171,-22.566 4.1171,-22.566 l -24.104,9.437 20.2846,-19.194 c 0,0 1.0332,-11.41 1.1513,-26.352 l -14.2483,7.127 14.1782,-17.173 C 39.347,492.37 36.6636,468.599 27.6139,458.526 L -9.07738,655.575 C 9.88655,642.533 21.9538,624.302 29.6033,607.204 Z" />
  <path
     style="fill:#00a854"
     inkscape:connector-curvature="0"
     id="path12"
     d="m 144.824,76.516 c 0,0 -15.297,-15.4273 -30.518,-9.3958 0,0 4.59,5.48 11.766,8.2124 7.177,2.7333 18.752,1.1834 18.752,1.1834 z m -0.522,-23.7712 c 0,0 -25.826,-6.6467 -36.247,6.3189 -2.429,-2.9593 -5.017,-5.7891 -7.724,-8.4984 2.978,0.867 9.542,2.4274 15.076,1.2712 7.413,-1.5501 18.019,-10.8628 18.019,-10.8628 0,0 -21.758,-4.2349 -34.1686,8.526 -1.8171,-1.7742 -3.6832,-3.4979 -5.6021,-5.1565 -1.4915,-1.2891 -3.0163,-2.5371 -4.5663,-3.7535 2.2918,0.7284 9.4673,2.7515 15.666,1.4554 7.414,-1.5491 18.02,-10.8614 18.02,-10.8614 0,0 -22.087,-4.3034 -34.448,8.8116 -1.8984,-1.4664 -3.8394,-2.8773 -5.8173,-4.2336 2.344,0.0712 9.0576,0.0169 13.9418,-2.8288 5.9465,-3.4644 12.2575,-15.1665 12.2575,-15.1665 0,0 -20.2888,1.8332 -27.0394,17.4171 -1.9674,-1.3262 -3.9733,-2.5936 -6.0108,-3.8096 -0.0771,-0.1108 -0.1455,-0.2242 -0.2272,-0.3327 0,0 -0.082,0.1287 -0.0899,0.1409 -5.1633,-3.0616 -10.5378,-5.7689 -16.0714,-8.1004 -0.3311,-0.1395 -0.6656,-0.2734 -0.9978,-0.411 2.4898,-0.4737 8.8056,-1.9598 12.9051,-5.5857 5.1529,-4.5568 9.1392,-17.074398 9.1392,-17.074398 0,0 -19.3527,5.959628 -23.0994,22.223698 C 50.8001,19.6234 44.1721,17.3978 37.3256,16.3026 29.7973,15.0979 22.1117,15.017 14.5213,15.5991 c -9.62342,0.7379 -19.45956,2.3554 -28.6772,5.3072 -0.3224,0.1023 -0.2989,1.3614 0.0896,1.2365 7.63162,-2.4432 15.70524,-3.8841 23.6483,-4.7963 7.2845,-0.8361 14.6625,-1.104 21.9756,-0.4654 4.9899,0.4352 9.8144,1.4162 14.5581,2.7818 -0.1372,0.1966 -4.5708,6.5913 -5.4479,14.9997 -0.8916,8.5394 4.1084,20.6003 4.1084,20.6003 0,0 12.2098,-20.8594 1.4558,-35.5652 2.6125,0.7559 5.202,1.6236 7.7799,2.5902 7.1572,2.6831 14.1015,5.9892 20.7096,9.8705 -1.319,2.1955 -4.1061,7.4811 -4.781,13.954 -0.8916,8.5394 4.1071,20.5987 4.1071,20.5987 0,0 10.939,-18.6959 2.9764,-33.1677 3.8373,2.361 7.5514,4.9198 11.1178,7.6685 -0.582,0.8133 -4.6383,6.6853 -5.6779,14.602 -1.1178,8.5134 3.5596,20.7007 3.5596,20.7007 0,0 12.2763,-19.7596 2.9513,-34.6608 3.4231,2.6842 6.7047,5.5463 9.823,8.5757 -0.454,0.6278 -4.6703,6.6179 -5.7291,14.6813 -1.1187,8.5123 3.558,20.7005 3.558,20.7005 0,0 12.2063,-19.6451 3.035,-34.5299 3.7283,3.6955 7.2123,7.6358 10.4133,11.8078 -0.606,0.8539 -4.125,6.0283 -5.043,13.0063 -0.999,7.6142 3.185,18.5182 3.185,18.5182 0,0 9.927,-15.9776 3.74,-29.0063 1.839,2.5089 3.623,5.11 5.109,7.8436 -0.057,-0.0148 -0.11,-0.0379 -0.167,-0.0509 0,0 -0.812,3.8906 1.68,11.0024 2.492,7.1129 14.073,12.4202 14.073,12.4202 0,0 -3.123,-18.9751 -14.558,-23.0586 -1.594,-3.2077 -3.664,-6.2278 -5.749,-9.1248 -1.232,-1.7128 -2.521,-3.3866 -3.85,-5.0268 1.432,0.8126 5.665,2.8268 13.481,3.4391 9.842,0.7719 22.325,-10.3065 22.325,-10.3065 z M 97.3711,10.2815 c 0,0 -20.7097,2.027 -27.3493,17.7843 0,0 9.0314,0.5647 14.9885,-2.8724 5.9583,-3.4381 12.3608,-14.9119 12.3608,-14.9119 z M 64.1908,42.7534 c 0.5622,-5.8392 -0.2646,-12.2351 -4.348,-17.7518 0,0 -4.6007,6.533 -5.4912,15.0726 -0.8916,8.5394 4.1086,20.5988 4.1086,20.5988 0,0 4.7936,-8.1877 5.7306,-17.9196 z m 2.1026,-48.60448 c 0,0 -19.8906,6.11447 -23.2556,22.87898 0,0 8.9634,-1.2469 14.1164,-5.8046 5.1529,-4.55676 9.1392,-17.07438 9.1392,-17.07438 z m -22.558,-6.05872 c 0,0 -18.2868,9.92941 -18.2686,27.028 0,0 8.5389,-2.9947 12.6884,-8.48198 4.1495,-5.48529 5.5802,-18.54602 5.5802,-18.54602 z m -8.132,46.7213 c 0.5622,-5.8392 -0.2646,-12.2351 -4.348,-17.7518 0,0 -4.6005,6.5315 -5.4911,15.0711 -0.8916,8.5394 4.1072,20.5987 4.1072,20.5987 0,0 4.795,-8.186 5.7319,-17.918 z M 21.0398,34.6698 c 0.5622,-5.8392 -0.2646,-12.2347 -4.348,-17.7518 0,0 -4.6004,6.533 -5.4912,15.0725 -0.8916,8.5395 4.1086,20.5989 4.1086,20.5989 0,0 4.7937,-8.1877 5.7306,-17.9196 z m 1.2757,-39.30732 c 0.4629,-4.70758 0.3171,-8.86278 0.3171,-8.86278 0,0 -16.67002,12.45411 -14.1939,29.373 0,0 8.0198,-4.1917 11.3378,-10.21733 1.4515,-2.63618 2.179,-6.631438 2.539,-10.29289 z M 6.84732,36.1108 C 7.4096,30.2716 6.58389,23.8762 2.50076,18.3592 c 0,0 -4.60048,6.5315 -5.49097,15.0711 -0.89163,8.5394 4.10709,20.5987 4.10709,20.5987 0,0 4.7935,-8.1863 5.73044,-17.9182 z" />
  <path
     style="fill:#0c8447"
     inkscape:connector-curvature="0"
     id="path14"
     d="m 95.0065,138.532 c 0,0 -8.2345,-23.262 -26.7931,-24.445 0,0 2.0581,7.853 8.1054,14.139 6.0468,6.287 18.6877,10.306 18.6877,10.306 z m 10.9865,-24.67 c 0,0 -23.3052,-19.347 -40.2945,-11.081 -1.0608,-4.2173 -2.347,-8.3785 -3.8143,-12.4737 2.6384,2.3341 8.6252,7.1193 14.8691,8.614 8.3664,2.0017 23.7747,-2.4224 23.7747,-2.4224 0,0 -20.2957,-14.8976 -39.2297,-7.8065 -1.0063,-2.7033 -2.0876,-5.3784 -3.2546,-8.0123 -0.907,-2.0471 -1.8682,-4.0681 -2.8707,-6.069 2.001,1.8591 8.3907,7.4157 15.3865,9.0896 8.3658,2.0027 23.7744,-2.421 23.7744,-2.421 0,0 -20.6012,-15.1277 -39.6555,-7.6486 -1.239,-2.4265 -2.5487,-4.8167 -3.9229,-7.1687 2.3732,1.2096 9.2953,4.4085 15.6918,3.8531 7.7872,-0.676 19.9424,-9.6367 19.9424,-9.6367 0,0 -21.7282,-7.9522 -36.2168,4.7825 -1.3779,-2.316 -2.824,-4.5902 -4.3273,-6.827 -0.0265,-0.1512 -0.0401,-0.3005 -0.0718,-0.4518 0,0 -0.1467,0.0925 -0.161,0.101 -3.8194,-5.6478 -8.0274,-11.034 -12.5811,-16.1114 -0.2725,-0.3039 -0.5511,-0.6035 -0.8256,-0.9059 2.7871,0.7204 9.9948,2.2557 15.9635,0.5186 7.5018,-2.1826 17.6646,-13.1077 17.6646,-13.1077 0,0 -22.7675,-3.2602 -34.5003,11.6293 C 26.0079,34.5137 20.2788,29.0147 13.7772,24.5707 6.62836,19.6837 -1.22663,15.8749 -9.30545,12.7932 -19.548,8.88593 -30.4355,5.77916 -41.3344,4.34261 c -0.3808,-0.05118 -0.9671,1.25352 -0.5077,1.31344 9.0234,1.19 18.0148,3.6238 26.6159,6.53745 7.88762,2.6725 15.595924,5.974 22.79811,10.1751 4.91449,2.866 9.39449,6.2124 13.60509,9.9147 -0.2363,0.1354 -7.8903,4.5546 -12.86739,12.7661 -5.05553,8.3392 -5.76646,23.1516 -5.76646,23.1516 0,0 22.65345,-15.507 18.73635,-35.8255 2.3171,2.0428 4.5563,4.1895 6.7356,6.432 6.051,6.2256 11.5811,12.9878 16.4872,20.178 -2.4192,1.6158 -7.8443,5.6939 -11.6754,12.0153 -5.0555,8.3392 -5.767,23.1494 -5.767,23.1494 0,0 20.2993,-13.9009 19.136,-32.6259 2.797,4.2853 5.3716,8.7142 7.7023,13.2665 -0.9921,0.5531 -8.0051,4.6183 -12.9107,12.2462 -5.2753,8.2027 -6.3789,22.988 -6.3789,22.988 0,0 22.1887,-14.3447 19.8341,-34.1711 2.2149,4.4165 4.1982,8.9472 5.9326,13.5705 -0.7707,0.4249 -8.0054,4.5337 -13.0019,12.3026 -5.2755,8.201 -6.3802,22.988 -6.3802,22.988 0,0 22.0612,-14.262 19.8565,-33.9967 2.0376,5.603 3.7061,11.3397 4.9715,17.1767 -1.0364,0.583 -7.1591,4.192 -11.4843,10.915 -4.7175,7.337 -5.7061,20.565 -5.7061,20.565 0,0 17.9425,-11.599 17.9032,-27.981 0.6734,3.469 1.2444,7.005 1.4457,10.533 -0.051,-0.042 -0.0945,-0.092 -0.1474,-0.133 0,0 -2.7195,3.603 -3.6076,12.116 -0.8887,8.514 8.4342,19.58 8.4342,19.58 0,0 5.9908,-21.005 -3.7755,-30.743 -0.0824,-4.067 -0.744,-8.173 -1.4812,-12.159 -0.4358,-2.357 -0.948,-4.701 -1.5184,-7.03 1.0772,1.529 4.449,5.65 12.1805,10.068 9.7354,5.564 27.9277,0.236 27.9277,0.236 z M 78.3727,47.4945 c 0,0 -22.2549,-7.9574 -36.7135,5.0092 0,0 9.0029,4.9583 16.7881,4.3156 7.7867,-0.6431 19.9254,-9.3248 19.9254,-9.3248 z m -49.8231,17.269 c 3.4082,-5.7252 5.6594,-12.6957 4.1394,-20.3417 0,0 -7.8926,4.4801 -12.947,12.82 -5.0556,8.3391 -5.7656,23.1501 -5.7656,23.1501 0,0 8.8931,-6.0862 14.5732,-15.6284 z M 54.2714,15.8581 c 0,0 -23.395,-3.3618 -34.9784,12.2268 0,0 9.8113,3.0644 17.3138,0.881 7.5018,-2.1826 17.6646,-13.1078 17.6646,-13.1078 z M 34.0378,-1.30059 c 0,0 -23.5971,1.3341412 -31.86728,18.90599 0,0 10.22258,1.0634 17.14488,-2.5614 6.9213,-3.6227 14.7224,-16.34459 14.7224,-16.34459 z M 3.0357,42.7475 c 3.40811,-5.7252 5.65935,-12.6956 4.13945,-20.3417 0,0 -7.891771,4.4787 -12.94625,12.8186 -5.0555,8.3391 -5.767,23.1492 -5.767,23.1492 0,0 8.89359,-6.0839 14.5738,-15.6261 z M -11.8548,35.542 c 3.40813,-5.7252 5.65915,-12.6954 4.13944,-20.3418 0,0 -7.89234,4.4803 -12.94704,12.82 -5.0556,8.3392 -5.7657,23.1502 -5.7657,23.1502 0,0 8.8932,-6.0864 14.5733,-15.6284 z M 8.51061,-4.21462 c 2.75759,-4.61106 4.62219,-8.94978 4.62219,-8.94978 0,0 -23.1603,4.71124 -28.8187,23.29 0,0 10.26962,-0.41774 16.598818,-4.99858 C 3.68184,3.12291 6.36584,-0.628215 8.51061,-4.21462 Z M -27.1314,30.142 c 3.4082,-5.7252 5.6606,-12.6945 4.1409,-20.34088 0,0 -7.8917,4.47878 -12.9462,12.81858 -5.0556,8.3392 -5.767,23.1493 -5.767,23.1493 0,0 8.8922,-6.0849 14.5723,-15.627 z" />
  <path
     style="fill:#0a6638"
     inkscape:connector-curvature="0"
     id="path16"
     d="m 36.8154,192.013 c 0,0 0.0987,-26.296 -18.0945,-34.153 0,0 -0.7578,8.619 3.0501,17.098 3.8071,8.48 15.0444,17.055 15.0444,17.055 z m 19.8878,-20.801 c 0,0 -16.4278,-27.785 -36.4425,-25.598 0.4514,-4.612 0.6564,-9.249 0.656,-13.885 1.8081,3.29 6.0946,10.242 11.8216,13.986 7.674,5.015 24.7224,6.114 24.7224,6.114 0,0 -15.0079,-22.24 -36.5514,-21.93 -0.0381,-3.074 -0.1613,-6.146 -0.3857,-9.208 -0.1742,-2.38 -0.4123,-4.753 -0.699,-7.12 1.3393,2.584 5.7528,10.455 12.1697,14.648 7.6731,5.016 24.7212,6.115 24.7212,6.115 0,0 -15.2314,-22.58 -37.0349,-21.924 -0.3712,-2.88 -0.826,-5.748 -1.3593,-8.602 1.9461,2.067 7.7409,7.764 14.3577,9.505 8.0553,2.12 23.4699,-2.501 23.4699,-2.501 0,0 -18.9406,-15.7865 -38.0524,-8.217 -0.5501,-2.819 -1.1835,-5.6203 -1.8879,-8.4045 0.0265,-0.1609 0.0677,-0.316 0.09,-0.4792 0,0 -0.1807,0.0401 -0.1977,0.0434 -1.802,-7.0386 -4.0881,-13.9544 -6.83178,-20.6846 -0.16403,-0.4028 -0.336,-0.8035 -0.50279,-1.2056 2.53717,1.7244 9.21657,5.8549 15.82867,6.2571 8.3105,0.5063 22.4323,-6.802 22.4323,-6.802 0,0 -21.6695,-11.4526 -38.79101,-0.7314 C 4.9749,62.8628 1.20341,55.2871 -3.72214,48.4924 -9.13783,41.0205 -15.6494,34.3765 -22.6469,28.3816 -31.5183,20.7809 -41.3245,13.7515 -51.7424,8.39353 c -0.3636,-0.18818 -1.4206,0.91004 -0.9813,1.13524 8.6248,4.43653 16.7707,10.10943 24.3524,16.12353 6.9527,5.5157 13.4995,11.5979 19.21515,18.4008 3.90044,4.6414 7.19233,9.6086 10.086013,14.836 -0.285736,0.0509 -9.552613,1.7338 -17.496763,8.1832 -8.0686,6.5493 -14.105,21.1541 -14.105,21.1541 0,0 28.2994,-7.4162 31.671457,-29.208 1.590423,2.8822 3.065423,5.8404 4.445863,8.8734 3.83327,8.4202 6.95108,17.1916 9.28908,26.1681 -3.0076,0.7516 -9.91573,2.8933 -16.03097,7.8581 -8.06872,6.55 -14.10483,21.152 -14.10483,21.152 0,0 25.36049,-6.651 30.9225,-25.8544 1.2661,5.3044 2.2574,10.6724 2.9597,16.0774 -1.1941,0.198 -9.69064,1.756 -17.35333,7.646 -8.24008,6.333 -14.66087,20.77 -14.66087,20.77 0,0 27.4156,-6.417 32.1784,-27.154 0.6349,5.227 0.9963,10.485 1.0749,15.746 -0.9258,0.15 -9.6606,1.672 -17.46512,7.67 -8.23982,6.332 -14.66188,20.769 -14.66188,20.769 0,0 27.2576,-6.379 32.1379,-26.97 0.0303,6.353 -0.3568,12.708 -1.185,19.018 -1.2494,0.213 -8.68894,1.634 -15.44402,6.824 -7.36928,5.665 -13.11488,18.581 -13.11488,18.581 0,0 22.1687,-5.189 28.0165,-21.638 -0.5711,3.722 -1.2691,7.475 -2.335,11.087 -0.0378,-0.061 -0.0616,-0.126 -0.1002,-0.187 0,0 -4.0231,2.637 -7.97333,10.859 -3.95122,8.222 1.42513,22.674 1.42513,22.674 0,0 13.5585,-18.92 7.2601,-32.199 1.3792,-4.11 2.1907,-8.466 2.8838,-12.731 0.4098,-2.521 0.7383,-5.056 1.0031,-7.598 0.5312,1.921 2.4329,7.267 8.6017,14.478 7.7672,9.08 27.9329,10.273 27.9329,10.273 z M 52.844,94.7039 c 0,0 -19.4671,-15.9808 -38.6322,-8.1684 0,0 7.2502,8.2097 15.2915,10.3627 8.043,2.1532 23.3407,-2.1943 23.3407,-2.1943 z M -3.34584,94.1238 C 2.13081,89.6049 6.89423,83.4209 8.11713,75.2039 c 0,0 -9.52816,1.6583 -17.59602,8.2087 -8.06861,6.5493 -14.10361,21.1534 -14.10361,21.1534 0,0 11.109,-2.91 20.23666,-10.4422 z M 40.0341,54.3041 c 0,0 -22.2624,-11.7801 -39.485295,-0.3038 0,0 8.741745,6.6001 17.053095,7.1058 8.3104,0.5063 22.4322,-6.802 22.4322,-6.802 z M 25.9014,29.8186 c 0,0 -24.1527,-7.1416 -38.7644,7.515 0,0 9.87341,4.7404 18.1208,3.5917 8.2455,-1.1472 20.6436,-11.1067 20.6436,-11.1067 z m -46.9317,33.0492 c 5.4766,-4.5189 10.24,-10.7029 11.46302,-18.9198 0,0 -9.52672,1.6571 -17.59472,8.2075 -8.0686,6.5493 -14.1046,21.1516 -14.1046,21.1516 0,0 11.1086,-2.9076 20.2363,-10.4393 z m -12.3491,-12.58 c 5.4766,-4.5189 10.2397,-10.7026 11.463,-18.9199 0,0 -9.528,1.6585 -17.596,8.2087 -8.0687,6.5493 -14.1037,21.1529 -14.1037,21.1529 0,0 11.1091,-2.9101 20.2367,-10.4417 z M 1.339,17.7215 c 4.42356,-3.6349 7.85341,-7.3175 7.85341,-7.3175 0,0 -24.92811,-3.59668 -37.28141,13.0086 0,0 10.4528,3.2715 18.44869,0.9504 3.4981,-1.0155 7.53884,-3.8142 10.97931,-6.6415 z m -48.1037,21.659 c 5.4766,-4.5189 10.2408,-10.7012 11.4641,-18.9185 0,0 -9.5268,1.6572 -17.5946,8.2076 C -60.964,35.2189 -67,49.8211 -67,49.8211 c 0,0 11.1076,-2.909 20.2353,-10.4406 z" />
  <path
     style="fill:#084e2a"
     inkscape:connector-curvature="0"
     id="path18"
     d="m 221.08,610.962 18.32,3.513 -13.573,0.946 c 0.402,0.323 0.814,0.641 1.236,0.953 12.417,9.179 32.553,9.852 32.553,9.852 l -20.929,2.861 c 0,0 8.507,8.657 20.794,12.888 l 23.926,-7.364 -15.485,9.904 c 17.084,4.407 27.027,1.63 27.027,1.63 l -5.738,7.112 c 0,0 9.619,3.831 19.039,4.813 9.42,0.982 18.796,-3.643 18.796,-3.643 l -2.419,5.041 c 0,0 15.918,4.755 29.538,-8.535 L 210.903,593.256 c 0,0 2.498,9.297 10.177,17.706 z" />
  <path
     style="fill:#054425"
     inkscape:connector-curvature="0"
     id="path20"
     d="m 210.903,593.256 143.262,57.677 c 0,0 0.777,-13.692 -3.271,-22.069 -4.048,-8.376 -9.98,-9.002 -9.98,-9.002 l 0.256,8.642 c 0,0 -6.821,-13.379 -14.685,-21.836 -7.863,-8.457 -19.823,-11.087 -19.823,-11.087 l 1.723,14.774 c 0,0 -11.125,-15.503 -20.961,-22.437 -9.836,-6.933 -24.481,-8.337 -24.481,-8.337 l 2.982,12.954 c 0,0 -9.659,-9.371 -19.647,-13.523 -9.988,-4.152 -15.158,-3.792 -15.158,-3.792 l 4.833,9.708 c 0,0 -9.202,-2.822 -16.12,-2.686 -6.917,0.137 -8.93,11.014 -8.93,11.014 z" />
  <path
     style="fill:#005e2e"
     inkscape:connector-curvature="0"
     id="path22"
     d="m 280.264,486.926 11.309,20.412 -11.788,-12.278 c 0.013,0.645 0.038,1.295 0.076,1.951 1.136,19.283 16.628,39.165 16.628,39.165 l -19.522,-17.811 c 0,0 -1.498,15.11 4.286,30.303 l 26.25,17.079 -21.924,-6.935 c 9.46,19.942 20.097,27.266 20.097,27.266 l -11.43,0.188 c 0,0 4.029,12.311 10.637,22.146 6.606,9.835 18.563,15.134 18.563,15.134 l -6.78,1.717 c 0,0 8.19,19.101 31.872,21.532 L 289.115,462.959 c 0,0 -6.929,9.852 -8.851,23.967 z" />
  <path
     style="fill:#00542a"
     inkscape:connector-curvature="0"
     id="path24"
     d="m 289.115,462.96 59.423,183.835 c 0,0 13.774,-10.228 18.576,-20.83 4.801,-10.602 0.647,-16.801 0.647,-16.801 l -8.095,7.172 c 0,0 7.384,-17.275 9.204,-31.607 1.822,-14.331 -5.239,-27.926 -5.239,-27.926 l -12.809,13.495 c 0,0 5.974,-23.111 4.751,-38.116 -1.224,-15.005 -11.614,-30.197 -11.614,-30.197 l -10.053,13.247 c 0,0 1.26,-16.789 -2.757,-29.71 -4.017,-12.922 -8.507,-17.6 -8.507,-17.6 l -5.451,12.424 c 0,0 -4.665,-11.101 -10.34,-17.637 -5.675,-6.535 -17.736,0.251 -17.736,0.251 z" />
  <path
     style="fill:#0d8346"
     inkscape:connector-curvature="0"
     id="path26"
     d="m 223.117,545.649 19.503,11.28 -15.858,-4.308 c 0.331,0.528 0.675,1.053 1.033,1.577 10.519,15.399 33.222,24.16 33.222,24.16 l -25.009,-5.045 c 0,0 6.267,13.252 18.602,22.956 l 30.216,1.096 -21.595,5.151 c 17.739,11.809 30.183,12.587 30.183,12.587 l -9.369,5.835 c 0,0 9.451,8.188 19.808,13.047 10.355,4.86 22.886,3.306 22.886,3.306 l -4.761,4.789 c 0,0 16.27,11.743 37.082,1.99 L 218.537,521.413 c 0,0 -0.841,11.597 4.58,24.236 z" />
  <path
     style="fill:#0f7243"
     inkscape:connector-curvature="0"
     id="path28"
     d="M 218.537,521.413 359.06,644.07 c 0,0 6.32,-15.31 5.028,-26.472 -1.292,-11.162 -7.811,-14.229 -7.811,-14.229 l -3.137,9.958 c 0,0 -2.471,-17.968 -8.084,-30.736 -5.613,-12.769 -18.211,-20.515 -18.211,-20.515 l -3.899,17.536 c 0,0 -6.537,-22.1 -15.004,-33.914 -8.468,-11.813 -24.616,-19.227 -24.616,-19.227 l -1.74,15.96 c 0,0 -7.298,-14.523 -17.044,-23.224 -9.744,-8.701 -15.785,-10.342 -15.785,-10.342 l 1.66,12.992 c 0,0 -9.377,-6.871 -17.322,-9.463 -7.945,-2.589 -14.558,9.019 -14.558,9.019 z" />
  <path
     style="fill:#054425"
     inkscape:connector-curvature="0"
     id="path30"
     d="m 145.02,586.226 c -12.062,-8.668 -42.608,-4.924 -42.608,-4.924 l -23.6787,21.295 11.658,-17.613 c 0,0 -7.9187,-0.449 -21.3674,2.288 -13.4491,2.736 -21.3539,6.404 -21.3539,6.404 l -17.9593,27.135 5.6304,-20.919 c 0,0 -32.5773,11.984 -59.1627,63.532 z" />
  <path
     style="fill:#084e2a"
     inkscape:connector-curvature="0"
     id="path32"
     d="m 19.5984,654.589 37.7897,5.529 c 11.8901,-4.475 19.2904,-8.905 19.2904,-8.905 L 56.685,637.979 82.0355,643.12 c 0,0 9.195,-5.297 20.5785,-13.169 l -12.9919,-6.997 20.5659,1.591 c 15.443,-11.396 32.023,-26.095 34.832,-38.319 l -168.8412,77.198 c 19.9856,7.419 40.2282,6.847 57.2581,3.532 z" />
  <path
     style="fill:#0f7243"
     inkscape:connector-curvature="0"
     id="path34"
     d="m 116.857,472.917 c -17.5355,-0.879 -45.4729,22.417 -45.4729,22.417 l -9.8684,36.327 0.2898,-24.966 c 0,0 -8.1525,4.63 -19.7553,15.967 C 30.4467,534 24.9467,542.709 24.9467,542.709 l -0.4453,38.461 -7.8153,-24.385 c 0,0 -24.67411,32.781 -18.04034,101.016 z" />
  <path
     style="fill:#0d8346"
     inkscape:connector-curvature="0"
     id="path36"
     d="m 36.1067,621.198 41.0751,-18.729 c 8.9409,-12.065 13.4515,-21.208 13.4515,-21.208 L 62.2947,580.932 90.767,569.79 c 0,0 5.7374,-11.154 11.998,-26.268 l -17.3882,1.377 21.4452,-11.601 c 8.034,-21.215 15.079,-46.44 10.035,-60.381 L -1.35381,657.801 C 23.25,652.36 42.9878,638.818 57.7768,624.611 Z" />
  <defs
     id="defs100">
    <linearGradient
       id="paint0_linear"
       x1="180"
       y1="0"
       x2="180"
       y2="640"
       gradientUnits="userSpaceOnUse">
      <stop
         stop-color="#14CC6F"
         id="stop92" />
      <stop
         offset="1"
         stop-color="#01180D"
         id="stop94" />
    </linearGradient>
  </defs>
</svg>
