<?xml version="1.0" encoding="UTF-8" standalone="no"?>
<svg
   xmlns:dc="http://purl.org/dc/elements/1.1/"
   xmlns:cc="http://creativecommons.org/ns#"
   xmlns:rdf="http://www.w3.org/1999/02/22-rdf-syntax-ns#"
   xmlns:svg="http://www.w3.org/2000/svg"
   xmlns="http://www.w3.org/2000/svg"
   xmlns:sodipodi="http://sodipodi.sourceforge.net/DTD/sodipodi-0.dtd"
   xmlns:inkscape="http://www.inkscape.org/namespaces/inkscape"
   width="373.39035"
   height="517.04877"
   viewBox="0 0 373.39035 517.04877"
   version="1.1"
   id="svg410"
   sodipodi:docname="bg_river_boat_area.svg"
   inkscape:version="0.92.5 (2060ec1f9f, 2020-04-08)"
   style="fill:none">
  <metadata
     id="metadata414">
    <rdf:RDF>
      <cc:Work
         rdf:about="">
        <dc:format>image/svg+xml</dc:format>
        <dc:type
           rdf:resource="http://purl.org/dc/dcmitype/StillImage" />
        <dc:title />
      </cc:Work>
    </rdf:RDF>
  </metadata>
  <sodipodi:namedview
     pagecolor="#ffffff"
     bordercolor="#666666"
     borderopacity="1"
     objecttolerance="10"
     gridtolerance="10"
     guidetolerance="10"
     inkscape:pageopacity="0"
     inkscape:pageshadow="2"
     inkscape:window-width="1366"
     inkscape:window-height="705"
     id="namedview412"
     showgrid="false"
     inkscape:pagecheckerboard="true"
     inkscape:zoom="1.475"
     inkscape:cx="-74.13348"
     inkscape:cy="381.10187"
     inkscape:window-x="-8"
     inkscape:window-y="-8"
     inkscape:window-maximized="1"
     inkscape:current-layer="svg410"
     fit-margin-top="0"
     fit-margin-left="0"
     fit-margin-right="0"
     fit-margin-bottom="0" />
  <path
     style="color:#000000;font-style:normal;font-variant:normal;font-weight:normal;font-stretch:normal;font-size:medium;line-height:normal;font-family:sans-serif;font-variant-ligatures:normal;font-variant-position:normal;font-variant-caps:normal;font-variant-numeric:normal;font-variant-alternates:normal;font-feature-settings:normal;text-indent:0;text-align:start;text-decoration:none;text-decoration-line:none;text-decoration-style:solid;text-decoration-color:#000000;letter-spacing:normal;word-spacing:normal;text-transform:none;writing-mode:lr-tb;direction:ltr;text-orientation:mixed;dominant-baseline:auto;baseline-shift:baseline;text-anchor:start;white-space:normal;shape-padding:0;clip-rule:nonzero;display:inline;overflow:visible;visibility:visible;opacity:1;isolation:auto;mix-blend-mode:normal;color-interpolation:sRGB;color-interpolation-filters:linearRGB;solid-color:#000000;solid-opacity:1;vector-effect:none;fill:#71d2ff;fill-opacity:1;fill-rule:nonzero;stroke:none;stroke-width:5;stroke-linecap:butt;stroke-linejoin:miter;stroke-miterlimit:4;stroke-dasharray:5, 5;stroke-dashoffset:0;stroke-opacity:1;color-rendering:auto;image-rendering:auto;shape-rendering:auto;text-rendering:auto;enable-background:accumulate"
     d="m 102.45677,0 -3.30664,1.908203 2.5,4.330078 -1.02344,0.591797 0.5918,1.023437 4.33008,-2.5 z m -7.636718,4.408203 -4.330078,2.5 2.5,4.330078 4.330078,-2.5 z m -8.660156,5 -4.330078,2.5 2.5,4.330078 4.330078,-2.5 z m 21.888674,0.275391 -4.33008,2.5 2.5,4.330078 4.33008,-2.5 z m -30.54883,4.724609 -4.330079,2.5 2.5,4.330073 4.330079,-2.499995 z m 35.54883,3.935547 -4.33008,2.499996 2.5,4.33008 4.33008,-2.5 z m -44.208987,1.064456 -4.330078,2.5 2.5,4.33007 4.330078,-2.5 z m -8.660156,5 -4.330078,2.5 2.5,4.33007 4.330078,-2.5 z m 57.869143,2.5957 -4.33008,2.5 2.5,4.33008 4.33008,-2.5 z m -66.529299,2.4043 -4.330078,2.5 2.5,4.33007 4.330078,-2.5 z m -8.660157,5 -4.330078,2.5 2.5,4.33007 4.330078,-2.5 z m 80.189456,1.25586 -4.33008,2.5 2.5,4.33007 4.33008,-2.5 z m -88.849612,3.74414 -4.330078,2.5 2.5,4.33007 4.330078,-2.5 z m 93.849612,4.91601 -4.33008,2.5 2.5,4.33008 4.33008,-2.5 z m -102.509768,0.084 -5.945312,3.43164 1.568359,2.71679 4.330078,-2.5 0.931641,1.61329 1.615234,-0.93165 z m 98.363278,5.19726 -4.33008,2.5 2.5,4.33008 4.33008,-2.5 z m -95.910153,2.78125 -4.330078,2.5 2.498047,4.33008 4.332031,-2.5 z m 87.249993,2.21875 -4.33007,2.5 2.5,4.33008 4.33007,-2.5 z m -8.66015,5 -4.33008,2.5 2.5,4.33008 4.33008,-2.5 z m -73.589843,1.44141 -4.332031,2.5 2.5,4.33008 4.332031,-2.5 z m 64.929687,3.55859 -4.330078,2.5 2.5,4.33008 4.330074,-2.5 z m -8.660156,5 -4.330078,2.5 2.5,4.33008 4.330078,-2.5 z m -51.271484,0.10157 -4.330078,2.5 2.5,4.33007 4.330078,-2.5 z m 42.611328,4.89843 -4.330078,2.5 2.5,4.33008 4.330078,-2.5 z m -37.611328,3.76172 -4.330078,2.5 2.5,4.33008 4.330078,-2.5 z m 28.951172,1.23828 -4.330078,2.5 2.5,4.33008 4.330078,-2.5 z m -8.660156,5 -4.330079,2.5 2.5,4.33008 4.330079,-2.5 z m -15.291016,2.42188 -4.330078,2.5 2.5,4.33008 4.330078,-2.5 z m 6.630859,2.57812 -4.330078,2.5 2.5,4.33008 4.330078,-2.5 z"
     id="path46"
     inkscape:connector-curvature="0" />
  <path
     style="color:#000000;font-style:normal;font-variant:normal;font-weight:normal;font-stretch:normal;font-size:medium;line-height:normal;font-family:sans-serif;font-variant-ligatures:normal;font-variant-position:normal;font-variant-caps:normal;font-variant-numeric:normal;font-variant-alternates:normal;font-feature-settings:normal;text-indent:0;text-align:start;text-decoration:none;text-decoration-line:none;text-decoration-style:solid;text-decoration-color:#000000;letter-spacing:normal;word-spacing:normal;text-transform:none;writing-mode:lr-tb;direction:ltr;text-orientation:mixed;dominant-baseline:auto;baseline-shift:baseline;text-anchor:start;white-space:normal;shape-padding:0;clip-rule:nonzero;display:inline;overflow:visible;visibility:visible;opacity:1;isolation:auto;mix-blend-mode:normal;color-interpolation:sRGB;color-interpolation-filters:linearRGB;solid-color:#000000;solid-opacity:1;vector-effect:none;fill:#71d2ff;fill-opacity:1;fill-rule:nonzero;stroke:none;stroke-width:5;stroke-linecap:butt;stroke-linejoin:miter;stroke-miterlimit:4;stroke-dasharray:5, 5;stroke-dashoffset:0;stroke-opacity:1;color-rendering:auto;image-rendering:auto;shape-rendering:auto;text-rendering:auto;enable-background:accumulate"
     d="m 129.45677,46.763676 -3.30469,1.91015 1.83984,3.1875 -1.61523,-0.43164 1.8418,3.18945 4.33008,-2.5 z m -7.63672,4.41015 -4.33008,2.5 2.5,4.33008 4.33203,-2.5 z m -8.66016,5 -4.33007,2.5 2.5,4.33008 4.33007,-2.5 z m 21.88868,0.27539 -4.33008,2.5 2.5,4.33008 4.33008,-2.5 z m -30.54883,4.72461 -4.33008,2.5 2.5,4.33008 4.33008,-2.5 z m 35.54883,3.93555 -4.33008,2.5 2.5,4.33008 4.33008,-2.5 z m -44.208987,1.06445 -4.330078,2.5 2.5,4.33008 4.330078,-2.5 z m -8.660156,5 -4.330078,2.5 2.5,4.33008 4.330078,-2.5 z m 57.869143,2.59571 -4.33008,2.5 2.5,4.33007 4.33008,-2.5 z m -66.529299,2.40429 -4.330078,2.5 2.5,4.33008 4.330078,-2.5 z m -8.660157,5 -4.330078,2.5 2.5,4.33008 4.330078,-2.5 z m 80.189456,1.25586 -4.33008,2.5 2.5,4.33008 4.33008,-2.5 z m -88.849612,3.74414 -4.330078,2.5 2.5,4.33008 4.330078,-2.5 z m 93.849612,4.91602 -4.33008,2.5 2.5,4.33008 4.33008,-2.5 z m -102.509768,0.084 -5.945312,3.4336 1.566406,2.71289 4.330078,-2.5 0.933594,1.61718 1.615234,-0.93359 z m 98.363278,5.19727 -4.33008,2.5 2.5,4.330084 4.33008,-2.5 z m -95.912106,2.77929 -4.330078,2.500004 2.5,4.33008 4.330078,-2.5 z m 87.251946,2.220714 -4.33007,2.5 2.5,4.33008 4.33007,-2.5 z m -8.66015,5 -4.33008,2.5 2.5,4.33008 4.33008,-2.5 z m -73.591796,1.43945 -4.330078,2.5 2.5,4.33008 4.330078,-2.5 z m 64.931636,3.56055 -4.33008,2.5 2.5,4.33008 4.33008,-2.5 z m -8.66015,5 -4.33008,2.5 2.5,4.33008 4.33008,-2.5 z m -51.271486,0.0996 -4.330078,2.5 2.5,4.33007 4.330078,-2.5 z m 42.611326,4.90039 -4.33008,2.5 2.5,4.33008 4.33008,-2.5 z m -37.611326,3.75976 -4.330078,2.5 2.5,4.33008 4.330078,-2.5 z m 28.951172,1.24024 -4.330078,2.5 2.5,4.33008 4.330082,-2.5 z m -8.660156,5 -4.330079,2.5 2.5,4.33008 4.330079,-2.5 z m -15.291016,2.41992 -4.330078,2.5 2.5,4.33008 4.330078,-2.5 z m 6.630859,2.58008 -4.330078,2.5 2.5,4.33008 4.330078,-2.5 z"
     id="path48"
     inkscape:connector-curvature="0" />
  <path
     style="color:#000000;font-style:normal;font-variant:normal;font-weight:normal;font-stretch:normal;font-size:medium;line-height:normal;font-family:sans-serif;font-variant-ligatures:normal;font-variant-position:normal;font-variant-caps:normal;font-variant-numeric:normal;font-variant-alternates:normal;font-feature-settings:normal;text-indent:0;text-align:start;text-decoration:none;text-decoration-line:none;text-decoration-style:solid;text-decoration-color:#000000;letter-spacing:normal;word-spacing:normal;text-transform:none;writing-mode:lr-tb;direction:ltr;text-orientation:mixed;dominant-baseline:auto;baseline-shift:baseline;text-anchor:start;white-space:normal;shape-padding:0;clip-rule:nonzero;display:inline;overflow:visible;visibility:visible;opacity:1;isolation:auto;mix-blend-mode:normal;color-interpolation:sRGB;color-interpolation-filters:linearRGB;solid-color:#000000;solid-opacity:1;vector-effect:none;fill:#71d2ff;fill-opacity:1;fill-rule:nonzero;stroke:none;stroke-width:5;stroke-linecap:butt;stroke-linejoin:miter;stroke-miterlimit:4;stroke-dasharray:5, 5;stroke-dashoffset:0;stroke-opacity:1;color-rendering:auto;image-rendering:auto;shape-rendering:auto;text-rendering:auto;enable-background:accumulate"
     d="m 156.45677,93.531246 -3.30664,1.90821 2.5,4.33008 -1.02344,0.591794 0.5918,1.02344 4.33008,-2.500004 z m -7.63672,4.40821 -4.33008,2.500004 2.5,4.33008 4.33008,-2.5 z m -8.66016,5.000004 -4.33007,2.5 2.5,4.33008 4.33007,-2.5 z m 21.88868,0.27539 -4.33008,2.5 2.5,4.33008 4.33008,-2.5 z m -30.54883,4.72461 -4.33008,2.5 2.5,4.33008 4.33008,-2.5 z m 35.54883,3.93554 -4.33008,2.5 2.5,4.33008 4.33008,-2.5 z m -44.20899,1.06446 -4.33008,2.5 2.5,4.33008 4.33008,-2.5 z m -8.66016,5 -4.33007,2.5 2.5,4.33008 4.33007,-2.5 z m 57.86915,2.5957 -4.33008,2.5 2.5,4.33008 4.33008,-2.5 z m -66.5293,2.4043 -4.33008,2.5 2.5,4.33008 4.33008,-2.5 z m -8.660156,5 -4.330078,2.5 2.5,4.33008 4.330078,-2.5 z m 80.189456,1.25586 -4.33008,2.5 2.5,4.33007 4.33008,-2.5 z m -88.849612,3.74414 -4.330078,2.5 2.5,4.33008 4.330078,-2.5 z m 93.849612,4.91601 -4.33008,2.5 2.5,4.33008 4.33008,-2.5 z m -102.509768,0.084 -5.945312,3.43164 1.568359,2.71679 4.330078,-2.5 0.931641,1.61329 1.615234,-0.93164 z m 98.363278,5.19726 -4.33008,2.5 2.5,4.33008 4.33008,-2.5 z m -95.910153,2.78125 -4.330078,2.5 2.5,4.33008 4.330078,-2.5 z m 87.249993,2.21875 -4.33007,2.5 2.5,4.33008 4.33007,-2.5 z m -8.66015,5 -4.33008,2.5 2.5,4.33008 4.33008,-2.5 z m -73.589843,1.44141 -4.330078,2.5 2.5,4.33008 4.330078,-2.5 z m 64.929683,3.55859 -4.33008,2.5 2.5,4.33008 4.33008,-2.5 z m -8.66015,5 -4.33008,2.5 2.5,4.33008 4.33008,-2.5 z m -51.269533,0.10156 -4.332031,2.5 2.5,4.33008 4.332031,-2.5 z m 42.609373,4.89844 -4.33008,2.5 2.5,4.33008 4.33008,-2.5 z m -37.609373,3.76172 -4.332031,2.5 2.5,4.33008 4.330078,-2.5 z m 28.949213,1.23828 -4.33007,2.5 2.5,4.33008 4.33007,-2.5 z m -8.66015,5 -4.33008,2.5 2.5,4.33008 4.33008,-2.5 z m -15.29102,2.42188 -4.330074,2.5 2.500004,4.33008 4.33007,-2.5 z m 6.63086,2.57812 -4.33007,2.5 2.5,4.33008 4.33007,-2.5 z"
     id="path50"
     inkscape:connector-curvature="0" />
  <path
     style="color:#000000;font-style:normal;font-variant:normal;font-weight:normal;font-stretch:normal;font-size:medium;line-height:normal;font-family:sans-serif;font-variant-ligatures:normal;font-variant-position:normal;font-variant-caps:normal;font-variant-numeric:normal;font-variant-alternates:normal;font-feature-settings:normal;text-indent:0;text-align:start;text-decoration:none;text-decoration-line:none;text-decoration-style:solid;text-decoration-color:#000000;letter-spacing:normal;word-spacing:normal;text-transform:none;writing-mode:lr-tb;direction:ltr;text-orientation:mixed;dominant-baseline:auto;baseline-shift:baseline;text-anchor:start;white-space:normal;shape-padding:0;clip-rule:nonzero;display:inline;overflow:visible;visibility:visible;opacity:1;isolation:auto;mix-blend-mode:normal;color-interpolation:sRGB;color-interpolation-filters:linearRGB;solid-color:#000000;solid-opacity:1;vector-effect:none;fill:#71d2ff;fill-opacity:1;fill-rule:nonzero;stroke:none;stroke-width:5;stroke-linecap:butt;stroke-linejoin:miter;stroke-miterlimit:4;stroke-dasharray:5, 5;stroke-dashoffset:0;stroke-opacity:1;color-rendering:auto;image-rendering:auto;shape-rendering:auto;text-rendering:auto;enable-background:accumulate"
     d="m 183.45677,140.29493 -3.30469,1.91015 1.83984,3.1875 -1.61523,-0.43164 1.8418,3.18945 4.33008,-2.5 z m -7.63672,4.41015 -4.33008,2.5 2.5,4.33008 4.33008,-2.5 z m -8.66016,4.99805 -4.33007,2.5 2.5,4.33203 4.33007,-2.5 z m 21.88868,0.27734 -4.33008,2.5 2.5,4.33008 4.33008,-2.5 z m -30.54883,4.72266 -4.33008,2.5 2.5,4.33203 4.33008,-2.5 z m 35.54883,3.9375 -4.33008,2.5 2.5,4.33008 4.33008,-2.5 z m -44.20899,1.0625 -4.33008,2.5 2.5,4.33008 4.33008,-2.5 z m -8.66016,5 -4.33007,2.5 2.5,4.33008 4.33007,-2.5 z m 57.86915,2.59765 -4.33008,2.5 2.5,4.33008 4.33008,-2.5 z m -66.5293,2.40235 -4.33008,2.5 2.5,4.33008 4.33008,-2.5 z m -8.66016,5 -4.33008,2.5 2.5,4.33008 4.33008,-2.5 z m 80.18946,1.25781 -4.33008,2.5 2.5,4.33008 4.33008,-2.5 z m -88.84961,3.74219 -4.33008,2.5 2.5,4.33008 4.33008,-2.5 z m 93.84961,4.91797 -4.33008,2.5 2.5,4.33008 4.33008,-2.5 z m -102.50977,0.082 -5.94531,3.43359 1.56641,2.71485 3.78125,-2.1836 -0.6836,2.54883 3.78125,-2.18359 z m 98.36328,5.19922 -4.33008,2.5 2.5,4.33008 4.33008,-2.5 z m -95.91211,2.77929 -4.33007,2.5 2.5,4.33008 4.33007,-2.5 z m 87.25195,2.22071 -4.33007,2.5 2.5,4.33008 4.33007,-2.5 z m -8.66015,5 -4.33008,2.5 2.5,4.33008 4.33008,-2.5 z m -73.5918,1.43945 -4.33007,2.5 2.49999,4.33008 4.33008,-2.5 z m 64.93164,3.56055 -4.33008,2.5 2.5,4.33008 4.33008,-2.5 z m -8.66015,5 -4.33008,2.5 2.5,4.33008 4.33008,-2.5 z m -51.27149,0.0996 -4.33008,2.5 2.5,4.33008 4.33008,-2.5 z m 42.61133,4.90039 -4.33008,2.5 2.5,4.33008 4.33008,-2.5 z m -37.61133,3.75976 -4.33008,2.5 2.5,4.33008 4.33008,-2.5 z m 28.95117,1.24024 -4.33007,2.5 2.5,4.33008 4.33007,-2.5 z m -8.66015,5 -4.33008,2.5 2.5,4.33008 4.33008,-2.5 z m -15.29102,2.41992 -4.33008,2.5 2.5,4.33008 4.33008,-2.5 z m 6.63086,2.58008 -4.33008,2.5 2.5,4.33008 4.33008,-2.5 z"
     id="path52"
     inkscape:connector-curvature="0" />
  <path
     style="color:#000000;font-style:normal;font-variant:normal;font-weight:normal;font-stretch:normal;font-size:medium;line-height:normal;font-family:sans-serif;font-variant-ligatures:normal;font-variant-position:normal;font-variant-caps:normal;font-variant-numeric:normal;font-variant-alternates:normal;font-feature-settings:normal;text-indent:0;text-align:start;text-decoration:none;text-decoration-line:none;text-decoration-style:solid;text-decoration-color:#000000;letter-spacing:normal;word-spacing:normal;text-transform:none;writing-mode:lr-tb;direction:ltr;text-orientation:mixed;dominant-baseline:auto;baseline-shift:baseline;text-anchor:start;white-space:normal;shape-padding:0;clip-rule:nonzero;display:inline;overflow:visible;visibility:visible;opacity:1;isolation:auto;mix-blend-mode:normal;color-interpolation:sRGB;color-interpolation-filters:linearRGB;solid-color:#000000;solid-opacity:1;vector-effect:none;fill:#71d2ff;fill-opacity:1;fill-rule:nonzero;stroke:none;stroke-width:5;stroke-linecap:butt;stroke-linejoin:miter;stroke-miterlimit:4;stroke-dasharray:5, 5;stroke-dashoffset:0;stroke-opacity:1;color-rendering:auto;image-rendering:auto;shape-rendering:auto;text-rendering:auto;enable-background:accumulate"
     d="m 210.29857,186.78711 -3.30665,1.90821 2.5,4.33007 -1.02343,0.5918 0.58984,1.02344 4.33008,-2.5 z m -7.63672,4.40821 -4.33008,2.5 2.5,4.33007 4.33008,-2.5 z m -8.66016,5 -4.33008,2.5 2.5,4.33007 4.33008,-2.5 z m 21.88672,0.27539 -4.33008,2.5 2.5,4.33007 4.33008,-2.5 z m -30.54688,4.72461 -4.33007,2.5 2.5,4.33007 4.33007,-2.5 z m 35.54688,3.93554 -4.33008,2.5 2.50195,4.33008 4.33008,-2.5 z m -44.20703,1.06446 -4.33008,2.5 2.5,4.33007 4.33008,-2.5 z m -8.66016,5 -4.33008,2.5 2.5,4.33007 4.33008,-2.5 z m 57.86914,2.5957 -4.33008,2.5 2.5,4.33008 4.33008,-2.5 z m -66.52929,2.4043 -4.33008,2.5 2.5,4.33007 4.33008,-2.5 z m -8.66016,5 -4.33008,2.5 2.5,4.33007 4.33008,-2.5 z m 80.18945,1.25586 -4.33008,2.5 2.5,4.33007 4.33008,-2.5 z m -88.84961,3.74414 -4.33007,2.5 2.5,4.33007 4.33007,-2.5 z m 93.84961,4.91601 -4.33008,2.5 2.5,4.33008 4.33008,-2.5 z m -102.50976,0.084 -5.94532,3.43164 1.56641,2.71679 3.78125,-2.18359 -0.68359,2.54688 3.78125,-2.18165 z m 98.36523,5.19531 -4.33203,2.5 2.5,4.33008 4.33203,-2.5 z m -95.91406,2.7832 -4.33008,2.5 2.5,4.33008 4.33008,-2.5 z m 87.25195,2.2168 -4.33008,2.5 2.5,4.33008 4.33008,-2.5 z m -8.66015,5 -4.33008,2.5 2.5,4.33008 4.33008,-2.5 z m -73.5918,1.44336 -4.33008,2.5 2.5,4.33008 4.33008,-2.5 z m 64.93164,3.55664 -4.33008,2.5 2.5,4.33008 4.33008,-2.5 z m -8.66016,5 -4.33007,2.5 2.5,4.33008 4.33007,-2.5 z m -51.27148,0.10351 -4.33008,2.5 2.5,4.33008 4.33008,-2.5 z m 42.61133,4.89649 -4.33008,2.5 2.5,4.33008 4.33008,-2.5 z m -37.61133,3.76367 -4.33008,2.5 2.5,4.33008 4.33008,-2.5 z m 28.95117,1.23633 -4.33008,2.5 2.5,4.33008 4.33008,-2.5 z m -8.66016,5 -4.33007,2.5 2.5,4.33008 4.33007,-2.5 z m -15.29101,2.42383 -4.33008,2.5 2.5,4.33008 4.33008,-2.5 z m 6.63086,2.57617 -4.33008,2.5 2.5,4.33008 4.33008,-2.5 z"
     id="path54"
     inkscape:connector-curvature="0" />
  <path
     style="color:#000000;font-style:normal;font-variant:normal;font-weight:normal;font-stretch:normal;font-size:medium;line-height:normal;font-family:sans-serif;font-variant-ligatures:normal;font-variant-position:normal;font-variant-caps:normal;font-variant-numeric:normal;font-variant-alternates:normal;font-feature-settings:normal;text-indent:0;text-align:start;text-decoration:none;text-decoration-line:none;text-decoration-style:solid;text-decoration-color:#000000;letter-spacing:normal;word-spacing:normal;text-transform:none;writing-mode:lr-tb;direction:ltr;text-orientation:mixed;dominant-baseline:auto;baseline-shift:baseline;text-anchor:start;white-space:normal;shape-padding:0;clip-rule:nonzero;display:inline;overflow:visible;visibility:visible;opacity:1;isolation:auto;mix-blend-mode:normal;color-interpolation:sRGB;color-interpolation-filters:linearRGB;solid-color:#000000;solid-opacity:1;vector-effect:none;fill:#71d2ff;fill-opacity:1;fill-rule:nonzero;stroke:none;stroke-width:5;stroke-linecap:butt;stroke-linejoin:miter;stroke-miterlimit:4;stroke-dasharray:5, 5;stroke-dashoffset:0;stroke-opacity:1;color-rendering:auto;image-rendering:auto;shape-rendering:auto;text-rendering:auto;enable-background:accumulate"
     d="m 237.29857,233.55078 -3.30665,1.90821 2.5,4.33008 -1.02343,0.59179 0.59179,1.02539 4.33008,-2.5 z m -7.63672,4.40821 -4.33008,2.5 2.5,4.33008 4.33008,-2.5 z m -8.66016,5 -4.33008,2.5 2.5,4.33008 4.33008,-2.5 z m 21.88867,0.27734 -4.33008,2.5 2.5,4.33008 4.33008,-2.5 z m -30.54883,4.72266 -4.33007,2.5 2.5,4.33008 4.33007,-2.5 z m 35.54883,3.9375 -4.33008,2.5 2.5,4.33008 4.33008,-2.5 z m -44.20898,1.0625 -4.33008,2.5 2.5,4.33008 4.33008,-2.5 z m -8.66016,5 -4.33008,2.5 2.5,4.33008 4.33008,-2.5 z m 57.86914,2.59765 -4.33008,2.5 2.5,4.33008 4.33008,-2.5 z m -66.52929,2.40235 -4.33008,2.5 2.5,4.33008 4.33008,-2.5 z m -8.66016,5 -4.33008,2.5 2.5,4.33008 4.33008,-2.5 z m 80.18945,1.25781 -4.33008,2.5 2.5,4.33008 4.33008,-2.5 z m -88.84961,3.74219 -4.33007,2.5 2.5,4.33008 4.33007,-2.5 z m 93.84961,4.91797 -4.33008,2.5 2.5,4.33008 4.33008,-2.5 z m -102.50976,0.082 -5.94532,3.43359 1.56641,2.71485 4.33008,-2.5 0.93359,1.61523 1.61524,-0.93359 z m 98.36328,5.19922 -4.33008,2.5 2.5,4.33007 4.33008,-2.5 z m -95.91211,2.77929 -4.33008,2.5 2.5,4.33008 4.33008,-2.5 z m 87.25195,2.22071 -4.33008,2.5 2.5,4.33007 4.33008,-2.5 z m -8.66015,5 -4.33008,2.5 2.5,4.33007 4.33008,-2.5 z m -73.5918,1.43945 -4.33008,2.5 2.5,4.33008 4.33008,-2.5 z m 64.93164,3.56055 -4.33008,2.5 2.5,4.33007 4.33008,-2.5 z m -8.66016,5 -4.33203,2.5 2.5,4.33007 4.33008,-2.5 z m -51.27148,0.0996 -4.33008,2.5 2.5,4.33007 4.33008,-2.5 z m 42.60937,4.90039 -4.33007,2.5 2.5,4.33007 4.33007,-2.5 z m -37.60937,3.75976 -4.33008,2.5 2.5,4.33008 4.33008,-2.5 z m 28.94922,1.24024 -4.33008,2.5 2.5,4.33007 4.33008,-2.5 z m -8.66016,5 -4.33008,2.5 2.5,4.33007 4.33008,-2.5 z m -15.28906,2.41992 -4.33008,2.5 2.5,4.33008 4.33008,-2.5 z m 6.62891,2.58008 -4.33008,2.5 2.5,4.33007 4.33008,-2.5 z"
     id="path56"
     inkscape:connector-curvature="0" />
  <path
     style="color:#000000;font-style:normal;font-variant:normal;font-weight:normal;font-stretch:normal;font-size:medium;line-height:normal;font-family:sans-serif;font-variant-ligatures:normal;font-variant-position:normal;font-variant-caps:normal;font-variant-numeric:normal;font-variant-alternates:normal;font-feature-settings:normal;text-indent:0;text-align:start;text-decoration:none;text-decoration-line:none;text-decoration-style:solid;text-decoration-color:#000000;letter-spacing:normal;word-spacing:normal;text-transform:none;writing-mode:lr-tb;direction:ltr;text-orientation:mixed;dominant-baseline:auto;baseline-shift:baseline;text-anchor:start;white-space:normal;shape-padding:0;clip-rule:nonzero;display:inline;overflow:visible;visibility:visible;opacity:1;isolation:auto;mix-blend-mode:normal;color-interpolation:sRGB;color-interpolation-filters:linearRGB;solid-color:#000000;solid-opacity:1;vector-effect:none;fill:#71d2ff;fill-opacity:1;fill-rule:nonzero;stroke:none;stroke-width:5;stroke-linecap:butt;stroke-linejoin:miter;stroke-miterlimit:4;stroke-dasharray:5, 5;stroke-dashoffset:0;stroke-opacity:1;color-rendering:auto;image-rendering:auto;shape-rendering:auto;text-rendering:auto;enable-background:accumulate"
     d="m 264.29857,280.31836 -3.30665,1.90821 2.5,4.33007 -1.02343,0.5918 0.58984,1.02344 4.33008,-2.5 z m -7.63672,4.40821 -4.33008,2.5 2.5,4.33007 4.33008,-2.5 z m -8.66016,5 -4.33008,2.5 2.5,4.33007 4.33008,-2.5 z m 21.88672,0.27539 -4.33008,2.5 2.5,4.33008 4.33008,-2.5 z m -30.54688,4.72461 -4.33007,2.5 2.5,4.33007 4.33007,-2.5 z m 35.54688,3.93554 -4.33008,2.5 2.50195,4.33008 4.33008,-2.5 z m -44.20703,1.06446 -4.33008,2.5 2.5,4.33007 4.33008,-2.5 z m -8.66016,5 -4.33008,2.5 2.5,4.33007 4.33008,-2.5 z m 57.86914,2.5957 -4.33008,2.5 2.5,4.33008 4.33008,-2.5 z m -66.52929,2.4043 -4.33008,2.5 2.5,4.33007 4.33008,-2.5 z m -8.66016,5 -4.33008,2.5 2.5,4.33007 4.33008,-2.5 z m 80.18945,1.25586 -4.33008,2.5 2.5,4.33007 4.33008,-2.5 z m -88.84961,3.74414 -4.33007,2.5 2.5,4.33007 4.33007,-2.5 z m 93.84961,4.91601 -4.33008,2.5 2.5,4.33008 4.33008,-2.5 z m -102.50976,0.084 -5.94532,3.43164 1.56641,2.71484 3.78125,-2.18359 -0.68359,2.54882 3.78125,-2.18164 z m 98.36523,5.19531 -4.33203,2.5 2.5,4.33008 4.33203,-2.5 z m -95.91406,2.78125 -4.33008,2.5 2.5,4.33203 4.33008,-2.5 z m 87.25195,2.21875 -4.33008,2.5 2.5,4.33008 4.33008,-2.5 z m -8.66015,5 -4.33008,2.5 2.5,4.33008 4.33008,-2.5 z m -73.5918,1.44336 -4.33008,2.5 2.5,4.33008 4.33008,-2.5 z m 64.93164,3.55664 -4.33008,2.5 2.5,4.33008 4.33008,-2.5 z m -8.66016,5 -4.33007,2.5 2.5,4.33008 4.33007,-2.5 z m -51.27148,0.10351 -4.33008,2.5 2.5,4.33008 4.33008,-2.5 z m 42.61133,4.89649 -4.33008,2.5 2.5,4.33008 4.33008,-2.5 z m -37.61133,3.76367 -4.33008,2.5 2.5,4.33008 4.33008,-2.5 z m 28.95117,1.23633 -4.33008,2.5 2.5,4.33008 4.33008,-2.5 z m -8.66016,5 -4.33007,2.5 2.5,4.33008 4.33007,-2.5 z m -15.29101,2.42383 -4.33008,2.5 2.5,4.33007 4.33008,-2.5 z m 6.63086,2.57617 -4.33008,2.5 2.5,4.33008 4.33008,-2.5 z"
     id="path58"
     inkscape:connector-curvature="0" />
  <path
     style="color:#000000;font-style:normal;font-variant:normal;font-weight:normal;font-stretch:normal;font-size:medium;line-height:normal;font-family:sans-serif;font-variant-ligatures:normal;font-variant-position:normal;font-variant-caps:normal;font-variant-numeric:normal;font-variant-alternates:normal;font-feature-settings:normal;text-indent:0;text-align:start;text-decoration:none;text-decoration-line:none;text-decoration-style:solid;text-decoration-color:#000000;letter-spacing:normal;word-spacing:normal;text-transform:none;writing-mode:lr-tb;direction:ltr;text-orientation:mixed;dominant-baseline:auto;baseline-shift:baseline;text-anchor:start;white-space:normal;shape-padding:0;clip-rule:nonzero;display:inline;overflow:visible;visibility:visible;opacity:1;isolation:auto;mix-blend-mode:normal;color-interpolation:sRGB;color-interpolation-filters:linearRGB;solid-color:#000000;solid-opacity:1;vector-effect:none;fill:#71d2ff;fill-opacity:1;fill-rule:nonzero;stroke:none;stroke-width:5;stroke-linecap:butt;stroke-linejoin:miter;stroke-miterlimit:4;stroke-dasharray:5, 5;stroke-dashoffset:0;stroke-opacity:1;color-rendering:auto;image-rendering:auto;shape-rendering:auto;text-rendering:auto;enable-background:accumulate"
     d="m 291.29857,327.08204 -3.30665,1.91015 2.5,4.33008 -1.02343,0.58984 0.58984,1.02539 4.33008,-2.5 z m -7.63672,4.41015 -4.33008,2.5 2.5,4.33008 4.33008,-2.5 z m -8.66016,5 -4.33008,2.5 2.5,4.33008 4.33008,-2.5 z m 21.88672,0.27539 -4.33008,2.5 2.5,4.33008 4.33008,-2.5 z m -30.54688,4.72461 -4.33007,2.5 2.5,4.33008 4.33007,-2.5 z m 35.54688,3.93555 -4.33008,2.5 2.50195,4.33008 4.33008,-2.5 z m -44.20703,1.06445 -4.33008,2.5 2.5,4.33008 4.33008,-2.5 z m -8.66016,5 -4.33008,2.5 2.5,4.33008 4.33008,-2.5 z m 57.86914,2.5957 -4.33008,2.5 2.5,4.33008 4.33008,-2.5 z m -66.52929,2.4043 -4.33008,2.5 2.5,4.33008 4.33008,-2.5 z m -8.66016,5 -4.33008,2.5 2.5,4.33008 4.33008,-2.5 z m 80.18945,1.25586 -4.33008,2.5 2.5,4.33008 4.33008,-2.5 z m -88.84961,3.74414 -4.33007,2.5 2.5,4.33008 4.33007,-2.5 z m 93.84961,4.91602 -4.33008,2.5 2.5,4.33007 4.33008,-2.5 z m -102.50976,0.084 -5.94532,3.43164 1.56641,2.71485 4.33008,-2.5 0.93359,1.61523 1.61524,-0.93164 z m 98.36328,5.19531 -4.33008,2.5 2.5,4.33008 4.33008,-2.5 z m -95.91211,2.78125 -4.33008,2.5 2.5,4.33008 4.33008,-2.5 z m 87.25195,2.21875 -4.33008,2.5 2.5,4.33008 4.33008,-2.5 z m -8.66015,5 -4.33008,2.5 2.5,4.33008 4.33008,-2.5 z m -73.5918,1.44141 -4.33008,2.5 2.5,4.33008 4.33008,-2.5 z m 64.93164,3.55859 -4.33008,2.5 2.5,4.33008 4.33008,-2.5 z m -8.66016,5 -4.33007,2.5 2.5,4.33008 4.33007,-2.5 z m -51.27148,0.10157 -4.33008,2.5 2.5,4.33007 4.33008,-2.5 z m 42.61133,4.89843 -4.33008,2.5 2.5,4.33008 4.33008,-2.5 z m -37.61133,3.76172 -4.33008,2.5 2.5,4.33008 4.33008,-2.5 z m 28.95117,1.23828 -4.33008,2.5 2.5,4.33008 4.33008,-2.5 z m -8.66016,5 -4.33007,2.5 2.5,4.33008 4.33007,-2.5 z m -15.29101,2.42188 -4.33008,2.5 2.5,4.33008 4.33008,-2.49805 z m 6.63086,2.57812 -4.33008,2.5 2.5,4.33008 4.33008,-2.5 z"
     id="path60"
     inkscape:connector-curvature="0" />
  <path
     style="color:#000000;font-style:normal;font-variant:normal;font-weight:normal;font-stretch:normal;font-size:medium;line-height:normal;font-family:sans-serif;font-variant-ligatures:normal;font-variant-position:normal;font-variant-caps:normal;font-variant-numeric:normal;font-variant-alternates:normal;font-feature-settings:normal;text-indent:0;text-align:start;text-decoration:none;text-decoration-line:none;text-decoration-style:solid;text-decoration-color:#000000;letter-spacing:normal;word-spacing:normal;text-transform:none;writing-mode:lr-tb;direction:ltr;text-orientation:mixed;dominant-baseline:auto;baseline-shift:baseline;text-anchor:start;white-space:normal;shape-padding:0;clip-rule:nonzero;display:inline;overflow:visible;visibility:visible;opacity:1;isolation:auto;mix-blend-mode:normal;color-interpolation:sRGB;color-interpolation-filters:linearRGB;solid-color:#000000;solid-opacity:1;vector-effect:none;fill:#71d2ff;fill-opacity:1;fill-rule:nonzero;stroke:none;stroke-width:5;stroke-linecap:butt;stroke-linejoin:miter;stroke-miterlimit:4;stroke-dasharray:5, 5;stroke-dashoffset:0;stroke-opacity:1;color-rendering:auto;image-rendering:auto;shape-rendering:auto;text-rendering:auto;enable-background:accumulate"
     d="m 318.29857,373.84766 -3.30665,1.9082 1.8418,3.18946 -1.61523,-0.4336 1.84179,3.19141 4.33008,-2.5 z m -7.63672,4.4082 -4.33008,2.5 2.5,4.33008 4.33008,-2.5 z m -8.66016,5 -4.33008,2.5 2.5,4.33008 4.33008,-2.5 z m 21.88867,0.27735 -4.33008,2.5 2.5,4.33007 4.33008,-2.5 z m -30.54883,4.72265 -4.33007,2.5 2.5,4.33008 4.33007,-2.5 z m 35.54883,3.9375 -4.33008,2.5 2.5,4.33008 4.33008,-2.5 z m -44.20898,1.0625 -4.33008,2.5 2.5,4.33008 4.33008,-2.5 z m -8.66016,5 -4.33008,2.5 2.5,4.33008 4.33008,-2.5 z m 57.86914,2.59766 -4.33008,2.5 2.5,4.33008 4.33008,-2.5 z m -66.52929,2.40234 -4.33008,2.5 2.5,4.33008 4.33008,-2.5 z m -8.66016,5 -4.33008,2.5 2.5,4.33008 4.33008,-2.5 z m 80.18945,1.25782 -4.33008,2.5 2.5,4.33007 4.33008,-2.5 z m -88.84961,3.74218 -4.33007,2.5 2.5,4.33008 4.33007,-2.5 z m 93.84961,4.91797 -4.33008,2.5 2.5,4.33008 4.33008,-2.5 z m -102.50976,0.082 -5.94532,3.4336 1.56641,2.71484 4.33008,-2.5 0.93359,1.61524 1.61524,-0.9336 z m 98.36328,5.19727 -4.33008,2.5 2.5,4.33008 4.33008,-2.5 z m -95.91211,2.78125 -4.33008,2.5 2.5,4.33008 4.33008,-2.5 z m 87.25195,2.21875 -4.33008,2.5 2.5,4.33008 4.33008,-2.5 z m -8.66015,5 -4.33008,2.5 2.5,4.33008 4.33008,-2.5 z m -73.5918,1.44141 -4.33008,2.5 2.5,4.33007 4.33008,-2.5 z m 64.93164,3.55859 -4.33008,2.5 2.5,4.33008 4.33008,-2.5 z m -8.66016,5 -4.33007,2.5 2.5,4.33008 4.33007,-2.5 z m -51.27148,0.10156 -4.33008,2.5 2.5,4.33008 4.33008,-2.5 z m 42.61133,4.89844 -4.33008,2.5 2.5,4.33008 4.33008,-2.5 z m -37.61133,3.76172 -4.33008,2.5 2.5,4.33008 4.33008,-2.5 z m 28.95117,1.23828 -4.33203,2.5 2.5,4.33008 4.33203,-2.5 z m -8.66211,5 -4.33008,2.5 2.5,4.33008 4.33008,-2.5 z m -15.28906,2.42187 -4.33008,2.5 2.5,4.33008 4.33008,-2.5 z m 6.62891,2.57813 -4.33008,2.5 2.5,4.33008 4.33008,-2.5 z"
     id="path62"
     inkscape:connector-curvature="0" />
  <path
     style="color:#000000;font-style:normal;font-variant:normal;font-weight:normal;font-stretch:normal;font-size:medium;line-height:normal;font-family:sans-serif;font-variant-ligatures:normal;font-variant-position:normal;font-variant-caps:normal;font-variant-numeric:normal;font-variant-alternates:normal;font-feature-settings:normal;text-indent:0;text-align:start;text-decoration:none;text-decoration-line:none;text-decoration-style:solid;text-decoration-color:#000000;letter-spacing:normal;word-spacing:normal;text-transform:none;writing-mode:lr-tb;direction:ltr;text-orientation:mixed;dominant-baseline:auto;baseline-shift:baseline;text-anchor:start;white-space:normal;shape-padding:0;clip-rule:nonzero;display:inline;overflow:visible;visibility:visible;opacity:1;isolation:auto;mix-blend-mode:normal;color-interpolation:sRGB;color-interpolation-filters:linearRGB;solid-color:#000000;solid-opacity:1;vector-effect:none;fill:#71d2ff;fill-opacity:1;fill-rule:nonzero;stroke:none;stroke-width:5;stroke-linecap:butt;stroke-linejoin:miter;stroke-miterlimit:4;stroke-dasharray:5, 5;stroke-dashoffset:0;stroke-opacity:1;color-rendering:auto;image-rendering:auto;shape-rendering:auto;text-rendering:auto;enable-background:accumulate"
     d="m 345.29857,420.61328 -3.30665,1.90821 2.5,4.33008 -1.02343,0.59179 0.58984,1.02539 4.33008,-2.50195 z m -7.63672,4.40821 -4.33008,2.5 2.5,4.33008 4.33008,-2.5 z m -8.66016,5 -4.33008,2.5 2.5,4.33008 4.33008,-2.5 z m 21.88672,0.27539 -4.33008,2.50195 2.5,4.33008 4.33008,-2.50195 z m -30.54688,4.72461 -4.33007,2.5 2.5,4.33008 4.33007,-2.5 z m 35.54688,3.9375 -4.33008,2.5 2.50195,4.33008 4.33008,-2.5 z m -44.20703,1.0625 -4.33008,2.5 2.5,4.33008 4.33008,-2.5 z m -8.66016,5 -4.33008,2.5 2.5,4.33008 4.33008,-2.5 z m 57.86914,2.59765 -4.33008,2.5 2.5,4.33008 4.33008,-2.5 z m -66.52929,2.40235 -4.33008,2.5 2.5,4.33008 4.33008,-2.5 z m -8.66016,5 -4.33008,2.5 2.5,4.33008 4.33008,-2.5 z m 80.18945,1.25781 -4.33008,2.5 2.5,4.33008 4.33008,-2.5 z m -88.84961,3.74219 -4.33007,2.5 2.5,4.33008 4.33007,-2.5 z m 93.84961,4.91797 -4.33008,2.5 2.5,4.33008 4.33008,-2.5 z m -102.50976,0.082 -5.94532,3.43359 1.56641,2.71485 3.78125,-2.1836 -0.68359,2.54883 3.78125,-2.18359 z m 98.36523,5.19726 -4.33203,2.5 2.5,4.33008 4.33203,-2.5 z m -95.91406,2.78125 -4.33008,2.5 2.5,4.33008 4.33008,-2.5 z m 87.25195,2.21875 -4.33008,2.5 2.5,4.33008 4.33008,-2.5 z m -8.66015,5 -4.33008,2.5 2.5,4.33008 4.33008,-2.5 z m -73.5918,1.44141 -4.33008,2.5 2.5,4.33008 4.33008,-2.5 z m 64.93164,3.55859 -4.33008,2.5 2.5,4.33008 4.33008,-2.5 z m -8.66016,5 -4.33007,2.5 2.5,4.33008 4.33007,-2.5 z m -51.27148,0.10157 -4.33008,2.5 2.5,4.33007 4.33008,-2.5 z m 42.61133,4.89843 -4.33008,2.5 2.5,4.33008 4.33008,-2.5 z m -37.61133,3.76172 -4.33008,2.5 2.5,4.33008 4.33008,-2.5 z m 28.95117,1.23828 -4.33008,2.5 2.5,4.33008 4.33008,-2.5 z m -8.66016,5 -4.33007,2.5 2.5,4.33008 4.33007,-2.5 z m -15.29101,2.42188 -4.33008,2.5 2.5,4.33008 4.33008,-2.5 z m 6.63086,2.57812 -4.33008,2.5 2.5,4.33008 4.33008,-2.5 z"
     id="path64"
     inkscape:connector-curvature="0" />
  <path
     style="fill:#71d2ff"
     inkscape:connector-curvature="0"
     id="path68"
     d="m 44.117302,122.69466 5.2694,-3.042 7.393,9.628 -21.3097,12.849 -3.9427,-6.896 15.4313,-9.105 z" />
  <path
     style="fill:#71d2ff"
     inkscape:connector-curvature="0"
     id="path70"
     d="m 71.357402,165.00866 c 0.732,-0.084 1.4407,-0.051 2.1262,0.099 0.6855,0.151 1.3294,0.365 1.9316,0.642 0.6217,0.265 1.1962,0.584 1.7233,0.956 0.5385,0.392 1.0322,0.797 1.4813,1.214 0.2892,0.275 0.6305,0.664 1.0241,1.165 0.4131,0.49 0.8056,1.057 1.1774,1.701 0.4026,0.653 0.7733,1.363 1.1122,2.13 0.3584,0.756 0.6218,1.527 0.7902,2.315 0.1797,0.807 0.2378,1.606 0.1742,2.397 -0.0328,0.8 -0.239,1.57 -0.6187,2.309 -0.9506,1.824 -2.302,3.112 -4.054,3.863 -1.7325,0.74 -3.7363,0.83 -6.0114,0.27 -1.0047,-0.253 -1.9845,-0.598 -2.9397,-1.035 -0.9243,-0.429 -1.7619,-0.843 -2.5128,-1.243 -0.8771,-0.482 -1.69,-0.988 -2.4387,-1.519 l 5.8701,8.477 -5.6794,3.279 -9.9201,-16.912 c 0.8669,-0.527 1.6963,-1.005 2.4883,-1.437 0.792,-0.431 1.4436,-0.677 1.9547,-0.738 0.422,-0.035 0.9254,0.025 1.5103,0.182 0.5962,0.176 1.4093,0.435 2.4395,0.777 0.5571,0.199 1.2235,0.452 1.9992,0.759 0.8064,0.315 1.6031,0.636 2.39,0.962 0.8065,0.315 1.5457,0.604 2.2177,0.866 0.7028,0.271 1.2502,0.476 1.6422,0.614 0.907,0.309 1.7332,0.365 2.4787,0.169 0.3265,-0.111 0.6249,-0.27 0.8953,-0.478 0.2897,-0.219 0.5163,-0.48 0.68,-0.783 0.1748,-0.283 0.2615,-0.606 0.2598,-0.969 0.0097,-0.344 -0.0787,-0.723 -0.265,-1.135 -0.2539,-0.53 -0.6651,-0.904 -1.2335,-1.123 -0.5572,-0.199 -1.1098,-0.322 -1.6578,-0.37 -0.66,-0.061 -1.3545,-0.024 -2.0834,0.11 l 1.0483,-7.514 z" />
  <path
     style="fill:#71d2ff"
     inkscape:connector-curvature="0"
     id="path72"
     d="m 88.168102,216.16566 4.0109,5.257 c -0.5374,0.466 -0.9753,0.992 -1.3137,1.578 -0.2829,0.502 -0.4802,1.084 -0.5919,1.747 -0.1003,0.682 0.0553,1.425 0.467,2.228 0.4905,0.94 1.0482,1.568 1.6729,1.884 0.6443,0.305 1.2457,0.4 1.8043,0.285 0.5698,-0.094 1.0382,-0.365 1.4051,-0.811 0.367,-0.446 0.5088,-0.944 0.4253,-1.494 -0.0978,-0.62 -0.2219,-1.173 -0.3722,-1.659 -0.1195,-0.478 -0.2555,-0.893 -0.4081,-1.248 -0.1555,-0.404 -0.329,-0.773 -0.5206,-1.104 l 3.6518,-0.977 c 0.2952,0.376 0.614,0.726 0.9565,1.048 0.2891,0.276 0.6229,0.538 1.001398,0.788 0.4093,0.259 0.8294,0.445 1.2604,0.561 0.4925,0.132 0.9174,0.147 1.2748,0.044 0.3574,-0.102 0.6178,-0.304 0.7813,-0.607 0.1635,-0.303 0.1912,-0.683 0.083,-1.141 -0.0775,-0.449 -0.3258,-0.97 -0.7449,-1.56 -0.4612,-0.619 -0.9523,-1.064 -1.4735,-1.336 -0.4903,-0.263 -0.9551,-0.437 -1.3943,-0.522 -0.520298,-0.09 -1.040198,-0.089 -1.559798,0.003 l -0.4178,-7.214 c 0.8161,-0.029 1.6382,0.043 2.466398,0.216 0.705,0.139 1.4566,0.382 2.2548,0.727 0.829,0.355 1.6028,0.884 2.3215,1.588 0.7187,0.704 1.3158,1.4 1.7913,2.088 0.495,0.677 0.9145,1.359 1.2586,2.045 0.3441,0.686 0.6225,1.371 0.8351,2.055 0.2127,0.684 0.3961,1.384 0.5503,2.102 0.3198,1.455 0.2261,2.758 -0.2803,3.909 -0.4952,1.171 -1.2682,2.085 -2.319,2.744 -0.5352,0.335 -1.0749,0.595 -1.6193,0.779 -0.533,0.203 -1.072,0.306 -1.617,0.309 -0.5256,-0.009 -1.053,-0.134 -1.5824,-0.375 -0.5099,-0.252 -1.0036,-0.656 -1.4813,-1.213 0.2187,0.784 0.3215,1.571 0.3082,2.359 2e-4,0.677 -0.1182,1.395 -0.3552,2.157 -0.237,0.761 -0.703298,1.486 -1.399098,2.174 -0.6012,0.581 -1.2869,1.016 -2.0571,1.304 -0.7703,0.289 -1.6014,0.404 -2.4933,0.347 -0.8724,-0.069 -1.7974,-0.341 -2.7751,-0.818 -0.9581,-0.488 -1.9201,-1.207 -2.8859,-2.159 -0.6542,-0.637 -1.3061,-1.406 -1.9558,-2.306 -0.6497,-0.9 -1.2187,-1.885 -1.7071,-2.956 -0.5078,-1.06 -0.8776,-2.174 -1.1092,-3.341 -0.2399,-1.137 -0.2924,-2.265 -0.1576,-3.383 0.1543,-1.13 0.5436,-2.214 1.1679,-3.251 0.6438,-1.048 1.5914,-1.999 2.8427,-2.851 z" />
  <path
     style="fill:#71d2ff"
     inkscape:connector-curvature="0"
     id="path74"
     d="m 110.8288,264.74566 15.983,-4.973 2.706,4.215 -10.216,4.142 2.417,4.186 13.482,-7.003 3.067,5.177 -12.988,7.928 1.978,3.425 -4.048,2.454 -2.053,-3.421 -4.152,2.476 -3.965,-6.259 4.099,-2.094 z" />
  <path
     style="fill:#71d2ff"
     inkscape:connector-curvature="0"
     id="path76"
     d="m 142.3288,311.66466 c 0.357,1.069 0.707,2.104 1.05,3.103 0.272,0.831 0.565,1.677 0.879,2.537 0.325,0.879 0.588,1.56 0.789,2.042 0.17,0.475 0.386,0.962 0.648,1.461 0.281,0.488 0.58,0.914 0.894,1.279 0.335,0.353 0.682,0.595 1.043,0.725 0.373,0.149 0.764,0.105 1.174,-0.131 0.39,-0.226 0.738,-0.479 1.045,-0.76 0.337,-0.272 0.576,-0.58 0.717,-0.921 0.16,-0.353 0.202,-0.754 0.124,-1.204 -0.058,-0.461 -0.282,-1.008 -0.674,-1.641 -0.411,-0.621 -0.925,-1.378 -1.544,-2.27 -0.6,-0.903 -1.192,-1.771 -1.777,-2.604 l -2.089,-3.009 12.903,-5.303 c 1.342,2.009 2.552,3.835 3.63,5.476 0.456,0.7 0.907,1.39 1.351,2.07 0.476,0.688 0.908,1.323 1.296,1.906 0.388,0.582 0.716,1.083 0.984,1.501 0.286,0.407 0.485,0.683 0.594,0.827 l -4.014,3.255 -5.386,-8.991 -3.524,1.605 c 0.489,0.577 0.959,1.164 1.409,1.763 0.393,0.502 0.799,1.048 1.219,1.638 0.438,0.58 0.835,1.132 1.189,1.655 0.679,1.04 0.92,2.111 0.723,3.213 -0.185,1.122 -0.707,2.269 -1.565,3.441 -0.439,0.592 -0.95,1.173 -1.531,1.743 -0.562,0.559 -1.157,1.084 -1.784,1.576 -0.607,0.481 -1.202,0.915 -1.784,1.303 -0.563,0.378 -1.059,0.69 -1.489,0.938 -0.448,0.259 -0.931,0.46 -1.448,0.602 -0.505,0.161 -1.044,0.173 -1.618,0.036 -0.554,-0.148 -1.171,-0.495 -1.849,-1.04 -0.668,-0.525 -1.394,-1.355 -2.179,-2.489 -0.453,-0.649 -0.882,-1.325 -1.288,-2.028 -0.394,-0.683 -0.76,-1.383 -1.095,-2.1 -0.356,-0.705 -0.671,-1.408 -0.945,-2.109 -0.294,-0.689 -0.555,-1.345 -0.784,-1.967 -0.563,-1.471 -1.039,-2.926 -1.428,-4.367 z" />
  <path
     style="fill:#71d2ff"
     inkscape:connector-curvature="0"
     id="path78"
     d="m 179.4548,374.21166 c -0.597,0.318 -1.377,0.612 -2.34,0.882 -0.963,0.27 -1.982,0.376 -3.055,0.32 -1.074,-0.057 -2.155,-0.33 -3.245,-0.82 -1.07,-0.501 -2.014,-1.348 -2.833,-2.541 -1.589,-2.257 -2.438,-4.291 -2.547,-6.102 -0.128,-1.8 0.278,-3.439 1.219,-4.919 0.405,-0.651 0.885,-1.24 1.439,-1.768 0.542,-0.547 1.119,-1.036 1.729,-1.467 0.61,-0.43 1.243,-0.821 1.898,-1.174 0.644,-0.372 1.296,-0.709 1.954,-1.011 1.275,-0.631 2.496,-1.063 3.663,-1.295 1.187,-0.243 2.296,-0.35 3.328,-0.321 1.031,0.029 1.974,0.175 2.828,0.436 0.873,0.251 1.644,0.573 2.314,0.967 0.681,0.413 1.333,0.935 1.957,1.564 0.654,0.637 1.229,1.385 1.725,2.243 0.526,0.867 0.958,1.841 1.296,2.921 0.368,1.089 0.605,2.266 0.711,3.532 l -5.954,-0.036 c 0.108,-0.401 0.158,-0.833 0.15,-1.297 -0.024,-0.402 -0.107,-0.862 -0.249,-1.378 -0.143,-0.517 -0.402,-1.056 -0.779,-1.619 -0.431,-0.61 -0.99,-1.016 -1.679,-1.217 -0.688,-0.201 -1.396,-0.3 -2.122,-0.297 -0.696,0.012 -1.353,0.092 -1.97,0.24 -0.598,0.136 -1.03,0.243 -1.298,0.32 0.768,0.024 1.497,0.228 2.187,0.611 0.594,0.307 1.184,0.812 1.772,1.514 0.607,0.69 1.09,1.686 1.451,2.987 0.316,1.223 0.425,2.292 0.329,3.206 -0.066,0.923 -0.284,1.739 -0.656,2.448 -0.352,0.697 -0.816,1.29 -1.392,1.779 -0.566,0.509 -1.176,0.939 -1.831,1.292 z m -4.157,-5.173 c 1.005,-0.242 1.773,-0.646 2.305,-1.213 0.542,-0.548 0.747,-1.252 0.615,-2.112 -0.175,-0.888 -0.668,-1.54 -1.481,-1.956 -0.801,-0.396 -1.807,-0.426 -3.019,-0.091 -0.536,0.153 -0.982,0.372 -1.339,0.656 -0.345,0.303 -0.613,0.627 -0.804,0.972 -0.161,0.353 -0.256,0.707 -0.285,1.062 -0.01,0.344 0.035,0.669 0.134,0.976 0.269,0.782 0.701,1.326 1.295,1.634 0.625,0.316 1.484,0.34 2.579,0.072 z" />
  <path
     style="fill:#71d2ff"
     inkscape:connector-curvature="0"
     id="path80"
     d="m 204.5818,399.00566 5.184,-3.461 10.935,18.668 -25.811,3.973 -4.749,-8.226 20.323,-0.766 z" />
  <path
     style="fill:#71d2ff"
     inkscape:connector-curvature="0"
     id="path82"
     d="m 232.2368,467.12066 c -1.451,1.046 -2.769,1.625 -3.954,1.737 -1.173,0.131 -2.238,-0.023 -3.193,-0.46 -0.936,-0.449 -1.767,-1.1 -2.495,-1.955 -0.716,-0.836 -1.348,-1.681 -1.894,-2.537 -0.557,-0.875 -0.981,-1.789 -1.27,-2.741 -0.309,-0.94 -0.411,-1.883 -0.306,-2.829 0.105,-0.945 0.433,-1.863 0.986,-2.754 0.583,-0.884 1.453,-1.698 2.609,-2.444 0.68,-0.445 1.358,-0.758 2.034,-0.94 0.676,-0.181 1.326,-0.271 1.953,-0.268 0.637,0.022 1.244,0.127 1.821,0.314 0.576,0.188 1.121,0.433 1.634,0.735 -0.004,-0.908 0.231,-1.786 0.705,-2.632 0.486,-0.827 1.268,-1.59 2.346,-2.291 0.993,-0.625 1.946,-0.98 2.859,-1.065 0.925,-0.066 1.77,0.045 2.534,0.332 0.776,0.307 1.468,0.74 2.077,1.299 0.629,0.548 1.133,1.129 1.513,1.742 0.381,0.613 0.746,1.313 1.096,2.1 0.35,0.786 0.551,1.607 0.602,2.462 0.051,0.856 -0.104,1.713 -0.467,2.573 -0.362,0.86 -1.056,1.663 -2.081,2.412 -1.257,0.933 -2.407,1.442 -3.452,1.524 -1.015,0.092 -1.943,-0.075 -2.787,-0.499 0.114,1.054 -0.029,2.112 -0.43,3.176 -0.37,1.072 -1.183,2.075 -2.439,3.009 z m 6.337,-13.768 c -0.467,-0.72 -0.997,-1.142 -1.59,-1.268 -0.593,-0.126 -1.144,-0.042 -1.651,0.251 -0.215,0.124 -0.422,0.282 -0.623,0.476 -0.169,0.202 -0.307,0.438 -0.412,0.706 -0.074,0.277 -0.1,0.592 -0.079,0.944 0.04,0.341 0.185,0.726 0.433,1.155 0.394,0.683 0.91,1.127 1.548,1.331 0.658,0.193 1.298,0.084 1.919,-0.327 0.36,-0.234 0.612,-0.496 0.756,-0.788 0.155,-0.271 0.239,-0.554 0.252,-0.848 0.024,-0.274 -0.024,-0.559 -0.142,-0.854 -0.108,-0.277 -0.245,-0.536 -0.411,-0.779 z m -13.236,7.564 c 0.495,0.858 1.149,1.405 1.961,1.639 0.823,0.253 1.613,0.135 2.371,-0.355 0.427,-0.298 0.736,-0.619 0.927,-0.964 0.191,-0.345 0.286,-0.699 0.285,-1.062 -0.002,-0.363 -0.079,-0.722 -0.232,-1.076 -0.121,-0.347 -0.282,-0.67 -0.482,-0.971 -0.58,-0.914 -1.228,-1.451 -1.944,-1.61 -0.717,-0.159 -1.381,-0.048 -1.995,0.332 -0.273,0.158 -0.533,0.36 -0.781,0.607 -0.228,0.236 -0.403,0.519 -0.524,0.849 -0.111,0.35 -0.148,0.736 -0.113,1.158 0.047,0.442 0.222,0.926 0.527,1.453 z" />
  <path
     style="fill:#71d2ff"
     inkscape:connector-curvature="0"
     id="path84"
     d="m 257.2418,494.33866 c 0.596,-0.319 1.367,-0.607 2.31,-0.866 0.963,-0.27 1.982,-0.376 3.055,-0.32 1.074,0.057 2.14,0.326 3.199,0.808 1.09,0.49 2.049,1.341 2.879,2.553 1.59,2.257 2.443,4.276 2.56,6.056 0.128,1.8 -0.298,3.451 -1.278,4.953 -0.841,1.293 -1.903,2.361 -3.185,3.205 -1.251,0.853 -2.529,1.591 -3.835,2.214 -1.266,0.601 -2.493,1.023 -3.68,1.266 -1.167,0.232 -2.267,0.333 -3.298,0.304 -1.032,-0.029 -1.984,-0.168 -2.857,-0.419 -0.854,-0.262 -1.61,-0.58 -2.269,-0.954 -0.67,-0.394 -1.322,-0.915 -1.956,-1.564 -0.655,-0.637 -1.245,-1.389 -1.772,-2.256 -0.515,-0.848 -0.941,-1.811 -1.279,-2.892 -0.357,-1.069 -0.588,-2.236 -0.695,-3.502 l 5.984,0.02 c -0.107,0.4 -0.157,0.832 -0.15,1.296 0.013,0.383 0.075,0.828 0.187,1.337 0.142,0.516 0.407,1.066 0.795,1.648 0.431,0.61 0.99,1.016 1.679,1.217 0.708,0.19 1.419,0.273 2.135,0.25 0.727,-0.003 1.389,-0.073 1.986,-0.21 0.618,-0.148 1.05,-0.254 1.299,-0.32 -0.769,-0.024 -1.498,-0.228 -2.187,-0.611 -0.606,-0.327 -1.212,-0.836 -1.819,-1.526 -0.606,-0.691 -1.08,-1.692 -1.422,-3.004 -0.315,-1.223 -0.431,-2.302 -0.345,-3.236 0.096,-0.914 0.32,-1.72 0.672,-2.418 0.383,-0.689 0.863,-1.278 1.439,-1.767 0.576,-0.489 1.192,-0.91 1.848,-1.262 z m 4.081,5.177 c -0.985,0.23 -1.749,0.62 -2.292,1.167 -0.532,0.567 -0.716,1.285 -0.552,2.153 0.143,0.88 0.621,1.528 1.434,1.944 0.812,0.415 1.828,0.44 3.048,0.074 0.536,-0.153 0.967,-0.376 1.293,-0.668 0.357,-0.284 0.621,-0.593 0.793,-0.926 0.191,-0.345 0.286,-0.699 0.284,-1.062 0.029,-0.355 0,-0.677 -0.088,-0.964 -0.3,-0.79 -0.757,-1.333 -1.37,-1.629 -0.594,-0.308 -1.444,-0.338 -2.55,-0.089 z" />
  <defs
     id="defs408" />
  <g
     aria-label="0"
     transform="rotate(60)"
     style="font-style:normal;font-variant:normal;font-weight:normal;font-stretch:normal;font-size:33.95454407px;line-height:1.25;font-family:'Cloudy With a Chance of Love';-inkscape-font-specification:'Cloudy With a Chance of Love, Normal';font-variant-ligatures:normal;font-variant-position:normal;font-variant-caps:normal;font-variant-numeric:normal;font-variant-alternates:normal;font-feature-settings:normal;text-indent:0;text-align:start;text-decoration:none;text-decoration-line:none;text-decoration-style:solid;text-decoration-color:#000000;letter-spacing:0px;word-spacing:0px;text-transform:none;writing-mode:lr-tb;direction:ltr;text-orientation:mixed;dominant-baseline:auto;baseline-shift:baseline;text-anchor:start;white-space:normal;shape-padding:0;opacity:1;vector-effect:none;fill:#71d2ff;fill-opacity:1;stroke:none;stroke-width:0.84886712;stroke-linecap:butt;stroke-linejoin:miter;stroke-miterlimit:4;stroke-dasharray:none;stroke-dashoffset:0;stroke-opacity:1"
     id="text4023">
    <path
       d="m 87.936057,19.411269 q 0.780954,1.426091 1.05259,3.3615 0.305591,1.901454 0.271637,3.836863 0,1.935409 -0.237682,3.701046 -0.237682,1.731681 -0.543273,2.784272 -0.237682,0.882818 -0.747,2.139137 -0.509318,1.256318 -1.494,2.410772 -0.950727,1.154455 -2.478681,1.935409 -1.527955,0.780955 -3.802909,0.713046 -2.003318,-0.03395 -3.395455,-0.475364 -1.358182,-0.441409 -2.308909,-1.1205 -0.950727,-0.679091 -1.595863,-1.527954 -0.645137,-0.848864 -1.154455,-1.731682 -0.509318,-0.882818 -0.916772,-2.241 -0.3735,-1.358182 -0.577228,-2.920091 -0.203727,-1.595863 -0.203727,-3.293591 -0.03395,-1.697727 0.169773,-3.29359 0.203727,-1.629819 0.679091,-3.021955 0.475363,-1.392136 1.222363,-2.376818 1.052591,-1.324227 2.818227,-2.241 1.799591,-0.916773 4.244318,-0.984682 1.256318,-0.03395 2.512637,0.101864 1.256318,0.135818 2.410772,0.611182 1.188409,0.441409 2.207046,1.324227 1.05259,0.848864 1.8675,2.308909 z m -4.8555,8.760272 q 0.169772,-2.444727 -0.543273,-3.768954 -0.713045,-1.324227 -2.410773,-1.392136 -1.8675,-0.06791 -2.818227,1.188409 -0.950727,1.256318 -0.882818,3.972681 0,1.086546 0.203727,2.037273 0.203728,0.950727 0.611182,1.663773 0.407455,0.713045 0.984682,1.1205 0.611182,0.407454 1.426091,0.407454 1.018636,0.03396 1.663772,-0.407454 0.645137,-0.475364 1.018637,-1.188409 0.3735,-0.747 0.509318,-1.697728 0.169773,-0.950727 0.237682,-1.935409 z"
       style="fill:#71d2ff;fill-opacity:1;stroke-width:0.84886712"
       id="path3945" />
  </g>
</svg>
