<?xml version="1.0" encoding="UTF-8" standalone="no"?>
<svg
   xmlns:dc="http://purl.org/dc/elements/1.1/"
   xmlns:cc="http://creativecommons.org/ns#"
   xmlns:rdf="http://www.w3.org/1999/02/22-rdf-syntax-ns#"
   xmlns:svg="http://www.w3.org/2000/svg"
   xmlns="http://www.w3.org/2000/svg"
   xmlns:sodipodi="http://sodipodi.sourceforge.net/DTD/sodipodi-0.dtd"
   xmlns:inkscape="http://www.inkscape.org/namespaces/inkscape"
   width="201"
   height="75"
   viewBox="0 0 201 75"
   fill="none"
   version="1.1"
   id="svg30"
   sodipodi:docname="button_ranking.svg"
   inkscape:version="0.92.5 (2060ec1f9f, 2020-04-08)">
  <metadata
     id="metadata36">
    <rdf:RDF>
      <cc:Work
         rdf:about="">
        <dc:format>image/svg+xml</dc:format>
        <dc:type
           rdf:resource="http://purl.org/dc/dcmitype/StillImage" />
        <dc:title></dc:title>
      </cc:Work>
    </rdf:RDF>
  </metadata>
  <defs
     id="defs34" />
  <sodipodi:namedview
     pagecolor="#ffffff"
     bordercolor="#666666"
     borderopacity="1"
     objecttolerance="10"
     gridtolerance="10"
     guidetolerance="10"
     inkscape:pageopacity="0"
     inkscape:pageshadow="2"
     inkscape:window-width="1366"
     inkscape:window-height="705"
     id="namedview32"
     showgrid="false"
     inkscape:pagecheckerboard="true"
     inkscape:zoom="0.96766169"
     inkscape:cx="24.71467"
     inkscape:cy="171.50038"
     inkscape:window-x="-8"
     inkscape:window-y="-8"
     inkscape:window-maximized="1"
     inkscape:current-layer="svg30" />
  <path
     fill-rule="evenodd"
     clip-rule="evenodd"
     d="M10.1745 0C3.64309 0 -3.05176e-05 3.55396 -3.05176e-05 7.92146V67.0531C-3.05176e-05 71.425 3.62025 75 10.1745 75H189.118C198.18 75 201 71.4206 201 67.0531V7.92146C201 3.53446 198.158 0 189.918 0H10.1745Z"
     fill="#552200"
     id="path2" />
  <path
     fill-rule="evenodd"
     clip-rule="evenodd"
     d="M22.2382 3.5238H178.149C187.475 3.5238 194.983 6.36234 194.983 12.3442V61.6878C194.983 71.6045 187.475 72.5282 178.149 72.5282H22.2382C12.9122 72.5282 5.40417 71.652 5.40417 61.6878V12.3442C5.40417 6.39127 12.9122 3.5238 22.2382 3.5238Z"
     fill="#FF6600"
     id="path4" />
  <path
     fill-rule="evenodd"
     clip-rule="evenodd"
     d="M25.1768 5.72852H174.922C183.879 5.72852 191.091 8.24469 191.091 11.3702V63.6212C191.091 66.7466 183.879 69.2628 174.922 69.2628H25.1768C16.2195 69.2628 9.00847 66.7466 9.00847 63.6212V11.3702C9.00847 8.24469 16.2195 5.72852 25.1768 5.72852Z"
     fill="#FF7F2A"
     id="path6" />
  <path
     fill-rule="evenodd"
     clip-rule="evenodd"
     d="M24.9087 3.5238H171.494C180.262 3.5238 187.321 5.08263 187.321 7.99298V9.12303C187.321 10.8305 180.262 12.3376 171.494 12.3376H24.9087C16.1405 12.3376 12.4728 10.8376 12.4728 9.12303V7.99298C12.4728 5.07068 16.1405 3.5238 24.9087 3.5238Z"
     fill="#FFBD92"
     fill-opacity="0.470588"
     id="path8" />
  <g
     id="g3965"
     transform="matrix(0.81546052,0,0,0.81546052,2.288289,7.2684841)">
    <path
       id="path12"
       d="m 55.9887,45.553 -1.8281,-3.6974 -1.8281,3.6974 -4.087,0.5926 2.9576,2.8781 -0.6984,4.0641 3.6559,-1.9186 3.6579,1.9186 -0.7004,-4.0641 3.0246,-2.8781 z"
       inkscape:connector-curvature="0"
       style="fill:#552200" />
    <path
       id="path14"
       d="M 22.4746,37.2862 19.7888,31.854 17.103,37.2862 11,38.1569 l 4.4436,4.2284 -1.0289,5.971 5.3741,-2.8188 5.3712,2.8188 -1.026,-5.971 4.3453,-4.2284 z"
       inkscape:connector-curvature="0"
       style="fill:#552200" />
    <path
       id="path16"
       d="m 29.8087,15.0001 v 2.8578 h -5.7265 v 4.2868 c 0,3.9392 3.2115,7.2399 7.1582,7.2399 h 0.0227 c 0.5126,0.7495 1.0871,1.4881 1.6915,2.2048 1.2679,1.5056 2.5806,3.0629 2.5806,4.3623 v 2.0065 h -2.5806 v 2.8579 h 8.0245 v -2.8579 h -2.5806 v -2.0065 c 0,-1.2994 1.3127,-2.8567 2.5806,-4.3623 0.6047,-0.7171 1.1793,-1.4557 1.6919,-2.2048 h 0.0224 c 3.9466,0 7.1581,-3.3007 7.1581,-7.2399 V 17.8579 H 44.125 v -2.8578 z m -2.8632,7.1446 v -1.4289 h 2.8632 v 4.382 c 0,0.4123 0.0694,0.8101 0.1372,1.2083 -1.7332,-0.5519 -3.0004,-2.2506 -3.0004,-4.1614 z m 20.0427,-1.4289 v 1.4289 c 0,1.9108 -1.2672,3.6095 -3.0004,4.1614 0.0678,-0.3978 0.1372,-0.796 0.1372,-1.2083 v -4.382 z"
       inkscape:connector-curvature="0"
       style="fill:#552200" />
    <path
       id="path18"
       d="M 44.125,45.0749 H 29.8087 V 63.7742 H 44.125 Z M 41.2617,60.4433 H 32.672 v -2.8579 h 3.4489 v -2.8579 h -2.8633 v -2.8578 l 5.6899,-2.7401 0.0366,8.4558 h 2.2776 z"
       inkscape:connector-curvature="0"
       style="fill:#552200" />
    <path
       id="path20"
       d="m 46.9882,53.8551 h 14.4117 v 2.3763 H 46.9882 Z"
       inkscape:connector-curvature="0"
       style="fill:#552200" />
    <path
       id="path22"
       d="M 12.5338,52.1797 H 26.9455 V 63.7742 H 12.5338 Z"
       inkscape:connector-curvature="0"
       style="fill:#552200" />
    <path
       id="path24"
       d="m 46.9882,56.6451 h 14.4117 v 7.1291 H 46.9882 Z"
       inkscape:connector-curvature="0"
       style="fill:#552200" />
    <path
       id="path26"
       d="m 29.761,42.2849 h 14.4117 v 2.3762 H 29.761 Z"
       inkscape:connector-curvature="0"
       style="fill:#552200" />
    <path
       id="path28"
       d="m 12.5338,49.3896 h 14.4117 v 2.3763 H 12.5338 Z"
       inkscape:connector-curvature="0"
       style="fill:#552200" />
  </g>
</svg>
