<?xml version="1.0" encoding="UTF-8" standalone="no"?>
<svg
   xmlns:dc="http://purl.org/dc/elements/1.1/"
   xmlns:cc="http://creativecommons.org/ns#"
   xmlns:rdf="http://www.w3.org/1999/02/22-rdf-syntax-ns#"
   xmlns:svg="http://www.w3.org/2000/svg"
   xmlns="http://www.w3.org/2000/svg"
   xmlns:sodipodi="http://sodipodi.sourceforge.net/DTD/sodipodi-0.dtd"
   xmlns:inkscape="http://www.inkscape.org/namespaces/inkscape"
   width="201"
   height="75"
   viewBox="0 0 201 75"
   fill="none"
   version="1.1"
   id="svg14"
   sodipodi:docname="button_fight.svg"
   inkscape:version="0.92.5 (2060ec1f9f, 2020-04-08)">
  <metadata
     id="metadata20">
    <rdf:RDF>
      <cc:Work
         rdf:about="">
        <dc:format>image/svg+xml</dc:format>
        <dc:type
           rdf:resource="http://purl.org/dc/dcmitype/StillImage" />
        <dc:title></dc:title>
      </cc:Work>
    </rdf:RDF>
  </metadata>
  <defs
     id="defs18" />
  <sodipodi:namedview
     pagecolor="#ffffff"
     bordercolor="#666666"
     borderopacity="1"
     objecttolerance="10"
     gridtolerance="10"
     guidetolerance="10"
     inkscape:pageopacity="0"
     inkscape:pageshadow="2"
     inkscape:window-width="1366"
     inkscape:window-height="705"
     id="namedview16"
     showgrid="false"
     inkscape:pagecheckerboard="true"
     inkscape:zoom="0.96766169"
     inkscape:cx="-71.4698"
     inkscape:cy="35.852394"
     inkscape:window-x="-8"
     inkscape:window-y="-8"
     inkscape:window-maximized="1"
     inkscape:current-layer="svg14" />
  <path
     fill-rule="evenodd"
     clip-rule="evenodd"
     d="M10.1745 0C3.64309 0 -3.05176e-05 3.55396 -3.05176e-05 7.92146V67.0531C-3.05176e-05 71.425 3.62025 75 10.1745 75H189.118C198.18 75 201 71.4206 201 67.0531V7.92146C201 3.53446 198.158 0 189.918 0H10.1745Z"
     fill="#552200"
     id="path2" />
  <path
     fill-rule="evenodd"
     clip-rule="evenodd"
     d="M22.2382 3.5238H178.149C187.475 3.5238 194.983 6.36234 194.983 12.3442V61.6878C194.983 71.6045 187.475 72.5282 178.149 72.5282H22.2382C12.9122 72.5282 5.40417 71.652 5.40417 61.6878V12.3442C5.40417 6.39127 12.9122 3.5238 22.2382 3.5238Z"
     fill="#FF6600"
     id="path4" />
  <path
     fill-rule="evenodd"
     clip-rule="evenodd"
     d="M25.1768 5.72852H174.922C183.879 5.72852 191.091 8.24469 191.091 11.3702V63.6212C191.091 66.7466 183.879 69.2628 174.922 69.2628H25.1768C16.2195 69.2628 9.00847 66.7466 9.00847 63.6212V11.3702C9.00847 8.24469 16.2195 5.72852 25.1768 5.72852Z"
     fill="#FF7F2A"
     id="path6" />
  <path
     fill-rule="evenodd"
     clip-rule="evenodd"
     d="M24.9087 3.5238H171.494C180.262 3.5238 187.321 5.08263 187.321 7.99298V9.12303C187.321 10.8305 180.262 12.3376 171.494 12.3376H24.9087C16.1405 12.3376 12.4729 10.8376 12.4729 9.12303V7.99298C12.4729 5.07068 16.1405 3.5238 24.9087 3.5238Z"
     fill="#FFBD92"
     fill-opacity="0.470588"
     id="path8" />
  <path
     d="m 11.255174,19.63198 c -0.425469,0.0272 -0.755918,0.477306 -0.56526,0.923527 l 2.812263,6.558651 c 0.06181,0.143854 0.172289,0.261039 0.312434,0.331067 l 3.65384,1.82586 1.329215,1.329304 -1.405601,1.405336 c -0.348465,0.3482 -0.208408,0.940924 0.259096,1.0967 l 2.663287,0.887497 1.113655,1.113125 -2.153043,4.734821 c -0.114447,0.251414 -0.06076,0.547334 0.13467,0.742584 l 1.358269,1.357738 c 0.32727,0.327094 0.880433,0.226687 1.071885,-0.194543 l 1.948167,-4.282682 1.964681,1.963709 -0.723686,1.446753 c -0.114271,0.262805 -0.08018,0.552898 0.123896,0.764749 h 4.42e-4 l 1.465475,1.46521 -8.471848,8.467697 -2.663728,0.887497 c -0.467416,0.155688 -0.607384,0.748854 -0.259008,1.097141 l 5.624261,5.621435 c 0.348376,0.3482 0.941454,0.207878 1.097229,-0.259272 l 0.887939,-2.662051 3.287626,-3.286037 c 1.395976,0.589899 2.471923,1.749386 2.955234,3.185101 0.155776,0.467238 0.749207,0.607648 1.097671,0.259361 l 2.343523,-2.342464 c 0.195338,-0.195249 0.248941,-0.49117 0.13467,-0.742583 l -1.965122,-4.320479 0.502473,-1.104912 1.522169,-1.521374 1.521638,1.521374 0.502474,1.104912 -1.964592,4.320479 c -0.11436,0.251413 -0.06076,0.547334 0.134581,0.742583 l 2.34317,2.342464 c 0.348376,0.348287 0.941895,0.207877 1.097671,-0.259361 0.483311,-1.435715 1.559258,-2.595202 2.955146,-3.185101 l 3.287714,3.286037 0.887851,2.662051 c 0.155775,0.46715 0.749295,0.607472 1.097671,0.259272 l 5.623907,-5.621435 c 0.348288,-0.348287 0.208408,-0.941453 -0.259096,-1.097141 l -2.663287,-0.887497 -8.472289,-8.467697 1.465916,-1.46521 c 0.204169,-0.211851 0.238168,-0.501944 0.123985,-0.764749 l -0.723332,-1.446753 1.964681,-1.963709 1.947813,4.282682 c 0.191453,0.42123 0.744968,0.521637 1.072239,0.194543 l 1.358268,-1.357738 c 0.195426,-0.19525 0.249118,-0.49117 0.13467,-0.742584 l -2.153484,-4.734821 1.113743,-1.113125 2.663641,-0.887497 c 0.467503,-0.155776 0.60756,-0.7485 0.259096,-1.0967 l -1.405955,-1.405336 1.329568,-1.329304 3.653399,-1.82586 c 0.140145,-0.07003 0.25106,-0.187213 0.312876,-0.331067 l 2.81191,-6.558651 c 0.234546,-0.549188 -0.320383,-1.10394 -0.869925,-0.869394 l -7.94e-4,-7.95e-4 -6.561388,2.810939 c -0.143942,0.06173 -0.261304,0.172554 -0.331332,0.312611 l -1.827097,3.651279 -1.33001,1.329303 -1.405955,-1.405248 c -0.26413,-0.26413 -0.694279,-0.258125 -0.950726,0.01351 -0.06614,0.07012 -0.116037,0.153921 -0.146503,0.245409 l -0.887939,2.661962 -7.710012,7.706215 -7.710366,-7.706215 -0.887498,-2.661962 c -0.03047,-0.09149 -0.0808,-0.175292 -0.146944,-0.245409 -0.256447,-0.271636 -0.686597,-0.277641 -0.950726,-0.01351 l -1.405955,1.405248 -1.33001,-1.329303 -1.826744,-3.651279 c -0.07003,-0.140057 -0.18739,-0.250884 -0.331244,-0.312611 l -6.561829,-2.810939 -8.83e-4,7.95e-4 c -0.102967,-0.04398 -0.206376,-0.06049 -0.304575,-0.05413 z m 15.485638,20.780333 1.284001,1.283383 -0.468386,0.468563 -1.128049,-1.127519 z m 11.942183,0 0.312435,0.624427 -1.128049,1.127519 -0.468829,-0.46821 z"
     id="path12"
     inkscape:connector-curvature="0"
     style="fill:#552200;stroke-width:0.88308203" />
</svg>
