<?xml version="1.0" encoding="UTF-8" standalone="no"?>
<svg
   xmlns:dc="http://purl.org/dc/elements/1.1/"
   xmlns:cc="http://creativecommons.org/ns#"
   xmlns:rdf="http://www.w3.org/1999/02/22-rdf-syntax-ns#"
   xmlns:svg="http://www.w3.org/2000/svg"
   xmlns="http://www.w3.org/2000/svg"
   xmlns:sodipodi="http://sodipodi.sourceforge.net/DTD/sodipodi-0.dtd"
   xmlns:inkscape="http://www.inkscape.org/namespaces/inkscape"
   id="Layer_5"
   enable-background="new 0 0 64 64"
   height="432"
   viewBox="0 0 54 54"
   width="432"
   version="1.1"
   sodipodi:docname="city.svg"
   inkscape:version="0.92.4 (5da689c313, 2019-01-14)">
  <metadata
     id="metadata35">
    <rdf:RDF>
      <cc:Work
         rdf:about="">
        <dc:format>image/svg+xml</dc:format>
        <dc:type
           rdf:resource="http://purl.org/dc/dcmitype/StillImage" />
        <dc:title></dc:title>
      </cc:Work>
    </rdf:RDF>
  </metadata>
  <defs
     id="defs33" />
  <sodipodi:namedview
     pagecolor="#ffffff"
     bordercolor="#666666"
     borderopacity="1"
     objecttolerance="10"
     gridtolerance="10"
     guidetolerance="10"
     inkscape:pageopacity="0"
     inkscape:pageshadow="2"
     inkscape:window-width="1366"
     inkscape:window-height="705"
     id="namedview31"
     showgrid="false"
     inkscape:pagecheckerboard="true"
     inkscape:showpageshadow="false"
     showguides="true"
     inkscape:guide-bbox="true"
     inkscape:snap-bbox="true"
     inkscape:bbox-paths="true"
     inkscape:bbox-nodes="true"
     inkscape:snap-bbox-edge-midpoints="true"
     inkscape:snap-bbox-midpoints="true"
     inkscape:object-paths="true"
     inkscape:snap-intersection-paths="true"
     inkscape:snap-smooth-nodes="true"
     inkscape:snap-midpoints="true"
     inkscape:snap-object-midpoints="true"
     inkscape:snap-global="false"
     fit-margin-top="0"
     fit-margin-left="0"
     fit-margin-right="0"
     fit-margin-bottom="0"
     inkscape:zoom="0.32593203"
     inkscape:cx="-467.80206"
     inkscape:cy="252.62091"
     inkscape:window-x="-8"
     inkscape:window-y="-8"
     inkscape:window-maximized="1"
     inkscape:current-layer="Layer_5" />
  <path
     style="stroke-width:1"
     d="M 8,12 V 24 H 0 v 4 h 8 v 5.18335 l 0.102295,-0.0051 h 0.3515625 0.353515 l 1.0078125,0.751954 0.703125,0.705077 0.705079,0.705079 0.75,1.005859 v 0.355468 H 12 V 28 h 14 v 14 h 15 v 12 h 4 V 42 h 9 V 38 H 30 V 28 H 42.339111 L 40.220947,24 H 12 V 12 Z"
     id="path6"
     inkscape:connector-curvature="0"
     sodipodi:nodetypes="ccccccccccccccccccccccccccccccc" />
  <path
     d="m 47,44 h 7 v 10 h -7 z"
     id="path8"
     inkscape:connector-curvature="0" />
  <path
     style="stroke-width:1"
     d="m 14,30 v 7.406739 h 0.444091 l 0.992188,0.705077 h 0.417969 l 0.992187,0.705079 h 0.417969 l 0.992187,0.705078 h 0.417969 l 0.992187,0.705078 h 0.416017 l 1.007812,0.75 0.705078,0.705078 0.705078,0.705079 0.705078,0.705077 0.705079,0.705079 L 24,43.829101 V 30 Z m 10.284424,14 0.376465,0.803222 v 1.761719 1.761719 l -0.751954,1.007812 -0.658202,0.689454 v 0.417969 l -0.751954,1.007812 -0.705078,0.705078 -0.705078,0.705079 -1.005859,0.748046 H 16.910889 14 V 54 H 39 V 44 Z"
     id="path10"
     inkscape:connector-curvature="0"
     sodipodi:nodetypes="cccccccccccccccccccccccccccccccccccc" />
  <path
     d="M 35.278,14.663 C 34.834,13.822 34.509,12.924 34.295,12 H 14 v 10 h 25.163 z"
     id="path12"
     inkscape:connector-curvature="0"
     sodipodi:nodetypes="cccccc" />
  <path
     d="M 0,12 H 6 V 22 H 0 Z"
     id="path16"
     inkscape:connector-curvature="0" />
  <path
     style="stroke-width:1"
     d="m 0,30 0.07234,18.15211 0.9811319,-0.173106 h 0.4179687 l 0.6914063,-0.660156 0.65625,-0.689453 v -2.53125 -3.523437 L 3.524175,39.58252 V 39.51611 39.45166 L 2.8190969,38.459473 v -0.705078 -0.351562 -1.056642 l 1.0527343,-1.052733 h 1.0585938 1.05664 l 0.01294,2.5e-4 V 30 Z"
     id="path18"
     inkscape:connector-curvature="0"
     sodipodi:nodetypes="ccccccccccccccccccccc" />
  <path
     d="m 32,30 h 22 v 6 H 32 Z"
     id="path20"
     inkscape:connector-curvature="0" />
  <circle
     cx="45"
     cy="9"
     r="5"
     id="circle22" />
  <path
     d="m 45,0 c -4.963,0 -9,4.038 -9,9 v 0.516 c 0,1.461 0.361,2.918 1.046,4.211 l 7.37,13.921 c 0.23,0.434 0.938,0.434 1.168,0 l 7.37,-13.92 C 53.639,12.434 54,10.978 54,9.516 V 9 C 54,4.038 49.963,0 45,0 Z m 0,16 c -3.859,0 -7,-3.14 -7,-7 0,-3.86 3.141,-7 7,-7 3.859,0 7,3.14 7,7 0,3.86 -3.141,7 -7,7 z"
     id="path24"
     inkscape:connector-curvature="0"
     sodipodi:nodetypes="sssccccssssssss" />
  <path
     d="M 54,22 V 16.026 L 50.837,22 Z"
     id="path26"
     inkscape:connector-curvature="0" />
  <path
     d="M 47.661,28 H 54 v -4 h -4.222 z"
     id="path28"
     inkscape:connector-curvature="0" />
  <g
     id="g14"
     transform="matrix(0.125,0,0,0.125,-52.296356,155.3501)">
</g>
  <g
     id="g16"
     transform="matrix(0.125,0,0,0.125,-52.296356,155.3501)">
</g>
  <g
     id="g18"
     transform="matrix(0.125,0,0,0.125,-52.296356,155.3501)">
</g>
  <g
     id="g20"
     transform="matrix(0.125,0,0,0.125,-52.296356,155.3501)">
</g>
  <g
     id="g22"
     transform="matrix(0.125,0,0,0.125,-52.296356,155.3501)">
</g>
  <g
     id="g24"
     transform="matrix(0.125,0,0,0.125,-52.296356,155.3501)">
</g>
  <g
     id="g26"
     transform="matrix(0.125,0,0,0.125,-52.296356,155.3501)">
</g>
  <g
     id="g28"
     transform="matrix(0.125,0,0,0.125,-52.296356,155.3501)">
</g>
  <g
     id="g30"
     transform="matrix(0.125,0,0,0.125,-52.296356,155.3501)">
</g>
  <g
     id="g32"
     transform="matrix(0.125,0,0,0.125,-52.296356,155.3501)">
</g>
  <g
     id="g34"
     transform="matrix(0.125,0,0,0.125,-52.296356,155.3501)">
</g>
  <g
     id="g36"
     transform="matrix(0.125,0,0,0.125,-52.296356,155.3501)">
</g>
  <g
     id="g38"
     transform="matrix(0.125,0,0,0.125,-52.296356,155.3501)">
</g>
  <g
     id="g40"
     transform="matrix(0.125,0,0,0.125,-52.296356,155.3501)">
</g>
  <g
     id="g42"
     transform="matrix(0.125,0,0,0.125,-52.296356,155.3501)">
</g>
  <path
     inkscape:connector-curvature="0"
     id="path4022"
     d="m 8.631532,34.080063 v 0.352245 0.352486 h 0.352487 0.352247 v 0.352487 0.352245 h 0.352484 0.352485 v 0.352487 0.352485 h 0.352249 0.352484 v 0.704733 0.704733 h 0.704734 0.70497 v 0.352484 0.352487 h 1.057221 1.057218 v 0.352246 0.352488 h 0.704732 0.704731 v 0.352484 0.352248 h 0.704973 0.704733 v 0.352486 0.352483 h 0.704731 0.704972 v 0.352249 0.352484 h 0.704732 0.704732 v 0.352487 0.352248 h 0.352486 0.352487 v 0.352485 0.352486 h 0.352245 0.352488 v 0.352245 0.352487 h 0.352487 0.352246 v 0.352487 0.352245 h 0.352485 0.352484 v 0.352487 0.352486 h 0.352248 0.352486 v 1.76195 1.76195 h -0.352486 -0.352248 v 0.352486 0.352486 h -0.352484 -0.352485 v 0.704732 0.704734 H 21.67064 21.318153 v 0.352484 0.352487 H 20.965665 20.61342 v 0.352245 0.352488 h -0.352487 -0.352486 v 0.352484 0.352247 h -3.171654 -3.171655 v -0.352247 -0.352484 h -0.704732 -0.704734 v 1.379775 H 0.878519 V 49.233366 48.881118 H 1.5832513 2.2882235 V 48.528632 48.176146 H 2.640469 2.9929541 V 47.8239 47.471413 H 3.345441 3.697687 V 43.947273 40.42337 H 4.050173 4.40266 V 39.366153 38.308935 H 4.050173 3.697687 v -0.704971 -0.352247 -1.057219 h 1.057219 1.057217 v 0.352249 0.352484 H 6.16461 6.517096 v 0.352486 0.352247 h 0.352247 1.89e-4 0.352247 v -1.409466 -1.409704 h 0.352484 0.352249 1.89e-4 v -0.352486 -0.352245 h 0.352246 z m 2.81917,6.343307 h -1.05722 -1.057217 v 0.352249 0.352484 H 8.984019 8.631532 v 0.704735 0.704971 h 0.352487 0.352246 v -0.352486 -0.352485 h 1.409703 1.409704 V 41.128103 H 11.4507 v -0.352484 z m 9.162718,4.933608 h -0.704973 -0.704732 v 0.704732 0.704972 h 0.704732 0.704973 V 46.06171 Z"
     style="fill:#000000;stroke-width:0.02349375"
     sodipodi:nodetypes="cccccccccccccccccccccccccccccccccccccccccccccccccccccccccccccccccccccccccccccccccccccccccccccccccccccccccccccccccccccccccccccccccccccccccccccccccccccccccccccc" />
</svg>
