<?xml version="1.0" encoding="UTF-8" standalone="no"?>
<svg
   xmlns:dc="http://purl.org/dc/elements/1.1/"
   xmlns:cc="http://creativecommons.org/ns#"
   xmlns:rdf="http://www.w3.org/1999/02/22-rdf-syntax-ns#"
   xmlns:svg="http://www.w3.org/2000/svg"
   xmlns="http://www.w3.org/2000/svg"
   xmlns:sodipodi="http://sodipodi.sourceforge.net/DTD/sodipodi-0.dtd"
   xmlns:inkscape="http://www.inkscape.org/namespaces/inkscape"
   id="Capa_1"
   enable-background="new 0 0 512 512"
   height="84.55571"
   viewBox="0 0 163.71817 84.55571"
   width="163.71817"
   version="1.1"
   sodipodi:docname="capii-icon-world.svg"
   inkscape:version="0.92.4 (5da689c313, 2019-01-14)">
  <metadata
     id="metadata49">
    <rdf:RDF>
      <cc:Work
         rdf:about="">
        <dc:format>image/svg+xml</dc:format>
        <dc:type
           rdf:resource="http://purl.org/dc/dcmitype/StillImage" />
        <dc:title />
      </cc:Work>
    </rdf:RDF>
  </metadata>
  <defs
     id="defs47" />
  <sodipodi:namedview
     pagecolor="#ffffff"
     bordercolor="#666666"
     borderopacity="1"
     objecttolerance="10"
     gridtolerance="10"
     guidetolerance="10"
     inkscape:pageopacity="0"
     inkscape:pageshadow="2"
     inkscape:window-width="1366"
     inkscape:window-height="705"
     id="namedview45"
     showgrid="false"
     inkscape:pagecheckerboard="true"
     inkscape:showpageshadow="false"
     inkscape:snap-global="false"
     fit-margin-top="0"
     fit-margin-left="0"
     fit-margin-right="0"
     fit-margin-bottom="0"
     inkscape:zoom="2.6074563"
     inkscape:cx="33.493752"
     inkscape:cy="79.042048"
     inkscape:window-x="-8"
     inkscape:window-y="-8"
     inkscape:window-maximized="1"
     inkscape:current-layer="Capa_1" />
  <g
     id="g14"
     transform="translate(-521.26057,308.77811)" />
  <g
     id="g16"
     transform="translate(-521.26057,308.77811)" />
  <g
     id="g18"
     transform="translate(-521.26057,308.77811)" />
  <g
     id="g20"
     transform="translate(-521.26057,308.77811)" />
  <g
     id="g22"
     transform="translate(-521.26057,308.77811)" />
  <g
     id="g24"
     transform="translate(-521.26057,308.77811)" />
  <g
     id="g26"
     transform="translate(-521.26057,308.77811)" />
  <g
     id="g28"
     transform="translate(-521.26057,308.77811)" />
  <g
     id="g30"
     transform="translate(-521.26057,308.77811)" />
  <g
     id="g32"
     transform="translate(-521.26057,308.77811)" />
  <g
     id="g34"
     transform="translate(-521.26057,308.77811)" />
  <g
     id="g36"
     transform="translate(-521.26057,308.77811)" />
  <g
     id="g38"
     transform="translate(-521.26057,308.77811)" />
  <g
     id="g40"
     transform="translate(-521.26057,308.77811)" />
  <g
     id="g42"
     transform="translate(-521.26057,308.77811)" />
  <path
     d="m 81.784025,0 c 0.174397,0.58382523 0.45832,1.1396774 0.858155,1.6293243 l 3.730014,4.5675406 c 1.820391,2.2293698 1.71332,5.5834371 -0.245138,7.6749111 l -7.659784,8.180317 c -0.719826,0.768714 -1.543471,1.399918 -2.434189,1.883745 1.375687,0.246293 2.719455,0.771059 3.936647,1.595287 l 25.43142,17.224287 c 3.09659,2.097225 3.83004,6.19867 1.63792,9.161209 L 96.862238,65.670127 c -1.609896,2.17552 -3.603374,4.066097 -5.89156,5.586942 L 75.176992,81.754334 c -1.890554,1.25659 -4.783742,0.09679 -6.658948,-1.18065 -1.495142,-1.018505 -2.354765,-2.688539 -2.28738,-4.443425 L 64.593087,57.40936 c 0.107862,-2.80807 -1.271997,-5.479202 -3.66916,-7.102809 l -1.465326,-0.992242 c -3.923436,-2.657219 -1.98806,-9.954525 0.789393,-13.708123 l 5.765037,-7.791119 c 0.86462,-1.168468 1.953983,-2.093304 3.170976,-2.76356 H 63.92403 c -2.388144,0 -4.719223,0.779331 -6.680951,2.233745 l -6.031491,4.472305 c -1.744052,1.293223 -4.130557,-0.03975 -4.130557,-2.307321 v -8.732134 c 0,-1.315409 0.226632,-2.605269 0.652211,-3.813217 a 42.27964,42.27964 0 0 0 -8.544068,25.371252 42.27964,42.27964 0 0 0 34.249162,41.492591 c -0.0184,0.0036 -0.0366,0.0078 -0.05501,0.01135 1.268868,0.245768 2.558101,0.434247 3.864444,0.564539 1.388376,0.138464 2.796068,0.211091 4.220979,0.211091 0.995133,0 1.981583,-0.03723 2.959532,-0.104862 a 42.27964,42.27964 0 0 0 0.04641,-0.0027 C 93.238483,83.832393 101.26448,80.5466 107.7456,75.397945 a 42.27964,42.27964 0 0 0 0.01,-0.0079 c 1.08843,-0.865194 2.13271,-1.783386 3.13006,-2.749807 a 42.27964,42.27964 0 0 0 0.0794,-0.0777 c 0.98576,-0.960201 1.92479,-1.9678 2.81341,-3.0197 a 42.27964,42.27964 0 0 0 0.0502,-0.05948 c 6.18888,-7.353318 9.91966,-16.843826 9.91966,-27.207207 0,-0.09554 -0.002,-0.190667 -0.003,-0.286051 l -0.68522,0.442828 c -1.71414,1.107703 -3.73279,1.69912 -5.79838,1.69912 -4.09228,0 -7.80391,-2.307862 -9.48062,-5.895343 l -3.697,-7.910087 c -1.97644,-4.228437 -2.32999,-8.993361 -0.99809,-13.448545 l 2.73881,-9.1615546 C 99.019726,2.9113825 90.733097,0.06550983 81.784025,0 Z"
     id="circle2"
     inkscape:connector-curvature="0"
     style="stroke-width:0.17603166" />
  <path
     style="fill:#000000;stroke-width:0.17603166"
     d="m 74.19261,26.79521 c -2.543441,-0.05555 -5.193932,3.825857 -7.244349,6.276065 -1.628449,1.945964 -3.310204,4.610458 -5.186628,7.2611 -2.198459,3.10555 -0.168796,6.685801 2.936755,8.884261 l 1.159677,0.821022 c 1.897446,1.343298 2.85396,4.231134 2.768585,6.5544 l 0.823155,18.106785 c -0.05334,1.45191 0.694849,2.969311 1.878311,3.811974 1.484297,1.056894 5.845204,-1.846731 7.34165,-2.886374 l 10.738286,-7.193506 c 1.81119,-1.258274 3.389171,-2.822627 4.663464,-4.622551 l 8.055174,-11.378797 c 1.73514,-2.451065 1.85767,-6.015716 -0.61821,-7.71527 L 81.242703,30.802989 C 79.903058,29.854795 75.718674,26.82854 74.19261,26.79521 Z m 7.387534,11.497522 h 0.37166 0.371661 v 0.371661 0.371661 h 0.372005 0.371316 v 0.371661 0.371316 h 0.371661 0.37166 v 0.371661 0.371661 h 0.371318 0.371659 v 0.74332 0.742979 h 0.743322 0.743322 v 0.371661 0.371659 h 1.114981 1.114638 v 0.371661 0.371661 h 0.743322 0.742977 v 0.371661 0.371316 h 0.743322 0.74332 v 0.371661 0.371661 h 0.742978 0.743321 v 0.371661 0.371661 h 0.743321 0.742977 v 0.371659 0.371317 h 0.371661 0.371661 v 0.371661 0.371661 h 0.371661 0.371661 v 0.37166 0.37166 h 0.371659 0.371318 v 0.371661 0.371318 h 0.371661 0.371661 v 0.371659 0.371661 h 0.371659 0.371661 v 1.85796 1.85796 h -0.371661 -0.371659 v 0.371659 0.371661 h -0.371661 -0.371661 v 0.743322 0.742977 h -0.371318 -0.371659 v 0.37166 0.371661 h -0.371661 -0.371661 v 0.371661 0.37166 h -0.371661 -0.371661 v 0.37166 0.371318 h -3.344601 -3.344257 v -0.371318 -0.37166 h -0.743322 -0.742977 v 1.455012 H 74.148306 v -4.056292 -0.371661 h 0.742979 0.74332 v -0.371661 -0.371659 h 0.371661 0.371661 v -0.371318 -0.371661 h 0.371661 0.371316 v -3.716261 -3.715919 h 0.371661 0.371661 v -1.114638 -1.114983 h -0.371661 -0.371661 v -0.74332 -0.371318 -1.114981 h 1.114983 1.114638 v 0.371661 0.371659 h 0.371659 0.371661 v 0.371661 0.371318 h 0.371661 0.371661 v -1.486299 -1.486299 h 0.371661 0.371316 v -0.371661 z m 1.486642,6.688861 v 0.371661 0.371661 H 82.69547 82.323465 v 0.742976 0.743322 h 0.372005 0.371316 v -0.371661 -0.371661 h 1.486298 1.486644 v -0.742976 h -0.743322 v -0.371661 -0.371661 h -1.114981 z m 10.405122,5.202561 v 0.742977 0.743322 h 0.742977 0.743322 v -0.743322 -0.742977 h -0.743322 z"
     id="path6"
     inkscape:connector-curvature="0"
     sodipodi:nodetypes="ssscccccccccscsccccccccccccccccccccccccccccccccccccccccccccccccccccccccccccccccccccccccccccccccccccccccccccccccccccccccccccccccccccccccccccccccccccccccccccccccccccccccczcc" />
  <path
     d="M 78.88654,4.0571339 C 77.907628,2.93458 77.77138,1.3546957 78.444525,0.10522293 71.128121,0.62240398 64.326257,3.0005918 58.508762,6.770134 l -5.924346,5.924346 c -1.535172,1.535172 -2.397727,3.617451 -2.397727,5.788449 v 6.599252 c 0,1.713668 1.925786,2.720921 3.333336,1.743593 l 4.867803,-3.379632 c 1.583229,-1.099142 3.464656,-1.68832 5.392027,-1.68832 h 6.264791 c 2.052529,0 4.020915,-0.815378 5.472296,-2.266759 l 6.182056,-6.182057 c 1.580589,-1.580588 1.66702,-4.1152679 0.19786,-5.8000671 z"
     id="path8"
     style="fill:#000000;stroke-width:0.17603166"
     inkscape:connector-curvature="0" />
  <path
     d="m 109.57872,10.697929 -2.42009,8.423643 c -0.95197,3.313444 -0.69919,6.857138 0.71346,10.001944 l 2.64241,5.882978 c 1.19843,2.668112 3.85122,4.384597 6.77617,4.384597 1.47637,0 2.9193,-0.439903 4.14449,-1.263731 l 1.96204,-1.319182 C 122.06165,26.467198 116.98895,17.29894 109.57872,10.697929 Z"
     id="path10"
     style="fill:#000000;stroke-width:0.17603166"
     inkscape:connector-curvature="0" />
  <g
     transform="matrix(0,-0.44945978,-0.44945978,0,318.47204,86.987773)"
     id="g4219">
    <path
       id="path4213"
       d="m 126.30573,409.92112 c -7.87217,-7.86778 -18.35081,-12.2027 -29.501684,-12.2027 -11.107967,0 -21.557995,4.30631 -29.427972,12.12458 -3.178578,3.16317 -3.184079,8.31667 -0.0132,11.48535 1.540328,1.54253 3.591165,2.38971 5.774031,2.38971 2.172963,0 4.216098,-0.84278 5.754226,-2.37211 4.789321,-4.75961 11.150877,-7.38147 17.912918,-7.38147 6.787341,0 13.166501,2.63836 17.959121,7.42658 1.54033,1.53813 3.59007,2.38751 5.77073,2.38751 2.17517,0 4.2172,-0.84278 5.75643,-2.3721 3.18298,-3.16345 3.18848,-8.31448 0.0154,-11.48535 z"
       inkscape:connector-curvature="0"
       style="stroke-width:0.27505863" />
    <path
       id="path4215"
       d="m 164.20331,372.14869 c -17.99763,-17.95335 -41.93544,-27.83786 -67.399264,-27.83786 -25.42972,0 -49.343317,9.8614 -67.335453,27.77212 -3.178577,3.16318 -3.180778,8.31667 -0.0044,11.48535 1.539228,1.53483 3.586764,2.37871 5.765228,2.37871 2.177365,0 4.2227,-0.84058 5.761929,-2.37431 14.913678,-14.84436 34.734403,-23.02131 55.812696,-23.02131 21.109104,0 40.949624,8.19345 55.866604,23.07742 1.53923,1.53593 3.59007,2.38311 5.76743,2.38311 2.17627,0 4.2216,-0.84498 5.75973,-2.37651 3.17968,-3.16565 3.18298,-8.32107 0.005,-11.48672 z"
       inkscape:connector-curvature="0"
       style="stroke-width:0.27505863" />
    <path
       id="path4217"
       d="m 144.77427,391.50842 c -12.81113,-12.78143 -29.84716,-19.81963 -47.970224,-19.81963 -18.090056,0 -35.100782,7.0162 -47.90091,19.75251 -1.541429,1.53263 -2.389709,3.57136 -2.39301,5.74213 0,2.16856 0.84498,4.20949 2.384208,5.74432 1.539228,1.53593 3.587865,2.38311 5.766329,2.38311 2.175164,0 4.2205,-0.84498 5.761928,-2.37431 9.723873,-9.67436 22.645027,-15.0039 36.381455,-15.0039 13.765034,0 26.703794,5.34824 36.434264,15.05561 1.54143,1.53813 3.58897,2.38531 5.76853,2.38531 2.17627,0 4.2227,-0.84498 5.75973,-2.3765 1.53923,-1.53263 2.38971,-3.57137 2.39081,-5.74213 0.002,-2.17076 -0.84498,-4.2095 -2.38311,-5.74652 z"
       inkscape:connector-curvature="0"
       style="stroke-width:0.27505863" />
  </g>
  <g
     id="g4077"
     transform="matrix(0,-0.44945978,0.44945978,0,-154.75387,86.987773)">
    <path
       style="stroke-width:0.27505863"
       inkscape:connector-curvature="0"
       d="m 126.30573,409.92112 c -7.87217,-7.86778 -18.35081,-12.2027 -29.501684,-12.2027 -11.107967,0 -21.557995,4.30631 -29.427972,12.12458 -3.178578,3.16317 -3.184079,8.31667 -0.0132,11.48535 1.540328,1.54253 3.591165,2.38971 5.774031,2.38971 2.172963,0 4.216098,-0.84278 5.754226,-2.37211 4.789321,-4.75961 11.150877,-7.38147 17.912918,-7.38147 6.787341,0 13.166501,2.63836 17.959121,7.42658 1.54033,1.53813 3.59007,2.38751 5.77073,2.38751 2.17517,0 4.2172,-0.84278 5.75643,-2.3721 3.18298,-3.16345 3.18848,-8.31448 0.0154,-11.48535 z"
       id="path4071" />
    <path
       style="stroke-width:0.27505863"
       inkscape:connector-curvature="0"
       d="m 164.20331,372.14869 c -17.99763,-17.95335 -41.93544,-27.83786 -67.399264,-27.83786 -25.42972,0 -49.343317,9.8614 -67.335453,27.77212 -3.178577,3.16318 -3.180778,8.31667 -0.0044,11.48535 1.539228,1.53483 3.586764,2.37871 5.765228,2.37871 2.177365,0 4.2227,-0.84058 5.761929,-2.37431 14.913678,-14.84436 34.734403,-23.02131 55.812696,-23.02131 21.109104,0 40.949624,8.19345 55.866604,23.07742 1.53923,1.53593 3.59007,2.38311 5.76743,2.38311 2.17627,0 4.2216,-0.84498 5.75973,-2.37651 3.17968,-3.16565 3.18298,-8.32107 0.005,-11.48672 z"
       id="path4073" />
    <path
       style="stroke-width:0.27505863"
       inkscape:connector-curvature="0"
       d="m 144.77427,391.50842 c -12.81113,-12.78143 -29.84716,-19.81963 -47.970224,-19.81963 -18.090056,0 -35.100782,7.0162 -47.90091,19.75251 -1.541429,1.53263 -2.389709,3.57136 -2.39301,5.74213 0,2.16856 0.84498,4.20949 2.384208,5.74432 1.539228,1.53593 3.587865,2.38311 5.766329,2.38311 2.175164,0 4.2205,-0.84498 5.761928,-2.37431 9.723873,-9.67436 22.645027,-15.0039 36.381455,-15.0039 13.765034,0 26.703794,5.34824 36.434264,15.05561 1.54143,1.53813 3.58897,2.38531 5.76853,2.38531 2.17627,0 4.2227,-0.84498 5.75973,-2.3765 1.53923,-1.53263 2.38971,-3.57137 2.39081,-5.74213 0.002,-2.17076 -0.84498,-4.2095 -2.38311,-5.74652 z"
       id="path4075" />
  </g>
</svg>
