<?xml version="1.0" encoding="UTF-8" standalone="no"?>
<!-- Created with Inkscape (http://www.inkscape.org/) -->

<svg
   xmlns:dc="http://purl.org/dc/elements/1.1/"
   xmlns:cc="http://creativecommons.org/ns#"
   xmlns:rdf="http://www.w3.org/1999/02/22-rdf-syntax-ns#"
   xmlns:svg="http://www.w3.org/2000/svg"
   xmlns="http://www.w3.org/2000/svg"
   xmlns:sodipodi="http://sodipodi.sourceforge.net/DTD/sodipodi-0.dtd"
   xmlns:inkscape="http://www.inkscape.org/namespaces/inkscape"
   width="458.13159"
   height="682.7937"
   viewBox="0 0 121.21398 180.65584"
   version="1.1"
   id="svg8"
   inkscape:version="0.92.4 (5da689c313, 2019-01-14)"
   sodipodi:docname="folhas_tela.svg">
  <defs
     id="defs2" />
  <sodipodi:namedview
     id="base"
     pagecolor="#ffffff"
     bordercolor="#666666"
     borderopacity="1.0"
     inkscape:pageopacity="0.0"
     inkscape:pageshadow="2"
     inkscape:zoom="0.35"
     inkscape:cx="1091.2674"
     inkscape:cy="367.23918"
     inkscape:document-units="px"
     inkscape:current-layer="layer1"
     showgrid="false"
     inkscape:pagecheckerboard="true"
     inkscape:window-width="1366"
     inkscape:window-height="705"
     inkscape:window-x="-8"
     inkscape:window-y="-8"
     inkscape:window-maximized="1"
     units="px"
     showborder="true"
     inkscape:snap-global="false"
     inkscape:snap-bbox="true"
     inkscape:bbox-nodes="true"
     inkscape:snap-bbox-edge-midpoints="true"
     inkscape:snap-bbox-midpoints="true"
     inkscape:bbox-paths="true"
     inkscape:object-paths="true"
     inkscape:snap-intersection-paths="true"
     inkscape:snap-page="true"
     fit-margin-top="0"
     fit-margin-left="0"
     fit-margin-right="0"
     fit-margin-bottom="0" />
  <metadata
     id="metadata5">
    <rdf:RDF>
      <cc:Work
         rdf:about="">
        <dc:format>image/svg+xml</dc:format>
        <dc:type
           rdf:resource="http://purl.org/dc/dcmitype/StillImage" />
        <dc:title></dc:title>
      </cc:Work>
    </rdf:RDF>
  </metadata>
  <g
     inkscape:label="Camada 1"
     inkscape:groupmode="layer"
     id="layer1"
     transform="translate(-39.52782,-52.54791)">
    <text
       xml:space="preserve"
       style="font-style:normal;font-variant:normal;font-weight:normal;font-stretch:normal;font-size:18.90994835px;line-height:1.25;font-family:'Arial Rounded MT Bold';-inkscape-font-specification:'Arial Rounded MT Bold, Normal';font-variant-ligatures:normal;font-variant-position:normal;font-variant-caps:normal;font-variant-numeric:normal;font-variant-alternates:normal;font-feature-settings:normal;text-indent:0;text-align:start;text-decoration:none;text-decoration-line:none;text-decoration-style:solid;text-decoration-color:#000000;letter-spacing:0px;word-spacing:0px;text-transform:none;writing-mode:lr-tb;direction:ltr;text-orientation:mixed;dominant-baseline:auto;baseline-shift:baseline;text-anchor:start;white-space:normal;shape-padding:0;opacity:1;vector-effect:none;fill:#4d4d4d;fill-opacity:1;stroke:none;stroke-width:0.4727506;stroke-linecap:butt;stroke-linejoin:miter;stroke-miterlimit:4;stroke-dasharray:none;stroke-dashoffset:0;stroke-opacity:1"
       x="68.420998"
       y="131.29288"
       id="text3995"><tspan
         sodipodi:role="line"
         id="tspan3993"
         x="68.420998"
         y="148.33374"
         style="stroke-width:0.4727506" /></text>
    <g
       id="g5124"
       transform="matrix(-0.44403467,-0.39935271,0.39935271,-0.44403467,142.56575,228.39333)">
      <g
         transform="matrix(0.35277777,0,0,-0.35277777,201.63808,211.35743)"
         id="g4499">
        <path
           inkscape:connector-curvature="0"
           id="path4501"
           style="fill:#0d874a;fill-opacity:1;fill-rule:nonzero;stroke:none"
           d="m 0,0 c -34.736,-12.219 -29.452,4.241 -16.252,10.283 6.465,2.959 16.542,8.923 25.989,14.797 3.261,13.504 4.2,29.241 1.506,47.462 C -2.147,60.304 -19.578,45.153 -29.631,39.509 -47.575,29.434 -53.049,46.464 -30.745,56.673 -16.3,63.286 -2.16,80.698 5.591,97.506 0.856,113.575 -5.191,127.694 -12.061,140.062 -20.937,119.946 -36.207,89.207 -49.275,82.61 c -19.764,-9.977 -11.471,15.214 -4.411,18.081 5.661,2.297 24.595,33.514 32.981,53.478 -6.796,10.065 -14.07,18.773 -21.448,26.245 -9.42,-12.252 -19.587,-29.759 -24.66,-38.854 -7.664,-13.741 -14.157,6.543 -5.984,13.075 5.838,4.666 16.611,18.11 16.126,38.963 -28.12,22.871 -58.136,28.558 -58.136,28.558 l 60.793,-269.845 c 0,0 34.604,12.554 54.014,47.689" />
      </g>
      <g
         transform="matrix(0.35277777,0,0,-0.35277777,158.45589,220.75564)"
         id="g4503">
        <path
           inkscape:connector-curvature="0"
           id="path4505"
           style="fill:#0d924f;fill-opacity:1;fill-rule:nonzero;stroke:none"
           d="M 0,0 C 36.673,3.325 25.024,16.099 10.509,16.108 3.397,16.112 -8.246,17.349 -19.28,18.764 -27.859,29.691 -35.253,43.615 -40.376,61.307 -23.11,55.741 -0.96,49.205 10.529,48.25 c 20.509,-1.706 18.409,16.059 -6.12,16.075 -15.886,0.011 -35.983,9.972 -50.019,22.037 -2.372,16.583 -2.74,31.939 -1.632,46.044 16.433,-14.608 43.097,-36.219 57.725,-36.789 22.123,-0.86 4.111,18.607 -3.503,18.279 -6.102,-0.264 -36.298,20.26 -52.224,34.933 1.999,11.979 4.996,22.922 8.601,32.785 13.661,-7.229 30.184,-18.927 38.577,-25.09 12.681,-9.313 10.159,11.834 0.009,14.379 -7.248,1.817 -22.634,9.568 -30.86,28.737 16.07,32.487 36.517,49.157 36.517,49.157 L 68.948,-20.927 c 0,0 -36.691,-2.962 -68.948,20.927" />
      </g>
    </g>
    <g
       id="g4924"
       transform="matrix(0.63719949,0.00811302,-0.00811302,0.63719949,26.9743,104.86504)">
      <g
         transform="matrix(0.35277777,0,0,-0.35277777,60.427652,113.1245)"
         id="g4515">
        <path
           inkscape:connector-curvature="0"
           id="path4517"
           style="fill:#00542a;fill-opacity:1;fill-rule:nonzero;stroke:none"
           d="m 0,0 c -17.746,-6.427 -35.742,-41.143 -35.742,-41.143 l 5.336,-40.112 -10.102,24.865 c 0,0 -6.154,-7.981 -12.936,-24.047 -6.783,-16.066 -8.61,-26.987 -8.61,-26.987 l 15.564,-38.306 -17.894,20.917 c 0,0 -10.814,-42.76 24.157,-107.631 z" />
      </g>
      <g
         transform="matrix(0.35277777,0,0,-0.35277777,53.961376,176.82724)"
         id="g4519">
        <path
           inkscape:connector-curvature="0"
           id="path4521"
           style="fill:#005e2e;fill-opacity:1;fill-rule:nonzero;stroke:none"
           d="m 0,0 32.918,35.657 c 3.841,15.679 4.507,26.618 4.507,26.618 L 9.2,50.808 32.784,73.7 c 0,0 1.045,13.443 0.96,31.029 l -16.661,-8.601 16.428,20.423 c -0.866,24.371 -4.38,52.305 -15.181,64.024 L -21.897,-51.869 c 22.122,15.632 36.05,37.268 44.796,57.504 z" />
      </g>
    </g>
    <path
       inkscape:connector-curvature="0"
       id="path5096"
       d="m 95.57305,76.364705 c 0,0 -4.0475,-4.081805 -8.07476,-2.485949 0,0 1.2144,1.449906 3.1133,2.172842 1.89889,0.723191 4.96146,0.313107 4.96146,0.313107 z m -0.13831,-6.289442 c 0,0 -6.83311,-1.758614 -9.59029,1.671858 -0.64278,-0.78297 -1.32747,-1.531697 -2.04373,-2.248528 0.7879,0.229402 2.52484,0.642237 3.98882,0.336329 1.96152,-0.410119 4.7677,-2.874115 4.7677,-2.874115 0,0 -5.7568,-1.120462 -9.04048,2.255839 -0.48078,-0.469425 -0.97453,-0.925485 -1.48223,-1.364316 -0.39461,-0.341073 -0.79805,-0.671269 -1.20816,-0.993115 0.60637,0.19272 2.50488,0.727999 4.14509,0.385081 1.96148,-0.40986 4.76768,-2.873741 4.76768,-2.873741 0,0 -5.84396,-1.138618 -9.1144,2.331393 -0.50227,-0.387983 -1.01582,-0.761292 -1.53915,-1.120157 0.6202,0.01886 2.39649,0.0045 3.68878,-0.748425 1.57326,-0.916625 3.24302,-4.012826 3.24302,-4.012826 0,0 -5.36798,0.485054 -7.15407,4.608285 -0.52053,-0.350896 -1.05128,-0.686222 -1.59036,-1.007964 -0.0204,-0.02932 -0.0385,-0.0593 -0.0601,-0.08802 0,0 -0.0217,0.03405 -0.0238,0.03729 -1.36613,-0.810061 -2.78813,-1.526356 -4.25223,-2.143229 -0.0876,-0.03693 -0.17611,-0.07234 -0.26399,-0.108754 0.65875,-0.125332 2.32982,-0.518519 3.41447,-1.477897 1.36338,-1.205639 2.41809,-4.517589 2.41809,-4.517589 0,0 -5.12042,1.576817 -6.11173,5.880016 -1.69791,-0.690809 -3.45156,-1.279644 -5.26304,-1.569411 -1.99187,-0.318748 -4.02533,-0.340163 -6.03364,-0.186147 -2.54619,0.195226 -5.14867,0.623213 -7.5875,1.404188 -0.0853,0.02708 -0.0791,0.360222 0.0237,0.327171 2.0192,-0.646438 4.15535,-1.027685 6.25695,-1.269021 1.92735,-0.221221 3.87945,-0.292108 5.81438,-0.12315 1.32025,0.115152 2.59673,0.374698 3.85183,0.736014 -0.0363,0.05202 -1.20936,1.743965 -1.44143,3.968673 -0.2359,2.259391 1.08702,5.450509 1.08702,5.450509 0,0 3.2305,-5.519045 0.38518,-9.409958 0.69123,0.199987 1.37637,0.42958 2.05843,0.68532 1.89369,0.709896 3.73101,1.584637 5.47942,2.611556 -0.34899,0.580908 -1.0864,1.979396 -1.26498,3.692 -0.2359,2.259395 1.08668,5.450086 1.08668,5.450086 0,5e-6 2.89426,-4.946628 0.78749,-8.775628 1.0153,0.624669 1.99798,1.30169 2.9416,2.02897 -0.154,0.215165 -1.22723,1.768798 -1.50228,3.863444 -0.29576,2.252495 0.9418,5.477054 0.9418,5.477054 0,0 3.24811,-5.22807 0.78088,-9.170672 0.9057,0.710192 1.77395,1.467455 2.599,2.268976 -0.12011,0.166125 -1.23569,1.751009 -1.51584,3.884435 -0.29597,2.252212 0.9414,5.477012 0.9414,5.477012 0,0 3.22958,-5.197775 0.80301,-9.136033 0.98632,0.977759 1.90814,2.020295 2.75506,3.124145 -0.16034,0.225919 -1.09135,1.594978 -1.33411,3.44124 -0.26438,2.014592 0.84257,4.899603 0.84257,4.899603 0,0 2.62661,-4.227401 0.98958,-7.674587 0.48673,0.663813 0.95864,1.352045 1.35183,2.075292 -0.0151,-0.0039 -0.0291,-0.01002 -0.0443,-0.01345 0,0 -0.2147,1.029374 0.4446,2.911051 0.65926,1.881937 3.72346,3.286169 3.72346,3.286169 0,0 -0.82628,-5.020496 -3.85187,-6.100919 -0.42173,-0.8487 -0.96933,-1.647786 -1.52093,-2.414284 -0.32614,-0.453179 -0.66709,-0.89602 -1.01884,-1.330001 0.37895,0.215004 1.499,0.747937 3.56699,0.909929 2.60409,0.204241 5.90679,-2.726911 5.90679,-2.726911 z M 83.01768,58.840177 c -1e-5,-5e-6 -5.47944,0.536302 -7.23618,4.705411 0,0 2.38956,0.149431 3.96572,-0.75999 1.57645,-0.909653 3.27046,-3.945421 3.27046,-3.945421 z m -8.77897,8.591506 c 0.14876,-1.544949 -0.07,-3.237195 -1.15041,-4.696826 0,0 -1.21726,1.728515 -1.45287,3.987949 -0.23591,2.259394 1.08706,5.450123 1.08706,5.450123 0,0 1.26832,-2.16633 1.51622,-4.741246 z m 0.55632,-12.859925 c 0,0 -5.26273,1.617787 -6.15304,6.053402 0,0 2.37155,-0.329917 3.73497,-1.535814 1.36336,-1.205635 2.41807,-4.517588 2.41807,-4.517588 z m -5.96846,-1.603026 c 0,0 -4.83839,2.627148 -4.83358,7.151142 0,0 2.25924,-0.792342 3.35715,-2.244184 1.09788,-1.451318 1.47643,-4.906958 1.47643,-4.906958 z m -2.1516,12.361658 c 0.14874,-1.544942 -0.07,-3.237191 -1.15041,-4.696826 0,0 -1.21722,1.72813 -1.45284,3.987567 -0.23592,2.259391 1.08668,5.450078 1.08668,5.450078 0,0 1.26867,-2.165896 1.51657,-4.740819 z M 62.82168,65.2929 c 0.14875,-1.544937 -0.07,-3.237095 -1.15041,-4.69683 0,0 -1.21719,1.728525 -1.45288,3.98795 -0.2359,2.259396 1.08706,5.45013 1.08706,5.45013 0,0 1.26834,-2.166348 1.51623,-4.74125 z m 0.33753,-10.400054 c 0.12247,-1.245547 0.0839,-2.344936 0.0839,-2.344936 0,0 -4.41061,3.29514 -3.75547,7.771589 0,0 2.1219,-1.109037 2.99979,-2.703325 0.38405,-0.69749 0.57652,-1.754568 0.67178,-2.723328 z m -4.09262,10.781316 c 0.14877,-1.544941 -0.0697,-3.237055 -1.15003,-4.69678 0,0 -1.21721,1.728126 -1.45282,3.987565 -0.23591,2.259396 1.08667,5.450087 1.08667,5.450087 0,0 1.26828,-2.165956 1.51618,-4.740872 z"
       style="fill:#00a854;fill-opacity:1;fill-rule:nonzero;stroke:none;stroke-width:0.26307306" />
    <path
       style="fill:#0c8447;fill-opacity:1;fill-rule:nonzero;stroke:none;stroke-width:0.29880151"
       d="m 82.39204,92.773173 c 0,0 -2.1787,-6.154797 -7.08899,-6.467898 0,0 0.54451,2.077996 2.14454,3.741108 1.59988,1.663361 4.94445,2.72679 4.94445,2.72679 z m 2.90687,-6.52734 c 0,0 -6.1662,-5.118883 -10.66127,-2.931833 -0.28067,-1.115831 -0.62099,-2.216817 -1.00921,-3.300344 0.69808,0.617582 2.28208,1.883651 3.93412,2.279132 2.21361,0.529627 6.29051,-0.640935 6.29051,-0.640935 0,0 -5.37001,-3.941636 -10.37964,-2.065462 -0.26626,-0.715242 -0.55234,-1.423048 -0.86111,-2.119917 -0.23998,-0.541634 -0.4943,-1.076371 -0.75954,-1.605774 0.52942,0.491906 2.22002,1.96207 4.07101,2.404961 2.21345,0.529881 6.2903,-0.640565 6.2903,-0.640565 0,0 -5.45074,-4.002532 -10.49218,-2.023679 -0.32782,-0.642009 -0.67435,-1.274409 -1.03793,-1.89672 0.6279,0.320032 2.45937,1.166429 4.15179,1.019459 2.06036,-0.178849 5.27642,-2.549702 5.27642,-2.549702 0,0 -5.74893,-2.104017 -9.58236,1.265372 -0.36456,-0.612766 -0.74717,-1.214491 -1.14493,-1.806306 -0.007,-0.04001 -0.0106,-0.07952 -0.019,-0.119548 0,0 -0.0388,0.02447 -0.0426,0.02673 -1.01053,-1.494322 -2.12392,-2.919423 -3.32875,-4.262806 -0.0721,-0.0804 -0.14582,-0.15968 -0.21845,-0.239688 0.73742,0.190612 2.64447,0.596831 4.22368,0.137203 1.98487,-0.577463 4.67376,-3.468081 4.67376,-3.468081 0,0 -6.0239,-0.862588 -9.1282,3.076943 -1.40915,-1.532672 -2.92499,-2.987622 -4.64521,-4.163415 -1.89146,-1.293011 -3.96976,-2.300769 -6.10728,-3.116141 -2.71001,-1.033794 -5.59066,-1.855792 -8.47433,-2.235881 -0.10075,-0.01354 -0.25587,0.331664 -0.13433,0.347517 2.38744,0.314856 4.76643,0.958798 7.04212,1.729709 2.08694,0.707092 4.12643,1.580604 6.03201,2.692146 1.3003,0.758304 2.48562,1.643701 3.59967,2.623272 -0.0625,0.03583 -2.08764,1.205068 -3.40449,3.377708 -1.33761,2.206404 -1.52571,6.125522 -1.52571,6.125522 0,0 5.99373,-4.102909 4.95732,-9.478843 0.61306,0.540509 1.20552,1.108477 1.78213,1.701807 1.60099,1.647183 3.06416,3.436366 4.36224,5.338758 -0.64007,0.42751 -2.07546,1.50651 -3.08911,3.179063 -1.33761,2.206407 -1.52586,6.12492 -1.52586,6.12492 0,7e-6 5.37087,-3.677936 5.06307,-8.632249 0.74005,1.133826 1.42124,2.305615 2.03791,3.510088 -0.26249,0.146354 -2.11802,1.221921 -3.41596,3.240128 -1.39575,2.170302 -1.68775,6.082384 -1.68775,6.082384 0,0 5.87076,-3.795488 5.24777,-9.041229 0.58602,1.16854 1.11076,2.367278 1.56966,3.590531 -0.2039,0.112411 -2.1181,1.199542 -3.44008,3.255111 -1.39581,2.169917 -1.68811,6.082158 -1.68811,6.082158 0,0 5.83703,-3.773356 5.25371,-8.994924 0.53911,1.482456 0.98059,3.000184 1.31538,4.544577 -0.2742,0.154333 -1.89419,1.109251 -3.03855,2.887982 -1.24818,1.941153 -1.50974,5.441145 -1.50974,5.441145 0,0 4.74728,-3.068926 4.73688,-7.403337 0.17817,0.917803 0.32925,1.853495 0.38251,2.786994 -0.0135,-0.01131 -0.025,-0.02437 -0.039,-0.03527 0,0 -0.71954,0.953253 -0.95451,3.205657 -0.23514,2.25265 2.23155,5.18046 2.23155,5.18046 0,0 1.58507,-5.557428 -0.99894,-8.133921 -0.0218,-1.076201 -0.19685,-2.162445 -0.39188,-3.217171 -0.11531,-0.623592 -0.25083,-1.243741 -0.40175,-1.860028 0.28501,0.404545 1.17713,1.494927 3.22276,2.663817 2.57582,1.47218 7.38918,0.06247 7.38918,0.06247 z M 77.99101,68.68612 c 0,-7e-6 -5.88827,-2.105409 -9.71378,1.325333 0,0 2.38202,1.311884 4.44186,1.141837 2.06024,-0.170146 5.27192,-2.46717 5.27192,-2.46717 z m -13.18235,4.56909 c 0.90175,-1.514803 1.49737,-3.359076 1.09522,-5.382097 0,0 -2.08825,1.185374 -3.42558,3.391962 -1.33761,2.206406 -1.52547,6.125147 -1.52547,6.125147 0,0 2.35295,-1.610326 3.85583,-4.135012 z m 6.80555,-12.939559 c 0,0 -6.18993,-0.889488 -9.25469,3.235013 0,0 2.59591,0.810784 4.58094,0.233073 1.98485,-0.577463 4.67375,-3.468086 4.67375,-3.468086 z M 66.26074,55.77574 c 0,0 -6.24339,0.352993 -8.43155,5.00221 0,0 2.70471,0.281347 4.53626,-0.677692 1.83125,-0.958525 3.89529,-4.324519 3.89529,-4.324518 z M 58.0581,67.430144 c 0.90173,-1.5148 1.49737,-3.359069 1.09523,-5.382095 0,0 -2.08803,1.185002 -3.42536,3.391587 -1.33761,2.206404 -1.52584,6.12492 -1.52584,6.12492 0,0 2.35308,-1.60972 3.85597,-4.134412 z M 54.11833,65.52367 c 0.90173,-1.514791 1.49731,-3.358978 1.09522,-5.382101 0,0 -2.08819,1.185422 -3.42557,3.391969 -1.33762,2.206405 -1.5255,6.125146 -1.5255,6.125146 0,0 2.35298,-1.610341 3.85585,-4.135014 z m 5.38834,-10.518934 c 0.7296,-1.22001 1.22295,-2.367953 1.22295,-2.367953 0,0 -6.12781,1.246508 -7.62494,6.162145 0,0 2.71717,-0.110531 4.39177,-1.322547 0.73261,-0.530254 1.44275,-1.522742 2.01022,-2.471645 z m -9.43027,9.090196 c 0.90175,-1.51479 1.49769,-3.358748 1.0956,-5.381862 0,0 -2.08802,1.184997 -3.42534,3.391594 -1.33762,2.206406 -1.52586,6.124918 -1.52586,6.124918 0,0 2.35272,-1.609967 3.8556,-4.13465 z"
       id="path4946"
       inkscape:connector-curvature="0" />
    <path
       inkscape:connector-curvature="0"
       id="path5098"
       d="m 66.99566,106.92337 c 0,0 0.0261,-6.957628 -4.78752,-9.036347 0,0 -0.2005,2.280387 0.80702,4.523867 1.00729,2.24369 3.9805,4.51248 3.9805,4.51248 z m 5.26198,-5.50378 c 0,0 -4.34654,-7.351349 -9.6421,-6.772629 0.11944,-1.220294 0.17367,-2.447139 0.17358,-3.67368 0.47839,0.870445 1.61252,2.709841 3.12778,3.700296 2.03042,1.326839 6.54115,1.617607 6.54115,1.617607 0,0 -3.97085,-5.884182 -9.67088,-5.80225 -0.0101,-0.813242 -0.0427,-1.626143 -0.10206,-2.436219 -0.0461,-0.629628 -0.10909,-1.257484 -0.18494,-1.883916 0.35436,0.683751 1.52208,2.766211 3.21989,3.87572 2.03018,1.327039 6.54081,1.617902 6.54081,1.617902 0,0 -4.02995,-5.974278 -9.79881,-5.800772 -0.0982,-0.761894 -0.21855,-1.520866 -0.35966,-2.275846 0.51492,0.546714 2.04813,2.054017 3.79883,2.514774 2.13128,0.561001 6.20975,-0.661752 6.20975,-0.661752 0,0 -5.01138,-4.1768 -10.06805,-2.174146 -0.14553,-0.745759 -0.31313,-1.486923 -0.49949,-2.223591 0.007,-0.04257 0.0179,-0.08361 0.0238,-0.126783 0,0 -0.0478,0.01061 -0.0523,0.0115 -0.47678,-1.862301 -1.08164,-3.692123 -1.80758,-5.472822 -0.0434,-0.106569 -0.0889,-0.212598 -0.13303,-0.318966 0.6713,0.45623 2.43854,1.5491 4.18801,1.655504 2.19881,0.133972 5.93519,-1.799674 5.93519,-1.799674 0,0 -5.73338,-3.030178 -10.26344,-0.193514 -0.86291,-2.044026 -1.86078,-4.048418 -3.164,-5.846199 -1.4329,-1.97692 -3.15576,-3.734813 -5.00718,-5.320976 -2.34723,-2.011021 -4.94179,-3.870891 -7.69818,-5.288509 -0.0962,-0.04979 -0.37588,0.240783 -0.25965,0.300366 2.28199,1.17384 4.43726,2.674798 6.44326,4.266012 1.83957,1.459356 3.57173,3.068618 5.084,4.868553 1.03199,1.22804 1.90297,2.542266 2.66859,3.925355 -0.0756,0.01348 -2.52746,0.458726 -4.62934,2.165146 -2.13483,1.732837 -3.73195,5.597012 -3.73195,5.597012 0,0 7.48754,-1.962198 8.37973,-7.727943 0.4208,0.762567 0.81106,1.54528 1.1763,2.347742 1.01422,2.227846 1.83914,4.548628 2.45775,6.923654 -0.79577,0.198866 -2.62355,0.765517 -4.24154,2.079196 -2.13485,1.732836 -3.73189,5.596353 -3.73189,5.596353 -10e-6,7e-6 6.70995,-1.759688 8.18157,-6.840616 0.33498,1.40344 0.59726,2.823808 0.78308,4.253786 -0.31593,0.0525 -2.56398,0.464715 -4.5914,2.022999 -2.18019,1.67572 -3.87902,5.4955 -3.87902,5.4955 0,0 7.25371,-1.697973 8.51386,-7.184538 0.16798,1.382911 0.26362,2.774095 0.2844,4.166213 -0.24495,0.0395 -2.55602,0.442236 -4.62097,2.029364 -2.18012,1.675314 -3.8793,5.495143 -3.8793,5.495143 0,0 7.21191,-1.68789 8.50317,-7.135948 0.008,1.680982 -0.0944,3.362263 -0.31354,5.03196 -0.33057,0.05629 -2.29895,0.432121 -4.08623,1.805345 -1.94979,1.498865 -3.46998,4.916167 -3.46998,4.916167 0,0 5.86548,-1.37282 7.41269,-5.724962 -0.15109,0.984795 -0.33577,1.977805 -0.6178,2.933458 -0.01,-0.01621 -0.0163,-0.03342 -0.0265,-0.04939 0,0 -1.06444,0.697744 -2.10961,2.872984 -1.04543,2.17543 0.37706,5.99914 0.37706,5.99914 0,0 3.58736,-5.00575 1.92091,-8.51917 0.36491,-1.087503 0.57963,-2.240174 0.76301,-3.368391 0.10842,-0.667044 0.19532,-1.3379 0.26538,-2.010412 0.14055,0.508272 0.64371,1.922781 2.27588,3.830579 2.05508,2.402604 7.39059,2.718114 7.39059,2.718114 z M 71.23655,81.176942 c 1e-5,-6e-6 -5.15067,-4.228268 -10.22144,-2.16122 0,0 1.91828,2.172149 4.04588,2.741794 2.12804,0.569692 6.17556,-0.580574 6.17556,-0.580574 z m -14.8669,-0.153481 c 1.44903,-1.195634 2.70935,-2.831815 3.03291,-5.005887 0,0 -2.52099,0.438746 -4.65561,2.171868 -2.13483,1.732834 -3.73158,5.596718 -3.73158,5.596718 0,0 2.93925,-0.769947 5.35428,-2.762699 z m 11.4776,-10.535638 c 0,0 -5.89026,-3.116831 -10.44714,-0.08039 0,0 2.31292,1.74629 4.51197,1.880072 2.19879,0.133969 5.93517,-1.799681 5.93517,-1.799682 z m -3.73926,-6.478447 c 0,0 -6.39041,-1.889546 -10.25641,1.988328 0,0 2.61233,1.254244 4.79445,0.95031 2.18162,-0.303525 5.46196,-2.938638 5.46196,-2.938638 z m -12.41735,8.744267 c 1.44901,-1.195639 2.70934,-2.831809 3.03292,-5.005885 0,0 -2.52062,0.438458 -4.65526,2.17157 -2.13483,1.732836 -3.73186,5.596363 -3.73186,5.596363 0,0 2.93917,-0.769293 5.3542,-2.762048 z m -3.26738,-3.328465 c 1.44902,-1.195625 2.70926,-2.831737 3.03293,-5.00589 0,0 -2.52094,0.438821 -4.65561,2.171877 -2.13484,1.732834 -3.7316,5.596711 -3.7316,5.596711 0,0 2.93927,-0.769956 5.35428,-2.762698 z m 9.18592,-8.616497 c 1.1704,-0.961753 2.07788,-1.936109 2.07788,-1.936109 0,0 -6.59555,-0.95161 -9.86404,3.44188 0,0 2.76565,0.865574 4.88122,0.251445 0.92554,-0.268687 1.99465,-1.009178 2.90494,-1.757216 z m -12.72744,5.730606 c 1.44902,-1.195623 2.70955,-2.831368 3.03321,-5.005517 0,0 -2.52062,0.438453 -4.65524,2.171583 -2.13485,1.732836 -3.73189,5.596352 -3.73189,5.596352 0,0 2.93889,-0.769672 5.35392,-2.762418 z"
       style="fill:#0a6638;fill-opacity:1;fill-rule:nonzero;stroke:none;stroke-width:0.3184185" />
    <g
       transform="matrix(0.42462168,-0.14775889,0.14775889,0.42462168,-36.71475,210.54616)"
       id="g5108">
      <g
         id="g5102"
         transform="matrix(0.35277777,0,0,-0.35277777,314.99525,126.62407)">
        <path
           d="m 0,0 26.937,-15.579 -21.903,5.95 c 0.457,-0.729 0.932,-1.455 1.426,-2.179 14.53,-21.268 45.886,-33.369 45.886,-33.369 l -34.542,6.968 c 0,0 8.656,-18.304 25.694,-31.706 l 41.733,-1.515 -29.826,-7.114 c 24.5,-16.31 41.688,-17.385 41.688,-17.385 l -12.94,-8.059 c 0,0 13.054,-11.31 27.358,-18.021 14.303,-6.712 31.61,-4.566 31.61,-4.566 l -6.575,-6.615 c 0,0 22.472,-16.219 51.217,-2.748 L -6.326,33.475 C -6.326,33.475 -7.488,17.457 0,0"
           style="fill:#084e2a;fill-opacity:1;fill-rule:nonzero;stroke:none"
           id="path5100"
           inkscape:connector-curvature="0" />
      </g>
      <g
         id="g5106"
         transform="matrix(0.35277777,0,0,-0.35277777,312.76351,114.81497)">
        <path
           d="m 0,0 194.089,-169.413 c 0,0 8.73,21.146 6.945,36.563 -1.785,15.417 -10.788,19.654 -10.788,19.654 l -4.334,-13.755 c 0,0 -3.412,24.818 -11.165,42.453 -7.752,17.636 -25.153,28.335 -25.153,28.335 l -5.385,-24.22 c 0,0 -9.029,30.524 -20.724,46.841 C 111.79,-17.226 89.486,-6.986 89.486,-6.986 L 87.082,-29.03 c 0,0 -10.08,20.06 -23.54,32.077 C 50.083,15.065 41.739,17.332 41.739,17.332 l 2.293,-17.944 c 0,0 -12.951,9.49 -23.925,13.069 C 9.134,16.034 0,0 0,0"
           style="fill:#054425;fill-opacity:1;fill-rule:nonzero;stroke:none"
           id="path5104"
           inkscape:connector-curvature="0" />
      </g>
    </g>
    <g
       transform="matrix(0.48225853,0.2894323,-0.2894323,0.48225853,16.14809,32.716909)"
       id="g4934">
      <g
         id="g4928"
         transform="matrix(0.35277777,0,0,-0.35277777,314.99525,126.62407)">
        <path
           d="m 0,0 26.937,-15.579 -21.903,5.95 c 0.457,-0.729 0.932,-1.455 1.426,-2.179 14.53,-21.268 45.886,-33.369 45.886,-33.369 l -34.542,6.968 c 0,0 8.656,-18.304 25.694,-31.706 l 41.733,-1.515 -29.826,-7.114 c 24.5,-16.31 41.688,-17.385 41.688,-17.385 l -12.94,-8.059 c 0,0 13.054,-11.31 27.358,-18.021 14.303,-6.712 31.61,-4.566 31.61,-4.566 l -6.575,-6.615 c 0,0 22.472,-16.219 51.217,-2.748 L -6.326,33.475 C -6.326,33.475 -7.488,17.457 0,0"
           style="fill:#005e2e;fill-opacity:1;fill-rule:nonzero;stroke:none"
           id="path4926"
           inkscape:connector-curvature="0" />
      </g>
      <g
         id="g4932"
         transform="matrix(0.35277777,0,0,-0.35277777,312.76351,114.81497)">
        <path
           d="m 0,0 194.089,-169.413 c 0,0 8.73,21.146 6.945,36.563 -1.785,15.417 -10.788,19.654 -10.788,19.654 l -4.334,-13.755 c 0,0 -3.412,24.818 -11.165,42.453 -7.752,17.636 -25.153,28.335 -25.153,28.335 l -5.385,-24.22 c 0,0 -9.029,30.524 -20.724,46.841 C 111.79,-17.226 89.486,-6.986 89.486,-6.986 L 87.082,-29.03 c 0,0 -10.08,20.06 -23.54,32.077 C 50.083,15.065 41.739,17.332 41.739,17.332 l 2.293,-17.944 c 0,0 -12.951,9.49 -23.925,13.069 C 9.134,16.034 0,0 0,0"
           style="fill:#00542a;fill-opacity:1;fill-rule:nonzero;stroke:none"
           id="path4930"
           inkscape:connector-curvature="0" />
      </g>
    </g>
    <g
       id="g4918"
       transform="matrix(0.54300827,0,0,0.54300827,-54.75695,131.73169)">
      <g
         transform="matrix(0.35277777,0,0,-0.35277777,314.99525,126.62407)"
         id="g5219">
        <path
           inkscape:connector-curvature="0"
           id="path5221"
           style="fill:#0d8346;fill-opacity:1;fill-rule:nonzero;stroke:none"
           d="m 0,0 26.937,-15.579 -21.903,5.95 c 0.457,-0.729 0.932,-1.455 1.426,-2.179 14.53,-21.268 45.886,-33.369 45.886,-33.369 l -34.542,6.968 c 0,0 8.656,-18.304 25.694,-31.706 l 41.733,-1.515 -29.826,-7.114 c 24.5,-16.31 41.688,-17.385 41.688,-17.385 l -12.94,-8.059 c 0,0 13.054,-11.31 27.358,-18.021 14.303,-6.712 31.61,-4.566 31.61,-4.566 l -6.575,-6.615 c 0,0 22.472,-16.219 51.217,-2.748 L -6.326,33.475 C -6.326,33.475 -7.488,17.457 0,0" />
      </g>
      <g
         transform="matrix(0.35277777,0,0,-0.35277777,312.76351,114.81497)"
         id="g5223">
        <path
           inkscape:connector-curvature="0"
           id="path5225"
           style="fill:#0f7243;fill-opacity:1;fill-rule:nonzero;stroke:none"
           d="m 0,0 194.089,-169.413 c 0,0 8.73,21.146 6.945,36.563 -1.785,15.417 -10.788,19.654 -10.788,19.654 l -4.334,-13.755 c 0,0 -3.412,24.818 -11.165,42.453 -7.752,17.636 -25.153,28.335 -25.153,28.335 l -5.385,-24.22 c 0,0 -9.029,30.524 -20.724,46.841 C 111.79,-17.226 89.486,-6.986 89.486,-6.986 L 87.082,-29.03 c 0,0 -10.08,20.06 -23.54,32.077 C 50.083,15.065 41.739,17.332 41.739,17.332 l 2.293,-17.944 c 0,0 -12.951,9.49 -23.925,13.069 C 9.134,16.034 0,0 0,0" />
      </g>
    </g>
    <g
       id="g5118"
       transform="matrix(0.33338198,0.48708563,-0.48708563,0.33338198,130.58056,144.07835)">
      <g
         transform="matrix(0.35277777,0,0,-0.35277777,60.427652,113.1245)"
         id="g5112">
        <path
           inkscape:connector-curvature="0"
           id="path5110"
           style="fill:#054425;fill-opacity:1;fill-rule:nonzero;stroke:none"
           d="m 0,0 c -17.746,-6.427 -35.742,-41.143 -35.742,-41.143 l 5.336,-40.112 -10.102,24.865 c 0,0 -6.154,-7.981 -12.936,-24.047 -6.783,-16.066 -8.61,-26.987 -8.61,-26.987 l 15.564,-38.306 -17.894,20.917 c 0,0 -10.814,-42.76 24.157,-107.631 z" />
      </g>
      <g
         transform="matrix(0.35277777,0,0,-0.35277777,53.961376,176.82724)"
         id="g5116">
        <path
           inkscape:connector-curvature="0"
           id="path5114"
           style="fill:#084e2a;fill-opacity:1;fill-rule:nonzero;stroke:none"
           d="m 0,0 32.918,35.657 c 3.841,15.679 4.507,26.618 4.507,26.618 L 9.2,50.808 32.784,73.7 c 0,0 1.045,13.443 0.96,31.029 l -16.661,-8.601 16.428,20.423 c -0.866,24.371 -4.38,52.305 -15.181,64.024 L -21.897,-51.869 c 22.122,15.632 36.05,37.268 44.796,57.504 z" />
      </g>
    </g>
    <g
       transform="matrix(0.6432869,0.27009077,-0.27009077,0.6432869,79.8549,92.153288)"
       id="g4944">
      <g
         id="g4938"
         transform="matrix(0.35277777,0,0,-0.35277777,60.427652,113.1245)">
        <path
           d="m 0,0 c -17.746,-6.427 -35.742,-41.143 -35.742,-41.143 l 5.336,-40.112 -10.102,24.865 c 0,0 -6.154,-7.981 -12.936,-24.047 -6.783,-16.066 -8.61,-26.987 -8.61,-26.987 l 15.564,-38.306 -17.894,20.917 c 0,0 -10.814,-42.76 24.157,-107.631 z"
           style="fill:#0f7243;fill-opacity:1;fill-rule:nonzero;stroke:none"
           id="path4936"
           inkscape:connector-curvature="0" />
      </g>
      <g
         id="g4942"
         transform="matrix(0.35277777,0,0,-0.35277777,53.961376,176.82724)">
        <path
           d="m 0,0 32.918,35.657 c 3.841,15.679 4.507,26.618 4.507,26.618 L 9.2,50.808 32.784,73.7 c 0,0 1.045,13.443 0.96,31.029 l -16.661,-8.601 16.428,20.423 c -0.866,24.371 -4.38,52.305 -15.181,64.024 L -21.897,-51.869 c 22.122,15.632 36.05,37.268 44.796,57.504 z"
           style="fill:#0d8346;fill-opacity:1;fill-rule:nonzero;stroke:none"
           id="path4940"
           inkscape:connector-curvature="0" />
      </g>
    </g>
  </g>
</svg>
