<?xml version="1.0" encoding="UTF-8" standalone="no"?>
<svg
   xmlns:dc="http://purl.org/dc/elements/1.1/"
   xmlns:cc="http://creativecommons.org/ns#"
   xmlns:rdf="http://www.w3.org/1999/02/22-rdf-syntax-ns#"
   xmlns:svg="http://www.w3.org/2000/svg"
   xmlns="http://www.w3.org/2000/svg"
   xmlns:sodipodi="http://sodipodi.sourceforge.net/DTD/sodipodi-0.dtd"
   xmlns:inkscape="http://www.inkscape.org/namespaces/inkscape"
   width="340.67456"
   height="85.400848"
   viewBox="0 0 340.67456 85.400848"
   version="1.1"
   id="svg54"
   sodipodi:docname="screen_title.svg"
   style="fill:none"
   inkscape:version="0.92.4 (5da689c313, 2019-01-14)">
  <metadata
     id="metadata60">
    <rdf:RDF>
      <cc:Work
         rdf:about="">
        <dc:format>image/svg+xml</dc:format>
        <dc:type
           rdf:resource="http://purl.org/dc/dcmitype/StillImage" />
        <dc:title></dc:title>
      </cc:Work>
    </rdf:RDF>
  </metadata>
  <defs
     id="defs58" />
  <sodipodi:namedview
     pagecolor="#ffffff"
     bordercolor="#666666"
     borderopacity="1"
     objecttolerance="10"
     gridtolerance="10"
     guidetolerance="10"
     inkscape:pageopacity="0"
     inkscape:pageshadow="2"
     inkscape:window-width="1366"
     inkscape:window-height="705"
     id="namedview56"
     showgrid="false"
     fit-margin-top="0"
     fit-margin-left="0"
     fit-margin-right="0"
     fit-margin-bottom="0"
     inkscape:pagecheckerboard="true"
     inkscape:showpageshadow="false"
     inkscape:zoom="1.1407625"
     inkscape:cx="170.5"
     inkscape:cy="42.400851"
     inkscape:window-x="-8"
     inkscape:window-y="-8"
     inkscape:window-maximized="1"
     inkscape:current-layer="svg54" />
  <path
     d="M 9.37556,10.6732 H 329.345 V 77.3764 H 9.37556 Z"
     id="path2"
     inkscape:connector-curvature="0"
     style="fill:#d0dd82;fill-opacity:0.58823494" />
  <path
     d="M 1.17614,4.07262 C 0.542031,4.10188 -0.0787154,4.56323 0.00816931,5.7738 0.151858,7.78611 1.72014,11.6572 0.390982,15.7933 c -0.254141,0.7909 0.041249,1.9595 0.882808,1.9961 0.2253,0.0098 0.49406,-0.063 0.79688,-0.2441 1.43258,-0.8555 2.76971,-1.4027 5.87695,-1.4063 3.10728,0 42.09878,-0.0244 44.20308,-0.0273 2.1023,-0.0013 3.4925,0.9318 4.3067,1.418 0.2754,0.1655 0.5668,0.2565 0.8496,0.2597 0.4523,0.0053 0.8317,-0.08 1.1309,-0.2441 1.4629,-0.8024 2.7697,-1.4027 5.8769,-1.4063 3.1073,0 42.0992,-0.0244 44.2032,-0.0273 2.102,-0.0013 3.49,0.9318 4.305,1.418 0.275,0.1655 0.566,0.2556 0.849,0.2598 0.258,0.0038 0.676,-0.1208 0.897,-0.2442 1.456,-0.8146 2.771,-1.4027 5.879,-1.4062 3.107,0 42.096,-0.0245 44.201,-0.0274 2.102,-0.0013 3.492,0.9318 4.306,1.418 0.276,0.1655 0.568,0.2367 0.85,0.2598 0.361,0.0295 0.718,-0.1108 0.957,-0.2442 1.458,-0.8114 2.77,-1.4027 5.877,-1.4062 3.107,0 42.097,-0.0244 44.201,-0.0273 2.102,-0.0013 3.493,0.9312 4.307,1.4179 0.276,0.165 0.567,0.244 0.849,0.2598 0.372,0.0207 0.832,-0.08 1.131,-0.2441 1.463,-0.8024 2.772,-1.4028 5.879,-1.4063 3.107,0 42.097,-0.0244 44.201,-0.0273 2.103,-0.0013 3.493,0.9317 4.307,1.4179 0.275,0.1655 0.568,0.2297 0.85,0.2598 0.276,0.0296 0.675,-0.1207 0.896,-0.2441 1.456,-0.8145 2.77,-1.4027 5.877,-1.4063 3.107,0 42.099,-0.0244 44.203,-0.0273 2.102,-0.0013 3.491,0.9317 4.305,1.418 0.275,0.1655 0.567,0.2726 0.85,0.2597 0.55,-0.025 1.081,-0.4743 1.492,-1.6035 0.621,-1.7081 1.311,-8.1653 -0.336,-11.11913 -0.41,-0.73347 -0.744,-0.97515 -1.043,-0.99414 -1.039,-0.06598 -1.328,0.90234 -1.869,0.90234 -0.814,0 -46.511,-0.05859 -48.803,-0.05859 -2.294,0.00164 -3.921,0.24766 -4.494,-0.42383 -0.344,-0.38766 -0.785,-0.48966 -1.112,-0.41211 -0.891,0.21158 -1.211,0.89453 -1.724,0.89453 -0.814,0 -46.511,-0.05859 -48.803,-0.05859 -2.294,0.00164 -3.921,0.24766 -4.494,-0.42383 -0.392,-0.38787 -0.834,-0.43956 -1.199,-0.41992 -1.04,0.05585 -1.33,0.90234 -1.871,0.90234 -0.814,0 -46.509,-0.05859 -48.801,-0.05859 -2.294,0.00164 -3.921,0.24766 -4.494,-0.42383 -0.337,-0.36324 -0.767,-0.43941 -1.092,-0.41601 -0.979,0.07037 -1.276,0.89843 -1.805,0.89843 -0.813,0 -46.508,-0.05859 -48.801,-0.05859 -2.294,0.00164 -3.923,0.24766 -4.496,-0.42383 -0.343,-0.38565 -0.765,-0.43047 -1.107,-0.41211 -0.917,0.0492 -1.212,0.89453 -1.727,0.89453 -0.813,0 -46.5101,-0.05859 -48.8024,-0.05859 C 60.8193,4.91812 59.1925,5.16414 58.6195,4.49265 58.2278,4.10565 57.8239,4.05298 57.4203,4.07273 56.3806,4.12361 56.0905,4.97507 55.5492,4.97507 54.7355,4.97507 9.03871,4.91648 6.74647,4.91648 4.45212,4.91801 2.82529,5.16403 2.25231,4.49255 2.02332,4.22499 1.59663,4.05321 1.17614,4.07262 Z"
     id="path4"
     inkscape:connector-curvature="0"
     style="fill:#445000" />
  <path
     d="M 10.7718,0.00618718 C 8.57482,0.0507393 6.53213,0.377369 5.67809,0.687828 4.54886,1.0984 4.10159,1.62943 4.07653,2.18002 4.06368,2.46255 4.1708,2.75418 4.33629,3.02962 4.82251,3.84381 5.75554,5.23405 5.75426,7.33627 5.75131,9.44059 5.72693,35.7934 5.72693,38.9006 c -0.00355,3.1073 -0.55275,4.4463 -1.4082,5.8789 -0.18117,0.3028 -0.25197,0.5696 -0.24218,0.7949 1.2e-4,0.0028 0.0018,0.005 0.00195,0.008 -1.1e-4,0.002 -0.00186,0.0038 -0.00195,0.006 -0.01286,0.2825 0.09427,0.5742 0.25976,0.8496 0.48622,0.8142 1.41925,2.2045 1.41797,4.3067 -0.00295,2.1043 -0.02733,23.1487 -0.02733,26.2559 -0.00355,3.1073 -0.55275,4.4463 -1.4082,5.8789 -0.18117,0.3028 -0.25198,0.5696 -0.24219,0.7949 0.03659,0.8416 1.2033,1.137 1.99414,0.8829 4.1361,-1.3292 8.0072,0.2391 10.0195,0.3828 1.2106,0.0869 1.6739,-0.5339 1.7032,-1.168 0.0194,-0.4205 -0.1524,-0.8472 -0.42,-1.0762 -0.6715,-0.5729 -0.4274,-2.1998 -0.4257,-4.4941 0,-2.2922 -0.0567,-30.0419 -0.0567,-30.8556 0,-0.3467 0.3957,-0.5927 0.6641,-0.9961 0.072,-0.0937 0.1138,-0.1992 0.1523,-0.3066 0.0352,-0.0945 0.0594,-0.1978 0.0723,-0.3106 0.0019,-0.0208 0.0127,-0.0398 0.0137,-0.0605 0.0014,-0.031 -0.0053,-0.0609 -0.0059,-0.0918 3e-4,-0.0363 0.0083,-0.0672 0.0059,-0.1055 -0.0013,-0.02 -0.0122,-0.0419 -0.0157,-0.0625 -0.0443,-0.328 -0.1923,-0.635 -0.4043,-0.8164 -0.6715,-0.573 -0.4274,-2.1998 -0.4258,-4.4941 0,-2.2923 -0.0566,-35.35032 -0.0566,-36.16399 0,-0.54134 0.9683,-0.83222 0.9024,-1.87109 C 17.7743,1.76771 17.5307,1.43328 16.7972,1.02377 15.3203,0.200236 12.9689,-0.0383649 10.7718,0.00618718 Z"
     id="path6"
     inkscape:connector-curvature="0"
     style="fill:#2a3205" />
  <path
     d="m 333.522,0.0081554 c -2.012,0.1436886 -5.884,1.7119746 -10.02,0.3828126 -0.791,-0.25414 -1.957,0.041249 -1.994,0.882812 -0.01,0.2253 0.061,0.49406 0.242,0.79688 0.856,1.43257 1.405,2.76971 1.409,5.87695 0,3.10719 0.024,28.84869 0.027,30.95299 0.001,2.1023 -0.932,3.4925 -1.418,4.3067 -0.166,0.2754 -0.273,0.5671 -0.26,0.8496 0.001,0.0113 0.007,0.0219 0.008,0.0332 -0.001,0.0137 -0.007,0.025 -0.008,0.0391 -0.01,0.2253 0.061,0.494 0.242,0.7969 0.856,1.4325 1.405,2.7697 1.408,5.8769 0,3.1073 0.025,25.1575 0.028,27.2618 0.001,2.1022 -0.932,3.4925 -1.418,4.3067 -0.166,0.2754 -0.273,0.5671 -0.26,0.8496 0.025,0.5506 0.474,1.0816 1.603,1.4922 1.708,0.6209 8.164,1.3111 11.118,-0.336 0.733,-0.4095 0.977,-0.7439 0.996,-1.043 0.066,-1.0388 -0.903,-1.3297 -0.903,-1.871 0,-0.8137 0.059,-29.5692 0.059,-31.8615 -0.002,-2.2943 -0.248,-3.9211 0.424,-4.4941 0.228,-0.1958 0.379,-0.5374 0.408,-0.8945 0.002,-0.014 0.011,-0.0291 0.012,-0.043 0.002,-0.0269 -0.004,-0.0483 -0.004,-0.0742 0,-0.0216 0.004,-0.0428 0.004,-0.0645 -0.001,-0.0147 -0.009,-0.0283 -0.01,-0.043 -0.054,-0.8875 -0.893,-1.1825 -0.893,-1.6894 0,-0.8137 0.059,-33.26041 0.059,-35.55265 -0.002,-2.29433 -0.248,-3.92116 0.424,-4.49414 0.267,-0.22899 0.439,-0.65568 0.42,-1.07617 -0.029,-0.634108 -0.493,-1.2548555 -1.704,-1.16797069 z"
     id="path8"
     inkscape:connector-curvature="0"
     style="fill:#2a3205" />
  <path
     d="M 5.58792,46.1979 C 6.7704,45.0665 9.32274,44.49 10.749,44.5248 c 1.6399,0.0401 4.8597,0.7469 5.6358,1.3571 0.3261,0.2564 0.5123,0.3202 0.4819,1.0967 0.411,-0.4272 0.7904,-0.8921 0.7297,-1.4318 -0.0807,-0.7164 -1.0946,-1.5673 -1.7205,-1.9498 -1.4143,-0.8642 -3.238,-1.4393 -5.2154,-1.3388 -1.70733,0.0867 -4.47239,0.5324 -5.58792,1.7963 -0.43237,0.4899 -0.80737,0.963 -0.87224,1.7314 -0.02419,0.2848 0.64791,1.1442 1.08496,2.011 0.01209,-1.1888 -0.05469,-1.2571 0.30262,-1.599 z"
     id="path10"
     inkscape:connector-curvature="0"
     style="fill:#505e09" />
  <path
     d="m 323.049,44.6667 c 1.183,-1.1314 3.735,-1.708 5.161,-1.6731 1.64,0.04 4.86,0.7468 5.636,1.3571 0.326,0.2564 0.512,0.3201 0.482,1.0966 0.411,-0.4272 0.79,-0.892 0.73,-1.4317 -0.081,-0.7164 -1.095,-1.5673 -1.721,-1.9499 -1.414,-0.8642 -3.238,-1.4392 -5.215,-1.3388 -1.708,0.0868 -4.473,0.5325 -5.588,1.7964 -0.432,0.4899 -0.807,0.963 -0.872,1.7313 -0.025,0.2849 0.648,1.1442 1.085,2.011 0.012,-1.1888 -0.055,-1.2571 0.302,-1.5989 z"
     id="path12"
     inkscape:connector-curvature="0"
     style="fill:#505e09" />
  <path
     d="M 5.65163,2.63529 C 6.8341,1.86701 9.38645,1.47551 10.8128,1.49917 c 1.6398,0.02721 4.8597,0.50714 5.6358,0.92155 0.326,0.17408 0.5122,0.2174 0.4818,0.7447 C 17.3414,2.8753 17.7208,2.55967 17.6601,2.19315 17.5794,1.7067 16.5824,1.08396 15.9396,0.869128 14.5143,0.39275 12.7016,0.112761 10.7242,0.180977 9.01688,0.2399 6.45495,0.415306 5.13629,1.17982 4.66433,1.45346 4.32892,1.83374 4.26405,2.35548 4.23986,2.54892 4.91196,3.13246 5.34901,3.72107 5.3611,2.91382 5.29432,2.86744 5.65163,2.63529 Z"
     id="path14"
     inkscape:connector-curvature="0"
     style="fill:#505e09" />
  <path
     d="m 323.094,82.7667 c 1.182,0.7683 3.735,1.1598 5.161,1.1362 1.64,-0.0273 4.86,-0.5072 5.636,-0.9216 0.326,-0.1741 0.512,-0.2174 0.482,-0.7447 0.411,0.2901 0.79,0.6058 0.729,0.9723 -0.08,0.4864 -1.077,1.1092 -1.72,1.324 -1.425,0.4764 -3.238,0.7564 -5.215,0.6882 -1.708,-0.059 -4.27,-0.2344 -5.588,-0.9989 -0.472,-0.2736 -0.808,-0.6539 -0.873,-1.1757 -0.024,-0.1934 0.648,-0.7769 1.085,-1.3655 0.012,0.8072 -0.054,0.8536 0.303,1.0857 z"
     id="path16"
     inkscape:connector-curvature="0"
     style="fill:#505e09" />
  <path
     d="m 10.7135,83.8095 c 1.6868,0.0898 4.5022,0.7686 5.3858,0.9294 0.4464,0.0812 1.3961,-0.2879 1.4975,-0.7866 -1.3222,0.2488 -4.7406,-1.4048 -6.8438,-1.5995 -2.36298,-0.2186 -5.02172,1.4067 -6.50321,1.3661 0.05872,0.4077 0.69012,1.0367 1.71205,0.6707 1.12989,-0.4046 3.32719,-0.6558 4.75166,-0.5801 z"
     id="path18"
     inkscape:connector-curvature="0"
     style="fill:#505e09" />
  <path
     d="m 328.144,1.18199 c 1.686,-0.08973 4.502,-0.768602 5.385,-0.929363 0.447,-0.081221 1.396,0.287922 1.498,0.786553 -1.322,-0.248728 -4.741,1.40486 -6.844,1.59951 -2.363,0.21868 -5.022,-1.40662 -6.503,-1.36609 0.059,-0.407643 0.69,-1.036648 1.712,-0.670718 1.13,0.404588 3.327,0.655868 4.752,0.580108 z"
     id="path20"
     inkscape:connector-curvature="0"
     style="fill:#505e09" />
  <path
     d="m 339.498,68.239 c 0.634,0.0291 1.255,0.4906 1.168,1.7012 -0.144,2.0123 -1.712,5.8834 -0.383,10.0195 0.254,0.7908 -0.041,1.9595 -0.883,1.9961 -0.225,0.0098 -0.494,-0.063 -0.796,-0.2442 -1.433,-0.8554 -2.77,-1.4027 -5.877,-1.4062 -3.108,0 -42.099,-0.0246 -44.204,-0.0272 -2.102,-0.0013 -3.492,0.9317 -4.306,1.4179 -0.276,0.1655 -0.567,0.2566 -0.85,0.2598 -0.452,0.0053 -0.831,-0.0801 -1.131,-0.2442 -1.463,-0.8023 -2.769,-1.4027 -5.877,-1.4062 -3.107,0 -42.098,-0.0246 -44.203,-0.0272 -2.102,-0.0013 -3.49,0.9317 -4.304,1.4179 -0.276,0.1655 -0.567,0.2557 -0.85,0.2598 -0.258,0.0038 -0.676,-0.1207 -0.896,-0.2441 -1.457,-0.8146 -2.772,-1.4027 -5.879,-1.4063 -3.108,0 -42.097,-0.0246 -44.202,-0.0272 -2.102,-0.0013 -3.492,0.9317 -4.306,1.418 -0.276,0.1655 -0.568,0.2367 -0.85,0.2597 -0.361,0.0295 -0.717,-0.1108 -0.957,-0.2441 -1.458,-0.8115 -2.77,-1.4027 -5.877,-1.4063 -3.107,0 -42.097,-0.0245 -44.201,-0.0272 -2.102,-0.0013 -3.493,0.9312 -4.307,1.418 -0.275,0.1649 -0.567,0.2439 -0.849,0.2597 -0.372,0.0208 -0.832,-0.08 -1.131,-0.2441 -1.463,-0.8024 -2.772,-1.4027 -5.879,-1.4063 -3.107,0 -42.0968,-0.0245 -44.2011,-0.0272 -2.1022,-0.0013 -3.4925,0.9318 -4.3067,1.418 -0.2754,0.1655 -0.5684,0.2296 -0.8496,0.2598 -0.2761,0.0294 -0.6757,-0.1207 -0.8965,-0.2442 -1.4563,-0.8144 -2.7697,-1.4027 -5.8769,-1.4062 -3.1073,0 -42.09881,-0.0246 -44.20314,-0.0273 -2.10222,-0.0013 -3.4905,0.9318 -4.30468,1.418 C 2.75393,81.8622 2.4623,81.9693 2.17977,81.9565 1.62918,81.9315 1.09816,81.4822 0.687575,80.353 0.0666552,78.6449 -0.623545,72.1877 1.02352,69.2338 c 0.40952,-0.7334 0.74395,-0.9751 1.04297,-0.9941 1.03887,-0.066 1.3278,0.9023 1.86913,0.9023 0.81367,0 46.51048,-0.0586 48.80278,-0.0586 2.2943,0.0017 3.9211,0.2477 4.4941,-0.4238 0.3442,-0.3877 0.7847,-0.4896 1.1113,-0.4121 0.8912,0.2116 1.211,0.8945 1.7246,0.8945 0.8137,0 46.5106,-0.0585 48.8026,-0.0585 2.294,0.0016 3.921,0.2476 4.494,-0.4239 0.393,-0.3878 0.834,-0.4395 1.2,-0.4199 1.039,0.0559 1.329,0.9023 1.871,0.9023 0.813,0 46.508,-0.0585 48.8,-0.0585 2.295,0.0016 3.922,0.2476 4.495,-0.4239 0.336,-0.3632 0.766,-0.4394 1.091,-0.416 0.979,0.0704 1.276,0.8985 1.805,0.8985 0.814,0 46.509,-0.0586 48.801,-0.0586 2.294,0.0016 3.923,0.2476 4.496,-0.4238 0.343,-0.3857 0.765,-0.4305 1.107,-0.4122 0.917,0.0492 1.213,0.8946 1.727,0.8946 0.814,0 46.51,-0.0586 48.803,-0.0586 2.294,0.0016 3.921,0.2477 4.494,-0.4238 0.392,-0.387 0.795,-0.4397 1.199,-0.42 1.04,0.0509 1.33,0.9024 1.871,0.9024 0.814,0 46.511,-0.0586 48.803,-0.0586 2.294,0.0016 3.921,0.2476 4.494,-0.4239 0.229,-0.2675 0.656,-0.4393 1.076,-0.4199 z"
     id="path22"
     inkscape:connector-curvature="0"
     style="fill:#445000" />
  <path
     d="M 56.9586,16.2608 C 58.09,15.0783 58.6665,12.526 58.6317,11.0996 58.5916,9.45976 57.8848,6.23995 57.2746,5.46385 57.0182,5.13777 56.9544,4.95156 56.1779,4.98203 c 0.4272,-0.41101 0.892,-0.79043 1.4318,-0.72969 0.7163,0.08062 1.5673,1.09452 1.9498,1.72048 0.8642,1.41425 1.4392,3.23799 1.3388,5.21538 -0.0868,1.7073 -0.5324,4.4724 -1.7964,5.5879 -0.4899,0.4324 -0.9629,0.8074 -1.7313,0.8723 -0.2849,0.024 -1.1442,-0.648 -2.011,-1.085 1.1888,-0.0121 1.2571,0.0547 1.599,-0.3026 z"
     id="path24"
     inkscape:connector-curvature="0"
     style="fill:#6f8400" />
  <path
     d="m 113.174,16.2608 c 1.131,-1.1825 1.707,-3.7348 1.673,-5.1612 -0.04,-1.63984 -0.747,-4.85965 -1.357,-5.63575 -0.257,-0.32608 -0.321,-0.51229 -1.097,-0.48182 0.427,-0.41101 0.892,-0.79043 1.432,-0.72969 0.716,0.08062 1.567,1.09452 1.949,1.72048 0.865,1.41425 1.44,3.23799 1.339,5.21538 -0.086,1.7073 -0.532,4.4724 -1.796,5.5879 -0.49,0.4324 -0.963,0.8074 -1.731,0.8723 -0.285,0.024 -1.145,-0.648 -2.011,-1.085 1.188,-0.0121 1.257,0.0547 1.599,-0.3026 z"
     id="path26"
     inkscape:connector-curvature="0"
     style="fill:#6f8400" />
  <path
     d="m 169.361,16.2608 c 1.131,-1.1825 1.708,-3.7348 1.673,-5.1612 -0.04,-1.63984 -0.747,-4.85965 -1.357,-5.63575 -0.256,-0.32608 -0.32,-0.51229 -1.097,-0.48182 0.428,-0.41101 0.892,-0.79043 1.432,-0.72969 0.717,0.08062 1.567,1.09452 1.95,1.72048 0.864,1.41425 1.439,3.23799 1.339,5.21538 -0.087,1.7073 -0.533,4.4724 -1.797,5.5879 -0.489,0.4324 -0.963,0.8074 -1.731,0.8723 -0.285,0.024 -1.144,-0.648 -2.011,-1.085 1.189,-0.0121 1.257,0.0547 1.599,-0.3026 z"
     id="path28"
     inkscape:connector-curvature="0"
     style="fill:#6f8400" />
  <path
     d="m 225.669,16.2608 c 1.132,-1.1825 1.708,-3.7348 1.673,-5.1612 -0.04,-1.63984 -0.747,-4.85965 -1.357,-5.63575 -0.256,-0.32608 -0.32,-0.51229 -1.097,-0.48182 0.428,-0.41101 0.892,-0.79043 1.432,-0.72969 0.717,0.08062 1.567,1.09452 1.95,1.72048 0.864,1.41425 1.439,3.23799 1.339,5.21538 -0.087,1.7073 -0.533,4.4724 -1.797,5.5879 -0.489,0.4324 -0.962,0.8074 -1.731,0.8723 -0.285,0.024 -1.144,-0.648 -2.011,-1.085 1.189,-0.0121 1.257,0.0547 1.599,-0.3026 z"
     id="path30"
     inkscape:connector-curvature="0"
     style="fill:#6f8400" />
  <path
     d="m 281.905,16.2608 c 1.132,-1.1825 1.708,-3.7348 1.673,-5.1612 -0.04,-1.63984 -0.747,-4.85965 -1.357,-5.63575 -0.256,-0.32608 -0.32,-0.51229 -1.096,-0.48182 0.427,-0.41101 0.892,-0.79043 1.431,-0.72969 0.717,0.08062 1.568,1.09452 1.95,1.72048 0.864,1.41425 1.439,3.23799 1.339,5.21538 -0.087,1.7073 -0.532,4.4724 -1.796,5.5879 -0.49,0.4324 -0.963,0.8074 -1.732,0.8723 -0.285,0.024 -1.144,-0.648 -2.011,-1.085 1.189,-0.0121 1.257,0.0547 1.599,-0.3026 z"
     id="path32"
     inkscape:connector-curvature="0"
     style="fill:#6f8400" />
  <path
     d="m 283.67,80.4307 c -1.131,-1.1824 -1.708,-3.7348 -1.673,-5.1611 0.04,-1.6399 0.747,-4.8597 1.357,-5.6358 0.256,-0.3261 0.32,-0.5123 1.097,-0.4818 -0.428,-0.411 -0.892,-0.7905 -1.432,-0.7297 -0.717,0.0806 -1.567,1.0945 -1.95,1.7205 -0.864,1.4142 -1.439,3.238 -1.339,5.2153 0.087,1.7074 0.533,4.4724 1.797,5.588 0.489,0.4323 0.963,0.8073 1.731,0.8722 0.285,0.024 1.144,-0.6479 2.011,-1.085 -1.189,-0.012 -1.257,0.0547 -1.599,-0.3026 z"
     id="path34"
     inkscape:connector-curvature="0"
     style="fill:#6f8400" />
  <path
     d="m 227.455,80.4307 c -1.131,-1.1824 -1.708,-3.7348 -1.673,-5.1611 0.04,-1.6399 0.747,-4.8597 1.357,-5.6358 0.256,-0.3261 0.32,-0.5123 1.097,-0.4818 -0.428,-0.411 -0.892,-0.7905 -1.432,-0.7297 -0.717,0.0806 -1.567,1.0945 -1.95,1.7205 -0.864,1.4142 -1.439,3.238 -1.339,5.2153 0.087,1.7074 0.533,4.4724 1.797,5.588 0.489,0.4323 0.963,0.8073 1.731,0.8722 0.285,0.024 1.144,-0.6479 2.011,-1.085 -1.189,-0.012 -1.257,0.0547 -1.599,-0.3026 z"
     id="path36"
     inkscape:connector-curvature="0"
     style="fill:#6f8400" />
  <path
     d="m 171.267,80.4307 c -1.131,-1.1824 -1.707,-3.7348 -1.673,-5.1611 0.04,-1.6399 0.747,-4.8597 1.357,-5.6358 0.257,-0.3261 0.321,-0.5123 1.097,-0.4818 -0.427,-0.411 -0.892,-0.7905 -1.432,-0.7297 -0.716,0.0806 -1.567,1.0945 -1.949,1.7205 -0.865,1.4142 -1.44,3.238 -1.339,5.2153 0.086,1.7074 0.532,4.4724 1.796,5.588 0.49,0.4323 0.963,0.8073 1.731,0.8722 0.285,0.024 1.145,-0.6479 2.011,-1.085 -1.188,-0.012 -1.257,0.0547 -1.599,-0.3026 z"
     id="path38"
     inkscape:connector-curvature="0"
     style="fill:#6f8400" />
  <path
     d="m 114.959,80.4307 c -1.131,-1.1824 -1.708,-3.7348 -1.673,-5.1611 0.04,-1.6399 0.747,-4.8597 1.357,-5.6358 0.257,-0.3261 0.321,-0.5123 1.097,-0.4818 -0.427,-0.411 -0.892,-0.7905 -1.432,-0.7297 -0.716,0.0806 -1.567,1.0945 -1.95,1.7205 -0.864,1.4142 -1.439,3.238 -1.338,5.2153 0.086,1.7074 0.532,4.4724 1.796,5.588 0.49,0.4323 0.963,0.8073 1.731,0.8722 0.285,0.024 1.145,-0.6479 2.011,-1.085 -1.188,-0.012 -1.257,0.0547 -1.599,-0.3026 z"
     id="path40"
     inkscape:connector-curvature="0"
     style="fill:#6f8400" />
  <path
     d="m 58.7232,80.4307 c -1.1314,-1.1824 -1.7079,-3.7348 -1.673,-5.1611 0.04,-1.6399 0.7468,-4.8597 1.3571,-5.6358 0.2564,-0.3261 0.3201,-0.5123 1.0966,-0.4818 -0.4272,-0.411 -0.892,-0.7905 -1.4318,-0.7297 -0.7163,0.0806 -1.5672,1.0945 -1.9498,1.7205 -0.8642,1.4142 -1.4392,3.238 -1.3388,5.2153 0.0868,1.7074 0.5325,4.4724 1.7964,5.588 0.4899,0.4323 0.9629,0.8073 1.7313,0.8722 0.2849,0.024 1.1442,-0.6479 2.011,-1.085 -1.1888,-0.012 -1.2571,0.0547 -1.599,-0.3026 z"
     id="path42"
     inkscape:connector-curvature="0"
     style="fill:#6f8400" />
  <path
     d="m 337.967,16.2765 c 0.769,-1.1825 1.16,-3.7349 1.136,-5.1612 -0.027,-1.63985 -0.507,-4.85966 -0.921,-5.63576 -0.174,-0.32609 -0.217,-0.51229 -0.745,-0.48182 0.29,-0.41101 0.606,-0.79044 0.973,-0.7297 0.486,0.08062 1.109,1.07772 1.324,1.72049 0.476,1.4253 0.756,3.23798 0.688,5.21539 -0.059,1.7073 -0.235,4.2692 -0.999,5.5879 -0.274,0.472 -0.654,0.8074 -1.176,0.8722 -0.193,0.0241 -0.777,-0.6479 -1.365,-1.0849 0.807,-0.0121 0.853,0.0547 1.085,-0.3026 z"
     id="path44"
     inkscape:connector-curvature="0"
     style="fill:#6f8400" />
  <path
     d="M 2.67753,80.4609 C 1.90925,79.2784 1.51774,76.7261 1.54141,75.2998 1.56862,73.6599 2.04855,70.4401 2.46296,69.664 2.63704,69.3379 2.68035,69.1517 3.20765,69.1822 2.91754,68.7712 2.60191,68.3917 2.23539,68.4525 c -0.48645,0.0806 -1.1092,1.0777 -1.324026,1.7204 -0.476378,1.4254 -0.756366,3.238 -0.68815,5.2154 0.058922,1.7074 0.234328,4.2693 0.998846,5.5879 0.27364,0.472 0.65392,0.8074 1.17566,0.8723 0.19343,0.0242 0.77698,-0.6479 1.36558,-1.085 -0.80725,-0.0121 -0.85363,0.0547 -1.08577,-0.3026 z"
     id="path46"
     inkscape:connector-curvature="0"
     style="fill:#6f8400" />
  <path
     d="M 1.20739,11.1572 C 1.11767,9.47044 0.438794,6.65498 0.278033,5.77139 0.196812,5.32505 0.565955,4.37527 1.06459,4.27396 0.815874,5.59617 2.46944,9.01453 2.66409,11.1177 2.88278,13.4807 1.25747,16.1394 1.298,17.6209 0.89036,17.5622 0.261358,16.9308 0.627288,15.9089 1.03188,14.779 1.28315,12.5817 1.20739,11.1572 Z"
     id="path48"
     inkscape:connector-curvature="0"
     style="fill:#6f8400" />
  <path
     d="m 339.425,75.3292 c 0.09,-1.6868 0.768,-4.5022 0.929,-5.3858 0.081,-0.4464 -0.288,-1.3962 -0.786,-1.4975 0.248,1.3222 -1.405,4.7406 -1.6,6.8438 -0.219,2.363 1.407,5.0217 1.366,6.5032 0.408,-0.0587 1.037,-0.6901 0.671,-1.7121 -0.405,-1.1298 -0.656,-3.3271 -0.58,-4.7516 z"
     id="path50"
     inkscape:connector-curvature="0"
     style="fill:#6f8400" />
</svg>
