<svg width="360" height="640" viewBox="0 0 360 640" fill="none" xmlns="http://www.w3.org/2000/svg">
<path d="M303.053 -7.94184C330.124 3.31984 318.231 10.2513 307.199 6.79988C301.796 5.10933 292.654 3.27458 283.934 1.72201C274.812 7.98062 265.877 16.7977 257.77 29.0198C272.214 28.9041 290.601 29.2155 299.558 31.2269C315.547 34.8167 309.719 47.814 291.079 41.982C279.005 38.2057 261.362 40.9852 247.824 46.8092C242.071 58.844 238.133 70.423 235.615 81.4035C251.581 74.2201 276.989 64.152 288.238 67.2046C305.252 71.8215 286.929 82.3199 281.222 80.2581C276.648 78.6037 248.816 87.0038 233.221 94.3581C231.885 103.936 231.555 112.964 231.944 121.317C244.045 119.079 259.386 114.128 267.233 111.444C279.087 107.39 272.13 122.856 263.813 122.371C257.873 122.025 244.336 124.249 233.519 136.853C237.99 165.367 252.732 184.716 252.732 184.716L360.424 -7.41508C360.424 -7.41508 333.253 -18.4081 303.053 -7.94184Z" fill="#0D874A"/>
<path d="M389.708 41.4634C366.226 23.9047 366.321 37.6702 374.909 45.4043C379.118 49.1936 385.352 56.1255 391.132 62.8386C390.392 73.8759 387.356 86.0566 380.968 99.259C373.71 86.77 364.076 71.1062 357.783 64.4232C346.549 52.4928 338.333 64.1287 352.847 77.1991C362.246 85.6644 368.841 102.263 370.726 116.88C363.301 127.961 355.342 137.248 347.175 145.009C345.225 127.61 340.946 100.618 332.589 92.4912C319.949 80.2022 320.247 101.318 324.929 105.178C328.683 108.271 335.632 136.501 337.248 153.668C329.686 159.696 322.085 164.579 314.698 168.499C310.46 156.945 306.906 141.221 305.219 133.103C302.67 120.837 292.903 134.7 297.557 141.611C300.881 146.546 305.863 159.328 300.526 175.057C273.713 185.734 252.732 184.716 252.732 184.716L360.031 -7.63913C360.031 -7.63913 383.331 10.1441 389.708 41.4634Z" fill="#0D924F"/>
<path d="M27.6136 458.526C12.467 463.794 -3.19788 493.094 -3.19788 493.094L0.901674 527.231L-7.412 505.997C-7.412 505.997 -12.7268 512.711 -18.6625 526.287C-24.5992 539.863 -26.2695 549.122 -26.2695 549.122L-13.4607 581.835L-28.4372 563.87C-28.4372 563.87 -38.0873 600.082 -9.07771 655.575L27.6136 458.526Z" fill="#00542A"/>
<path d="M10.0874 611.744L38.4402 581.806C41.8731 568.526 42.5573 559.24 42.5573 559.24L18.4533 568.677L38.7379 549.483C38.7379 549.483 39.7711 538.073 39.8891 523.131L25.6409 530.258L39.8191 513.085C39.3469 492.37 36.6636 468.599 27.6139 458.526L-9.07739 655.575C9.88654 642.533 21.9538 624.302 29.6033 607.204L10.0874 611.744Z" fill="#005E2E"/>
<path d="M144.824 76.516C144.824 76.516 129.527 61.0887 114.306 67.1202C114.306 67.1202 118.896 72.6002 126.072 75.3326C133.249 78.0659 144.824 76.516 144.824 76.516ZM144.302 52.7448C144.302 52.7448 118.476 46.0981 108.055 59.0637C105.626 56.1044 103.038 53.2746 100.331 50.5653C103.309 51.4323 109.873 52.9927 115.406 51.8365C122.82 50.2864 133.426 40.9737 133.426 40.9737C133.426 40.9737 111.668 36.7388 99.2574 49.4997C97.4403 47.7255 95.5741 46.0018 93.6553 44.3432C92.1638 43.0541 90.639 41.8061 89.089 40.5897C91.3808 41.3181 98.5563 43.3412 104.755 42.0451C112.169 40.496 122.775 31.1837 122.775 31.1837C122.775 31.1837 100.688 26.8803 88.3269 39.9953C86.4286 38.5289 84.4876 37.118 82.5097 35.7617C84.8537 35.8329 91.5673 35.7786 96.4515 32.9329C102.398 29.4685 108.709 17.7664 108.709 17.7664C108.709 17.7664 88.4202 19.5996 81.6696 35.1835C79.7022 33.8573 77.6962 32.5899 75.6588 31.3739C75.5817 31.2631 75.5133 31.1497 75.4316 31.0412C75.4316 31.0412 75.3496 31.1699 75.3417 31.1821C70.1783 28.1205 64.8039 25.4132 59.2703 23.0817C58.9392 22.9422 58.6046 22.8083 58.2725 22.6707C60.7623 22.197 67.0781 20.7109 71.1776 17.085C76.3305 12.5282 80.3168 0.010602 80.3168 0.010602C80.3168 0.010602 60.9641 5.97023 57.2174 22.2343C50.8001 19.6234 44.1721 17.3978 37.3256 16.3026C29.7972 15.0979 22.1117 15.017 14.5213 15.5991C4.89786 16.337 -4.93828 17.9545 -14.1559 20.9063C-14.4783 21.0086 -14.4549 22.2677 -14.0663 22.1428C-6.4347 19.6996 1.63892 18.2587 9.58198 17.3465C16.8665 16.5104 24.2445 16.2425 31.5576 16.8811C36.5475 17.3163 41.372 18.2973 46.1157 19.6629C45.9785 19.8595 41.5449 26.2542 40.6678 34.6626C39.7762 43.202 44.7762 55.2629 44.7762 55.2629C44.7762 55.2629 56.986 34.4035 46.232 19.6977C48.8445 20.4536 51.434 21.3213 54.0119 22.2879C61.1691 24.971 68.1133 28.2771 74.7215 32.1584C73.4025 34.3539 70.6154 39.6395 69.9405 46.1124C69.0489 54.6518 74.0476 66.7111 74.0476 66.7111C74.0476 66.7111 84.9866 48.0152 77.024 33.5434C80.8613 35.9044 84.5754 38.4632 88.1418 41.2119C87.5598 42.0252 83.5035 47.8972 82.4639 55.8139C81.3461 64.3273 86.0235 76.5146 86.0235 76.5146C86.0235 76.5146 98.2998 56.755 88.9748 41.8538C92.3979 44.538 95.6795 47.4001 98.7978 50.4295C98.3438 51.0573 94.1275 57.0474 93.0686 65.1108C91.95 73.6231 96.6267 85.8113 96.6267 85.8113C96.6267 85.8113 108.833 66.1662 99.6617 51.2814C103.39 54.9769 106.874 58.9172 110.075 63.0892C109.469 63.9431 105.95 69.1175 105.032 76.0955C104.033 83.7097 108.217 94.6137 108.217 94.6137C108.217 94.6137 118.144 78.6361 111.957 65.6074C113.796 68.1163 115.58 70.7174 117.066 73.451C117.009 73.4362 116.956 73.4131 116.899 73.4001C116.899 73.4001 116.087 77.2907 118.579 84.4025C121.071 91.5154 132.652 96.8227 132.652 96.8227C132.652 96.8227 129.529 77.8476 118.094 73.7641C116.5 70.5564 114.43 67.5363 112.345 64.6393C111.113 62.9265 109.824 61.2527 108.495 59.6125C109.927 60.4251 114.16 62.4393 121.976 63.0516C131.818 63.8235 144.301 52.7451 144.301 52.7451L144.302 52.7448ZM97.3711 10.2815C97.3711 10.2815 76.6614 12.3085 70.0218 28.0658C70.0218 28.0658 79.0532 28.6305 85.0103 25.1934C90.9686 21.7553 97.3711 10.2815 97.3711 10.2815ZM64.1908 42.7534C64.753 36.9142 63.9262 30.5183 59.8428 25.0016C59.8428 25.0016 55.2421 31.5346 54.3516 40.0742C53.46 48.6136 58.4602 60.673 58.4602 60.673C58.4602 60.673 63.2538 52.4853 64.1908 42.7534ZM66.2934 -5.85108C66.2934 -5.85108 46.4028 0.26339 43.0378 17.0279C43.0378 17.0279 52.0011 15.781 57.1542 11.2233C62.3071 6.66654 66.2934 -5.85108 66.2934 -5.85108ZM43.7354 -11.9098C43.7354 -11.9098 25.4486 -1.98039 25.4668 15.1182C25.4668 15.1182 34.0056 12.1235 38.1552 6.63622C42.3047 1.15093 43.7354 -11.9098 43.7354 -11.9098ZM35.6034 34.8115C36.1656 28.9723 35.3388 22.5764 31.2554 17.0597C31.2554 17.0597 26.6549 23.5912 25.7643 32.1308C24.8727 40.6702 29.8715 52.7295 29.8715 52.7295C29.8715 52.7295 34.6665 44.5435 35.6034 34.8115ZM21.0398 34.6698C21.602 28.8306 20.7752 22.4351 16.6918 16.918C16.6918 16.918 12.0914 23.451 11.2006 31.9905C10.309 40.53 15.3091 52.5894 15.3091 52.5894C15.3091 52.5894 20.1029 44.4017 21.0398 34.6698ZM22.3155 -4.63752C22.7784 -9.3451 22.6326 -13.5003 22.6326 -13.5003C22.6326 -13.5003 5.96256 -1.04619 8.43868 15.8727C8.43868 15.8727 16.4585 11.681 19.7765 5.65537C21.228 3.01919 21.9554 -0.976068 22.3155 -4.63752ZM6.84731 36.1108C7.40959 30.2716 6.58388 23.8762 2.50074 18.3592C2.50074 18.3592 -2.09974 24.8907 -2.99023 33.4303C-3.88186 41.9697 1.11687 54.029 1.11687 54.029C1.11687 54.029 5.91036 45.8427 6.84731 36.1108Z" fill="#00A854"/>
<path d="M95.0064 138.532C95.0064 138.532 86.772 115.27 68.2134 114.087C68.2134 114.087 70.2714 121.94 76.3188 128.226C82.3656 134.513 95.0064 138.532 95.0064 138.532ZM105.993 113.862C105.993 113.862 82.6877 94.515 65.6985 102.781C64.6377 98.5637 63.3514 94.4025 61.8842 90.3073C64.5226 92.6414 70.5093 97.4266 76.7533 98.9213C85.1197 100.923 100.528 96.4989 100.528 96.4989C100.528 96.4989 80.2323 81.6013 61.2983 88.6924C60.2919 85.9891 59.2107 83.314 58.0437 80.6801C57.1367 78.633 56.1755 76.612 55.173 74.6111C57.1739 76.4702 63.5636 82.0268 70.5595 83.7007C78.9253 85.7034 94.3338 81.2797 94.3338 81.2797C94.3338 81.2797 73.7326 66.152 54.6784 73.6311C53.4394 71.2046 52.1296 68.8144 50.7555 66.4624C53.1286 67.672 60.0507 70.8709 66.4473 70.3155C74.2345 69.6395 86.3897 60.6788 86.3897 60.6788C86.3897 60.6788 64.6614 52.7266 50.1729 65.4613C48.795 63.1453 47.3489 60.8711 45.8456 58.6343C45.8191 58.4831 45.8055 58.3338 45.7738 58.1825C45.7738 58.1825 45.6271 58.275 45.6127 58.2835C41.7934 52.6357 37.5853 47.2495 33.0316 42.1721C32.7591 41.8682 32.4805 41.5686 32.206 41.2662C34.9931 41.9866 42.2009 43.5219 48.1695 41.7848C55.6714 39.6022 65.8341 28.6771 65.8341 28.6771C65.8341 28.6771 43.0666 25.4169 31.3338 40.3064C26.0079 34.5137 20.2788 29.0147 13.7772 24.5707C6.62833 19.6837 -1.22667 15.8749 -9.30548 12.7932C-19.548 8.88593 -30.4355 5.77916 -41.3344 4.34261C-41.7152 4.29143 -42.3015 5.59613 -41.8421 5.65605C-32.8187 6.84605 -23.8273 9.27985 -15.2263 12.1935C-7.33862 14.866 0.369694 18.1675 7.57188 22.3686C12.4864 25.2346 16.9664 28.581 21.1769 32.2833C20.9407 32.4187 13.2867 36.8379 8.30958 45.0494C3.25405 53.3886 2.54312 68.201 2.54312 68.201C2.54312 68.201 25.1966 52.694 21.2794 32.3755C23.5965 34.4183 25.8357 36.565 28.015 38.8075C34.066 45.0331 39.5961 51.7953 44.5023 58.9855C42.0831 60.6013 36.658 64.6794 32.8269 71.0008C27.7713 79.34 27.0598 94.1502 27.0598 94.1502C27.0598 94.1502 47.3592 80.2493 46.1959 61.5243C48.9929 65.8096 51.5675 70.2385 53.8982 74.7908C52.9061 75.3439 45.8931 79.4091 40.9875 87.037C35.7122 95.2397 34.6086 110.025 34.6086 110.025C34.6086 110.025 56.7973 95.6803 54.4427 75.8539C56.6575 80.2704 58.6408 84.8011 60.3753 89.4244C59.6046 89.8493 52.3698 93.9581 47.3734 101.727C42.0979 109.928 40.9931 124.715 40.9931 124.715C40.9931 124.715 63.0543 110.453 60.8497 90.7183C62.8872 96.3213 64.5558 102.058 65.8212 107.895C64.7848 108.478 58.662 112.087 54.3369 118.81C49.6194 126.147 48.6308 139.375 48.6308 139.375C48.6308 139.375 66.5732 127.776 66.5339 111.394C67.2073 114.863 67.7784 118.399 67.9797 121.927C67.9286 121.885 67.8852 121.835 67.8323 121.794C67.8323 121.794 65.1127 125.397 64.2247 133.91C63.3359 142.424 72.6589 153.49 72.6589 153.49C72.6589 153.49 78.6497 132.485 68.8833 122.747C68.8009 118.68 68.1393 114.574 67.4022 110.588C66.9664 108.231 66.4542 105.887 65.8838 103.558C66.961 105.087 70.3328 109.208 78.0643 113.626C87.7997 119.19 105.992 113.862 105.992 113.862L105.993 113.862ZM78.3727 47.4945C78.3727 47.4945 56.1178 39.5371 41.6591 52.5037C41.6591 52.5037 50.6621 57.462 58.4473 56.8193C66.234 56.1762 78.3727 47.4945 78.3727 47.4945ZM28.5496 64.7635C31.9578 59.0383 34.2089 52.0678 32.689 44.4218C32.689 44.4218 24.7964 48.9019 19.7419 57.2418C14.6864 65.5809 13.9764 80.3919 13.9764 80.3919C13.9764 80.3919 22.8694 74.3057 28.5496 64.7635ZM54.2714 15.8581C54.2714 15.8581 30.8763 12.4963 19.293 28.0849C19.293 28.0849 29.1043 31.1493 36.6068 28.9659C44.1086 26.7833 54.2714 15.8581 54.2714 15.8581ZM34.0378 -1.30059C34.0378 -1.30059 10.4407 0.0335512 2.17049 17.6054C2.17049 17.6054 12.393 18.6688 19.3154 15.044C26.2367 11.4213 34.0378 -1.30059 34.0378 -1.30059ZM3.03567 42.7475C6.44378 37.0223 8.69502 30.0519 7.17512 22.4058C7.17512 22.4058 -0.716652 26.8845 -5.77113 35.2244C-10.8267 43.5635 -11.5381 58.3736 -11.5381 58.3736C-11.5381 58.3736 -2.64454 52.2897 3.03567 42.7475ZM-11.8548 35.542C-8.4467 29.8168 -6.19568 22.8466 -7.71539 15.2002C-7.71539 15.2002 -15.6078 19.6805 -20.6624 28.0202C-25.718 36.3594 -26.4281 51.1704 -26.4281 51.1704C-26.4281 51.1704 -17.535 45.084 -11.8548 35.542ZM8.51058 -4.21462C11.2681 -8.82568 13.1328 -13.1644 13.1328 -13.1644C13.1328 -13.1644 -10.0275 -8.45316 -15.6859 10.1256C-15.6859 10.1256 -5.41631 9.70786 0.912888 5.12702C3.6818 3.12291 6.36581 -0.628215 8.51058 -4.21462ZM-27.1314 30.142C-23.7232 24.4168 -21.4708 17.4475 -22.9905 9.80112C-22.9905 9.80112 -30.8823 14.2799 -35.9367 22.6197C-40.9923 30.9589 -41.7037 45.769 -41.7037 45.769C-41.7037 45.769 -32.8116 39.6841 -27.1314 30.142Z" fill="#0C8447"/>
<path d="M36.8154 192.013C36.8154 192.013 36.9141 165.717 18.7209 157.86C18.7209 157.86 17.9631 166.479 21.771 174.958C25.5781 183.438 36.8154 192.013 36.8154 192.013ZM56.7032 171.212C56.7032 171.212 40.2754 143.427 20.2607 145.614C20.7121 141.002 20.9171 136.365 20.9167 131.729C22.7248 135.019 27.0113 141.971 32.7383 145.715C40.4123 150.73 57.4607 151.829 57.4607 151.829C57.4607 151.829 42.4528 129.589 20.9093 129.899C20.8712 126.825 20.748 123.753 20.5236 120.691C20.3494 118.311 20.1113 115.938 19.8246 113.571C21.1639 116.155 25.5774 124.026 31.9943 128.219C39.6674 133.235 56.7155 134.334 56.7155 134.334C56.7155 134.334 41.4841 111.754 19.6806 112.41C19.3094 109.53 18.8546 106.662 18.3213 103.808C20.2674 105.875 26.0622 111.572 32.679 113.313C40.7343 115.433 56.1489 110.812 56.1489 110.812C56.1489 110.812 37.2083 95.0255 18.0965 102.595C17.5464 99.776 16.913 96.9747 16.2086 94.1905C16.2351 94.0296 16.2763 93.8745 16.2986 93.7113C16.2986 93.7113 16.1179 93.7514 16.1009 93.7547C14.2989 86.7161 12.0128 79.8003 9.26912 73.0701C9.10509 72.6673 8.93312 72.2666 8.76633 71.8645C11.3035 73.5889 17.9829 77.7194 24.595 78.1216C32.9055 78.6279 47.0273 71.3196 47.0273 71.3196C47.0273 71.3196 25.3578 59.867 8.23629 70.5882C4.9749 62.8628 1.20341 55.2871 -3.72214 48.4924C-9.13783 41.0205 -15.6494 34.3765 -22.6469 28.3816C-31.5183 20.7809 -41.3245 13.7515 -51.7424 8.39353C-52.106 8.20535 -53.163 9.30357 -52.7237 9.52877C-44.0989 13.9653 -35.953 19.6382 -28.3713 25.6523C-21.4186 31.168 -14.8718 37.2502 -9.15615 44.0531C-5.25571 48.6945 -1.96382 53.6617 0.929863 58.8891C0.644127 58.94 -8.62275 60.6229 -16.5669 67.0723C-24.6355 73.6216 -30.6719 88.2264 -30.6719 88.2264C-30.6719 88.2264 -2.3725 80.8102 0.999557 59.0184C2.58998 61.9006 4.06498 64.8588 5.44542 67.8918C9.27869 76.312 12.3965 85.0834 14.7345 94.0599C11.7269 94.8115 4.81877 96.9532 -1.29647 101.918C-9.36519 108.468 -15.4013 123.07 -15.4013 123.07C-15.4013 123.07 9.95919 116.419 15.5212 97.2156C16.7873 102.52 17.7786 107.888 18.4809 113.293C17.2868 113.491 8.79026 115.049 1.12757 120.939C-7.11251 127.272 -13.5333 141.709 -13.5333 141.709C-13.5333 141.709 13.8823 135.292 18.6451 114.555C19.28 119.782 19.6414 125.04 19.72 130.301C18.7942 130.451 10.0594 131.973 2.25488 137.971C-5.98494 144.303 -12.407 158.74 -12.407 158.74C-12.407 158.74 14.8506 152.361 19.7309 131.77C19.7612 138.123 19.3741 144.478 18.5459 150.788C17.2965 151.001 9.85696 152.422 3.10188 157.612C-4.2674 163.277 -10.013 176.193 -10.013 176.193C-10.013 176.193 12.1557 171.004 18.0035 154.555C17.4324 158.277 16.7344 162.03 15.6685 165.642C15.6307 165.581 15.6069 165.516 15.5683 165.455C15.5683 165.455 11.5452 168.092 7.59497 176.314C3.64375 184.536 9.0201 198.988 9.0201 198.988C9.0201 198.988 22.5786 180.068 16.2802 166.789C17.6594 162.679 18.4709 158.323 19.164 154.058C19.5738 151.537 19.9023 149.002 20.1671 146.46C20.6983 148.381 22.6 153.727 28.7688 160.938C36.536 170.018 56.7017 171.211 56.7017 171.211L56.7032 171.212ZM52.844 94.7039C52.844 94.7039 33.3769 78.7231 14.2118 86.5355C14.2118 86.5355 21.462 94.7452 29.5033 96.8982C37.5463 99.0514 52.844 94.7039 52.844 94.7039ZM-3.34584 94.1238C2.13081 89.6049 6.89423 83.4209 8.11713 75.2039C8.11713 75.2039 -1.41103 76.8622 -9.47889 83.4126C-17.5475 89.9619 -23.5825 104.566 -23.5825 104.566C-23.5825 104.566 -12.4735 101.656 -3.34584 94.1238ZM40.0341 54.3041C40.0341 54.3041 17.7717 42.524 0.548805 54.0003C0.548805 54.0003 9.29055 60.6004 17.6019 61.1061C25.9123 61.6124 40.0341 54.3041 40.0341 54.3041ZM25.9014 29.8186C25.9014 29.8186 1.7487 22.677 -12.863 37.3336C-12.863 37.3336 -2.98959 42.074 5.2578 40.9253C13.5033 39.7781 25.9014 29.8186 25.9014 29.8186ZM-21.0303 62.8678C-15.5537 58.3489 -10.7903 52.1649 -9.56728 43.948C-9.56728 43.948 -19.094 45.6051 -27.162 52.1555C-35.2306 58.7048 -41.2666 73.3071 -41.2666 73.3071C-41.2666 73.3071 -30.158 70.3995 -21.0303 62.8678ZM-33.3794 50.2878C-27.9028 45.7689 -23.1397 39.5852 -21.9164 31.3679C-21.9164 31.3679 -31.4444 33.0264 -39.5124 39.5766C-47.5811 46.1259 -53.6161 60.7295 -53.6161 60.7295C-53.6161 60.7295 -42.507 57.8194 -33.3794 50.2878ZM1.339 17.7215C5.76256 14.0866 9.19241 10.404 9.19241 10.404C9.19241 10.404 -15.7357 6.80732 -28.089 23.4126C-28.089 23.4126 -17.6362 26.6841 -9.64031 24.363C-6.14221 23.3475 -2.10147 20.5488 1.339 17.7215ZM-46.7647 39.3805C-41.2881 34.8616 -36.5239 28.6793 -35.3006 20.462C-35.3006 20.462 -44.8274 22.1192 -52.8952 28.6696C-60.964 35.2189 -67 49.8211 -67 49.8211C-67 49.8211 -55.8924 46.9121 -46.7647 39.3805Z" fill="#0A6638"/>
<path d="M221.08 610.962L239.4 614.475L225.827 615.421C226.229 615.744 226.641 616.062 227.063 616.374C239.48 625.553 259.616 626.226 259.616 626.226L238.687 629.087C238.687 629.087 247.194 637.744 259.481 641.975L283.407 634.611L267.922 644.515C285.006 648.922 294.949 646.145 294.949 646.145L289.211 653.257C289.211 653.257 298.83 657.088 308.25 658.07C317.67 659.052 327.046 654.427 327.046 654.427L324.627 659.468C324.627 659.468 340.545 664.223 354.165 650.933L210.903 593.256C210.903 593.256 213.401 602.553 221.08 610.962Z" fill="#084E2A"/>
<path d="M210.903 593.256L354.165 650.933C354.165 650.933 354.942 637.241 350.894 628.864C346.846 620.488 340.914 619.862 340.914 619.862L341.17 628.504C341.17 628.504 334.349 615.125 326.485 606.668C318.622 598.211 306.662 595.581 306.662 595.581L308.385 610.355C308.385 610.355 297.26 594.852 287.424 587.918C277.588 580.985 262.943 579.581 262.943 579.581L265.925 592.535C265.925 592.535 256.266 583.164 246.278 579.012C236.29 574.86 231.12 575.22 231.12 575.22L235.953 584.928C235.953 584.928 226.751 582.106 219.833 582.242C212.916 582.379 210.903 593.256 210.903 593.256Z" fill="#054425"/>
<path d="M280.264 486.926L291.573 507.338L279.785 495.06C279.798 495.705 279.823 496.355 279.861 497.011C280.997 516.294 296.489 536.176 296.489 536.176L276.967 518.365C276.967 518.365 275.469 533.475 281.253 548.668L307.503 565.747L285.579 558.812C295.039 578.754 305.676 586.078 305.676 586.078L294.246 586.266C294.246 586.266 298.275 598.577 304.883 608.412C311.489 618.247 323.446 623.546 323.446 623.546L316.666 625.263C316.666 625.263 324.856 644.364 348.538 646.795L289.115 462.959C289.115 462.959 282.186 472.811 280.264 486.926Z" fill="#005E2E"/>
<path d="M289.115 462.96L348.538 646.795C348.538 646.795 362.312 636.567 367.114 625.965C371.915 615.363 367.761 609.164 367.761 609.164L359.666 616.336C359.666 616.336 367.05 599.061 368.87 584.729C370.692 570.398 363.631 556.803 363.631 556.803L350.822 570.298C350.822 570.298 356.796 547.187 355.573 532.182C354.349 517.177 343.959 501.985 343.959 501.985L333.906 515.232C333.906 515.232 335.166 498.443 331.149 485.522C327.132 472.6 322.642 467.922 322.642 467.922L317.191 480.346C317.191 480.346 312.526 469.245 306.851 462.709C301.176 456.174 289.115 462.96 289.115 462.96Z" fill="#00542A"/>
<path d="M223.118 545.649L242.62 556.929L226.762 552.621C227.093 553.149 227.437 553.674 227.795 554.198C238.315 569.597 261.017 578.358 261.017 578.358L236.008 573.313C236.008 573.313 242.275 586.565 254.611 596.269L284.826 597.365L263.231 602.516C280.97 614.325 293.414 615.103 293.414 615.103L284.045 620.938C284.045 620.938 293.496 629.126 303.853 633.985C314.208 638.845 326.739 637.291 326.739 637.291L321.978 642.08C321.978 642.08 338.248 653.823 359.06 644.07L218.537 521.413C218.537 521.413 217.696 533.01 223.118 545.649Z" fill="#0D8346"/>
<path d="M218.537 521.413L359.06 644.07C359.06 644.07 365.381 628.76 364.088 617.598C362.796 606.436 356.278 603.369 356.278 603.369L353.14 613.327C353.14 613.327 350.669 595.359 345.056 582.591C339.444 569.822 326.845 562.076 326.845 562.076L322.946 579.612C322.946 579.612 316.409 557.512 307.942 545.698C299.475 533.885 283.326 526.471 283.326 526.471L281.586 542.431C281.586 542.431 274.288 527.908 264.542 519.207C254.798 510.506 248.757 508.865 248.757 508.865L250.417 521.857C250.417 521.857 241.04 514.986 233.095 512.394C225.15 509.805 218.537 521.413 218.537 521.413Z" fill="#0F7243"/>
<path d="M145.02 586.226C132.958 577.558 102.412 581.302 102.412 581.302L78.7333 602.597L90.3914 584.984C90.3914 584.984 82.4726 584.535 69.0239 587.272C55.5748 590.008 47.6701 593.676 47.6701 593.676L29.7107 620.811L35.3411 599.892C35.3411 599.892 2.76383 611.876 -23.8216 663.424L145.02 586.226Z" fill="#054425"/>
<path d="M19.5984 654.589L57.3881 660.118C69.2781 655.643 76.6785 651.213 76.6785 651.213L56.685 637.979L82.0355 643.12C82.0355 643.12 91.2305 637.823 102.614 629.951L89.622 622.954L110.188 624.545C125.631 613.149 142.211 598.45 145.02 586.226L-23.8212 663.424C-3.83563 670.843 16.4069 670.271 33.4368 666.956L19.5984 654.589Z" fill="#084E2A"/>
<path d="M116.857 472.917C99.3215 472.038 71.3841 495.334 71.3841 495.334L61.5157 531.661L61.8054 506.695C61.8054 506.695 53.6529 511.325 42.0502 522.662C30.4466 534 24.9467 542.709 24.9467 542.709L24.5014 581.17L16.6861 556.785C16.6861 556.785 -7.98806 589.566 -1.35429 657.801L116.857 472.917Z" fill="#0F7243"/>
<path d="M36.1067 621.198L77.1818 602.469C86.1226 590.404 90.6333 581.261 90.6333 581.261L62.2947 580.932L90.767 569.79C90.767 569.79 96.5044 558.636 102.765 543.522L85.3768 544.899L106.822 533.298C114.856 512.083 121.901 486.858 116.857 472.917L-1.35382 657.801C23.25 652.36 42.9878 638.818 57.7768 624.611L36.1067 621.198Z" fill="#0D8346"/>
<rect x="255" y="501" width="30" height="28" fill="#D4AA00"/>
<path fill-rule="evenodd" clip-rule="evenodd" d="M257.424 498.477C254.466 498.672 251.767 500.911 252.017 503.846C252.752 512.447 252.597 519.659 252.017 526.209C251.758 529.143 254.464 531.415 257.424 531.579C266.325 532.072 274.801 532.205 282.388 531.579C285.343 531.336 287.609 529.148 287.793 526.209C288.176 520.11 287.937 511.457 287.793 503.846C287.738 500.901 285.345 498.685 282.388 498.477C275.291 497.978 268.97 497.717 257.424 498.477ZM257.424 501.924C265.82 502.025 274.272 500.589 282.388 501.924C283.475 502.103 284.281 502.752 284.322 503.846C284.609 511.416 285.266 519.323 284.322 526.209C284.174 527.294 283.482 528.005 282.388 528.132C272.108 529.329 265.52 528.27 257.424 528.132C256.322 528.113 255.405 527.301 255.488 526.209C255.931 520.426 255.986 513.179 255.488 503.846C255.43 502.752 256.322 501.911 257.424 501.924Z" fill="white"/>
<rect x="206" y="501" width="30" height="28" fill="white"/>
<path fill-rule="evenodd" clip-rule="evenodd" d="M208.424 498.477C205.466 498.672 202.767 500.911 203.017 503.846C203.752 512.447 203.597 519.659 203.017 526.209C202.758 529.143 205.464 531.415 208.424 531.579C217.325 532.072 225.801 532.205 233.388 531.579C236.343 531.336 238.609 529.148 238.793 526.209C239.176 520.11 238.937 511.457 238.793 503.846C238.738 500.901 236.345 498.685 233.388 498.477C226.291 497.978 219.97 497.717 208.424 498.477ZM208.424 501.924C216.82 502.025 225.272 500.589 233.388 501.924C234.475 502.103 235.281 502.752 235.322 503.846C235.609 511.416 236.266 519.323 235.322 526.209C235.174 527.294 234.482 528.005 233.388 528.132C223.108 529.329 216.52 528.27 208.424 528.132C207.322 528.113 206.405 527.301 206.488 526.209C206.931 520.426 206.986 513.179 206.488 503.846C206.43 502.752 207.322 501.911 208.424 501.924Z" fill="white"/>
<rect x="155" y="501" width="30" height="28" fill="#FF2A2A"/>
<path fill-rule="evenodd" clip-rule="evenodd" d="M157.424 498.477C154.466 498.672 151.767 500.911 152.017 503.846C152.752 512.447 152.597 519.659 152.017 526.209C151.758 529.143 154.464 531.415 157.424 531.579C166.325 532.072 174.801 532.205 182.388 531.579C185.343 531.336 187.609 529.148 187.793 526.209C188.176 520.11 187.937 511.457 187.793 503.846C187.738 500.901 185.345 498.685 182.388 498.477C175.291 497.978 168.97 497.717 157.424 498.477ZM157.424 501.924C165.82 502.025 174.272 500.589 182.388 501.924C183.475 502.103 184.281 502.752 184.322 503.846C184.609 511.416 185.266 519.323 184.322 526.209C184.174 527.294 183.482 528.005 182.388 528.132C172.108 529.329 165.52 528.27 157.424 528.132C156.322 528.113 155.405 527.301 155.488 526.209C155.931 520.426 155.986 513.179 155.488 503.846C155.43 502.752 156.322 501.911 157.424 501.924Z" fill="white"/>
<rect x="106" y="501" width="30" height="28" fill="#D42AFF"/>
<path fill-rule="evenodd" clip-rule="evenodd" d="M108.424 498.477C105.466 498.672 102.767 500.911 103.017 503.846C103.752 512.447 103.597 519.659 103.017 526.209C102.758 529.143 105.464 531.415 108.424 531.579C117.325 532.072 125.801 532.205 133.388 531.579C136.343 531.336 138.609 529.148 138.793 526.209C139.176 520.11 138.937 511.457 138.793 503.846C138.738 500.901 136.345 498.685 133.388 498.477C126.291 497.978 119.97 497.717 108.424 498.477ZM108.424 501.924C116.82 502.025 125.272 500.589 133.388 501.924C134.475 502.103 135.281 502.752 135.322 503.846C135.609 511.416 136.266 519.323 135.322 526.209C135.174 527.294 134.482 528.005 133.388 528.132C123.108 529.329 116.52 528.27 108.424 528.132C107.322 528.113 106.405 527.301 106.488 526.209C106.931 520.426 106.986 513.179 106.488 503.846C106.43 502.752 107.322 501.911 108.424 501.924Z" fill="white"/>
<rect x="57" y="501" width="30" height="28" fill="#D74B94"/>
<path fill-rule="evenodd" clip-rule="evenodd" d="M59.4245 498.477C56.4658 498.672 53.7666 500.911 54.0173 503.846C54.7519 512.447 54.5966 519.659 54.0173 526.209C53.7578 529.143 56.4639 531.415 59.4245 531.579C68.3247 532.072 76.8013 532.205 84.3875 531.579C87.3426 531.336 89.6092 529.148 89.7934 526.209C90.1757 520.11 89.9374 511.457 89.7934 503.846C89.7377 500.901 87.3453 498.685 84.3875 498.477C77.2912 497.978 70.9699 497.717 59.4245 498.477ZM59.4245 501.924C67.8195 502.025 76.272 500.589 84.3875 501.924C85.475 502.103 86.2809 502.752 86.3224 503.846C86.6092 511.416 87.2663 519.323 86.3224 526.209C86.1737 527.294 85.4823 528.005 84.3875 528.132C74.1079 529.329 67.5202 528.27 59.4245 528.132C58.3223 528.113 57.4047 527.301 57.4883 526.209C57.9311 520.426 57.9861 513.179 57.4883 503.846C57.43 502.752 58.3223 501.911 59.4245 501.924Z" fill="white"/>
<rect x="225" y="432" width="30" height="28" fill="#25DE7C"/>
<path fill-rule="evenodd" clip-rule="evenodd" d="M227.424 429.477C224.466 429.672 221.767 431.911 222.017 434.846C222.752 443.447 222.597 450.659 222.017 457.209C221.758 460.143 224.464 462.415 227.424 462.579C236.325 463.072 244.801 463.205 252.388 462.579C255.343 462.336 257.609 460.148 257.793 457.209C258.176 451.11 257.937 442.457 257.793 434.846C257.738 431.901 255.345 429.685 252.388 429.477C245.291 428.978 238.97 428.717 227.424 429.477ZM227.424 432.924C235.82 433.025 244.272 431.589 252.388 432.924C253.475 433.103 254.281 433.752 254.322 434.846C254.609 442.416 255.266 450.323 254.322 457.209C254.174 458.294 253.482 459.005 252.388 459.132C242.108 460.329 235.52 459.27 227.424 459.132C226.322 459.113 225.405 458.301 225.488 457.209C225.931 451.426 225.986 444.179 225.488 434.846C225.43 433.752 226.322 432.911 227.424 432.924Z" fill="white"/>
<rect x="176" y="432" width="30" height="28" fill="#B05A1B"/>
<path fill-rule="evenodd" clip-rule="evenodd" d="M178.424 429.477C175.466 429.672 172.767 431.911 173.017 434.846C173.752 443.447 173.597 450.659 173.017 457.209C172.758 460.143 175.464 462.415 178.424 462.579C187.325 463.072 195.801 463.205 203.388 462.579C206.343 462.336 208.609 460.148 208.793 457.209C209.176 451.11 208.937 442.457 208.793 434.846C208.738 431.901 206.345 429.685 203.388 429.477C196.291 428.978 189.97 428.717 178.424 429.477ZM178.424 432.924C186.82 433.025 195.272 431.589 203.388 432.924C204.475 433.103 205.281 433.752 205.322 434.846C205.609 442.416 206.266 450.323 205.322 457.209C205.174 458.294 204.482 459.005 203.388 459.132C193.108 460.329 186.52 459.27 178.424 459.132C177.322 459.113 176.405 458.301 176.488 457.209C176.931 451.426 176.986 444.179 176.488 434.846C176.43 433.752 177.322 432.911 178.424 432.924Z" fill="white"/>
<rect x="127" y="432" width="30" height="28" fill="#449EE3"/>
<path fill-rule="evenodd" clip-rule="evenodd" d="M129.424 429.477C126.466 429.672 123.767 431.911 124.017 434.846C124.752 443.447 124.597 450.659 124.017 457.209C123.758 460.143 126.464 462.415 129.424 462.579C138.325 463.072 146.801 463.205 154.388 462.579C157.343 462.336 159.609 460.148 159.793 457.209C160.176 451.11 159.937 442.457 159.793 434.846C159.738 431.901 157.345 429.685 154.388 429.477C147.291 428.978 140.97 428.717 129.424 429.477ZM129.424 432.924C137.82 433.025 146.272 431.589 154.388 432.924C155.475 433.103 156.281 433.752 156.322 434.846C156.609 442.416 157.266 450.323 156.322 457.209C156.174 458.294 155.482 459.005 154.388 459.132C144.108 460.329 137.52 459.27 129.424 459.132C128.322 459.113 127.405 458.301 127.488 457.209C127.931 451.426 127.986 444.179 127.488 434.846C127.43 433.752 128.322 432.911 129.424 432.924Z" fill="white"/>
<rect x="78" y="432" width="30" height="28" fill="black"/>
<path fill-rule="evenodd" clip-rule="evenodd" d="M80.4245 429.477C77.4658 429.672 74.7666 431.911 75.0173 434.846C75.7519 443.447 75.5966 450.659 75.0173 457.209C74.7578 460.143 77.4639 462.415 80.4245 462.579C89.3247 463.072 97.8013 463.205 105.388 462.579C108.343 462.336 110.609 460.148 110.793 457.209C111.176 451.11 110.937 442.457 110.793 434.846C110.738 431.901 108.345 429.685 105.388 429.477C98.2912 428.978 91.9699 428.717 80.4245 429.477ZM80.4245 432.924C88.8195 433.025 97.272 431.589 105.388 432.924C106.475 433.103 107.281 433.752 107.322 434.846C107.609 442.416 108.266 450.323 107.322 457.209C107.174 458.294 106.482 459.005 105.388 459.132C95.1079 460.329 88.5202 459.27 80.4245 459.132C79.3223 459.113 78.4047 458.301 78.4883 457.209C78.9311 451.426 78.9861 444.179 78.4883 434.846C78.43 433.752 79.3223 432.911 80.4245 432.924Z" fill="white"/>
</svg>
