<svg width="360" height="640" viewBox="0 0 360 640" fill="none" xmlns="http://www.w3.org/2000/svg">
<g clip-path="url(#clip0)">
<rect width="360" height="640" fill="url(#paint0_linear)"/>
<path d="M303.053 -7.94184C330.124 3.31984 318.232 10.2513 307.199 6.79988C301.796 5.10933 292.654 3.27458 283.934 1.72201C274.813 7.98062 265.877 16.7977 257.77 29.0198C272.214 28.9041 290.601 29.2155 299.558 31.2269C315.547 34.8167 309.72 47.814 291.079 41.982C279.005 38.2057 261.362 40.9852 247.824 46.8092C242.071 58.844 238.133 70.423 235.615 81.4035C251.581 74.2201 276.989 64.152 288.238 67.2046C305.252 71.8215 286.929 82.3199 281.222 80.2581C276.648 78.6037 248.816 87.0038 233.221 94.3581C231.885 103.936 231.555 112.964 231.944 121.317C244.045 119.079 259.386 114.128 267.233 111.444C279.087 107.39 272.13 122.856 263.813 122.371C257.873 122.025 244.336 124.249 233.519 136.853C237.99 165.367 252.732 184.716 252.732 184.716L360.425 -7.41508C360.425 -7.41508 333.253 -18.4081 303.053 -7.94184Z" fill="#0D874A"/>
<path d="M389.708 41.4634C366.226 23.9047 366.321 37.6702 374.909 45.4043C379.118 49.1936 385.352 56.1255 391.132 62.8386C390.392 73.8759 387.356 86.0566 380.969 99.259C373.71 86.77 364.076 71.1062 357.783 64.4232C346.549 52.4928 338.333 64.1287 352.847 77.1991C362.246 85.6644 368.841 102.263 370.726 116.88C363.301 127.961 355.342 137.248 347.175 145.009C345.225 127.61 340.946 100.618 332.589 92.4912C319.949 80.2022 320.247 101.318 324.929 105.178C328.683 108.271 335.632 136.501 337.248 153.668C329.686 159.696 322.085 164.579 314.699 168.499C310.46 156.945 306.906 141.221 305.219 133.103C302.67 120.837 292.903 134.7 297.557 141.611C300.881 146.546 305.863 159.328 300.526 175.057C273.714 185.734 252.732 184.716 252.732 184.716L360.031 -7.63913C360.031 -7.63913 383.331 10.1441 389.708 41.4634Z" fill="#0D924F"/>
<path d="M27.6135 458.526C12.467 463.794 -3.1979 493.094 -3.1979 493.094L0.901659 527.231L-7.41202 505.997C-7.41202 505.997 -12.7268 512.711 -18.6626 526.287C-24.5992 539.863 -26.2695 549.122 -26.2695 549.122L-13.4607 581.835L-28.4372 563.87C-28.4372 563.87 -38.0873 600.082 -9.07772 655.575L27.6135 458.526Z" fill="#00542A"/>
<path d="M10.0874 611.744L38.4402 581.806C41.8731 568.526 42.5573 559.24 42.5573 559.24L18.4533 568.677L38.7379 549.483C38.7379 549.483 39.7711 538.073 39.8892 523.131L25.6409 530.258L39.8191 513.085C39.347 492.37 36.6636 468.599 27.6139 458.526L-9.07738 655.575C9.88655 642.533 21.9538 624.302 29.6033 607.204L10.0874 611.744Z" fill="#005E2E"/>
<path d="M144.824 76.516C144.824 76.516 129.527 61.0887 114.306 67.1202C114.306 67.1202 118.896 72.6002 126.072 75.3326C133.249 78.0659 144.824 76.516 144.824 76.516ZM144.302 52.7448C144.302 52.7448 118.476 46.0981 108.055 59.0637C105.626 56.1044 103.038 53.2746 100.331 50.5653C103.309 51.4323 109.873 52.9927 115.407 51.8365C122.82 50.2864 133.426 40.9737 133.426 40.9737C133.426 40.9737 111.668 36.7388 99.2574 49.4997C97.4403 47.7255 95.5742 46.0018 93.6553 44.3432C92.1638 43.0541 90.639 41.8061 89.089 40.5897C91.3808 41.3181 98.5563 43.3412 104.755 42.0451C112.169 40.496 122.775 31.1837 122.775 31.1837C122.775 31.1837 100.688 26.8803 88.327 39.9953C86.4286 38.5289 84.4876 37.118 82.5097 35.7617C84.8537 35.8329 91.5673 35.7786 96.4515 32.9329C102.398 29.4685 108.709 17.7664 108.709 17.7664C108.709 17.7664 88.4202 19.5996 81.6696 35.1835C79.7022 33.8573 77.6963 32.5899 75.6588 31.3739C75.5817 31.2631 75.5133 31.1497 75.4316 31.0412C75.4316 31.0412 75.3496 31.1699 75.3417 31.1821C70.1784 28.1205 64.8039 25.4132 59.2703 23.0817C58.9392 22.9422 58.6047 22.8083 58.2725 22.6707C60.7623 22.197 67.0781 20.7109 71.1776 17.085C76.3305 12.5282 80.3168 0.010602 80.3168 0.010602C80.3168 0.010602 60.9641 5.97023 57.2174 22.2343C50.8001 19.6234 44.1721 17.3978 37.3256 16.3026C29.7973 15.0979 22.1117 15.017 14.5213 15.5991C4.89788 16.337 -4.93826 17.9545 -14.1559 20.9063C-14.4783 21.0086 -14.4548 22.2677 -14.0663 22.1428C-6.43468 19.6996 1.63894 18.2587 9.582 17.3465C16.8665 16.5104 24.2445 16.2425 31.5576 16.8811C36.5475 17.3163 41.372 18.2973 46.1157 19.6629C45.9785 19.8595 41.5449 26.2542 40.6678 34.6626C39.7762 43.202 44.7762 55.2629 44.7762 55.2629C44.7762 55.2629 56.986 34.4035 46.232 19.6977C48.8445 20.4536 51.434 21.3213 54.0119 22.2879C61.1691 24.971 68.1134 28.2771 74.7215 32.1584C73.4025 34.3539 70.6154 39.6395 69.9405 46.1124C69.0489 54.6518 74.0476 66.7111 74.0476 66.7111C74.0476 66.7111 84.9866 48.0152 77.024 33.5434C80.8613 35.9044 84.5754 38.4632 88.1418 41.2119C87.5598 42.0252 83.5035 47.8972 82.4639 55.8139C81.3461 64.3273 86.0235 76.5146 86.0235 76.5146C86.0235 76.5146 98.2998 56.755 88.9748 41.8538C92.3979 44.538 95.6795 47.4001 98.7978 50.4295C98.3438 51.0573 94.1275 57.0474 93.0687 65.1108C91.95 73.6231 96.6267 85.8113 96.6267 85.8113C96.6267 85.8113 108.833 66.1662 99.6617 51.2814C103.39 54.9769 106.874 58.9172 110.075 63.0892C109.469 63.9431 105.95 69.1175 105.032 76.0955C104.033 83.7097 108.217 94.6137 108.217 94.6137C108.217 94.6137 118.144 78.6361 111.957 65.6074C113.796 68.1163 115.58 70.7174 117.066 73.451C117.009 73.4362 116.956 73.4131 116.899 73.4001C116.899 73.4001 116.087 77.2907 118.579 84.4025C121.071 91.5154 132.652 96.8227 132.652 96.8227C132.652 96.8227 129.529 77.8476 118.094 73.7641C116.5 70.5564 114.43 67.5363 112.345 64.6393C111.113 62.9265 109.824 61.2527 108.495 59.6125C109.927 60.4251 114.16 62.4393 121.976 63.0516C131.818 63.8235 144.301 52.7451 144.301 52.7451L144.302 52.7448ZM97.3711 10.2815C97.3711 10.2815 76.6614 12.3085 70.0218 28.0658C70.0218 28.0658 79.0532 28.6305 85.0103 25.1934C90.9686 21.7553 97.3711 10.2815 97.3711 10.2815ZM64.1908 42.7534C64.753 36.9142 63.9262 30.5183 59.8428 25.0016C59.8428 25.0016 55.2421 31.5346 54.3516 40.0742C53.46 48.6136 58.4602 60.673 58.4602 60.673C58.4602 60.673 63.2538 52.4853 64.1908 42.7534ZM66.2934 -5.85108C66.2934 -5.85108 46.4028 0.26339 43.0378 17.0279C43.0378 17.0279 52.0012 15.781 57.1542 11.2233C62.3071 6.66654 66.2934 -5.85108 66.2934 -5.85108ZM43.7354 -11.9098C43.7354 -11.9098 25.4486 -1.98039 25.4668 15.1182C25.4668 15.1182 34.0057 12.1235 38.1552 6.63622C42.3047 1.15093 43.7354 -11.9098 43.7354 -11.9098ZM35.6034 34.8115C36.1656 28.9723 35.3388 22.5764 31.2554 17.0597C31.2554 17.0597 26.6549 23.5912 25.7643 32.1308C24.8727 40.6702 29.8715 52.7295 29.8715 52.7295C29.8715 52.7295 34.6665 44.5435 35.6034 34.8115ZM21.0398 34.6698C21.602 28.8306 20.7752 22.4351 16.6918 16.918C16.6918 16.918 12.0914 23.451 11.2006 31.9905C10.309 40.53 15.3092 52.5894 15.3092 52.5894C15.3092 52.5894 20.1029 44.4017 21.0398 34.6698ZM22.3155 -4.63752C22.7784 -9.3451 22.6326 -13.5003 22.6326 -13.5003C22.6326 -13.5003 5.96258 -1.04619 8.4387 15.8727C8.4387 15.8727 16.4585 11.681 19.7765 5.65537C21.228 3.01919 21.9555 -0.976068 22.3155 -4.63752ZM6.84732 36.1108C7.4096 30.2716 6.58389 23.8762 2.50076 18.3592C2.50076 18.3592 -2.09972 24.8907 -2.99021 33.4303C-3.88184 41.9697 1.11688 54.029 1.11688 54.029C1.11688 54.029 5.91038 45.8427 6.84732 36.1108Z" fill="#00A854"/>
<path d="M95.0065 138.532C95.0065 138.532 86.772 115.27 68.2134 114.087C68.2134 114.087 70.2715 121.94 76.3188 128.226C82.3656 134.513 95.0065 138.532 95.0065 138.532ZM105.993 113.862C105.993 113.862 82.6878 94.515 65.6985 102.781C64.6377 98.5637 63.3515 94.4025 61.8842 90.3073C64.5226 92.6414 70.5094 97.4266 76.7533 98.9213C85.1197 100.923 100.528 96.4989 100.528 96.4989C100.528 96.4989 80.2323 81.6013 61.2983 88.6924C60.292 85.9891 59.2107 83.314 58.0437 80.6801C57.1367 78.633 56.1755 76.612 55.173 74.6111C57.174 76.4702 63.5637 82.0268 70.5595 83.7007C78.9253 85.7034 94.3339 81.2797 94.3339 81.2797C94.3339 81.2797 73.7327 66.152 54.6784 73.6311C53.4394 71.2046 52.1297 68.8144 50.7555 66.4624C53.1287 67.672 60.0508 70.8709 66.4473 70.3155C74.2345 69.6395 86.3897 60.6788 86.3897 60.6788C86.3897 60.6788 64.6615 52.7266 50.1729 65.4613C48.795 63.1453 47.3489 60.8711 45.8456 58.6343C45.8191 58.4831 45.8055 58.3338 45.7738 58.1825C45.7738 58.1825 45.6271 58.275 45.6128 58.2835C41.7934 52.6357 37.5854 47.2495 33.0317 42.1721C32.7592 41.8682 32.4806 41.5686 32.2061 41.2662C34.9932 41.9866 42.2009 43.5219 48.1696 41.7848C55.6714 39.6022 65.8342 28.6771 65.8342 28.6771C65.8342 28.6771 43.0667 25.4169 31.3339 40.3064C26.0079 34.5137 20.2788 29.0147 13.7772 24.5707C6.62836 19.6837 -1.22663 15.8749 -9.30545 12.7932C-19.548 8.88593 -30.4355 5.77916 -41.3344 4.34261C-41.7152 4.29143 -42.3015 5.59613 -41.8421 5.65605C-32.8187 6.84605 -23.8273 9.27985 -15.2262 12.1935C-7.33858 14.866 0.369724 18.1675 7.57191 22.3686C12.4864 25.2346 16.9664 28.581 21.177 32.2833C20.9407 32.4187 13.2867 36.8379 8.30961 45.0494C3.25408 53.3886 2.54315 68.201 2.54315 68.201C2.54315 68.201 25.1966 52.694 21.2795 32.3755C23.5966 34.4183 25.8358 36.565 28.0151 38.8075C34.0661 45.0331 39.5962 51.7953 44.5023 58.9855C42.0831 60.6013 36.658 64.6794 32.8269 71.0008C27.7714 79.34 27.0599 94.1502 27.0599 94.1502C27.0599 94.1502 47.3592 80.2493 46.1959 61.5243C48.9929 65.8096 51.5675 70.2385 53.8982 74.7908C52.9061 75.3439 45.8931 79.4091 40.9875 87.037C35.7122 95.2397 34.6086 110.025 34.6086 110.025C34.6086 110.025 56.7973 95.6803 54.4427 75.8539C56.6576 80.2704 58.6409 84.8011 60.3753 89.4244C59.6046 89.8493 52.3699 93.9581 47.3734 101.727C42.0979 109.928 40.9932 124.715 40.9932 124.715C40.9932 124.715 63.0544 110.453 60.8497 90.7183C62.8873 96.3213 64.5558 102.058 65.8212 107.895C64.7848 108.478 58.6621 112.087 54.3369 118.81C49.6194 126.147 48.6308 139.375 48.6308 139.375C48.6308 139.375 66.5733 127.776 66.534 111.394C67.2074 114.863 67.7784 118.399 67.9797 121.927C67.9287 121.885 67.8852 121.835 67.8323 121.794C67.8323 121.794 65.1128 125.397 64.2247 133.91C63.336 142.424 72.6589 153.49 72.6589 153.49C72.6589 153.49 78.6497 132.485 68.8834 122.747C68.801 118.68 68.1394 114.574 67.4022 110.588C66.9664 108.231 66.4542 105.887 65.8838 103.558C66.961 105.087 70.3328 109.208 78.0643 113.626C87.7997 119.19 105.992 113.862 105.992 113.862L105.993 113.862ZM78.3727 47.4945C78.3727 47.4945 56.1178 39.5371 41.6592 52.5037C41.6592 52.5037 50.6621 57.462 58.4473 56.8193C66.234 56.1762 78.3727 47.4945 78.3727 47.4945ZM28.5496 64.7635C31.9578 59.0383 34.209 52.0678 32.689 44.4218C32.689 44.4218 24.7964 48.9019 19.742 57.2418C14.6864 65.5809 13.9764 80.3919 13.9764 80.3919C13.9764 80.3919 22.8695 74.3057 28.5496 64.7635ZM54.2714 15.8581C54.2714 15.8581 30.8764 12.4963 19.293 28.0849C19.293 28.0849 29.1043 31.1493 36.6068 28.9659C44.1086 26.7833 54.2714 15.8581 54.2714 15.8581ZM34.0378 -1.30059C34.0378 -1.30059 10.4407 0.0335512 2.17052 17.6054C2.17052 17.6054 12.3931 18.6688 19.3154 15.044C26.2367 11.4213 34.0378 -1.30059 34.0378 -1.30059ZM3.0357 42.7475C6.44381 37.0223 8.69505 30.0519 7.17515 22.4058C7.17515 22.4058 -0.716621 26.8845 -5.7711 35.2244C-10.8266 43.5635 -11.5381 58.3736 -11.5381 58.3736C-11.5381 58.3736 -2.64451 52.2897 3.0357 42.7475ZM-11.8548 35.542C-8.44667 29.8168 -6.19565 22.8466 -7.71536 15.2002C-7.71536 15.2002 -15.6077 19.6805 -20.6624 28.0202C-25.718 36.3594 -26.4281 51.1704 -26.4281 51.1704C-26.4281 51.1704 -17.5349 45.084 -11.8548 35.542ZM8.51061 -4.21462C11.2682 -8.82568 13.1328 -13.1644 13.1328 -13.1644C13.1328 -13.1644 -10.0275 -8.45316 -15.6859 10.1256C-15.6859 10.1256 -5.41628 9.70786 0.912918 5.12702C3.68184 3.12291 6.36584 -0.628215 8.51061 -4.21462ZM-27.1314 30.142C-23.7232 24.4168 -21.4708 17.4475 -22.9905 9.80112C-22.9905 9.80112 -30.8822 14.2799 -35.9367 22.6197C-40.9923 30.9589 -41.7037 45.769 -41.7037 45.769C-41.7037 45.769 -32.8115 39.6841 -27.1314 30.142Z" fill="#0C8447"/>
<path d="M36.8154 192.013C36.8154 192.013 36.9141 165.717 18.7209 157.86C18.7209 157.86 17.9631 166.479 21.771 174.958C25.5781 183.438 36.8154 192.013 36.8154 192.013ZM56.7032 171.212C56.7032 171.212 40.2754 143.427 20.2607 145.614C20.7121 141.002 20.9171 136.365 20.9167 131.729C22.7248 135.019 27.0113 141.971 32.7383 145.715C40.4123 150.73 57.4607 151.829 57.4607 151.829C57.4607 151.829 42.4528 129.589 20.9093 129.899C20.8712 126.825 20.748 123.753 20.5236 120.691C20.3494 118.311 20.1113 115.938 19.8246 113.571C21.1639 116.155 25.5774 124.026 31.9943 128.219C39.6674 133.235 56.7155 134.334 56.7155 134.334C56.7155 134.334 41.4841 111.754 19.6806 112.41C19.3094 109.53 18.8546 106.662 18.3213 103.808C20.2674 105.875 26.0622 111.572 32.679 113.313C40.7343 115.433 56.1489 110.812 56.1489 110.812C56.1489 110.812 37.2083 95.0255 18.0965 102.595C17.5464 99.776 16.913 96.9747 16.2086 94.1905C16.2351 94.0296 16.2763 93.8745 16.2986 93.7113C16.2986 93.7113 16.1179 93.7514 16.1009 93.7547C14.2989 86.7161 12.0128 79.8003 9.26912 73.0701C9.10509 72.6673 8.93312 72.2666 8.76633 71.8645C11.3035 73.5889 17.9829 77.7194 24.595 78.1216C32.9055 78.6279 47.0273 71.3196 47.0273 71.3196C47.0273 71.3196 25.3578 59.867 8.23629 70.5882C4.9749 62.8628 1.20341 55.2871 -3.72214 48.4924C-9.13783 41.0205 -15.6494 34.3765 -22.6469 28.3816C-31.5183 20.7809 -41.3245 13.7515 -51.7424 8.39353C-52.106 8.20535 -53.163 9.30357 -52.7237 9.52877C-44.0989 13.9653 -35.953 19.6382 -28.3713 25.6523C-21.4186 31.168 -14.8718 37.2502 -9.15615 44.0531C-5.25571 48.6945 -1.96382 53.6617 0.929863 58.8891C0.644127 58.94 -8.62275 60.6229 -16.5669 67.0723C-24.6355 73.6216 -30.6719 88.2264 -30.6719 88.2264C-30.6719 88.2264 -2.3725 80.8102 0.999557 59.0184C2.58998 61.9006 4.06498 64.8588 5.44542 67.8918C9.27869 76.312 12.3965 85.0834 14.7345 94.0599C11.7269 94.8115 4.81877 96.9532 -1.29647 101.918C-9.36519 108.468 -15.4013 123.07 -15.4013 123.07C-15.4013 123.07 9.95919 116.419 15.5212 97.2156C16.7873 102.52 17.7786 107.888 18.4809 113.293C17.2868 113.491 8.79026 115.049 1.12757 120.939C-7.11251 127.272 -13.5333 141.709 -13.5333 141.709C-13.5333 141.709 13.8823 135.292 18.6451 114.555C19.28 119.782 19.6414 125.04 19.72 130.301C18.7942 130.451 10.0594 131.973 2.25488 137.971C-5.98494 144.303 -12.407 158.74 -12.407 158.74C-12.407 158.74 14.8506 152.361 19.7309 131.77C19.7612 138.123 19.3741 144.478 18.5459 150.788C17.2965 151.001 9.85696 152.422 3.10188 157.612C-4.2674 163.277 -10.013 176.193 -10.013 176.193C-10.013 176.193 12.1557 171.004 18.0035 154.555C17.4324 158.277 16.7344 162.03 15.6685 165.642C15.6307 165.581 15.6069 165.516 15.5683 165.455C15.5683 165.455 11.5452 168.092 7.59497 176.314C3.64375 184.536 9.0201 198.988 9.0201 198.988C9.0201 198.988 22.5786 180.068 16.2802 166.789C17.6594 162.679 18.4709 158.323 19.164 154.058C19.5738 151.537 19.9023 149.002 20.1671 146.46C20.6983 148.381 22.6 153.727 28.7688 160.938C36.536 170.018 56.7017 171.211 56.7017 171.211L56.7032 171.212ZM52.844 94.7039C52.844 94.7039 33.3769 78.7231 14.2118 86.5355C14.2118 86.5355 21.462 94.7452 29.5033 96.8982C37.5463 99.0514 52.844 94.7039 52.844 94.7039ZM-3.34584 94.1238C2.13081 89.6049 6.89423 83.4209 8.11713 75.2039C8.11713 75.2039 -1.41103 76.8622 -9.47889 83.4126C-17.5475 89.9619 -23.5825 104.566 -23.5825 104.566C-23.5825 104.566 -12.4735 101.656 -3.34584 94.1238ZM40.0341 54.3041C40.0341 54.3041 17.7717 42.524 0.548805 54.0003C0.548805 54.0003 9.29055 60.6004 17.6019 61.1061C25.9123 61.6124 40.0341 54.3041 40.0341 54.3041ZM25.9014 29.8186C25.9014 29.8186 1.7487 22.677 -12.863 37.3336C-12.863 37.3336 -2.98959 42.074 5.2578 40.9253C13.5033 39.7781 25.9014 29.8186 25.9014 29.8186ZM-21.0303 62.8678C-15.5537 58.3489 -10.7903 52.1649 -9.56728 43.948C-9.56728 43.948 -19.094 45.6051 -27.162 52.1555C-35.2306 58.7048 -41.2666 73.3071 -41.2666 73.3071C-41.2666 73.3071 -30.158 70.3995 -21.0303 62.8678ZM-33.3794 50.2878C-27.9028 45.7689 -23.1397 39.5852 -21.9164 31.3679C-21.9164 31.3679 -31.4444 33.0264 -39.5124 39.5766C-47.5811 46.1259 -53.6161 60.7295 -53.6161 60.7295C-53.6161 60.7295 -42.507 57.8194 -33.3794 50.2878ZM1.339 17.7215C5.76256 14.0866 9.19241 10.404 9.19241 10.404C9.19241 10.404 -15.7357 6.80732 -28.089 23.4126C-28.089 23.4126 -17.6362 26.6841 -9.64031 24.363C-6.14221 23.3475 -2.10147 20.5488 1.339 17.7215ZM-46.7647 39.3805C-41.2881 34.8616 -36.5239 28.6793 -35.3006 20.462C-35.3006 20.462 -44.8274 22.1192 -52.8952 28.6696C-60.964 35.2189 -67 49.8211 -67 49.8211C-67 49.8211 -55.8924 46.9121 -46.7647 39.3805Z" fill="#0A6638"/>
<path d="M221.08 610.962L239.4 614.475L225.827 615.421C226.229 615.744 226.641 616.062 227.063 616.374C239.48 625.553 259.616 626.226 259.616 626.226L238.687 629.087C238.687 629.087 247.194 637.744 259.481 641.975L283.407 634.611L267.922 644.515C285.006 648.922 294.949 646.145 294.949 646.145L289.211 653.257C289.211 653.257 298.83 657.088 308.25 658.07C317.67 659.052 327.046 654.427 327.046 654.427L324.627 659.468C324.627 659.468 340.545 664.223 354.165 650.933L210.903 593.256C210.903 593.256 213.401 602.553 221.08 610.962Z" fill="#084E2A"/>
<path d="M210.903 593.256L354.165 650.933C354.165 650.933 354.942 637.241 350.894 628.864C346.846 620.488 340.914 619.862 340.914 619.862L341.17 628.504C341.17 628.504 334.349 615.125 326.485 606.668C318.622 598.211 306.662 595.581 306.662 595.581L308.385 610.355C308.385 610.355 297.26 594.852 287.424 587.918C277.588 580.985 262.943 579.581 262.943 579.581L265.925 592.535C265.925 592.535 256.266 583.164 246.278 579.012C236.29 574.86 231.12 575.22 231.12 575.22L235.953 584.928C235.953 584.928 226.751 582.106 219.833 582.242C212.916 582.379 210.903 593.256 210.903 593.256Z" fill="#054425"/>
<path d="M280.264 486.926L291.573 507.338L279.785 495.06C279.798 495.705 279.823 496.355 279.861 497.011C280.997 516.294 296.489 536.176 296.489 536.176L276.967 518.365C276.967 518.365 275.469 533.475 281.253 548.668L307.503 565.747L285.579 558.812C295.039 578.754 305.676 586.078 305.676 586.078L294.246 586.266C294.246 586.266 298.275 598.577 304.883 608.412C311.489 618.247 323.446 623.546 323.446 623.546L316.666 625.263C316.666 625.263 324.856 644.364 348.538 646.795L289.115 462.959C289.115 462.959 282.186 472.811 280.264 486.926Z" fill="#005E2E"/>
<path d="M289.115 462.96L348.538 646.795C348.538 646.795 362.312 636.567 367.114 625.965C371.915 615.363 367.761 609.164 367.761 609.164L359.666 616.336C359.666 616.336 367.05 599.061 368.87 584.729C370.692 570.398 363.631 556.803 363.631 556.803L350.822 570.298C350.822 570.298 356.796 547.187 355.573 532.182C354.349 517.177 343.959 501.985 343.959 501.985L333.906 515.232C333.906 515.232 335.166 498.443 331.149 485.522C327.132 472.6 322.642 467.922 322.642 467.922L317.191 480.346C317.191 480.346 312.526 469.245 306.851 462.709C301.176 456.174 289.115 462.96 289.115 462.96Z" fill="#00542A"/>
<path d="M223.117 545.649L242.62 556.929L226.762 552.621C227.093 553.149 227.437 553.674 227.795 554.198C238.314 569.597 261.017 578.358 261.017 578.358L236.008 573.313C236.008 573.313 242.275 586.565 254.61 596.269L284.826 597.365L263.231 602.516C280.97 614.325 293.414 615.103 293.414 615.103L284.045 620.938C284.045 620.938 293.496 629.126 303.853 633.985C314.208 638.845 326.739 637.291 326.739 637.291L321.978 642.08C321.978 642.08 338.248 653.823 359.06 644.07L218.537 521.413C218.537 521.413 217.696 533.01 223.117 545.649Z" fill="#0D8346"/>
<path d="M218.537 521.413L359.06 644.07C359.06 644.07 365.38 628.76 364.088 617.598C362.796 606.436 356.277 603.369 356.277 603.369L353.14 613.327C353.14 613.327 350.669 595.359 345.056 582.591C339.443 569.822 326.845 562.076 326.845 562.076L322.946 579.612C322.946 579.612 316.409 557.512 307.942 545.698C299.474 533.885 283.326 526.471 283.326 526.471L281.586 542.431C281.586 542.431 274.288 527.908 264.542 519.207C254.798 510.506 248.757 508.865 248.757 508.865L250.417 521.857C250.417 521.857 241.04 514.986 233.095 512.394C225.15 509.805 218.537 521.413 218.537 521.413Z" fill="#0F7243"/>
<path d="M145.02 586.226C132.958 577.558 102.412 581.302 102.412 581.302L78.7333 602.597L90.3913 584.984C90.3913 584.984 82.4726 584.535 69.0239 587.272C55.5748 590.008 47.67 593.676 47.67 593.676L29.7107 620.811L35.3411 599.892C35.3411 599.892 2.7638 611.876 -23.8216 663.424L145.02 586.226Z" fill="#054425"/>
<path d="M19.5984 654.589L57.3881 660.118C69.2782 655.643 76.6785 651.213 76.6785 651.213L56.685 637.979L82.0355 643.12C82.0355 643.12 91.2305 637.823 102.614 629.951L89.6221 622.954L110.188 624.545C125.631 613.149 142.211 598.45 145.02 586.226L-23.8212 663.424C-3.8356 670.843 16.407 670.271 33.4369 666.956L19.5984 654.589Z" fill="#084E2A"/>
<path d="M116.857 472.917C99.3215 472.038 71.3841 495.334 71.3841 495.334L61.5157 531.661L61.8055 506.695C61.8055 506.695 53.653 511.325 42.0502 522.662C30.4467 534 24.9467 542.709 24.9467 542.709L24.5014 581.17L16.6861 556.785C16.6861 556.785 -7.98801 589.566 -1.35424 657.801L116.857 472.917Z" fill="#0F7243"/>
<path d="M36.1067 621.198L77.1818 602.469C86.1227 590.404 90.6333 581.261 90.6333 581.261L62.2947 580.932L90.767 569.79C90.767 569.79 96.5044 558.636 102.765 543.522L85.3768 544.899L106.822 533.298C114.856 512.083 121.901 486.858 116.857 472.917L-1.35381 657.801C23.25 652.36 42.9878 638.818 57.7768 624.611L36.1067 621.198Z" fill="#0D8346"/>
<path d="M343.599 330.623V327.75H337.854H332.11V324.878V322.005H326.365H320.62V319.133V316.261H317.748H314.875V313.388V310.516H312.003H309.13V307.643V304.771H306.258H303.386V301.899V299.026H300.513H297.641V296.154V293.281H294.768H291.896V290.409V287.537H289.024H286.151V284.664V281.792H283.279H280.406V278.919V276.047H277.534H274.662V267.43V258.813H271.789H268.917V227.216V195.62H263.172H257.427V198.492V201.365H231.576H205.724V198.492V195.62H202.852H199.979V192.748V189.875H197.107H194.234V187.003V184.13H191.362H188.49V178.386V172.641H185.617H182.745V169.768V166.896H179.872H177V152.534V138.172H179.872H182.745V135.3V132.427H185.617H188.49V129.555V126.682H191.362H194.234V123.81V120.938H197.107H199.979V118.065V115.193H202.852H205.724V112.32V109.448H211.469H217.214V106.576V103.703H222.958H228.703V100.831V97.9584H234.448H240.193V95.086V92.2136H245.938H251.682V89.3412V86.4688H260.3H268.917V83.5964V80.724H274.662H280.406V74.9792V69.2344H283.279H286.151V66.362V63.4896H289.024H291.896V60.6172V57.7448H294.768H297.641V54.8724V52H300.513H303.386V54.8724V57.7448H306.258H309.13V69.2344V80.724H312.003H314.875V77.8516V74.9792H317.748H320.62V72.1068V69.2344H329.237H337.854V77.8516V86.4688H334.982H332.11V95.086V103.703H334.982H337.854V132.427V161.151H340.727H343.599V164.024V166.896H346.472H349.344V169.768V172.641H355.089H360.834V253.068V333.495H352.216H343.599V330.623Z" fill="#CD7330"/>
<path d="M303.386 60.6173V63.4897H300.513H297.641V66.3621V69.2345H294.768H291.896V74.9793V80.7241H289.024V86.4689H314.875V83.5965V80.7241H312.003H309.13V69.2345V57.7449H306.258L303.386 57.7449V60.6173ZM337.854 80.7241H326.365H320.62V83.5965V86.4689H317.748H314.875V89.3413V92.2137H297.641H280.406V95.086V97.9584H286.151H291.896V100.831V103.703H294.768H297.641V106.576V109.448H294.768H291.896V106.576V103.703H283.279H274.662V106.576V109.448H271.789H268.917V112.32V115.193H266.044H263.172V112.32V109.448H260.3H257.427V106.576V103.703H254.555H251.682V106.576V109.448H245.938H240.193V112.32V115.193H234.448H228.703V118.065V120.938H222.958H217.214V123.81V126.682H214.341H211.469V129.555V132.427H208.596H205.724V135.3V138.172H208.596H211.469V141.044V143.917H205.724H199.979V155.406V166.896H202.852H205.724V172.641V178.386H211.469H217.214V181.258V184.13H245.938H274.662V187.003V189.875H277.534H280.406V192.748V195.62H283.279H286.151V227.216V258.813H289.024H291.896V264.558V270.302H294.768H297.641V276.047V281.792H300.513H303.386V284.664V287.537H306.258H309.13V290.409V293.282H312.003H314.875V296.154V299.026H317.748H320.62V301.899V304.771H323.492H326.365V307.644V310.516H329.237H332.11V316.261H349.344V319.133V322.006H355.089H360.834V247.323V172.641H355.089H349.344V169.768V166.896H346.472H343.599V164.024V161.151H340.727H337.854V132.427V103.703H334.982H332.11V95.086V86.4689H334.982H337.854V80.7241Z" fill="#B05A1B"/>
<path d="M303.386 57.7449V63.4897H300.513H297.641V66.3621V69.2345H294.768H291.896V74.9793V80.7241H289.024H287.02C287.024 81.0123 286.965 81.3119 287.001 81.5944C287.002 82.2142 287 82.8338 286.997 83.4536C286.997 84.2764 287.053 85.101 286.979 85.9221C287.041 86.1039 287.102 86.2859 287.16 86.4689H291.896H314.875V83.5965V80.7241H312.003H309.13V69.2345V57.7449H306.258H303.386ZM337.854 80.7241H326.365H320.62V83.5965V86.4689H317.748H314.875V97.9584V109.448H317.748H320.62V129.555V149.662H323.492H326.365V158.279V166.896H329.237H332.11V172.641V178.386H334.982H337.854V181.258V184.13H340.727H343.599V187.003V189.875H349.344H355.089V192.748V195.62H357.961H360.834V184.13V172.641H355.089H349.344V169.768V166.896H346.472H343.599V164.024V161.151H340.727H337.854V132.427V103.703H334.982H332.11V95.086V86.4689H337.854V80.7241ZM343.599 316.261H349.344V319.133V322.006H352.216H355.089V304.771V287.537H352.216H349.344V273.175V258.813H352.216H355.089V247.323V235.834H346.472H337.854V241.578V247.323H334.982H332.11V270.302V293.282H334.982H337.854V299.026V304.771H340.727H343.599V316.261ZM274.662 103.703V106.576V109.448H271.789H268.917V115.193V120.938H280.406H291.896V123.81V126.682H297.641H303.386V118.065V109.448H297.641H291.896V106.576V103.703H283.279H274.662ZM199.979 143.917V152.534V161.151H208.596H217.214V155.406V149.662H214.341H211.469V146.789V143.917H205.724H199.979Z" fill="#793C0F"/>
<path d="M246.151 115.193V120.938V126.682H249.023H251.895V129.555V132.427H254.768H257.64V135.3V138.172H260.513H263.385V141.044V143.917H266.257H269.13V149.662V155.406H272.002H274.875V158.279V161.151H277.747H280.619V164.024V166.896H283.492H286.364V161.151V155.406H283.492H280.619V149.662V143.917H277.747H274.875V138.172V132.427H272.002H269.13V129.555V126.682H266.257H263.385V123.81V120.938H260.513H257.64V118.065V115.193H251.895H246.151ZM228.916 126.682V132.427V138.172H231.789H234.661V141.044V143.917H237.533H240.406V146.789V149.662H243.278H246.151V152.534V155.406H249.023H251.895V161.151V166.896H254.768H257.64V169.768V172.641H263.385H269.13V166.896V161.151H266.257H263.385V155.406V149.662H260.513H257.64V146.789V143.917H254.768H251.895V141.044V138.172H249.023H246.151V135.3V132.427H243.278H240.406V129.555V126.682H234.661H228.916Z" fill="#38CD06"/>
<path d="M246.151 115.193V118.065V120.938H249.023H251.895V123.81V126.682H254.768H257.64V129.555V132.427H260.513H263.385V135.3V138.172H266.257H269.13V141.044V143.917H272.002H274.875V138.172V132.427H272.002H269.13V129.555V126.682H266.257H263.385V123.81V120.938H260.513H257.64V118.065V115.193H251.895H246.151ZM274.875 143.917V149.662V155.406H277.747H280.619V149.662V143.917H277.747H274.875ZM280.619 155.406V158.279V161.151H283.492H286.364V158.279V155.406H283.492H280.619ZM228.916 126.682V129.555V132.427H231.789H234.661V135.3V138.172H237.533H240.406V141.044V143.917H243.278H246.151V146.789V149.662H249.023H251.895V152.534V155.406H254.768H257.64V161.151V166.896H263.385H269.13V164.024V161.151H266.257H263.385V155.406V149.662H260.513H257.64V146.789V143.917H254.768H251.895V141.044V138.172H249.023H246.151V135.3V132.427H243.278H240.406V129.555V126.682H234.661H228.916Z" fill="#2C850F"/>
<path d="M343.599 330.623V327.75H337.854H332.11V324.878V322.005H326.365H320.62V319.133V316.261H317.748H314.875V313.388V310.516H312.003H309.13V307.643V304.771H306.258H303.386V301.899V299.026H300.513H297.641V296.154V293.281H294.768H291.896V290.409V287.537H289.024H286.151V284.664V281.792H283.279H280.406V278.919V276.047H277.534H274.662V267.43V258.813H271.789H268.917V227.216V195.62H263.172H257.427V198.492V201.365H231.576H205.724V198.492V195.62H202.852H199.979V192.748V189.875H197.107H194.234V187.003V184.13H191.362H188.49V178.386V172.641H185.617H182.745V169.768V166.896H179.872H177V152.534V138.172H179.872H182.745V135.3V132.427H185.617H188.49V129.555V126.682H191.362H194.234V123.81V120.938H197.107H199.979V118.065V115.193H202.852H205.724V112.32V109.448H211.469H217.214V106.576V103.703H222.958H228.703V100.831V97.9584H234.448H240.193V95.086V92.2136H245.938H251.682V89.3412V86.4688H260.3H268.917V83.5964V80.724H274.662H280.406V74.9792V69.2344H283.279H286.151V66.362V63.4896H289.024H291.896V60.6172V57.7448H294.768H297.641V54.8724V52H300.513H303.386V54.8724V57.7448H306.258H309.13V69.2344V80.724H312.003H314.875V77.8516V74.9792H317.748H320.62V72.1068V69.2344H329.237H337.854V77.8516V86.4688H334.982H332.11V95.086V103.703H334.982H337.854V132.427V161.151H340.727H343.599V164.024V166.896H346.472H349.344V169.768V172.641H355.089H360.834V175.513V178.386H355.089H349.344V175.513V172.641H346.472H343.599V169.768V166.896H340.727H337.854V164.024V161.151H334.982H332.11V132.427V103.703H329.237H326.365V95.086V86.4688H329.237H332.11V80.724V74.9792H326.365H320.62V77.8516V80.724H317.748H314.875V83.5964V86.4688H291.896H268.917V89.3412V92.2136H260.3H251.682V95.086V97.9584H245.938H240.193V100.831V103.703H234.448H228.703V106.576V109.448H222.958H217.214V112.32V115.193H211.469H205.724V118.065V120.938H202.852H199.979V123.81V126.682H197.107H194.234V129.555V132.427H191.362H188.49V135.3V138.172H185.617H182.745V152.534V166.896H185.617H188.49V169.768V172.641H191.362H194.234V178.386V184.13H197.107H199.979V187.003V189.875H202.852H205.724V192.748V195.62H231.576H257.427V192.748V189.875H263.172H268.917V192.748V195.62H271.789H274.662V227.216V258.813H277.534H280.406V267.43V276.047H283.279H286.151V278.919V281.792H289.024H291.896V284.664V287.537H294.768H297.641V290.409V293.281H300.513H303.386V296.154V299.026H306.258H309.13V301.899V304.771H312.003H314.875V307.643V310.516H317.748H320.62V313.388V316.261H326.365H332.11V313.388V310.516H329.237H326.365V304.771V299.026H323.492H320.62V290.409V281.792H317.748H314.875V250.195V218.599H317.748H320.62V250.195V281.792H323.492H326.365V290.409V299.026H329.237H332.11V304.771V310.516H337.854H343.599V301.899V293.281H340.727H337.854V270.302V247.323H340.727H343.599V241.578V235.833H346.472H349.344V241.578V247.323H346.472H343.599V270.302V293.281H346.472H349.344V304.771V316.261H340.727H332.11V319.133V322.005H337.854H343.599V324.878V327.75H352.216H360.834V330.623V333.495H352.216H343.599V330.623ZM303.386 69.2344V57.7448H300.513H297.641V60.6172V63.4896H294.768H291.896V66.362V69.2344H289.024H286.151V74.9792V80.724H294.768H303.386V69.2344ZM199.979 149.662V143.917H205.724H211.469V149.662V155.406H205.724H199.979V149.662ZM291.896 118.065V115.193H280.406H268.917V112.32V109.448H271.789H274.662V106.576V103.703H283.279H291.896V106.576V109.448H294.768H297.641V115.193V120.938H294.768H291.896V118.065Z" fill="black"/>
<path d="M199.937 215.897V213.003H197.043H194.149V207.216V201.429H197.043H199.937V198.535V195.641H202.83H205.724V192.748V189.854H214.405H223.086V195.641V201.365H220.192H217.299V207.216V213.003H214.405H211.511V215.897V218.791H205.724H199.937V215.897Z" fill="#C10000"/>
<path d="M199.937 215.897V213.003H197.043H194.149V207.216V201.429H197.043H199.937V198.535V195.62H202.83H205.724V192.748V189.854H214.405H223.086V195.641V201.365H220.192H217.299V207.216V213.003H214.405H211.511V215.897V218.791H205.724H199.937V215.897ZM211.511 207.216V201.429L217.299 201.365V198.535V195.641H211.511L205.724 195.62V198.535V201.429H202.83H199.937V207.216V213.003H205.724H211.511V207.216Z" fill="black"/>
<path d="M205.724 195.641V197.686V201.429H208.618H211.511V198.535V195.641H208.618H205.724ZM205.724 201.429H202.83H199.937V204.322V207.216H202.83H205.724V204.322V201.429Z" fill="#D53D3D"/>
<path d="M151.636 213L149.813 216.96L143.504 230.658L143.488 230.69L111.144 223.702L111.413 231.823L102.421 223.428L95.8072 229.096L95.1443 229.665L90.5596 233.596L88.0841 221.834L77.6095 225.52L76.1306 226.04L44.9209 237.023L44 288.345L91.4257 294.09L93.3475 284.231L113.258 289.156L113.363 292.426L118.915 292.535L115.865 294.299L120.184 302.566L136.01 332.859L156.254 330.11L156.611 329.28L171.08 332.254L172.52 329.441L184.491 333.283L185.353 331.505L186.651 334.051L196.924 329.265C196.992 329.29 197.068 329.325 197.136 329.353C197.84 329.646 198.522 329.867 199.159 330.057C199.795 330.248 200.379 330.401 200.813 330.51C201.03 330.564 201.21 330.608 201.339 330.638C201.404 330.653 201.456 330.666 201.494 330.674C201.513 330.679 201.528 330.682 201.541 330.685C201.547 330.685 201.552 330.687 201.558 330.689L203.015 330.755L213.076 329.435L221.035 339L230.683 330.498L231.818 333.589L242.402 333.023C248.057 332.721 252.993 331.96 257.447 329.989C262.143 327.91 266.353 324.049 267.928 318.63C268.884 315.343 268.808 312.203 268.378 309.439C267.96 306.752 267.11 303.57 264.86 300.62C264.75 300.476 264.614 300.352 264.498 300.213L261.26 283.141L297.618 292.135L299 246.077L274.74 223.428L269.795 227.666L247.707 226.692L245.123 221.961L237.928 223.62L221.319 227.449L221.491 229.176L215.331 223.425L208.717 229.099L208.056 229.665L203.529 233.547L188.532 229.081L187.911 227.628L179.676 229.948L178.853 230.18L176.282 230.905L178.619 226.883L151.636 213ZM183.125 282.058L174.472 282.216L173.5 284.513L165.35 280.047L175.661 275.38L183.125 282.058Z" fill="white"/>
<path d="M162.404 283.191L159.289 293.429L152.934 284.497L146.617 294.32L142.424 283.764L121.414 295.91L123.882 300.634L138.352 328.331L153.352 326.294L154.118 324.508L168.811 327.528L170.42 324.385L182.317 328.203L185.239 322.181L185.28 322.174L188.54 328.568L197.351 324.463C197.461 324.605 197.508 324.711 197.66 324.876C198.431 325.711 202.472 326.618 202.473 326.618L214.813 324.999L221.497 333.032L232.5 323.337L234.673 329.258L242.179 328.857C247.581 328.568 251.996 327.838 255.758 326.173C259.519 324.509 262.773 321.416 263.921 317.465C264.668 314.896 264.626 312.467 264.255 310.08C263.884 307.694 263.26 305.401 261.543 303.15C261.278 302.804 260.963 302.45 260.61 302.104L257.369 285.02H252.762C247.911 285.02 243.68 286.215 239.964 287.151L239.765 287.201L239.571 287.266C236.637 288.239 234.019 289.556 231.895 291.471C227.569 288.281 221.832 286.785 214.749 285.668C212.769 285.356 210.299 285.04 208.233 284.811C207.199 284.696 206.28 284.605 205.529 284.547C205.153 284.518 204.835 284.496 204.462 284.488C204.275 284.483 204.095 284.476 203.727 284.502C203.543 284.515 203.327 284.523 202.866 284.624C202.405 284.725 201.573 284.317 199.745 286.515H199.746C198.569 287.93 198.786 288.171 198.703 288.44C198.62 288.709 198.594 288.84 198.571 288.948C198.525 289.165 198.512 289.263 198.497 289.358C198.469 289.547 198.455 289.679 198.437 289.833C198.402 290.142 198.366 290.505 198.325 290.956C198.241 291.858 198.136 293.091 198.016 294.563C197.978 295.031 197.926 295.754 197.885 296.267L192.809 286.055L177.259 286.338L175.546 290.391L162.404 283.191ZM232.767 292.115L232.82 292.159C232.811 292.151 232.8 292.145 232.791 292.137C232.782 292.13 232.776 292.122 232.767 292.116V292.115Z" fill="#0A5500"/>
<path d="M153.603 218.704L151.172 223.984L150.747 224.908L146.16 234.864L147.486 235.823L115.491 228.91L115.728 236.038L115.769 237.283L115.911 241.731L102.302 229.025L98.5229 232.264L97.8606 232.832L87.9272 241.349L84.9806 227.349L78.9952 229.455L77.5162 229.975L49.0412 239.997L48.2398 284.655L88.0728 289.481L90.0908 279.128L117.327 285.865L117.407 288.333L129.758 288.576L140.832 281.912L139.514 273.265L149.018 270.99L148.891 283.596L173.124 271.507L171.627 259.263L191.556 286.519L197.153 272.04L196.478 277.513L230.999 286.053L231.3 289.386L252.962 275.004L252.198 255.393L258.45 256.707L255.885 277.513L293.602 286.843L294.772 247.838L274.621 229.025L270.842 232.264L270.18 232.832L266.005 236.412L266.526 231.698L246.193 230.801L245.481 231.322L242.977 226.737L238.866 227.685L225.835 230.69L226.404 236.413L226.739 239.784L215.213 229.024L211.433 232.266L210.772 232.833L204.519 238.195L189.653 233.769L187.976 238.4L185.514 232.637L180.808 233.964L179.985 234.196L168.943 237.308L168.733 235.588L172.804 228.584L153.603 218.704ZM148.66 236.672L149.356 237.176L149.335 239.405L149.319 240.922L148.66 236.672Z" fill="#5A2500"/>
<path d="M156.226 226.311L155.801 227.235L153.127 233.038L159.944 237.97L154.906 238.612L154.898 239.46L154.546 274.558L167.124 268.282L163.366 237.534L160.991 237.837L165.051 230.851L156.226 226.311ZM240.116 233.106L231.855 235.01L231.94 235.863L233.256 249.107L236.003 279.586L247.281 272.098L246.55 253.35L247.886 248.801L258.786 251.093L260.343 236.994L247.901 236.445L243.643 239.563L240.116 233.106ZM121.288 235.854L121.33 237.101L122.798 282.874L128.264 282.982L134.771 279.067L133.243 269.046L147.523 265.628L143.652 240.687L121.288 235.854ZM102.144 236.488L101.482 237.055L88.5303 248.16L95.1346 255.98L103.136 249.463L105.302 251.639L91.5866 257.926L89.6919 273.298L115.928 279.788L116.817 250.187L102.144 236.488ZM215.056 236.488L214.395 237.055L201.443 248.16L208.047 255.98L216.048 249.463L218.214 251.639L204.499 257.926L202.604 273.298L228.841 279.788L229.729 250.187L215.056 236.488ZM274.463 236.488L273.801 237.055L260.849 248.16L267.453 255.98L275.455 249.463L277.621 251.639L263.906 257.926L262.011 273.298L288.247 279.788L289.136 250.187L274.463 236.488ZM182.318 239.318L181.495 239.55L167.077 243.614L190.038 275.016L202.285 243.334L193.097 240.599L188.402 253.561L182.318 239.318ZM132.335 247.778L135.063 248.694L136.424 255.143L133.582 256.345L132.335 247.778ZM101.148 262.631L105.18 262.849L104.468 266.664L100.214 265.357L101.148 262.631ZM214.06 262.631L218.093 262.849L217.38 266.664L213.126 265.357L214.06 262.631ZM273.467 262.631L277.499 262.849L276.787 266.663L272.533 265.357L273.467 262.631Z" fill="#FF6600"/>
<path d="M80.8427 234.702L79.3635 235.223L54.5351 243.961L53.8926 279.737L83.6023 283.336L87.0982 265.4L69.7924 266.983L71.0903 255.862L85.02 254.551L80.8427 234.702Z" fill="#FF6600"/>
<path d="M213.91 315.217L213.882 319.511L201.749 321.102C201.533 321.13 203.843 290.289 204.024 290.071C204.155 289.913 210.197 290.582 213.882 291.163C220.942 292.277 226.606 294.217 229.252 296.428C231.34 298.13 231.969 300.727 231.825 302.405C231.364 307.752 228.343 311.078 224.093 312.747L230.948 317.288L222.113 325.074L213.91 315.217ZM221.671 302.494C221.641 300.621 214.356 300.102 212.769 299.991V303.934C214.517 304.176 221.694 303.952 221.671 302.494ZM234.524 312.706C236.738 312.82 239.005 313.075 241.312 313.096C247.428 313.138 246.85 311.238 240.416 310.152C237.263 309.62 236.289 309.267 235.015 308.196C233.782 307.158 233.061 305.402 232.879 302.994C232.488 297.833 235.092 294.611 241.322 292.546C245.093 291.596 248.879 290.583 252.762 290.583L254.7 300.799L251.01 300.939C248.177 301.048 247.072 301.202 246.25 301.603C243.633 302.881 245.345 303.903 250.603 304.203C254.527 304.427 255.889 304.912 257.119 306.524C258.713 308.614 259.406 313.067 258.579 315.912C257.276 320.394 251.918 322.765 241.883 323.302L238.48 323.484L234.524 312.706ZM128.814 298.058L139.631 291.805L145.442 306.433L153.167 294.421L161.318 305.877L165.735 291.359L177.717 297.924L165.787 321.227L155.895 319.194L153.528 311.78L149.482 321.205L141.474 322.292L128.814 298.058ZM169.77 318.334L180.976 291.835L189.392 291.681L201.641 316.326L191.058 321.257L188.369 315.983L181.475 317.194L179.419 321.43L169.77 318.334ZM186.84 307.276L185.609 303.378L183.985 307.245L186.84 307.276Z" fill="#2EFF19"/>
<path d="M213.91 315.217L213.882 319.511L201.749 321.102C201.533 321.13 203.843 290.289 204.024 290.071C204.155 289.913 210.197 290.582 213.882 291.163C220.942 292.277 226.606 294.217 229.252 296.428C231.34 298.13 231.969 300.727 231.825 302.405C231.364 307.752 228.343 311.078 224.093 312.747L230.948 317.288L222.113 325.074L213.91 315.217ZM221.671 302.494C221.641 300.621 214.356 300.102 212.769 299.991V303.934C214.517 304.176 221.694 303.952 221.671 302.494ZM234.524 312.706C236.738 312.82 239.005 313.075 241.312 313.096C247.428 313.138 246.85 311.238 240.416 310.152C237.263 309.62 236.289 309.267 235.015 308.196C233.782 307.158 233.061 305.402 232.879 302.994C232.488 297.833 235.092 294.611 241.322 292.546C245.093 291.596 248.879 290.583 252.762 290.583L254.7 300.799L251.01 300.939C248.177 301.048 247.072 301.202 246.25 301.603C243.633 302.881 245.345 303.903 250.603 304.203C254.527 304.427 255.889 304.912 257.119 306.524C258.713 308.614 259.406 313.067 258.579 315.912C257.276 320.394 251.918 322.765 241.883 323.302L238.48 323.484L234.524 312.706ZM128.814 298.058L139.631 291.805L145.442 306.433L153.167 294.421L161.318 305.877L165.735 291.359L177.717 297.924L165.787 321.227L155.895 319.194L153.528 311.78L149.482 321.205L141.474 322.292L128.814 298.058ZM169.77 318.334L180.976 291.835L189.392 291.681L201.641 316.326L191.058 321.257L188.369 315.983L181.475 317.194L179.419 321.43L169.77 318.334ZM186.84 307.276L185.609 303.378L183.985 307.245L186.84 307.276Z" fill="#3DED2B"/>
<path d="M166.084 260.229C162.211 260.249 158.421 260.296 154.688 260.369L154.546 274.558L167.124 268.282L166.14 260.229C166.122 260.229 166.102 260.229 166.084 260.229ZM146.739 260.573C138.31 260.842 130.161 261.28 122.127 261.936L122.798 282.874L128.263 282.982L134.77 279.067L133.243 269.046L147.523 265.628L146.739 260.573ZM179.55 260.673L190.038 275.016L195.096 261.929C189.676 261.416 184.459 260.976 179.55 260.673ZM116.449 262.437C112.631 262.801 108.828 263.22 105.023 263.694L104.468 266.664L100.214 265.357L100.585 264.274C97.2756 264.726 93.9573 265.223 90.62 265.769L89.6919 273.298L115.928 279.788L116.449 262.437ZM203.898 262.8L202.604 273.298L228.841 279.788L229.273 265.396C225.437 265.026 221.622 264.64 217.832 264.247L217.38 266.664L213.126 265.357L213.656 263.812C210.371 263.468 207.096 263.128 203.898 262.8ZM234.77 265.908L236.003 279.586L247.281 272.098L247.079 266.907C242.999 266.621 238.887 266.279 234.77 265.908ZM86.904 266.396C76.3118 268.238 65.4742 270.581 54.0041 273.538L53.8927 279.737L83.6022 283.336L86.904 266.396ZM288.634 266.901C280.672 267.784 271.894 267.963 262.7 267.702L262.011 273.298L288.247 279.788L288.634 266.901Z" fill="#FF822F"/>
<path d="M204.334 290.049C204.149 290.045 204.04 290.052 204.024 290.072C203.935 290.178 203.339 297.6 202.777 305.153C212.671 304.698 222.24 303.978 231.772 302.91C231.792 302.744 231.81 302.575 231.824 302.404C231.969 300.727 231.341 298.13 229.252 296.428C226.606 294.217 220.942 292.277 213.882 291.163C210.657 290.655 205.629 290.079 204.334 290.049V290.049ZM252.762 290.583C248.879 290.583 245.093 291.596 241.322 292.546C235.176 294.583 232.561 297.748 232.867 302.787C240.043 301.963 247.209 300.941 254.488 299.68L252.762 290.583ZM165.734 291.359L161.487 305.321C165.804 305.596 169.889 305.766 173.687 305.796L177.717 297.924L165.734 291.359ZM189.393 291.681L180.976 291.835L175.071 305.8C175.235 305.8 175.404 305.803 175.567 305.8C178.635 305.784 181.653 305.753 184.631 305.705L185.609 303.377L186.334 305.672C189.675 305.61 192.969 305.525 196.218 305.414L189.393 291.681ZM139.631 291.805L128.814 298.058L131.159 302.548C135.67 303.02 140.123 303.479 144.435 303.898L139.631 291.805ZM153.167 294.421L146.92 304.135C151.766 304.591 156.453 304.99 160.894 305.28L153.167 294.421ZM212.769 299.991C214.356 300.102 221.641 300.621 221.671 302.494C221.694 303.952 214.517 304.176 212.769 303.934V299.991Z" fill="#5AF049"/>
<path fill-rule="evenodd" clip-rule="evenodd" d="M129.72 392C126.048 392 124 394.677 124 397.968V442.513C124 445.807 126.035 448.5 129.72 448.5H230.32C235.415 448.5 237 445.804 237 442.513V397.968C237 394.663 235.402 392 230.77 392H129.72Z" fill="#552200"/>
<path fill-rule="evenodd" clip-rule="evenodd" d="M136.502 394.655H224.153C229.396 394.655 233.617 396.793 233.617 401.299V438.471C233.617 445.942 229.396 446.638 224.153 446.638H136.502C131.259 446.638 127.038 445.978 127.038 438.471V401.299C127.038 396.815 131.259 394.655 136.502 394.655Z" fill="#FF6600"/>
<path fill-rule="evenodd" clip-rule="evenodd" d="M138.154 396.315H222.339C227.375 396.315 231.429 398.211 231.429 400.566V439.928C231.429 442.282 227.375 444.178 222.339 444.178H138.154C133.118 444.178 129.064 442.282 129.064 439.928V400.566C129.064 398.211 133.118 396.315 138.154 396.315Z" fill="#FF7F2A"/>
<path fill-rule="evenodd" clip-rule="evenodd" d="M138.003 394.655H220.412C225.341 394.655 229.31 395.829 229.31 398.021V398.873C229.31 400.159 225.341 401.294 220.412 401.294H138.003C133.074 401.294 131.012 400.164 131.012 398.873V398.021C131.012 395.82 133.074 394.655 138.003 394.655Z" fill="#FFBD92" fill-opacity="0.470588"/>
<path fill-rule="evenodd" clip-rule="evenodd" d="M182.366 419.742V426.039H192.782C192.362 428.739 189.634 433.963 182.366 433.963C176.095 433.963 170.979 428.771 170.979 422.366C170.979 415.964 176.095 410.769 182.366 410.769C185.934 410.769 188.322 412.291 189.686 413.603L194.671 408.801C191.47 405.81 187.325 404 182.366 404C172.212 404 164 412.212 164 422.366C164 432.52 172.212 440.732 182.366 440.732C192.966 440.732 200 433.281 200 422.786C200 421.579 199.866 420.661 199.709 419.742H182.366Z" fill="#552200"/>
<path d="M155.992 371.074H155.98C155.121 371.09 154.652 371.332 154.574 371.801C154.551 371.887 154.539 371.969 154.539 372.047C154.539 372.57 154.906 373 155.641 373.336C158.18 374.117 159.578 375.055 159.836 376.148C159.938 376.5 159.988 376.871 159.988 377.262C159.988 377.84 159.867 378.41 159.625 378.973C159.227 379.91 158.383 380.527 157.094 380.824C156.555 380.941 156.031 381 155.523 381C154.805 381 154.129 380.879 153.496 380.637C152.395 380.223 151.758 379.855 151.586 379.535L152.934 377.262C153.934 378.027 154.848 378.41 155.676 378.41H155.805C156.703 378.34 157.195 378.027 157.281 377.473V377.367C157.281 376.711 156.633 376.191 155.336 375.809C153.953 375.402 152.965 374.801 152.371 374.004C151.965 373.473 151.762 372.855 151.762 372.152C151.762 371.809 151.816 371.43 151.926 371.016C152.23 369.836 152.914 369.082 153.977 368.754C154.562 368.574 155.156 368.484 155.758 368.484C156.219 368.484 156.703 368.539 157.211 368.648C158.141 368.836 158.953 369.219 159.648 369.797L158.43 371.941C157.617 371.363 156.805 371.074 155.992 371.074ZM165.578 369.152C165.57 369.574 165.562 370.016 165.555 370.477C165.555 370.93 165.555 371.414 165.555 371.93C165.555 373.172 165.566 374.527 165.59 375.996C165.613 377.465 165.652 379.066 165.707 380.801L162.906 380.988C162.914 380.145 162.918 379.32 162.918 378.516C162.926 377.703 162.93 376.898 162.93 376.102C162.93 373.719 162.906 371.441 162.859 369.27L165.578 369.152ZM165.883 364.406C165.883 365.391 165.918 366.52 165.988 367.793L162.555 367.898C162.562 367.805 162.566 367.703 162.566 367.594V367.254C162.566 366.879 162.555 366.465 162.531 366.012C162.508 365.559 162.477 365.059 162.438 364.512L165.883 364.406ZM174.473 368.648L177.285 368.578C177.355 371.953 177.391 374.672 177.391 376.734C177.391 377.836 177.379 378.746 177.355 379.465C177.34 380.184 177.312 380.719 177.273 381.07C177.109 382.445 176.699 383.5 176.043 384.234C175.387 384.977 174.465 385.391 173.277 385.477C173.176 385.484 173.078 385.488 172.984 385.488C172.891 385.496 172.793 385.5 172.691 385.5C171.652 385.5 170.582 385.32 169.48 384.961L169.586 382.348C170.641 382.699 171.512 382.887 172.199 382.91H172.293C172.949 382.91 173.508 382.688 173.969 382.242C174.391 381.859 174.602 381.184 174.602 380.215V379.945C174.602 379.859 174.598 379.762 174.59 379.652C174.066 380.301 173.301 380.68 172.293 380.789C172.223 380.797 172.152 380.805 172.082 380.812C172.012 380.812 171.941 380.812 171.871 380.812C171.066 380.812 170.367 380.559 169.773 380.051C169.102 379.473 168.664 378.625 168.461 377.508C168.32 376.75 168.25 375.953 168.25 375.117C168.25 374.914 168.254 374.707 168.262 374.496C168.277 374.285 168.293 374.07 168.309 373.852C168.402 372.57 168.727 371.473 169.281 370.559C169.828 369.66 170.668 369.176 171.801 369.105C171.863 369.098 171.93 369.094 172 369.094H172.199C173.137 369.094 173.906 369.328 174.508 369.797L174.473 368.648ZM174.473 377.52V372.398C173.879 371.984 173.305 371.777 172.75 371.777C172.672 371.777 172.613 371.781 172.574 371.789C171.957 371.836 171.535 372.371 171.309 373.395C171.152 374.082 171.074 374.742 171.074 375.375C171.074 375.719 171.098 376.059 171.145 376.395C171.262 377.379 171.637 377.984 172.27 378.211C172.41 378.266 172.566 378.293 172.738 378.293C173.262 378.293 173.84 378.035 174.473 377.52ZM181.363 368.332L181.34 369.715C182.113 369.082 182.934 368.758 183.801 368.742H183.824C184.668 368.742 185.426 369.078 186.098 369.75C186.754 370.43 187.113 371.516 187.176 373.008C187.23 374.477 187.289 377.043 187.352 380.707L184.352 380.812C184.383 379.32 184.402 378.043 184.41 376.98C184.426 375.91 184.434 375.043 184.434 374.379V373.641C184.426 372.477 184.117 371.781 183.508 371.555C183.344 371.5 183.172 371.473 182.992 371.473C182.516 371.473 182.004 371.684 181.457 372.105V380.953L178.645 381.141C178.668 379.195 178.68 377.344 178.68 375.586C178.68 372.969 178.656 370.586 178.609 368.438L181.363 368.332ZM197.641 369.152C197.633 369.574 197.625 370.016 197.617 370.477C197.617 370.93 197.617 371.414 197.617 371.93C197.617 373.172 197.629 374.527 197.652 375.996C197.676 377.465 197.715 379.066 197.77 380.801L194.969 380.988C194.977 380.145 194.98 379.32 194.98 378.516C194.988 377.703 194.992 376.898 194.992 376.102C194.992 373.719 194.969 371.441 194.922 369.27L197.641 369.152ZM197.945 364.406C197.945 365.391 197.98 366.52 198.051 367.793L194.617 367.898C194.625 367.805 194.629 367.703 194.629 367.594V367.254C194.629 366.879 194.617 366.465 194.594 366.012C194.57 365.559 194.539 365.059 194.5 364.512L197.945 364.406ZM203.066 368.332L203.043 369.715C203.816 369.082 204.637 368.758 205.504 368.742H205.527C206.371 368.742 207.129 369.078 207.801 369.75C208.457 370.43 208.816 371.516 208.879 373.008C208.934 374.477 208.992 377.043 209.055 380.707L206.055 380.812C206.086 379.32 206.105 378.043 206.113 376.98C206.129 375.91 206.137 375.043 206.137 374.379V373.641C206.129 372.477 205.82 371.781 205.211 371.555C205.047 371.5 204.875 371.473 204.695 371.473C204.219 371.473 203.707 371.684 203.16 372.105V380.953L200.348 381.141C200.371 379.195 200.383 377.344 200.383 375.586C200.383 372.969 200.359 370.586 200.312 368.438L203.066 368.332Z" fill="white"/>
<path d="M134.106 617.736L136.216 617.684C136.269 620.215 136.295 622.254 136.295 623.801C136.295 624.627 136.286 625.31 136.269 625.849C136.257 626.388 136.236 626.789 136.207 627.053C136.084 628.084 135.776 628.875 135.284 629.426C134.792 629.982 134.101 630.293 133.21 630.357C133.134 630.363 133.061 630.366 132.99 630.366C132.92 630.372 132.847 630.375 132.771 630.375C131.991 630.375 131.188 630.24 130.362 629.971L130.441 628.011C131.232 628.274 131.886 628.415 132.401 628.433H132.472C132.964 628.433 133.383 628.266 133.729 627.932C134.045 627.645 134.203 627.138 134.203 626.411V626.209C134.203 626.145 134.2 626.071 134.194 625.989C133.802 626.476 133.228 626.76 132.472 626.842C132.419 626.848 132.366 626.854 132.313 626.859C132.261 626.859 132.208 626.859 132.155 626.859C131.552 626.859 131.027 626.669 130.582 626.288C130.078 625.854 129.75 625.219 129.598 624.381C129.492 623.812 129.439 623.215 129.439 622.588C129.439 622.436 129.442 622.28 129.448 622.122C129.46 621.964 129.472 621.803 129.483 621.639C129.554 620.678 129.797 619.854 130.213 619.169C130.623 618.495 131.253 618.132 132.103 618.079C132.149 618.073 132.199 618.07 132.252 618.07H132.401C133.104 618.07 133.682 618.246 134.133 618.598L134.106 617.736ZM134.106 624.39V620.549C133.661 620.238 133.23 620.083 132.814 620.083C132.756 620.083 132.712 620.086 132.683 620.092C132.22 620.127 131.903 620.528 131.733 621.296C131.616 621.812 131.558 622.307 131.558 622.781C131.558 623.039 131.575 623.294 131.61 623.546C131.698 624.284 131.979 624.738 132.454 624.908C132.56 624.949 132.677 624.97 132.806 624.97C133.198 624.97 133.632 624.776 134.106 624.39ZM140.619 627.149C139.863 627.149 139.266 627 138.826 626.701C138.123 626.232 137.66 625.567 137.438 624.706C137.361 624.39 137.303 624.059 137.262 623.713C137.227 623.367 137.209 622.998 137.209 622.605C137.209 622.453 137.212 622.298 137.218 622.14C137.229 621.976 137.241 621.812 137.253 621.647C137.335 620.47 137.681 619.518 138.29 618.791C138.905 618.064 139.67 617.695 140.584 617.684H140.61C141.519 617.684 142.239 618.047 142.772 618.773C143.235 619.395 143.467 620.569 143.467 622.298C143.467 622.456 143.464 622.617 143.458 622.781C143.458 622.945 143.455 623.112 143.449 623.282L139.283 623.396V623.484C139.283 624.604 139.693 625.181 140.514 625.216H140.681C141.407 625.216 141.955 625.008 142.324 624.592L143.106 626.165C142.521 626.821 141.691 627.149 140.619 627.149ZM141.586 621.727C141.574 620.713 141.407 620.083 141.085 619.837C140.915 619.72 140.739 619.661 140.558 619.661C140.376 619.661 140.177 619.72 139.96 619.837C139.544 620.083 139.336 620.719 139.336 621.744L141.586 621.727ZM146.446 617.499L146.429 618.536C147.009 618.062 147.624 617.818 148.274 617.807H148.292C148.925 617.807 149.493 618.059 149.997 618.562C150.489 619.072 150.759 619.887 150.806 621.006C150.847 622.107 150.891 624.032 150.938 626.78L148.688 626.859C148.711 625.74 148.726 624.782 148.731 623.985C148.743 623.183 148.749 622.532 148.749 622.034V621.48C148.743 620.607 148.512 620.086 148.055 619.916C147.932 619.875 147.803 619.854 147.668 619.854C147.311 619.854 146.927 620.013 146.517 620.329V626.965L144.407 627.105C144.425 625.646 144.434 624.258 144.434 622.939C144.434 620.977 144.416 619.189 144.381 617.578L146.446 617.499ZM155.262 627.149C154.506 627.149 153.908 627 153.469 626.701C152.766 626.232 152.303 625.567 152.08 624.706C152.004 624.39 151.945 624.059 151.904 623.713C151.869 623.367 151.852 622.998 151.852 622.605C151.852 622.453 151.854 622.298 151.86 622.14C151.872 621.976 151.884 621.812 151.896 621.647C151.978 620.47 152.323 619.518 152.933 618.791C153.548 618.064 154.312 617.695 155.227 617.684H155.253C156.161 617.684 156.882 618.047 157.415 618.773C157.878 619.395 158.109 620.569 158.109 622.298C158.109 622.456 158.106 622.617 158.101 622.781C158.101 622.945 158.098 623.112 158.092 623.282L153.926 623.396V623.484C153.926 624.604 154.336 625.181 155.156 625.216H155.323C156.05 625.216 156.598 625.008 156.967 624.592L157.749 626.165C157.163 626.821 156.334 627.149 155.262 627.149ZM156.229 621.727C156.217 620.713 156.05 620.083 155.728 619.837C155.558 619.72 155.382 619.661 155.2 619.661C155.019 619.661 154.819 619.72 154.603 619.837C154.187 620.083 153.979 620.719 153.979 621.744L156.229 621.727ZM163.84 617.394L163.91 619.652C162.504 619.734 161.587 620.048 161.159 620.593V626.789L159.05 626.93C159.067 625.471 159.076 624.082 159.076 622.764C159.076 620.801 159.059 619.014 159.023 617.402L161.089 617.323L161.071 618.554C161.587 617.886 162.51 617.499 163.84 617.394ZM171.504 627.264L169.553 627.571L169.333 626.271C168.899 626.745 168.293 626.982 167.514 626.982C167.455 626.982 167.394 626.982 167.329 626.982C167.271 626.977 167.209 626.971 167.145 626.965C166.178 626.883 165.542 626.575 165.237 626.042C164.962 625.573 164.824 624.961 164.824 624.205C164.871 623.566 165.047 623.007 165.352 622.526C165.662 622.034 166.23 621.645 167.057 621.357C167.221 621.34 167.388 621.331 167.558 621.331C168.226 621.331 168.812 621.533 169.315 621.938C169.321 621.891 169.324 621.841 169.324 621.788V621.647C169.324 620.593 168.926 620.045 168.129 620.004C167.543 620.004 166.948 620.177 166.345 620.522L165.51 618.791C166.219 618.229 167.147 617.947 168.296 617.947C169.515 618.076 170.341 618.439 170.774 619.037C171.167 619.576 171.363 620.669 171.363 622.315C171.363 622.409 171.36 622.503 171.354 622.597C171.354 622.685 171.352 622.775 171.346 622.869C171.34 623.109 171.334 623.341 171.328 623.563C171.328 623.786 171.328 624 171.328 624.205C171.328 624.861 171.343 625.444 171.372 625.954C171.401 626.458 171.445 626.895 171.504 627.264ZM169.28 623.159C168.788 622.995 168.372 622.913 168.032 622.913C167.341 622.966 166.995 623.42 166.995 624.275V624.372C166.995 624.407 166.998 624.439 167.004 624.469C167.004 624.732 167.13 624.955 167.382 625.137C167.569 625.271 167.798 625.339 168.067 625.339C168.401 625.339 168.806 625.233 169.28 625.022V623.159ZM175.222 614.467C175.216 615.035 175.21 615.606 175.204 616.181C175.204 616.755 175.204 617.335 175.204 617.921C175.204 619.356 175.213 620.81 175.23 622.28C175.254 623.751 175.286 625.257 175.327 626.798L173.112 626.956C173.13 625.438 173.139 623.859 173.139 622.219C173.139 619.775 173.121 617.221 173.086 614.555L175.222 614.467ZM182.183 614.801L184.257 614.335L184.195 617.78L186.111 617.692V619.354L184.195 619.503C184.189 620.903 184.187 621.961 184.187 622.676V623.81C184.187 624.782 184.573 625.269 185.347 625.269C185.587 625.269 185.842 625.23 186.111 625.154L186.146 626.701C185.602 626.959 185.08 627.088 184.582 627.088C184.365 627.088 184.166 627.067 183.984 627.026C183.281 626.874 182.795 626.543 182.525 626.033C182.25 625.512 182.112 624.703 182.112 623.607L182.086 619.617L180.768 619.644V618.018L182.156 617.982L182.183 614.801ZM190.471 627.149C189.715 627.149 189.117 627 188.678 626.701C187.975 626.232 187.512 625.567 187.289 624.706C187.213 624.39 187.154 624.059 187.113 623.713C187.078 623.367 187.061 622.998 187.061 622.605C187.061 622.453 187.063 622.298 187.069 622.14C187.081 621.976 187.093 621.812 187.104 621.647C187.187 620.47 187.532 619.518 188.142 618.791C188.757 618.064 189.521 617.695 190.436 617.684H190.462C191.37 617.684 192.091 618.047 192.624 618.773C193.087 619.395 193.318 620.569 193.318 622.298C193.318 622.456 193.315 622.617 193.31 622.781C193.31 622.945 193.307 623.112 193.301 623.282L189.135 623.396V623.484C189.135 624.604 189.545 625.181 190.365 625.216H190.532C191.259 625.216 191.807 625.008 192.176 624.592L192.958 626.165C192.372 626.821 191.543 627.149 190.471 627.149ZM191.438 621.727C191.426 620.713 191.259 620.083 190.937 619.837C190.767 619.72 190.591 619.661 190.409 619.661C190.228 619.661 190.028 619.72 189.812 619.837C189.396 620.083 189.188 620.719 189.188 621.744L191.438 621.727ZM199.049 617.394L199.119 619.652C197.713 619.734 196.796 620.048 196.368 620.593V626.789L194.259 626.93C194.276 625.471 194.285 624.082 194.285 622.764C194.285 620.801 194.268 619.014 194.232 617.402L196.298 617.323L196.28 618.554C196.796 617.886 197.719 617.499 199.049 617.394ZM202.143 617.842L202.169 619.046C202.521 618.425 203.121 618.111 203.971 618.105H203.997C204.835 618.105 205.412 618.592 205.729 619.564C206.027 618.82 206.487 618.357 207.108 618.176C207.478 618.059 207.853 618 208.233 618C208.351 618 208.471 618.006 208.594 618.018C208.717 618.029 208.84 618.047 208.963 618.07C209.584 618.193 210.067 618.524 210.413 619.063C210.735 619.562 210.896 620.3 210.896 621.278V621.498C210.891 621.697 210.888 621.917 210.888 622.157V622.957C210.888 623.461 210.891 624.029 210.896 624.662C210.902 625.289 210.911 625.986 210.923 626.754L208.699 626.824C208.74 626.15 208.77 625.5 208.787 624.873C208.805 624.24 208.813 623.625 208.813 623.027C208.813 621.832 208.775 621.079 208.699 620.769C208.629 620.435 208.406 620.221 208.031 620.127C207.949 620.109 207.879 620.101 207.82 620.101C207.527 620.101 207.272 620.268 207.056 620.602C206.845 620.9 206.739 622.172 206.739 624.416C206.739 624.803 206.742 625.216 206.748 625.655C206.76 626.095 206.771 626.563 206.783 627.062L204.533 627.211C204.557 626.326 204.571 625.544 204.577 624.864C204.589 624.185 204.595 623.599 204.595 623.106C204.595 622.679 204.589 622.327 204.577 622.052C204.571 621.776 204.562 621.574 204.551 621.445C204.469 620.912 204.24 620.543 203.865 620.338C203.742 620.279 203.602 620.25 203.443 620.25C203.127 620.25 202.749 620.391 202.31 620.672L202.204 626.833L200.051 626.921C200.068 625.907 200.077 624.797 200.077 623.59C200.077 622.74 200.071 621.853 200.06 620.927C200.054 620.001 200.045 619.022 200.033 617.991L202.143 617.842ZM215.15 619.556H215.142C214.497 619.567 214.146 619.749 214.087 620.101C214.069 620.165 214.061 620.227 214.061 620.285C214.061 620.678 214.336 621 214.887 621.252C216.791 621.838 217.84 622.541 218.033 623.361C218.109 623.625 218.147 623.903 218.147 624.196C218.147 624.63 218.057 625.058 217.875 625.479C217.576 626.183 216.943 626.646 215.977 626.868C215.572 626.956 215.18 627 214.799 627C214.26 627 213.753 626.909 213.278 626.728C212.452 626.417 211.975 626.142 211.846 625.901L212.856 624.196C213.606 624.771 214.292 625.058 214.913 625.058H215.01C215.684 625.005 216.053 624.771 216.117 624.354V624.275C216.117 623.783 215.631 623.394 214.658 623.106C213.621 622.802 212.88 622.351 212.435 621.753C212.13 621.354 211.978 620.892 211.978 620.364C211.978 620.106 212.019 619.822 212.101 619.512C212.329 618.627 212.842 618.062 213.639 617.815C214.078 617.681 214.523 617.613 214.975 617.613C215.32 617.613 215.684 617.654 216.064 617.736C216.762 617.877 217.371 618.164 217.893 618.598L216.979 620.206C216.369 619.772 215.76 619.556 215.15 619.556Z" fill="#FF6600"/>
<path d="M129 629.566H218.622V630.885H129V629.566Z" fill="#FF6600"/>
</g>
<defs>
<linearGradient id="paint0_linear" x1="180" y1="0" x2="180" y2="640" gradientUnits="userSpaceOnUse">
<stop stop-color="#14CC6F"/>
<stop offset="1" stop-color="#01180D"/>
</linearGradient>
<clipPath id="clip0">
<rect width="360" height="640" fill="white"/>
</clipPath>
</defs>
</svg>
