<svg width="36" height="34" viewBox="0 0 36 34" fill="none" xmlns="http://www.w3.org/2000/svg">
<rect x="3" y="3" width="30" height="28" fill="black"/>
<path fill-rule="evenodd" clip-rule="evenodd" d="M5.42449 0.477201C2.46575 0.672036 -0.233356 2.91147 0.0172548 5.84563C0.75188 14.4466 0.596565 21.6588 0.0172548 28.2094C-0.242166 31.1428 2.46386 33.4151 5.42449 33.5791C14.3247 34.0721 22.8013 34.2046 30.3875 33.5791C33.3426 33.3355 35.6092 31.1484 35.7934 28.2094C36.1757 22.1097 35.9374 13.4569 35.7934 5.84563C35.7377 2.90146 33.3453 0.685186 30.3875 0.477201C23.2912 -0.0217882 16.9699 -0.283071 5.42449 0.477201ZM5.42449 3.9242C13.8195 4.0248 22.272 2.58864 30.3875 3.9242C31.475 4.10316 32.2809 4.75173 32.3224 5.84563C32.6092 13.4159 33.2663 21.3235 32.3224 28.2094C32.1737 29.294 31.4823 30.0047 30.3875 30.1321C20.1079 31.3291 13.5202 30.2698 5.42449 30.1321C4.32234 30.1134 3.40472 29.3009 3.4883 28.2094C3.93114 22.4259 3.98609 15.1787 3.4883 5.84563C3.42999 4.75248 4.32226 3.91099 5.42449 3.9242Z" fill="white"/>
</svg>
