<?xml version="1.0" encoding="UTF-8" standalone="no"?>
<!-- Generator: Adobe Illustrator 16.0.0, SVG Export Plug-In . SVG Version: 6.00 Build 0)  -->

<svg
   xmlns:dc="http://purl.org/dc/elements/1.1/"
   xmlns:cc="http://creativecommons.org/ns#"
   xmlns:rdf="http://www.w3.org/1999/02/22-rdf-syntax-ns#"
   xmlns:svg="http://www.w3.org/2000/svg"
   xmlns="http://www.w3.org/2000/svg"
   xmlns:sodipodi="http://sodipodi.sourceforge.net/DTD/sodipodi-0.dtd"
   xmlns:inkscape="http://www.inkscape.org/namespaces/inkscape"
   version="1.1"
   id="Capa_1"
   x="0px"
   y="0px"
   width="371.10156"
   height="172.11914"
   viewBox="0 0 371.10153 172.11913"
   xml:space="preserve"
   sodipodi:docname="capivaralogo-white.svg"
   inkscape:version="0.92.4 (5da689c313, 2019-01-14)"><metadata
   id="metadata49"><rdf:RDF><cc:Work
       rdf:about=""><dc:format>image/svg+xml</dc:format><dc:type
         rdf:resource="http://purl.org/dc/dcmitype/StillImage" /><dc:title></dc:title></cc:Work></rdf:RDF></metadata><defs
   id="defs47" /><sodipodi:namedview
   pagecolor="#ffffff"
   bordercolor="#666666"
   borderopacity="1"
   objecttolerance="10"
   gridtolerance="10"
   guidetolerance="10"
   inkscape:pageopacity="0"
   inkscape:pageshadow="2"
   inkscape:window-width="1366"
   inkscape:window-height="705"
   id="namedview45"
   showgrid="false"
   inkscape:pagecheckerboard="true"
   units="px"
   inkscape:zoom="1"
   inkscape:cx="153.29326"
   inkscape:cy="15.267669"
   inkscape:window-x="-8"
   inkscape:window-y="-8"
   inkscape:window-maximized="1"
   inkscape:current-layer="Capa_1"
   inkscape:snap-global="false"
   showguides="false"
   inkscape:guide-bbox="true"
   inkscape:snap-bbox="true"
   inkscape:bbox-paths="true"
   inkscape:bbox-nodes="true"
   inkscape:snap-bbox-midpoints="true"
   inkscape:snap-bbox-edge-midpoints="true"
   inkscape:object-paths="true"
   inkscape:snap-intersection-paths="true"
   inkscape:snap-smooth-nodes="true"
   fit-margin-top="0"
   fit-margin-left="0"
   fit-margin-right="0"
   fit-margin-bottom="0" />

<g
   id="g14"
   transform="translate(-75.127133,741.31393)">
</g>
<g
   id="g16"
   transform="translate(-75.127133,741.31393)">
</g>
<g
   id="g18"
   transform="translate(-75.127133,741.31393)">
</g>
<g
   id="g20"
   transform="translate(-75.127133,741.31393)">
</g>
<g
   id="g22"
   transform="translate(-75.127133,741.31393)">
</g>
<g
   id="g24"
   transform="translate(-75.127133,741.31393)">
</g>
<g
   id="g26"
   transform="translate(-75.127133,741.31393)">
</g>
<g
   id="g28"
   transform="translate(-75.127133,741.31393)">
</g>
<g
   id="g30"
   transform="translate(-75.127133,741.31393)">
</g>
<g
   id="g32"
   transform="translate(-75.127133,741.31393)">
</g>
<g
   id="g34"
   transform="translate(-75.127133,741.31393)">
</g>
<g
   id="g36"
   transform="translate(-75.127133,741.31393)">
</g>
<g
   id="g38"
   transform="translate(-75.127133,741.31393)">
</g>
<g
   id="g40"
   transform="translate(-75.127133,741.31393)">
</g>
<g
   id="g42"
   transform="translate(-75.127133,741.31393)">
</g>








































<g
   id="g3970"
   style="fill:#ffffff"
   transform="translate(-6.3828125,-8.5878906)"><path
     id="path7214"
     d="m 178.23242,105.67188 -4.68945,15.4121 -9.56641,-13.44531 -9.50781,14.78906 -6.3125,-15.89257 -31.625,18.28515 3.71484,7.11133 21.7793,41.69922 22.58008,-3.06641 1.1543,-2.68945 22.11718,4.54688 2.42188,-4.73047 17.9082,5.74609 4.39844,-9.06641 0.0625,-0.01 4.90625,9.62695 13.26367,-6.18164 c 0.16593,0.21478 0.23595,0.37327 0.46484,0.62109 1.16144,1.25732 7.24288,2.62322 7.24415,2.62305 l 18.57617,-2.43555 10.06054,12.0918 16.5625,-14.5957 3.27149,8.91406 11.29883,-0.60351 c 8.13086,-0.43471 14.77769,-1.53292 20.43945,-4.03907 5.66176,-2.50618 10.55998,-7.16153 12.28906,-13.10937 1.12441,-3.8679 1.06055,-7.52632 0.50196,-11.11914 -0.55861,-3.59286 -1.49712,-7.04459 -4.08204,-10.4336 -0.39826,-0.52215 -0.87294,-1.05337 -1.40429,-1.57422 l -4.87891,-25.7207 h -6.93555 c -7.30221,0 -13.66913,1.80028 -19.26367,3.20899 l -0.29883,0.0742 -0.29297,0.0977 c -4.41683,1.4646 -8.35747,3.44694 -11.55468,6.33008 -6.51113,-4.80263 -15.1479,-7.05252 -25.81055,-8.73438 -2.98083,-0.47017 -6.69756,-0.94644 -9.80859,-1.29101 -1.55552,-0.17228 -2.94033,-0.31134 -4.07032,-0.39844 -0.565,-0.0435 -1.04385,-0.0749 -1.60546,-0.0879 -0.28081,-0.006 -0.55226,-0.0192 -1.10547,0.0195 -0.27659,0.0194 -0.60272,0.0339 -1.29688,0.18555 -0.69415,0.1516 -1.94587,-0.46392 -4.69726,2.8457 -1.77096,2.12997 -1.4433,2.49355 -1.56836,2.89844 -0.12507,0.4049 -0.16459,0.60256 -0.19922,0.76562 -0.0693,0.32612 -0.09,0.47462 -0.11133,0.61719 -0.0426,0.28515 -0.0636,0.48274 -0.0898,0.71485 -0.0523,0.4642 -0.10702,1.01023 -0.16993,1.68945 -0.1258,1.35845 -0.28394,3.2159 -0.46484,5.43164 -0.0576,0.70527 -0.13561,1.79331 -0.19727,2.56445 L 224,109.98438 l -23.40625,0.42578 -2.58008,6.10156 z m 63.11524,10.32421 c 1.94934,0.0449 9.5192,0.91213 14.37304,1.67774 10.62742,1.67631 19.15328,4.5969 23.13672,7.92578 3.14369,2.56238 4.09074,6.47261 3.87305,8.99805 -0.69396,8.05055 -5.24139,13.05946 -11.63867,15.57226 l 10.31836,6.83594 -13.29883,11.7207 -12.34766,-14.83984 -0.041,6.46484 -18.26563,2.39649 c -0.32436,0.0426 3.15156,-46.38932 3.42383,-46.7168 0.0248,-0.0298 0.18832,-0.0416 0.4668,-0.0352 z m 72.89843,0.80469 2.91797,15.38086 -5.55468,0.21094 c -4.26468,0.16273 -5.92771,0.39527 -7.16602,1 -3.93859,1.9234 -1.36209,3.46255 6.55273,3.91406 5.90697,0.33693 7.95786,1.06769 9.8086,3.49414 2.40024,3.14689 3.44231,9.84991 2.19726,14.13281 -1.96159,6.74762 -10.02415,10.31738 -25.13086,11.125 l -5.12304,0.27344 -5.95508,-16.22461 c 3.33278,0.17257 6.74692,0.55594 10.21875,0.58789 9.2072,0.0626 8.33602,-2.79847 -1.34961,-4.43359 -4.74641,-0.80125 -6.21154,-1.33196 -8.12891,-2.94531 -1.85631,-1.56201 -2.94259,-4.20644 -3.21679,-7.83203 -0.58752,-7.76847 3.33342,-12.61899 12.71093,-15.72852 5.67588,-1.42919 11.37409,-2.95508 17.21875,-2.95508 z m -131,1.16797 18.03711,9.88477 -17.95898,35.08203 -14.89063,-3.06055 -3.5625,-11.16211 -6.09179,14.18945 -12.05274,1.63672 -19.05664,-36.48437 16.2832,-9.41407 8.7461,22.02149 11.6289,-18.08399 12.26954,17.24805 z m 35.61133,0.48633 18.4375,37.10156 -15.92969,7.42383 -4.04882,-7.93945 -10.37696,1.82421 -3.09375,6.37696 -14.52539,-4.66211 16.86719,-39.89453 z m 65.29102,0.65234 0.0801,0.0664 c -0.014,-0.0117 -0.0308,-0.0214 -0.0449,-0.0332 -0.0128,-0.0105 -0.0222,-0.0227 -0.0351,-0.0332 z m -30.10352,11.85742 v 5.9375 c 2.63143,0.36395 13.43528,0.0247 13.40039,-2.16992 -0.0448,-2.81921 -11.01113,-3.60087 -13.40039,-3.76758 z m -40.88281,5.09961 -2.44531,5.82227 4.29882,0.0449 z"
     style="color:#000000;font-style:normal;font-variant:normal;font-weight:normal;font-stretch:normal;font-size:medium;line-height:normal;font-family:sans-serif;font-variant-ligatures:normal;font-variant-position:normal;font-variant-caps:normal;font-variant-numeric:normal;font-variant-alternates:normal;font-feature-settings:normal;text-indent:0;text-align:start;text-decoration:none;text-decoration-line:none;text-decoration-style:solid;text-decoration-color:#000000;letter-spacing:normal;word-spacing:normal;text-transform:none;writing-mode:lr-tb;direction:ltr;text-orientation:mixed;dominant-baseline:auto;baseline-shift:baseline;text-anchor:start;white-space:normal;shape-padding:0;clip-rule:nonzero;display:inline;overflow:visible;visibility:visible;opacity:1;isolation:auto;mix-blend-mode:normal;color-interpolation:sRGB;color-interpolation-filters:linearRGB;solid-color:#000000;solid-opacity:1;vector-effect:none;fill:#ffffff;fill-opacity:1;fill-rule:nonzero;stroke:none;stroke-width:16.75032997;stroke-linecap:butt;stroke-linejoin:miter;stroke-miterlimit:4;stroke-dasharray:none;stroke-dashoffset:0;stroke-opacity:1;color-rendering:auto;image-rendering:auto;shape-rendering:auto;text-rendering:auto;enable-background:accumulate"
     inkscape:connector-curvature="0" /><path
     id="path7145"
     d="m 164.98438,8.5878906 -3.66016,7.9492184 -0.63867,1.390625 -6.90625,14.988282 1.99804,1.443359 -48.16211,-10.40625 0.35547,10.730469 0.0625,1.875 0.21485,6.695312 -20.486331,-19.126953 -5.689453,4.875 -0.996094,0.855469 L 66.123047,42.679688 61.6875,21.601562 52.677734,24.773438 50.451172,25.556641 7.5878906,40.642578 6.3828125,107.87695 l 59.9589845,7.26563 3.039062,-15.587892 40.998051,10.142582 0.11914,3.71679 18.59179,0.36524 16.66993,-10.03321 -1.98243,-13.017574 14.30469,-3.423828 -0.18945,18.976562 36.47656,-18.199219 -2.25391,-18.433593 30,41.033202 8.42383,-21.796874 -1.01562,8.240234 51.96484,12.85547 0.45117,5.01758 32.60938,-21.650394 -1.15039,-29.52539 9.41015,1.978515 -3.85937,31.324219 56.77344,14.04492 1.76172,-58.720701 -30.33204,-28.322266 -5.68945,4.875 -0.99805,0.855469 -6.2832,5.388672 0.7832,-7.095703 -30.60742,-1.351563 -1.07031,0.785156 -3.76953,-6.902343 -6.1875,1.425781 -19.61719,4.52539 0.85742,8.615235 0.50391,5.074219 -17.34961,-16.199219 -5.68945,4.880859 -0.9961,0.853516 -9.41211,8.072266 -22.37695,-6.66211 -2.52539,6.972656 -3.70508,-8.675781 -7.08398,1.996094 -1.23828,0.349609 -16.6211,4.685547 -0.3164,-2.587891 6.1289,-10.546874 z m 3.94921,11.4511714 13.28321,6.835938 -6.11133,10.517578 3.57422,-0.455078 5.6582,46.289062 -18.93359,9.449219 0.52929,-52.839843 0.0117,-1.277344 7.58399,-0.966797 -10.26172,-7.425781 4.02539,-8.736328 z m 126.27735,10.230469 5.31054,9.720703 6.40821,-4.693359 18.72851,0.826172 -2.34375,21.226562 -16.4082,-3.451171 -2.00977,6.847656 1.09961,28.226562 -16.97656,11.271484 -4.13476,-45.884765 -1.98047,-19.939453 -0.12696,-1.283203 z m -239.751956,2.402344 6.28711,29.882813 -20.966797,1.972656 -1.955078,16.74414 26.050781,-2.382812 -5.261719,27.001948 -44.722656,-5.41796 0.966797,-53.861332 37.375,-13.154297 z m 60.882816,1.734375 33.66406,7.275391 5.82617,37.548828 -21.49609,5.146484 2.30078,15.085938 -9.79492,5.894529 -8.22852,-0.16211 -2.20898,-68.910154 z m -28.818362,0.955078 22.085942,20.623047 -1.33594,44.564455 -39.494143,-9.771486 2.851562,-23.140625 20.646485,-9.464844 -3.259766,-3.277344 -12.044922,9.8125 -9.941406,-11.773437 19.496094,-16.71875 z m 169.964842,0 22.08789,20.623047 -1.33789,44.564455 -39.49414,-9.771486 2.85156,-23.140625 20.64649,-9.464844 -3.25977,-3.277344 -12.04492,9.8125 -9.94141,-11.773437 19.4961,-16.71875 z m 89.42383,0 L 369,55.984375 l -1.33789,44.564455 -39.49219,-9.771486 2.85156,-23.140625 20.64454,-9.464844 -3.25977,-3.277344 -12.04492,9.8125 -9.94141,-11.773437 19.4961,-16.71875 z m -189.36914,0.277344 1.04883,0.759766 -0.0332,3.355468 -0.0234,2.283203 z m 50.66601,3.982422 9.15821,21.443359 7.0664,-19.515625 13.83008,4.119141 -18.43555,47.697265 -34.5625,-47.27539 21.70313,-6.119141 z m -75.24023,12.736328 1.87695,12.898437 4.2793,-1.808593 -2.04883,-9.708985 z m -46.943359,22.361328 -1.40625,4.103516 6.402343,1.96875 1.072266,-5.744141 z m 169.964839,0 -1.40625,4.103516 6.40235,1.96875 1.07422,-5.744141 z m 89.42383,0 -1.40625,4.103516 6.40235,1.96875 1.07422,-5.744141 z"
     style="color:#000000;font-style:normal;font-variant:normal;font-weight:normal;font-stretch:normal;font-size:medium;line-height:normal;font-family:sans-serif;font-variant-ligatures:normal;font-variant-position:normal;font-variant-caps:normal;font-variant-numeric:normal;font-variant-alternates:normal;font-feature-settings:normal;text-indent:0;text-align:start;text-decoration:none;text-decoration-line:none;text-decoration-style:solid;text-decoration-color:#000000;letter-spacing:normal;word-spacing:normal;text-transform:none;writing-mode:lr-tb;direction:ltr;text-orientation:mixed;dominant-baseline:auto;baseline-shift:baseline;text-anchor:start;white-space:normal;shape-padding:0;clip-rule:nonzero;display:inline;overflow:visible;visibility:visible;opacity:1;isolation:auto;mix-blend-mode:normal;color-interpolation:sRGB;color-interpolation-filters:linearRGB;solid-color:#000000;solid-opacity:1;vector-effect:none;fill:#ffffff;fill-opacity:1;fill-rule:nonzero;stroke:none;stroke-width:16.75032997;stroke-linecap:butt;stroke-linejoin:miter;stroke-miterlimit:4;stroke-dasharray:none;stroke-dashoffset:0;stroke-opacity:1;color-rendering:auto;image-rendering:auto;shape-rendering:auto;text-rendering:auto;enable-background:accumulate"
     inkscape:connector-curvature="0" /></g></svg>