<?xml version="1.0" encoding="UTF-8" standalone="no"?>
<!-- Created with Inkscape (http://www.inkscape.org/) -->

<svg
   xmlns:dc="http://purl.org/dc/elements/1.1/"
   xmlns:cc="http://creativecommons.org/ns#"
   xmlns:rdf="http://www.w3.org/1999/02/22-rdf-syntax-ns#"
   xmlns:svg="http://www.w3.org/2000/svg"
   xmlns="http://www.w3.org/2000/svg"
   xmlns:sodipodi="http://sodipodi.sourceforge.net/DTD/sodipodi-0.dtd"
   xmlns:inkscape="http://www.inkscape.org/namespaces/inkscape"
   width="60"
   height="59.999992"
   viewBox="0 0 15.875 15.874998"
   version="1.1"
   id="svg8"
   inkscape:version="0.92.4 (5da689c313, 2019-01-14)"
   sodipodi:docname="capii_player_brown.svg">
  <defs
     id="defs2" />
  <sodipodi:namedview
     id="base"
     pagecolor="#ffffff"
     bordercolor="#666666"
     borderopacity="1.0"
     inkscape:pageopacity="0.0"
     inkscape:pageshadow="2"
     inkscape:zoom="2.8"
     inkscape:cx="-6.5722166"
     inkscape:cy="54.416646"
     inkscape:document-units="px"
     inkscape:current-layer="layer1"
     showgrid="false"
     inkscape:pagecheckerboard="true"
     inkscape:window-width="1366"
     inkscape:window-height="705"
     inkscape:window-x="-8"
     inkscape:window-y="-8"
     inkscape:window-maximized="1"
     units="px"
     showborder="true"
     fit-margin-top="0"
     fit-margin-left="0"
     fit-margin-right="0"
     fit-margin-bottom="0"
     inkscape:snap-global="false"
     inkscape:showpageshadow="false"
     showguides="true"
     inkscape:guide-bbox="true"
     inkscape:snap-bbox="true"
     inkscape:bbox-paths="true"
     inkscape:bbox-nodes="true"
     inkscape:snap-bbox-midpoints="true"
     inkscape:snap-bbox-edge-midpoints="true"
     inkscape:object-paths="true"
     inkscape:snap-intersection-paths="true"
     inkscape:snap-smooth-nodes="true"
     inkscape:snap-midpoints="true"
     inkscape:snap-object-midpoints="true" />
  <metadata
     id="metadata5">
    <rdf:RDF>
      <cc:Work
         rdf:about="">
        <dc:format>image/svg+xml</dc:format>
        <dc:type
           rdf:resource="http://purl.org/dc/dcmitype/StillImage" />
        <dc:title></dc:title>
      </cc:Work>
    </rdf:RDF>
  </metadata>
  <g
     inkscape:label="Camada 1"
     inkscape:groupmode="layer"
     id="layer1"
     transform="translate(-37.154297,-66.904299)">
    <text
       xml:space="preserve"
       style="font-style:normal;font-variant:normal;font-weight:normal;font-stretch:normal;font-size:18.90994835px;line-height:1.25;font-family:'Arial Rounded MT Bold';-inkscape-font-specification:'Arial Rounded MT Bold, Normal';font-variant-ligatures:normal;font-variant-position:normal;font-variant-caps:normal;font-variant-numeric:normal;font-variant-alternates:normal;font-feature-settings:normal;text-indent:0;text-align:start;text-decoration:none;text-decoration-line:none;text-decoration-style:solid;text-decoration-color:#000000;letter-spacing:0px;word-spacing:0px;text-transform:none;writing-mode:lr-tb;direction:ltr;text-orientation:mixed;dominant-baseline:auto;baseline-shift:baseline;text-anchor:start;white-space:normal;shape-padding:0;opacity:1;vector-effect:none;fill:#4d4d4d;fill-opacity:1;stroke:none;stroke-width:0.4727506;stroke-linecap:butt;stroke-linejoin:miter;stroke-miterlimit:4;stroke-dasharray:none;stroke-dashoffset:0;stroke-opacity:1"
       x="68.420998"
       y="131.29288"
       id="text3995"><tspan
         sodipodi:role="line"
         id="tspan3993"
         x="68.420998"
         y="148.33374"
         style="stroke-width:0.4727506" /></text>
    <g
       id="g3979">
      <rect
         ry="0.64666623"
         y="69.871712"
         x="37.605068"
         height="12.452721"
         width="14.974661"
         id="rect4165"
         style="opacity:1;fill:#37483e;fill-opacity:0.70196078;stroke:none;stroke-width:0.9048512;stroke-miterlimit:4;stroke-dasharray:none;stroke-opacity:1" />
      <path
         inkscape:connector-curvature="0"
         id="rect3958"
         d="m 38.246094,69.41719 c -0.596296,0 -1.091797,0.498533 -1.091797,1.100851 v 11.160406 c 0,0.602318 0.495501,1.10085 1.091797,1.10085 h 13.693359 c 0.596296,0 1.089844,-0.498532 1.089844,-1.10085 V 70.518041 c 0,-0.602318 -0.493548,-1.100851 -1.089844,-1.100851 z m 0,0.909484 h 13.693359 c 0.113082,0 0.189453,0.07714 0.189453,0.191367 v 11.160406 c 0,0.114224 -0.07637,0.191366 -0.189453,0.191366 H 38.246094 c -0.113082,0 -0.191406,-0.07714 -0.191406,-0.191366 V 70.518041 c 0,-0.114225 0.07832,-0.191367 0.191406,-0.191367 z"
         style="color:#000000;font-style:normal;font-variant:normal;font-weight:normal;font-stretch:normal;font-size:medium;line-height:normal;font-family:sans-serif;font-variant-ligatures:normal;font-variant-position:normal;font-variant-caps:normal;font-variant-numeric:normal;font-variant-alternates:normal;font-feature-settings:normal;text-indent:0;text-align:start;text-decoration:none;text-decoration-line:none;text-decoration-style:solid;text-decoration-color:#000000;letter-spacing:normal;word-spacing:normal;text-transform:none;writing-mode:lr-tb;direction:ltr;text-orientation:mixed;dominant-baseline:auto;baseline-shift:baseline;text-anchor:start;white-space:normal;shape-padding:0;clip-rule:nonzero;display:inline;overflow:visible;visibility:visible;opacity:1;isolation:auto;mix-blend-mode:normal;color-interpolation:sRGB;color-interpolation-filters:linearRGB;solid-color:#000000;solid-opacity:1;vector-effect:none;fill:#ffffff;fill-opacity:1;fill-rule:nonzero;stroke:none;stroke-width:0.90487349;stroke-linecap:butt;stroke-linejoin:miter;stroke-miterlimit:4;stroke-dasharray:none;stroke-dashoffset:0;stroke-opacity:1;color-rendering:auto;image-rendering:auto;shape-rendering:auto;text-rendering:auto;enable-background:accumulate" />
      <g
         transform="matrix(1.0317513,0,0,1.0421194,-1.9370928,-3.6921313)"
         id="g3956">
        <path
           inkscape:connector-curvature="0"
           style="fill:#cd7330;stroke-width:0.01293108"
           d="m 48.134865,67.74313 v 0.193878 0.19401 h -0.19388 -0.19401 v 0.19401 0.193878 h -0.19401 -0.193877 v 0.19401 0.194009 h -0.19401 -0.19401 v 0.387889 0.387888 h -0.387889 -0.387887 v 0.19401 0.19401 h -0.581897 -0.581899 v 0.193878 0.19401 h -0.38802 -0.387888 v 0.19401 0.193878 h -0.387889 -0.38802 v 0.19401 0.19401 h -0.387888 -0.387888 v 0.193878 0.19401 h -0.38802 -0.387888 v 0.19401 0.193879 h -0.19401 -0.193878 v 0.194009 0.194011 h -0.19401 -0.19401 v 0.193877 0.194011 h -0.193878 -0.194011 v 0.19401 0.193878 H 40.570189 40.37631 v 0.19401 0.19401 H 40.182301 39.98829 v 0.969786 0.969786 h 0.194011 0.194009 v 0.19401 0.19401 h 0.193879 0.194009 v 0.387888 0.387889 h 0.194011 0.193878 v 0.194009 0.19401 h 0.19401 0.19401 v 0.193878 0.194011 h 0.193878 0.19401 v 0.19401 0.193878 h 1.745694 1.745695 v -0.193878 -0.19401 h 0.387888 0.38802 v 2.133582 2.133715 h 0.193877 0.19401 v 0.395141 h 5.818983 v -0.783161 -5.430962 h -0.38789 -0.38802 v -0.19401 -0.19401 h -0.193877 -0.19401 v -0.193878 -0.19401 h -0.19401 -0.193879 v -1.939704 -1.939573 h -0.19401 -0.19401 V 70.65262 70.070722 h 0.19401 0.19401 v -0.581898 -0.581899 h -0.581897 -0.581897 v 0.193879 0.19401 h -0.19401 -0.19401 v 0.19401 0.193878 h -0.19388 -0.19401 v -0.775777 -0.775907 h -0.19401 -0.193877 v -0.19401 -0.193878 h -0.19401 z"
           id="path4142" />
        <path
           inkscape:connector-curvature="0"
           style="fill:#b05a1b;stroke-width:0.01293108"
           d="m 48.522885,68.131018 v 0.19401 0.193878 h -0.19401 -0.19401 v 0.19401 0.194009 h -0.19388 -0.19401 v 0.387889 0.387888 h -0.19401 v 0.38802 h 1.745697 v -0.19401 -0.19401 h -0.19388 -0.19401 v -0.775777 -0.775907 h -0.19401 z m 0.775777,1.939704 v 0.193878 0.19401 h -1.163797 -1.163797 v 0.19401 0.193878 h 0.38802 0.387887 v 0.19401 0.19401 h 0.19401 0.19388 v 0.193878 0.19401 h -0.19388 -0.19401 v -0.19401 -0.193878 h -0.581897 -0.581899 v 0.193878 0.19401 h -0.19401 -0.193877 v 0.19401 0.193879 h -0.19401 -0.19401 v -0.193879 -0.19401 h -0.193877 -0.194011 v -0.19401 -0.193878 h -0.19401 -0.193878 v 0.193878 0.19401 h -0.38802 -0.387888 v 0.19401 0.193879 h -0.387889 -0.38802 v 0.194009 0.194011 h -0.387888 -0.387888 v 0.193877 0.194011 h -0.19401 -0.19401 v 0.19401 0.193878 h -0.193878 -0.19401 v 0.19401 0.19401 h 0.19401 0.193878 v 0.193878 0.19401 h -0.387888 -0.387888 v 0.775908 0.775776 h 0.193878 0.19401 v 0.38802 0.387888 h 0.387888 0.38802 v 0.19401 0.193879 h 1.939573 1.939703 v 0.194009 0.19401 h 0.194012 0.193877 v 0.194011 0.193878 h 0.19401 0.19401 v 2.133714 2.133583 h 0.193877 0.19401 v 0.387888 0.0072 h 4.655187 v -1.171045 -5.043073 h -0.38789 -0.38802 v -0.19401 -0.19401 h -0.193877 -0.19401 v -0.193878 -0.19401 h -0.19401 -0.193879 V 73.174043 71.23447 h -0.19401 -0.19401 v -0.58185 -0.581898 h 0.19401 0.19401 v -0.38802 h -0.775907 -0.387887 v 0.19401 0.19401 h -0.19401 z"
           id="path4144" />
        <path
           inkscape:connector-curvature="0"
           style="fill:#793c0f;stroke-width:0.01293108"
           d="m 48.522885,68.131018 v 0.387888 h -0.19401 -0.19401 v 0.19401 0.194009 h -0.19388 -0.19401 v 0.387889 0.387888 h -0.19401 -0.135186 c 2.02e-4,0.01947 -0.0037,0.03975 -0.0013,0.05882 1.35e-4,0.04185 -1.35e-4,0.08371 -5.1e-4,0.125559 0,0.05556 0.0038,0.111263 -0.0013,0.166709 0.0042,0.01228 0.0083,0.02457 0.01228,0.03693 h 0.319832 1.551684 V 69.87671 69.6827 h -0.193852 -0.19401 v -0.775777 -0.775907 h -0.19401 z m 0.775777,1.939704 v 0.775776 0.775908 h 0.19401 0.19401 v 1.357807 1.357674 h 0.193877 0.19401 v 0.581898 0.581898 h 0.19401 0.193877 v 0.38802 0.387888 h 0.19401 0.19401 v 0.19401 0.193879 h 0.193879 0.19401 v 0.194009 0.19401 h 0.387887 0.38802 v 0.194011 0.193878 h 0.19388 0.19401 V 76.66548 75.889703 h -0.38789 -0.38802 v -0.19401 -0.19401 h -0.193877 -0.19401 v -0.193878 -0.19401 h -0.19401 -0.193879 v -1.939704 -1.939573 h -0.19401 -0.19401 V 70.65262 70.070722 h 0.38802 v -0.38802 h -0.775907 -0.387887 v 0.19401 0.19401 h -0.19401 z m -2.715483,1.163796 v 0.193878 0.19401 h -0.19401 -0.193877 v 0.387889 0.38802 h 0.775776 0.775907 v 0.193877 0.194011 h 0.38789 0.38802 v -0.581899 -0.581898 h -0.38802 -0.38789 v -0.19401 -0.193878 h -0.581897 z m -5.043072,2.715481 v 0.581898 0.581898 h 0.581898 0.581898 v -0.387888 -0.38802 h -0.19401 -0.19401 v -0.193878 -0.19401 H 41.927995 Z M 50.850476,80.157 v 0.387888 0.387888 h -0.19401 -0.19401 v 1.17105 h 1.163796 v -0.395141 h 0.19401 0.19401 V 80.932776 80.157 h -0.581897 z"
           id="path4146" />
        <path
           sodipodi:nodetypes="cccccccccccccccccccccccccccccccccccccccccccccccccccccccccccccccccccccccccccccccccccccccccccccccccccccc"
           inkscape:connector-curvature="0"
           d="m 44.657899,72.010356 v 0.387932 0.387933 h 0.193966 0.193966 v 0.193966 0.193966 h 0.193966 0.193966 v 0.193966 0.193967 h 0.193967 0.193966 v 0.193966 0.193966 h 0.193966 0.193966 v 0.387932 0.387933 h 0.193966 0.193967 v 0.193966 0.193966 h 0.193966 0.193966 v 0.193966 0.193967 h 0.193966 0.193966 V 75.113815 74.725883 H 47.179459 46.985493 V 74.33795 73.950018 H 46.791527 46.597561 V 73.562086 73.174153 H 46.403594 46.209628 V 72.980187 72.786221 H 46.015662 45.821696 V 72.592255 72.398288 H 45.62773 45.433763 v -0.193966 -0.193966 h -0.387932 z m -1.163797,0.775865 v 0.387932 0.387933 h 0.193966 0.193966 v 0.193966 0.193966 H 44.076 44.269966 v 0.193966 0.193966 h 0.193967 0.193966 v 0.193967 0.193966 h 0.193966 0.193966 v 0.387932 0.387933 h 0.193966 0.193966 v 0.193966 0.193966 h 0.387933 0.387932 V 75.501748 75.113815 H 46.015662 45.821696 V 74.725883 74.33795 H 45.62773 45.433763 v -0.193966 -0.193966 h -0.193966 -0.193966 v -0.193966 -0.193966 h -0.193966 -0.193966 v -0.193967 -0.193966 h -0.193966 -0.193967 v -0.193966 -0.193966 h -0.387932 z"
           style="fill:#38cd06;stroke-width:0.01293108"
           id="path4148" />
        <path
           sodipodi:nodetypes="cccccccccccccccccccccccccccccccccccccccccccccccccccccccccccccccccccccccccccccccccccccccccccccccccccccccc"
           inkscape:connector-curvature="0"
           d="m 44.657899,72.010356 v 0.193966 0.193966 h 0.193966 0.193966 v 0.193967 0.193966 h 0.193966 0.193966 v 0.193966 0.193966 h 0.193967 0.193966 v 0.193966 0.193967 h 0.193966 0.193966 v 0.193966 0.193966 h 0.193966 0.193967 V 73.562086 73.174153 H 46.403594 46.209628 V 72.980187 72.786221 H 46.015662 45.821696 V 72.592255 72.398288 H 45.62773 45.433763 v -0.193966 -0.193966 h -0.387932 z m 1.939662,1.939662 v 0.387932 0.387933 h 0.193966 0.193966 V 74.33795 73.950018 h -0.193966 z m 0.387932,0.775865 v 0.193966 0.193966 h 0.193966 0.193966 v -0.193966 -0.193966 h -0.193966 z m -3.491391,-1.939662 v 0.193966 0.193966 h 0.193966 0.193966 v 0.193966 0.193967 H 44.076 44.269966 v 0.193966 0.193966 h 0.193967 0.193966 v 0.193966 0.193966 h 0.193966 0.193966 v 0.193967 0.193966 h 0.193966 0.193966 v 0.387932 0.387933 h 0.387933 0.387932 V 75.307781 75.113815 H 46.015662 45.821696 V 74.725883 74.33795 H 45.62773 45.433763 v -0.193966 -0.193966 h -0.193966 -0.193966 v -0.193966 -0.193966 h -0.193966 -0.193966 v -0.193967 -0.193966 h -0.193966 -0.193967 v -0.193966 -0.193966 h -0.387932 z"
           style="fill:#2c850f;stroke-width:0.01293108"
           id="path4150" />
        <path
           inkscape:connector-curvature="0"
           style="fill:#000000;stroke-width:0.01293108"
           d="m 48.134865,67.74313 v 0.193878 0.19401 h 0.19401 0.19401 v -0.19401 -0.193878 h -0.19401 z m 0.38802,0.387888 v 0.775907 0.775777 h -0.5819 -0.581897 v -0.387888 -0.387889 h -0.19401 -0.19401 v 0.387889 0.387888 h -0.387889 -0.387887 v 0.19401 0.19401 h 1.551683 1.551687 v -0.19401 -0.19401 h -0.19388 -0.19401 v -0.775777 -0.775907 h -0.19401 z m 0.775777,1.551684 h 0.19401 0.19401 v -0.193878 -0.19401 h -0.19401 -0.19401 v 0.19401 z m 0.38802,-0.387888 h 0.387887 0.387887 v 0.387888 0.38802 h 0.19401 0.19401 v -0.581898 -0.581899 h -0.581897 -0.581897 v 0.193879 z m 0.775774,0.775908 h -0.193877 -0.19401 v 0.581898 0.581898 h 0.19401 0.193877 V 70.65262 Z m 0,1.163796 v 1.939573 1.939704 h 0.19401 0.19401 v -1.939704 -1.939573 h -0.19401 z m 0.38802,3.879277 v 0.19401 0.193878 h 0.193879 0.19401 v -0.193878 -0.19401 h -0.19401 z m 0.387889,0.387888 v 0.19401 0.19401 h 0.19401 0.193877 v -0.19401 -0.19401 h -0.193877 z m 0.387887,0.38802 v 0.193879 0.194009 h 0.38802 0.38789 v -0.194009 -0.193879 h -0.38789 z m -5.43096,-5.818981 h -0.581897 -0.581899 v 0.193878 0.19401 h 0.581899 0.581897 V 70.2646 Z m -1.163796,0.387888 h -0.38802 -0.387888 v 0.19401 0.193878 h 0.387888 0.38802 V 70.65262 Z m -0.775908,0.387888 h -0.387889 -0.38802 v 0.19401 0.19401 h 0.38802 0.387889 v -0.19401 z m -0.775909,0.38802 h -0.387888 -0.387888 v 0.193878 0.19401 h 0.387888 0.387888 v -0.19401 z m -0.775776,0.387888 h -0.38802 -0.387888 v 0.19401 0.193879 h 0.387888 0.38802 v -0.193879 z m -0.775908,0.387889 h -0.19401 -0.193878 v 0.194009 0.194011 h 0.193878 0.19401 v -0.194011 z m -0.387888,0.38802 h -0.19401 -0.19401 v 0.193877 0.194011 h 0.19401 0.19401 v -0.194011 z m -0.38802,0.387888 h -0.193878 -0.194011 v 0.19401 0.193878 h 0.194011 0.193878 v -0.193878 z m -0.387889,0.387888 H 40.570189 40.37631 v 0.19401 0.19401 h 0.193879 0.194009 v -0.19401 z m -0.387888,0.38802 H 40.182301 39.98829 v 0.969786 0.969786 h 0.194011 0.194009 v -0.969786 z m 0,1.939572 v 0.19401 0.19401 h 0.193879 0.194009 v -0.19401 -0.19401 h -0.194009 z m 0.387888,0.38802 v 0.387888 0.387889 h 0.194011 0.193878 v -0.387889 -0.387888 h -0.193878 z m 0.387889,0.775777 v 0.194009 0.19401 h 0.19401 0.19401 v -0.19401 -0.194009 h -0.19401 z m 0.38802,0.388019 v 0.193878 0.194011 h 0.193878 0.19401 v -0.194011 -0.193878 h -0.19401 z m 0.387888,0.387889 v 0.19401 0.193878 h 1.745694 1.745695 v -0.193878 -0.19401 h -1.745695 z m 3.491389,0 h 0.387888 0.38802 v -0.194011 -0.193878 h -0.38802 -0.387888 v 0.193878 z m 0.775908,0 v 2.133582 2.133715 h 0.193877 0.19401 V 79.57497 77.441388 h -0.19401 z m 0.387887,4.267297 v 0.395141 h 0.387889 v -0.395141 h -0.193877 z m 0.775909,-12.80176 h 0.193877 0.19401 v -0.194009 -0.19401 h -0.19401 -0.193877 v 0.19401 z m 0.387887,-0.388019 h 0.19401 0.19388 v -0.193878 -0.19401 h -0.19388 -0.19401 v 0.19401 z m -1.163796,2.715612 v 0.193878 0.19401 h -0.19401 -0.193877 v 0.19401 0.193879 h 0.775776 0.775907 v 0.194009 0.194011 h 0.19401 0.19388 v -0.38802 -0.387889 h -0.19388 -0.19401 v -0.19401 -0.193878 h -0.581897 z m -5.043072,2.715481 v 0.387888 0.38802 h 0.387888 0.387888 v -0.38802 -0.387888 h -0.387888 z m 7.758555,5.043073 v 2.133714 0.97704 h 0.38802 v -0.97704 -2.133714 h -0.19401 z m 1.939703,1.163796 v 0.38802 0.387888 h 0.19401 0.193877 v -0.387888 -0.38802 h -0.193877 z m 0,0.775908 h -0.19401 -0.193879 v 1.17105 h 0.387889 z"
           id="path4154" />
      </g>
    </g>
  </g>
</svg>
